<?xml version="1.0" encoding="UTF-8"?>
<!DOCTYPE svg PUBLIC "-//W3C//DTD SVG 1.1//EN" "http://www.w3.org/Graphics/SVG/1.1/DTD/svg11.dtd">
<svg xmlns="http://www.w3.org/2000/svg"
     xmlns:xlink="http://www.w3.org/1999/xlink"
     version="1.1" baseProfile="full"
     width="304.8mm" height="177.8mm"
     viewBox="0 0 3048000 1778000">
  <defs>
    <style type="text/css">
      <![CDATA[
        .str0 {stroke:red; stroke-width:1}
        .str1 {stroke:green; stroke-width:1}
        .str2 {stroke:black; stroke-width:1}
        .fil0 {fill:none}
        .fil1 {fill:black}
        .fil2 {fill:green}
        .fnt0 {text-anchor:'middle'; dominant-baseline:'central'; font-weight:normal; font-size:3pt; font-family:'Arial'; text-decoration:underline;}
      ]]>
    </style>
  </defs>
  <g id="Layer_x0020_1">
    <metadata id="CorelCorpID_0Corel-Layer"/>
    <rect class="str1" x="0" y="0" width="3.048e+06" height="1.778e+06" />
    <circle class="fil0 str1" cx="0" cy="0" r="50000" />
    <circle class="fil0 str1" cx="0" cy="0" r="50000" />
    <circle class="fil0 str1" cx="0" cy="0" r="50000" />
    <circle class="fil0 str1" cx="0" cy="0" r="50000" />
    <circle class="fil0 str1" cx="0" cy="0" r="50000" />
    <circle class="fil0 str1" cx="0" cy="0" r="50000" />
    <circle class="fil0 str1" cx="0" cy="0" r="50000" />
    <circle class="fil0 str1" cx="0" cy="0" r="50000" />
    <circle class="fil0 str1" cx="0" cy="0" r="50000" />
  </g>
  <g id="Layer_x0020_2">
    <metadata id="CorelCorpID_1Corel-Layer"/>
    <path class="fil0 str0" d="M 5149686 33134689 C 4890800 33322780, 4631915 33510872, 4373030 33698963 C 4184938 33440077, 3996847 33181192, 3808756 32922307 C 4067641 32734215, 4326527 32546124, 4585412 32358033 C 4773503 32616918, 4961595 32875803, 5149686 33134689" />
    <path class="fil0 str0" d="M 339268 7903718 C 631601 7773563, 923932 7643409, 1216258 7513257 C 1346413 7805592, 1476568 8097926, 1606724 8390261 C 1314399 8520412, 1022068 8650567, 729735 8780722 C 599579 8488387, 469423 8196053, 339268 7903718" />
    <path class="fil0 str0" d="M 979869 25629181 C 1193728 25866696, 1406576 26103087, 1620015 26340134 C 1383131 26555281, 1146539 26770752, 909830 26986092 C 696257 26748895, 482727 26511746, 268607 26273942 C 505752 26059086, 742863 25844192, 979869 25629181" />
    <path class="fil0 str0" d="M 1694320 17387212 C 1381320 17453742, 1068327 17520271, 755352 17586796 C 688824 17273788, 622295 16960780, 555766 16647772 C 868737 16581248, 1181730 16514720, 1494728 16448190 C 1561259 16761197, 1627789 17074205, 1694320 17387212" />
    <path class="fil0 str0" d="M 1014357 22079581 C 1228479 21841775, 1442601 21603968, 1656723 21366162 C 1894529 21580284, 2132335 21794405, 2370142 22008527 C 2156020 22246334, 1941898 22484140, 1727776 22721946 C 1489970 22507824, 1252164 22293703, 1014357 22079581" />
    <path class="fil0 str0" d="M 954639 34859864 C 1053524 35164201, 1152408 35468535, 1251290 35772863 C 946952 35871748, 642614 35970634, 338276 36069519 C 239394 35765192, 140509 35460857, 41624 35156520 C 345962 35057635, 650301 34958750, 954639 34859864" />
    <path class="fil0 str0" d="M 2258419 29050000 C 2578892 29050000, 2898616 29050000, 3217625 29050000 C 3217972 29370000, 3218347 29690000, 3218747 30010000 C 2899308 30010000, 2579509 30010000, 2259293 30010000 C 2259037 29690000, 2258750 29370000, 2258419 29050000" />
    <path class="fil0 str0" d="M 1952606 19612131 C 1639631 19678656, 1326675 19745177, 1013778 19811685 C 947262 19498675, 880744 19185665, 814224 18872655 C 1127102 18806151, 1440050 18739632, 1753020 18673108 C 1819549 18986116, 1886078 19299123, 1952606 19612131" />
    <path class="fil0 str0" d="M 1514492 35422757 C 1728301 35185299, 1941963 34948002, 2155366 34710994 C 2393150 34925141, 2630942 35139278, 2868742 35353408 C 2655353 35590400, 2441698 35827688, 2227895 36065140 C 1990091 35851016, 1752290 35636888, 1514492 35422757" />
    <path class="fil0 str0" d="M 2863224 31427159 C 3077564 31665208, 3292435 31903846, 3506294 32141360 C 3269288 32356371, 3032176 32571265, 2795031 32786121 C 2580911 32548316, 2366200 32309856, 2151905 32071857 C 2388903 31856838, 2626028 31641959, 2863224 31427159" />
    <path class="fil0 str0" d="M 1294706 32360000 C 1613725 32360000, 1931381 32360000, 2250095 32360000 C 2249894 32680000, 2249738 33000000, 2249595 33320000 C 1930746 33320000, 1612815 33320000, 1293501 33320000 C 1293925 33000000, 1294333 32680000, 1294706 32360000" />
    <path class="fil0 str0" d="M 6312764 12950020 C 5999794 13016544, 5686846 13083063, 5373968 13149567 C 5307449 12836557, 5240928 12523548, 5174405 12210539 C 5487270 12144037, 5800212 12077519, 6113178 12010996 C 6179707 12324004, 6246236 12637012, 6312764 12950020" />
    <path class="fil0 str0" d="M 3660000 16660000 C 3979999 16660000, 4299997 16660000, 4619989 16660000 C 4619988 16980000, 4619987 17300000, 4619986 17620000 C 4299995 17620000, 3979998 17620000, 3660000 17620000 C 3660000 17300000, 3660000 16980000, 3660000 16660000" />
    <path class="fil0 str0" d="M 4394170 27895236 C 4081164 27828704, 3768161 27762173, 3455162 27695643 C 3521695 27382636, 3588227 27069629, 3654759 26756622 C 3967756 26823152, 4280760 26889683, 4593766 26956214 C 4527234 27269221, 4460702 27582228, 4394170 27895236" />
    <path class="fil0 str0" d="M 163315 15791493 C 376977 15554197, 589715 15317927, 803067 15080976 C 1040778 15295204, 1278497 15509422, 1516222 15723634 C 1302688 15960788, 1089729 16197302, 875875 16434812 C 638349 16220379, 400837 16005930, 163315 15791493" />
    <path class="fil0 str0" d="M 130433 31774077 C 345588 31535123, 561405 31295433, 776690 31056336 C 1014095 31270903, 1251546 31485419, 1489076 31699848 C 1273755 31938986, 1057956 32178656, 842858 32417546 C 605309 32203138, 367841 31988641, 130433 31774077" />
    <path class="fil0 str0" d="M 915438 12899086 C 657527 12711702, 400438 12524916, 142342 12337399 C 330889 12078845, 519342 11820222, 707714 11561540 C 965613 11748915, 1222529 11935575, 1480455 12122969 C 1292108 12381669, 1103778 12640381, 915438 12899086" />
  </g>
  <g id="Layer_x0020_3">
    <metadata id="CorelCorpID_2Corel-Layer"/>
  <path class="fil0 str2" d=" M 4510557 33032434 L 4512994 33028437 L 4512149 33022375 L 4508024 33014248 L 4504850 33009880 L 4498395 33003444 L 4492891 33000769 L 4488338 33001853 L 4486008 33003544 L 4483571 33007541 L 4484415 33013601 L 4488540 33021728 L 4491715 33026098 L 4498170 33032534 L 4503674 33035209 L 4508227 33034125 L 4510557 33032434 M 4498395 33003444 L 4498170 33032534"/><path class="fil0 str2" d=" M 4472456 33004492 L 4495756 32987563"/><path class="fil0 str2" d=" M 4491917 33045976 L 4479102 33055285 L 4477628 33038557 L 4474133 33041096 L 4470745 33041333 L 4468522 33040725 L 4464183 33037202 L 4462067 33034289 L 4460058 33029074 L 4460272 33024467 L 4462709 33020473 L 4466204 33017934 L 4470757 33016850 L 4472980 33017460 L 4476260 33019526"/><path class="fil0 str2" d=" M 4468617 33062902 L 4446399 33032324 M 4470947 33061210 L 4466287 33064597 M 4448729 33030629 L 4444069 33034016"/>
  <path class="fil0 str2" d=" M 937902 8138970 L 934688 8142372 L 934253 8148477 L 936598 8157284 L 938795 8162218 L 943771 8169854 L 948598 8173615 L 953277 8173503 L 955908 8172331 L 959122 8168930 L 959557 8162825 L 957212 8154017 L 955015 8149085 L 950039 8141448 L 945212 8137686 L 940533 8137799 L 937902 8138970 M 943771 8169854 L 950039 8141448"/><path class="fil0 str2" d=" M 969360 8174223 L 943050 8185937"/><path class="fil0 str2" d=" M 962897 8127843 L 959682 8131244 L 959831 8135119 L 961295 8138407 L 964075 8141110 L 967438 8141583 L 973432 8140885 L 978111 8140772 L 982206 8142890 L 984986 8145592 L 987182 8150526 L 987331 8154400 L 986748 8156630 L 983533 8160032 L 978271 8162374 L 973593 8162487 L 971545 8161428 L 968765 8158725 L 966569 8153792 L 966420 8149918 L 967587 8145458 L 970801 8142056 L 975331 8138069 L 977230 8135253 L 977081 8131379 L 975617 8128090 L 972837 8125387 L 968159 8125499 L 962897 8127843"/><path class="fil0 str2" d=" M 1000612 8116962 L 997832 8114259 L 993153 8114371 L 990522 8115543 L 987308 8118944 L 986873 8125049 L 989218 8133856 L 992879 8142078 L 997123 8148070 L 1001218 8150187 L 1005897 8150075 L 1007212 8149489 L 1010427 8146088 L 1011594 8141627 L 1010713 8136109 L 1009981 8134464 L 1006469 8130117 L 1002373 8127999 L 997695 8128112 L 996379 8128698 L 993165 8132099 L 991998 8136560 L 992879 8142078"/>
  <path class="fil0 str2" d=" M 939521 26269440 L 935293 26267434 L 929353 26268908 L 921701 26273859 L 917688 26277473 L 911963 26284565 L 909878 26290319 L 911430 26294733 L 913358 26296875 L 917586 26298879 L 923526 26297407 L 931178 26292453 L 935191 26288840 L 940916 26281748 L 943001 26275996 L 941448 26271579 L 939521 26269440 M 911963 26284565 L 940916 26281748"/><path class="fil0 str2" d=" M 915715 26310251 L 896444 26288850"/><path class="fil0 str2" d=" M 958792 26290842 L 955528 26289907 L 950925 26290175 L 947286 26291513 L 942310 26294057 L 935621 26300080 L 932572 26304763 L 930860 26308242 L 930112 26312790 L 930701 26316135 L 934556 26320417 L 937820 26321352 L 942423 26321083 L 946062 26319746 L 951038 26317202 L 957726 26311179 L 960776 26306496 L 962488 26303017 L 963236 26298469 L 962647 26295124 L 958792 26290842 M 938943 26314528 L 936698 26328176"/><path class="fil0 str2" d=" M 974209 26307966 L 946118 26333259 M 987699 26322946 L 959608 26348239 M 960832 26320009 L 974322 26334990"/>
  <path class="fil0 str2" d=" M 1157698 17032634 L 1161549 17029975 L 1163244 17024094 L 1162781 17014991 L 1161658 17009709 L 1158379 17001206 L 1154439 16996522 L 1149839 16995660 L 1147022 16996258 L 1143171 16998917 L 1141476 17004798 L 1141939 17013901 L 1143062 17019183 L 1146341 17027686 L 1150281 17032370 L 1154881 17033232 L 1157698 17032634 M 1158379 17001206 L 1146341 17027686"/><path class="fil0 str2" d=" M 1134257 16991611 L 1162427 16985623"/><path class="fil0 str2" d=" M 1117048 17028393 L 1117334 17022811 L 1119402 17018691 L 1123254 17016032 L 1124662 17015733 L 1129262 17016595 L 1132828 17019517 L 1135359 17024500 L 1135733 17026260 L 1135447 17031843 L 1133379 17035963 L 1129527 17038621 L 1128119 17038920 L 1123519 17038059 L 1119954 17035136 L 1117048 17028393 L 1115177 17019589 L 1114714 17010487 L 1116408 17004605 L 1120260 17001947 L 1123077 17001348 L 1127677 17002210 L 1129834 17005433"/><path class="fil0 str2" d=" M 1097131 17045507 L 1105977 17017864 L 1084849 17022355 M 1097131 17045507 L 1089272 17008533"/>
  <path class="fil0 str2" d=" M 1660781 22046721 L 1659228 22051135 L 1661313 22056889 L 1667038 22063981 L 1671051 22067595 L 1678703 22072548 L 1684643 22074020 L 1688871 22072014 L 1690799 22069875 L 1692351 22065458 L 1690266 22059707 L 1684541 22052614 L 1680528 22049001 L 1672876 22044047 L 1666936 22042575 L 1662708 22044582 L 1660781 22046721 M 1678703 22072548 L 1672876 22044047"/><path class="fil0 str2" d=" M 1703858 22066130 L 1684587 22087534"/><path class="fil0 str2" d=" M 1681922 22036691 L 1680584 22035488 L 1678873 22032009 L 1678498 22029733 L 1679088 22026389 L 1682942 22022109 L 1686207 22021171 L 1688508 22021306 L 1692147 22022646 L 1694822 22025053 L 1696534 22028532 L 1698620 22034287 L 1702361 22057033 L 1715851 22042050"/><path class="fil0 str2" d=" M 1695468 22008195 L 1723559 22033491 M 1693541 22010336 L 1697395 22006057 M 1721632 22035629 L 1725486 22031350"/>
  <path class="fil0 str2" d=" M 658101 35430629 L 655054 35427077 L 649028 35426005 L 640024 35427419 L 634888 35429086 L 626774 35433237 L 622528 35437646 L 622151 35442309 L 623041 35445048 L 626088 35448601 L 632113 35449672 L 641118 35448261 L 646254 35446591 L 654368 35442441 L 658614 35438034 L 658991 35433369 L 658101 35430629 M 626774 35433237 L 654368 35442441"/><path class="fil0 str2" d=" M 619753 35458229 L 610854 35430839"/><path class="fil0 str2" d=" M 666556 35456650 L 663509 35453098 L 659640 35452841 L 656216 35453952 L 653237 35456435 L 652415 35459731 L 652483 35465764 L 652107 35470429 L 649573 35474282 L 646594 35476762 L 641458 35478432 L 637589 35478176 L 635432 35477360 L 632386 35473808 L 630606 35468332 L 630983 35463666 L 632250 35461740 L 635228 35459257 L 640364 35457590 L 644233 35457846 L 648547 35459472 L 651594 35463027 L 655085 35467946 L 657687 35470131 L 661556 35470388 L 664980 35469274 L 667959 35466794 L 668336 35462128 L 666556 35456650"/><path class="fil0 str2" d=" M 679015 35494997 L 638615 35492983 M 672785 35475822 L 679015 35494997"/>
  <path class="fil0 str2" d=" M 2714253 29508400 L 2709933 29510200 L 2707053 29515600 L 2705613 29524599 L 2705613 29530000 L 2707053 29538999 L 2709933 29544399 L 2714253 29546201 L 2717133 29546201 L 2721453 29544399 L 2724333 29538999 L 2725773 29530000 L 2725773 29524599 L 2724333 29515600 L 2721453 29510200 L 2717133 29508400 L 2714253 29508400 M 2707053 29538999 L 2724333 29515600"/><path class="fil0 str2" d=" M 2728653 29553400 L 2699853 29553400"/><path class="fil0 str2" d=" M 2738733 29508400 L 2738733 29546201 M 2735853 29508400 L 2741613 29508400 M 2735853 29546201 L 2741613 29546201"/><path class="fil0 str2" d=" M 2751693 29508400 L 2751693 29546201 M 2771853 29508400 L 2771853 29546201 M 2751693 29526398 L 2771853 29526398"/>
  <path class="fil0 str2" d=" M 1414645 19257839 L 1418496 19255180 L 1420190 19249299 L 1419728 19240196 L 1418605 19234914 L 1415325 19226411 L 1411385 19221728 L 1406786 19220865 L 1403968 19221463 L 1400117 19224123 L 1398423 19230003 L 1398885 19239106 L 1400008 19244388 L 1403288 19252893 L 1407228 19257575 L 1411828 19258438 L 1414645 19257839 M 1415325 19226411 L 1403288 19252893"/><path class="fil0 str2" d=" M 1391203 19216816 L 1419374 19210828"/><path class="fil0 str2" d=" M 1386474 19263826 L 1389883 19224458 M 1386474 19263826 L 1367347 19229248 M 1388277 19237680 L 1374192 19240675"/><path class="fil0 str2" d=" M 1356895 19270114 L 1365741 19242470 L 1344613 19246961 M 1356895 19270114 L 1349036 19233140"/>
  <path class="fil0 str2" d=" M 2155894 35395478 L 2154341 35399892 L 2156427 35405646 L 2162152 35412739 L 2166165 35416352 L 2173816 35421303 L 2179756 35422775 L 2183985 35420771 L 2185912 35418630 L 2187465 35414216 L 2185379 35408461 L 2179654 35401369 L 2175641 35397756 L 2167989 35392805 L 2162049 35391330 L 2157821 35393337 L 2155894 35395478 M 2173816 35421303 L 2167989 35392805"/><path class="fil0 str2" d=" M 2198971 35414887 L 2179700 35436289"/><path class="fil0 str2" d=" M 2190525 35370466 L 2186886 35369128 L 2182284 35368859 L 2179019 35369794 L 2175165 35374074 L 2174575 35377419 L 2175324 35381967 L 2177035 35385446 L 2180085 35390131 L 2186773 35396152 L 2191750 35398696 L 2195389 35400034 L 2199991 35400305 L 2203256 35399367 L 2207110 35395087 L 2207699 35391743 L 2206951 35387194 L 2205239 35383715"/><path class="fil0 str2" d=" M 2193472 35353742 L 2191919 35358156 L 2193631 35361635 L 2196306 35364045 L 2199945 35365383 L 2203210 35364448 L 2208402 35361372 L 2212630 35359365 L 2217233 35359633 L 2220871 35360974 L 2224884 35364587 L 2226596 35368066 L 2226970 35370339 L 2225417 35374755 L 2221563 35379035 L 2217335 35381042 L 2215034 35380908 L 2211395 35379567 L 2207382 35375954 L 2205670 35372475 L 2204922 35367927 L 2206475 35363513 L 2208991 35358027 L 2209581 35354682 L 2207869 35351203 L 2205194 35348793 L 2201555 35347456 L 2197326 35349462 L 2193472 35353742"/>
  <path class="fil0 str2" d=" M 2824505 32069226 L 2820277 32067219 L 2814337 32068693 L 2806685 32073645 L 2802672 32077258 L 2796947 32084350 L 2794862 32090104 L 2796415 32094519 L 2798341 32096660 L 2802570 32098664 L 2808510 32097192 L 2816162 32092241 L 2820175 32088627 L 2825899 32081535 L 2827985 32075781 L 2826433 32071367 L 2824505 32069226 M 2796947 32084350 L 2825899 32081535"/><path class="fil0 str2" d=" M 2800699 32110039 L 2781428 32088635"/><path class="fil0 str2" d=" M 2838959 32085278 L 2810868 32110571 M 2838959 32085278 L 2847630 32094909 L 2849183 32099323 L 2848809 32101599 L 2847098 32105078 L 2843085 32108691 L 2839446 32110029 L 2837145 32110163 L 2832916 32108156 L 2824244 32098527"/><path class="fil0 str2" d=" M 2858229 32106679 L 2830139 32131972 M 2871719 32121662 L 2843628 32146955 M 2844853 32118725 L 2858343 32133706"/>
  <path class="fil0 str2" d=" M 1746126 32818400 L 1741806 32820200 L 1738926 32825600 L 1737486 32834599 L 1737486 32840000 L 1738926 32848999 L 1741806 32854399 L 1746126 32856201 L 1749006 32856201 L 1753326 32854399 L 1756206 32848999 L 1757646 32840000 L 1757646 32834599 L 1756206 32825600 L 1753326 32820200 L 1749006 32818400 L 1746126 32818400 M 1738926 32848999 L 1756206 32825600"/><path class="fil0 str2" d=" M 1760526 32863400 L 1731726 32863400"/><path class="fil0 str2" d=" M 1779246 32818400 L 1779246 32847199 L 1777806 32852600 L 1776366 32854399 L 1773486 32856201 L 1770606 32856201 L 1767726 32854399 L 1766286 32852600 L 1764846 32847199 L 1764846 32843601"/><path class="fil0 str2" d=" M 1805166 32818400 L 1790766 32818400 L 1789326 32834599 L 1790766 32832800 L 1795086 32831000 L 1799406 32831000 L 1803726 32832800 L 1806606 32836398 L 1808046 32841799 L 1808046 32845400 L 1806606 32850800 L 1803726 32854399 L 1799406 32856201 L 1795086 32856201 L 1790766 32854399 L 1789326 32852600 L 1787886 32848999"/>
  <path class="fil0 str2" d=" M 5774814 12595723 L 5778665 12593065 L 5780360 12587183 L 5779897 12578081 L 5778774 12572799 L 5775494 12564295 L 5771555 12559613 L 5766955 12558750 L 5764138 12559348 L 5760286 12562008 L 5758592 12567888 L 5759055 12576990 L 5760178 12582272 L 5763457 12590777 L 5767397 12595460 L 5771997 12596323 L 5774814 12595723 M 5775494 12564295 L 5763457 12590777"/><path class="fil0 str2" d=" M 5751373 12554700 L 5779543 12548713"/><path class="fil0 str2" d=" M 5746643 12601711 L 5750053 12562342 M 5746643 12601711 L 5727516 12567132 M 5748447 12575565 L 5734361 12578559"/><path class="fil0 str2" d=" M 5714247 12608597 L 5728333 12605604 L 5726373 12589458 L 5725338 12591518 L 5721487 12594177 L 5717261 12595075 L 5712662 12594212 L 5709096 12591290 L 5706565 12586307 L 5705816 12582786 L 5706102 12577205 L 5708171 12573084 L 5712022 12570426 L 5716248 12569527 L 5720847 12570390 L 5722630 12571851 L 5724787 12575073"/>
  <path class="fil0 str2" d=" M 4111195 17118399 L 4106875 17120200 L 4103995 17125600 L 4102555 17134599 L 4102555 17140000 L 4103995 17149000 L 4106875 17154399 L 4111195 17156199 L 4114075 17156199 L 4118395 17154399 L 4121275 17149000 L 4122715 17140000 L 4122715 17134599 L 4121275 17125600 L 4118395 17120200 L 4114075 17118399 L 4111195 17118399 M 4103995 17149000 L 4121275 17125600"/><path class="fil0 str2" d=" M 4125595 17163399 L 4096795 17163399"/><path class="fil0 str2" d=" M 4138555 17118399 L 4134235 17120200 L 4132795 17123800 L 4132795 17127399 L 4134235 17130999 L 4137115 17132800 L 4142875 17134599 L 4147195 17136400 L 4150075 17140000 L 4151515 17143599 L 4151515 17149000 L 4150075 17152600 L 4148635 17154399 L 4144315 17156199 L 4138555 17156199 L 4134235 17154399 L 4132795 17152600 L 4131355 17149000 L 4131355 17143599 L 4132795 17140000 L 4135675 17136400 L 4139995 17134599 L 4145755 17132800 L 4148635 17130999 L 4150075 17127399 L 4150075 17123800 L 4148635 17120200 L 4144315 17118399 L 4138555 17118399"/><path class="fil0 str2" d=" M 4173115 17118399 L 4158715 17143599 L 4180315 17143599 M 4173115 17118399 L 4173115 17156199"/>
  <path class="fil0 str2" d=" M 4048143 27353044 L 4052743 27352180 L 4056682 27347497 L 4059962 27338994 L 4061085 27333710 L 4061548 27324609 L 4059853 27318728 L 4056002 27316069 L 4053185 27315471 L 4048585 27316333 L 4044645 27321015 L 4041365 27329521 L 4040243 27334802 L 4039780 27343906 L 4041474 27349785 L 4045326 27352443 L 4048143 27353044 M 4061548 27324609 L 4039780 27343906"/><path class="fil0 str2" d=" M 4043414 27306032 L 4071584 27312021"/><path class="fil0 str2" d=" M 4021381 27347355 L 4025980 27346491 L 4028138 27343271 L 4028886 27339748 L 4028226 27335927 L 4025783 27333569 L 4020523 27330610 L 4016672 27327951 L 4014603 27323833 L 4013943 27320012 L 4015066 27314729 L 4017223 27311506 L 4019006 27310046 L 4023605 27309184 L 4029240 27310380 L 4033091 27313039 L 4034125 27315100 L 4034785 27318920 L 4033663 27324201 L 4031506 27327424 L 4027940 27330346 L 4023340 27331210 L 4017332 27331772 L 4014141 27332934 L 4011983 27336157 L 4011235 27339677 L 4011895 27343498 L 4015747 27346157 L 4021381 27347355"/><path class="fil0 str2" d=" M 3984759 27339570 L 3998844 27342565 L 4003621 27327019 L 4001838 27328479 L 3997238 27329340 L 3993013 27328444 L 3989161 27325786 L 3987093 27321665 L 3986807 27316083 L 3987555 27312561 L 3990086 27307580 L 3993652 27304658 L 3998252 27303793 L 4002478 27304692 L 4006329 27307351 L 4007363 27309411 L 4008023 27313232"/>
  <path class="fil0 str2" d=" M 806281 15762475 L 804728 15766889 L 806814 15772644 L 812539 15779736 L 816552 15783349 L 824204 15788300 L 830144 15789774 L 834372 15787768 L 836299 15785627 L 837852 15781213 L 835766 15775460 L 830042 15768366 L 826029 15764753 L 818377 15759802 L 812437 15758328 L 808208 15760334 L 806281 15762475 M 824204 15788300 L 818377 15759802"/><path class="fil0 str2" d=" M 849358 15781884 L 830087 15803287"/><path class="fil0 str2" d=" M 828443 15737862 L 849845 15757132 L 852895 15761816 L 853269 15764090 L 852680 15767435 L 850752 15769576 L 847488 15770511 L 845186 15770377 L 840210 15767834 L 837535 15765426"/><path class="fil0 str2" d=" M 850763 15721142 L 847124 15719804 L 842896 15721810 L 840969 15723950 L 839416 15728365 L 841502 15734118 L 847227 15741210 L 853915 15747233 L 860229 15750981 L 864832 15751250 L 869060 15749243 L 870023 15748173 L 871576 15743758 L 870828 15739208 L 867779 15734526 L 866441 15733321 L 861465 15730778 L 856862 15730510 L 852634 15732515 L 851670 15733586 L 850117 15738000 L 850866 15742550 L 853915 15747233"/>
  <path class="fil0 str2" d=" M 773420 31745036 L 771867 31749450 L 773953 31755205 L 779677 31762297 L 783690 31765910 L 791342 31770861 L 797282 31772333 L 801511 31770329 L 803438 31768188 L 804991 31763774 L 802905 31758020 L 797180 31750927 L 793167 31747314 L 785515 31742363 L 779575 31740888 L 775347 31742895 L 773420 31745036 M 791342 31770861 L 785515 31742363"/><path class="fil0 str2" d=" M 816497 31764445 L 797226 31785847"/><path class="fil0 str2" d=" M 787873 31728984 L 815964 31754277 M 801363 31714001 L 829454 31739294 M 801250 31741027 L 814739 31726047"/><path class="fil0 str2" d=" M 820634 31692600 L 839089 31728593 M 807144 31707580 L 820634 31692600"/>
  <path class="fil0 str2" d=" M 819791 12262982 L 824344 12264064 L 829848 12261389 L 836304 12254954 L 839477 12250585 L 843603 12242458 L 844447 12236396 L 842010 12232401 L 839680 12230709 L 835127 12229625 L 829623 12232301 L 823168 12238736 L 819994 12243105 L 815869 12251232 L 815025 12257293 L 817462 12261289 L 819791 12262982 M 843603 12242458 L 815869 12251232"/><path class="fil0 str2" d=" M 834592 12218112 L 857892 12235040"/><path class="fil0 str2" d=" M 792997 12243514 L 809925 12220214 L 814264 12216693 L 816487 12216082 L 819875 12216319 L 822205 12218012 L 823477 12221162 L 823584 12223464 L 821575 12228679 L 819459 12231591"/><path class="fil0 str2" d=" M 783677 12236743 L 770862 12227432 L 786316 12220861 L 782821 12218322 L 781549 12215173 L 781442 12212871 L 783451 12207656 L 785567 12204743 L 789906 12201220 L 794352 12200001 L 798905 12201083 L 802400 12203623 L 804837 12207619 L 804944 12209921 L 803993 12213680"/>
  </g>
</svg>
