<?xml version="1.0" encoding="UTF-8"?>
<!DOCTYPE svg PUBLIC "-//W3C//DTD SVG 1.1//EN" "http://www.w3.org/Graphics/SVG/1.1/DTD/svg11.dtd">
<svg xmlns="http://www.w3.org/2000/svg"
     xmlns:xlink="http://www.w3.org/1999/xlink"
     version="1.1" baseProfile="full"
     width="304.8mm" height="177.8mm"
     viewBox="0 0 3048000 1778000">
  <defs>
    <style type="text/css">
      <![CDATA[
        .str0 {stroke:red; stroke-width:1}
        .str1 {stroke:green; stroke-width:1}
        .str2 {stroke:black; stroke-width:1}
        .fil0 {fill:none}
        .fil1 {fill:black}
        .fil2 {fill:green}
        .fnt0 {text-anchor:'middle'; dominant-baseline:'central'; font-weight:normal; font-size:3pt; font-family:'Arial'; text-decoration:underline;}
      ]]>
    </style>
  </defs>
  <g id="Layer_x0020_1">
    <metadata id="CorelCorpID_0Corel-Layer"/>
    <rect class="str1" x="0" y="0" width="3.048e+06" height="1.778e+06" />
    <circle class="fil0 str1" cx="0" cy="0" r="50000" />
    <circle class="fil0 str1" cx="0" cy="0" r="50000" />
    <circle class="fil0 str1" cx="0" cy="0" r="50000" />
    <circle class="fil0 str1" cx="0" cy="0" r="50000" />
    <circle class="fil0 str1" cx="0" cy="0" r="50000" />
    <circle class="fil0 str1" cx="0" cy="0" r="50000" />
    <circle class="fil0 str1" cx="0" cy="0" r="50000" />
    <circle class="fil0 str1" cx="0" cy="0" r="50000" />
    <circle class="fil0 str1" cx="0" cy="0" r="50000" />
  </g>
  <g id="Layer_x0020_2">
    <metadata id="CorelCorpID_1Corel-Layer"/>
    <path class="fil0 str0" d="M 10650928 28140000 C 10970135 28140000, 11290461 28140000, 11611861 28140000 C 11611730 28460000, 11611730 28780000, 11611861 29100000 C 11290461 29100000, 10970135 29100000, 10650928 29100000 C 10650835 28780000, 10650835 28460000, 10650928 28140000" />
    <path class="fil0 str0" d="M 13157581 14269542 C 12844684 14336050, 12531847 14402546, 12219157 14469010 C 12152572 14156014, 12085982 13843019, 12019386 13530026 C 12332142 13463548, 12645013 13397045, 12957932 13330532 C 13024483 13643535, 13091033 13956538, 13157581 14269542" />
    <path class="fil0 str0" d="M 13335757 17580000 C 13656856 17580000, 13976918 17580000, 14295731 17580000 C 14296047 17900000, 14296343 18220000, 14296651 18540000 C 13977855 18540000, 13658044 18540000, 13337271 18540000 C 13336829 18220000, 13336321 17900000, 13335757 17580000" />
    <path class="fil0 str0" d="M 15339471 28220769 C 15024884 28287637, 14709416 28354692, 14394838 28421557 C 14327641 28108692, 14260431 27795829, 14193257 27482958 C 14507623 27416137, 14822975 27349107, 15137564 27282239 C 15204898 27595076, 15272212 27907917, 15339471 28220769" />
    <path class="fil0 str0" d="M 12267477 33549794 C 12366348 33854089, 12465212 34158358, 12564049 34462548 C 12259713 34561440, 11955377 34660333, 11651042 34759228 C 11552202 34455028, 11453337 34150754, 11354464 33846455 C 11658802 33747567, 11963139 33648681, 12267477 33549794" />
    <path class="fil0 str0" d="M 13844847 31610022 C 14137172 31479871, 14429491 31349722, 14721788 31219583 C 14851946 31511916, 14982105 31804250, 15112263 32096583 C 14819963 32226723, 14527642 32356873, 14235316 32487025 C 14105159 32194691, 13975003 31902357, 13844847 31610022" />
    <path class="fil0 str0" d="M 15416011 30884941 C 15382571 30566777, 15349135 30248653, 15315792 29931420 C 15633978 29897392, 15952148 29863208, 16270285 29828718 C 16303667 30146322, 16337159 30464980, 16370609 30783227 C 16052423 30817265, 15734216 30851087, 15416011 30884941" />
    <path class="fil0 str0" d="M 7051302 20904090 C 6740136 20970231, 6429352 21036290, 6118393 21102386 C 6051915 20789368, 5985383 20476360, 5918797 20163365 C 6229757 20097268, 6540541 20031209, 6851706 19965069 C 6918264 20278070, 6984796 20591078, 7051302 20904090" />
    <path class="fil0 str0" d="M 11679855 30639179 C 11646244 30319397, 11612530 29998629, 11578900 29678655 C 11897084 29644610, 12215261 29610497, 12533437 29576371 C 12567054 29896215, 12600766 30216965, 12634384 30536818 C 12316215 30571006, 11998040 30605138, 11679855 30639179" />
    <path class="fil0 str0" d="M 16069144 4457597 C 16035686 4775933, 16002223 5094309, 15968854 5411789 C 15650581 5378592, 15332315 5345320, 15014054 5312009 C 15047418 4994566, 15080867 4676328, 15114327 4357970 C 15432606 4391121, 15750879 4424318, 16069144 4457597" />
    <path class="fil0 str0" d="M 15426211 10658967 C 15113206 10725499, 14800202 10792030, 14487206 10858559 C 14420674 10545552, 14354142 10232545, 14287610 9919538 C 14600606 9853008, 14913610 9786477, 15226616 9719946 C 15293148 10032953, 15359680 10345960, 15426211 10658967" />
    <path class="fil0 str0" d="M 12017971 1841093 C 12117394 1535103, 12216570 1229871, 12315332 925912 C 12619799 1024399, 12924273 1122866, 13228743 1221348 C 13130069 1525033, 13030969 1830033, 12931587 2135898 C 12627039 2037660, 12322495 1939409, 12017971 1841093" />
    <path class="fil0 str0" d="M 13165558 11323481 C 13132216 11640715, 13098967 11957058, 13065588 12274635 C 12747264 12241922, 12428899 12209591, 12110544 12177170 C 12143918 11859645, 12177188 11543093, 12210570 11225489 C 12528926 11257897, 12847251 11290610, 13165558 11323481" />
    <path class="fil0 str0" d="M 15411886 31320000 C 15733492 31320000, 16054188 31320000, 16373501 31320000 C 16373925 31640000, 16374333 31960000, 16374706 32280000 C 16055687 32280000, 15735306 32280000, 15413917 32280000 C 15413260 31960000, 15412566 31640000, 15411886 31320000" />
    <path class="fil0 str0" d="M 14733018 3181997 C 14947139 2944190, 15161261 2706384, 15375383 2468578 C 15613189 2682700, 15850996 2896821, 16088802 3110943 C 15874680 3348749, 15660558 3586556, 15446437 3824362 C 15208630 3610240, 14970824 3396119, 14733018 3181997" />
    <path class="fil0 str0" d="M 12745734 25678872 C 12430974 25611968, 12116913 25545212, 11804085 25478718 C 11870306 25165645, 11936448 24852555, 12002569 24539461 C 12315186 24605909, 12629113 24672636, 12943819 24739529 C 12877873 25052661, 12811861 25365779, 12745734 25678872" />
    <path class="fil0 str0" d="M 16223952 12871456 C 15911074 12937960, 15598266 13004449, 15285629 13070903 C 15219139 12757886, 15152643 12444872, 15086141 12131858 C 15398737 12065414, 15711524 11998929, 16024389 11932427 C 16090911 12245437, 16157432 12558446, 16223952 12871456" />
    <path class="fil0 str0" d="M 14690239 35773754 C 14375466 35706847, 14061345 35640079, 13748406 35573562 C 13815052 35260579, 13881584 34947572, 13948001 34634540 C 14260940 34701057, 14575061 34767826, 14889835 34834733 C 14823447 35147771, 14756916 35460778, 14690239 35773754" />
    <path class="fil0 str0" d="M 13001582 22338298 C 12688615 22404821, 12375673 22471339, 12062809 22537840 C 11996268 22224835, 11929725 21911830, 11863181 21598826 C 12176059 21532321, 12489007 21465802, 12801977 21399278 C 12868512 21712285, 12935047 22025291, 13001582 22338298" />
    <path class="fil0 str0" d="M 6211979 4930000 C 6530096 4930000, 6847823 4930000, 7165729 4930000 C 7165784 5250000, 7165894 5570000, 7166061 5890000 C 6848086 5890000, 6530301 5890000, 6212140 5890000 C 6212059 5570000, 6212005 5250000, 6211979 4930000" />
    <path class="fil0 str0" d="M 15410771 32970000 C 15730659 32970000, 16049173 32970000, 16368502 32970000 C 16367996 33290000, 16367524 33610000, 16367237 33930000 C 16047922 33930000, 15729522 33930000, 15409799 33930000 C 15409929 33610000, 15410261 33290000, 15410771 32970000" />
    <path class="fil0 str0" d="M 14456440 2375309 C 14144268 2308955, 13831302 2242432, 13518377 2175918 C 13585306 1862995, 13652268 1550079, 13719184 1237154 C 14032151 1303677, 14345300 1370239, 14657651 1436631 C 14590624 1749533, 14523564 2062428, 14456440 2375309" />
    <path class="fil0 str0" d="M 12079921 33585705 C 11766959 33652227, 11454025 33718743, 11141180 33785241 C 11074649 33472233, 11008118 33159226, 10941585 32846219 C 11254430 32779722, 11567364 32713206, 11880325 32646684 C 11946857 32959691, 12013389 33272698, 12079921 33585705" />
    <path class="fil0 str0" d="M 14402562 6064730 C 14090520 5998403, 13779691 5932335, 13468546 5866199 C 13534071 5552978, 13599348 5239704, 13664235 4926347 C 13975397 4992486, 14287056 5058732, 14599322 5125106 C 14533960 5438362, 14468265 5751547, 14402562 6064730" />
    <path class="fil0 str0" d="M 15418966 27564689 C 15385600 27247231, 15352117 26928659, 15318521 26609020 C 15636755 26575441, 15954974 26541730, 16273181 26507899 C 16306783 26827596, 16340274 27146250, 16373649 27463787 C 16055431 27497514, 15737204 27531148, 15418966 27564689" />
    <path class="fil0 str0" d="M 9291360 5746033 C 9583695 5615877, 9876029 5485721, 10168364 5355565 C 10298520 5647900, 10428675 5940235, 10558831 6232569 C 10266497 6362725, 9974162 6492881, 9681827 6623036 C 9551672 6330702, 9421516 6038367, 9291360 5746033" />
    <path class="fil0 str0" d="M 9928334 24476835 C 9616367 24410524, 9305119 24344366, 8992970 24278017 C 9059693 23965050, 9126225 23652043, 9192565 23338995 C 9504714 23405344, 9815962 23471502, 10127929 23537813 C 10061508 23850843, 9994976 24163851, 9928334 24476835" />
    <path class="fil0 str0" d="M 8809906 25870000 C 9129860 25870000, 9449785 25870000, 9769623 25870000 C 9769626 26190000, 9769631 26510000, 9769637 26830000 C 9449793 26830000, 9129865 26830000, 8809910 26830000 C 8809908 26510000, 8809907 26190000, 8809906 25870000" />
    <path class="fil0 str0" d="M 12518725 32449631 C 12205770 32383111, 11894390 32316925, 11582218 32250571 C 11649342 31937689, 11716402 31624794, 11783428 31311892 C 12095780 31378285, 12407333 31444507, 12720231 31511016 C 12653201 31823917, 12585997 32136782, 12518725 32449631" />
    <path class="fil0 str0" d="M 16042951 35079835 C 15730341 35013388, 15416879 34946759, 15103032 34880049 C 15169502 34567029, 15236034 34254022, 15302627 33941028 C 15616474 34007738, 15929936 34074366, 16242546 34140813 C 16176051 34453829, 16109520 34766836, 16042951 35079835" />
    <path class="fil0 str0" d="M 15816066 6477637 C 15504099 6411326, 15191309 6344841, 14878450 6278341 C 14945009 5965339, 15011510 5652325, 15078026 5339315 C 15390678 5405771, 15703295 5472220, 16015149 5538506 C 15948723 5851536, 15882402 6164588, 15816066 6477637" />
    <path class="fil0 str0" d="M 14683073 31161504 C 14370228 31228002, 14057471 31294480, 13744930 31360913 C 13678402 31047905, 13611870 30734898, 13545335 30421891 C 13857876 30355459, 14170633 30288980, 14483478 30222483 C 14550011 30535490, 14616543 30848497, 14683073 31161504" />
    <path class="fil0 str0" d="M 12141861 2600000 C 12463261 2600000, 12785734 2600000, 13107539 2600000 C 13107391 2920000, 13107391 3240000, 13107539 3560000 C 12785734 3560000, 12463261 3560000, 12141861 3560000 C 12141730 3240000, 12141730 2920000, 12141861 2600000" />
    <path class="fil0 str0" d="M 12923254 5402698 C 12611105 5336348, 12298055 5269808, 11985749 5203425 C 12052074 4890374, 12118193 4577279, 12184424 4264208 C 12496665 4330576, 12809719 4397118, 13121921 4463479 C 13055742 4776561, 12989594 5089650, 12923254 5402698" />
    <path class="fil0 str0" d="M 12906887 20028913 C 12595566 19962739, 12284385 19896596, 11973203 19830452 C 12039735 19517445, 12106267 19204437, 12172798 18891430 C 12483203 18957409, 12793607 19023387, 13104142 19089393 C 13038406 19402570, 12972953 19715806, 12906887 20028913" />
    <path class="fil0 str0" d="M 15413152 25213345 C 15379703 24895098, 15346254 24576851, 15312805 24258604 C 15631052 24225154, 15949299 24191705, 16267546 24158256 C 16300995 24476503, 16334444 24794750, 16367893 25112997 C 16049646 25146446, 15731399 25179896, 15413152 25213345" />
    <path class="fil0 str0" d="M 11984991 10271699 C 12277326 10141543, 12569660 10011387, 12861995 9881231 C 12992151 10173566, 13122306 10465900, 13252462 10758235 C 12960127 10888391, 12667793 11018547, 12375458 11148702 C 12245303 10856368, 12115147 10564033, 11984991 10271699" />
    <path class="fil0 str0" d="M 12173587 15820517 C 12140138 15502270, 12106689 15184023, 12073240 14865776 C 12391487 14832326, 12709734 14798877, 13027981 14765428 C 13061430 15083675, 13094879 15401922, 13128328 15720169 C 12810081 15753618, 12491834 15787067, 12173587 15820517" />
    <path class="fil0 str0" d="M 11761128 35813152 C 11727679 35494905, 11694230 35176658, 11660780 34858411 C 11979027 34824962, 12297274 34791513, 12615521 34758064 C 12648971 35076311, 12682420 35394558, 12715869 35712805 C 12397622 35746254, 12079375 35779703, 11761128 35813152" />
    <path class="fil0 str0" d="M 13834657 4263577 C 13801208 3945330, 13767759 3627083, 13734309 3308836 C 14052556 3275387, 14370803 3241938, 14689050 3208489 C 14722500 3526736, 14755949 3844983, 14789398 4163230 C 14471151 4196679, 14152904 4230128, 13834657 4263577" />
    <path class="fil0 str0" d="M 12349632 9257676 C 12036625 9191144, 11723617 9124612, 11410610 9058080 C 11477142 8745073, 11543674 8432066, 11610205 8119059 C 11923213 8185590, 12236220 8252122, 12549227 8318654 C 12482695 8631661, 12416164 8944668, 12349632 9257676" />
    <path class="fil0 str0" d="M 14337556 1348146 C 14024549 1281614, 13711541 1215083, 13398534 1148551 C 13465066 835544, 13531598 522536, 13598129 209529 C 13911137 276061, 14224144 342593, 14537151 409124 C 14470619 722131, 14404088 1035139, 14337556 1348146" />
    <path class="fil0 str0" d="M 15418002 15597051 C 15384643 15279664, 15351311 14962532, 15317979 14645401 C 15636226 14611951, 15954473 14578502, 16272720 14545053 C 16306042 14862090, 16339364 15179126, 16372712 15496414 C 16054470 15529911, 15736240 15563521, 15418002 15597051" />
    <path class="fil0 str0" d="M 12867231 15785082 C 12966116 16089420, 13065002 16393758, 13163887 16698096 C 12859549 16796981, 12555211 16895867, 12250873 16994752 C 12151987 16690414, 12053102 16386076, 11954216 16081738 C 12258554 15982853, 12562893 15883967, 12867231 15785082" />
    <path class="fil0 str0" d="M 13899928 23413900 C 14191473 23543704, 14482783 23673403, 14774093 23803103 C 14643937 24095437, 14513781 24387772, 14383626 24680107 C 14092316 24550407, 13801005 24420707, 13509461 24290903 C 13639542 23998536, 13769698 23706201, 13899928 23413900" />
    <path class="fil0 str0" d="M 14398765 24818204 C 14691100 24948359, 14983435 25078515, 15275769 25208671 C 15145614 25501005, 15015458 25793340, 14885302 26085674 C 14592968 25955519, 14300633 25825363, 14008298 25695207 C 14138454 25402873, 14268610 25110538, 14398765 24818204" />
    <path class="fil0 str0" d="M 15416372 7641124 C 15383031 7323914, 15349646 7006271, 15316287 6688883 C 15634525 6655354, 15952756 6621743, 16270998 6588247 C 16304346 6905535, 16337721 7223075, 16371048 7540165 C 16052816 7573757, 15734602 7607519, 15416372 7641124" />
    <path class="fil0 str0" d="M 8158295 322186 C 8449677 451918, 8741457 581826, 9033002 711630 C 8902772 1003932, 8772616 1296266, 8642534 1588634 C 8350990 1458830, 8059210 1328921, 7767827 1199190 C 7897840 906791, 8027995 614457, 8158295 322186" />
    <path class="fil0 str0" d="M 12077475 21220143 C 12044026 20901896, 12010577 20583649, 11977128 20265402 C 12295375 20231953, 12613622 20198503, 12931869 20165054 C 12965318 20483301, 12998767 20801548, 13032216 21119795 C 12713969 21153244, 12395722 21186694, 12077475 21220143" />
    <path class="fil0 str0" d="M 15065956 7504385 C 15280077 7742191, 15494199 7979997, 15708321 8217804 C 15470515 8431925, 15232708 8646047, 14994902 8860169 C 14780780 8622363, 14566658 8384557, 14352537 8146750 C 14590343 7932628, 14828149 7718507, 15065956 7504385" />
    <path class="fil0 str0" d="M 16371892 11500744 C 16058884 11567276, 15745877 11633808, 15432870 11700339 C 15366338 11387332, 15299806 11074325, 15233275 10761318 C 15546282 10694786, 15859289 10628254, 16172296 10561722 C 16238828 10874730, 16305360 11187737, 16371892 11500744" />
    <path class="fil0 str0" d="M 16373269 320352 C 16339902 637820, 16306622 954461, 16273294 1271551 C 15955032 1238245, 15636788 1204769, 15318537 1171357 C 15351853 854383, 15385115 537909, 15418467 220593 C 15736723 253952, 16054990 287209, 16373269 320352" />
    <path class="fil0 str0" d="M 12313955 6412797 C 12412308 6715496, 12510617 7018059, 12608925 7320622 C 12304587 7419507, 12000249 7518393, 11695911 7617278 C 11597616 7314759, 11499322 7012239, 11400826 6709102 C 11705177 6610256, 12009469 6511229, 12313955 6412797" />
    <path class="fil0 str0" d="M 13515635 9151970 C 13729277 8914697, 13942411 8677988, 14155835 8440956 C 14393536 8655194, 14631343 8869316, 14869254 9083321 C 14655830 9320353, 14442696 9557062, 14229054 9794336 C 13991106 9580371, 13753300 9366249, 13515635 9151970" />
    <path class="fil0 str0" d="M 15415062 26379533 C 15381613 26061286, 15348164 25743039, 15314715 25424792 C 15632962 25391343, 15951209 25357894, 16269456 25324445 C 16302905 25642692, 16336354 25960939, 16369803 26279186 C 16051556 26312635, 15733309 26346084, 15415062 26379533" />
    <path class="fil0 str0" d="M 15416539 10321411 C 15383090 10003164, 15349641 9684917, 15316191 9366670 C 15634438 9333221, 15952685 9299772, 16270932 9266323 C 16304382 9584570, 16337831 9902817, 16371280 10221064 C 16053033 10254513, 15734786 10287962, 15416539 10321411" />
    <path class="fil0 str0" d="M 14696116 26418210 C 14662658 26736546, 14629183 27055036, 14595769 27372951 C 14277767 27337165, 13959766 27301379, 13641722 27265997 C 13675119 26948246, 13708489 26630750, 13741853 26313318 C 14059928 26348398, 14378022 26383304, 14696116 26418210" />
    <path class="fil0 str0" d="M 16367408 22858062 C 16334156 23174433, 16300957 23490300, 16267772 23806033 C 15949610 23771775, 15631479 23737229, 15313281 23703306 C 15346550 23386773, 15379834 23070097, 15413084 22753744 C 15731224 22788216, 16049337 22822942, 16367408 22858062" />
    <path class="fil0 str0" d="M 12169736 13392187 C 12136373 13074755, 12103002 12757258, 12069605 12439507 C 12388056 12407991, 12706463 12376070, 13024835 12343811 C 13058205 12661304, 13091640 12979415, 13124982 13296647 C 12806591 13328725, 12488155 13360369, 12169736 13392187" />
    <path class="fil0 str0" d="M 15207788 7065563 C 14949306 7253361, 14690617 7441310, 14433005 7628476 C 14247036 7368048, 14060627 7107941, 13873895 6848068 C 14131255 6661085, 14389025 6473804, 14647297 6286158 C 14834421 6545747, 15021269 6805536, 15207788 7065563" />
  </g>
  <g id="Layer_x0020_3">
    <metadata id="CorelCorpID_2Corel-Layer"/>
  <path class="fil0 str2" d=" M 11101420 28598400 L 11097100 28600200 L 11094221 28605600 L 11092780 28614599 L 11092780 28620000 L 11094221 28628999 L 11097100 28634399 L 11101420 28636201 L 11104301 28636201 L 11108620 28634399 L 11111501 28628999 L 11112940 28620000 L 11112940 28614599 L 11111501 28605600 L 11108620 28600200 L 11104301 28598400 L 11101420 28598400 M 11094221 28628999 L 11111501 28605600"/><path class="fil0 str2" d=" M 11115821 28643400 L 11087021 28643400"/><path class="fil0 str2" d=" M 11143181 28607399 L 11141740 28603798 L 11138861 28600200 L 11135981 28598400 L 11130220 28598400 L 11127341 28600200 L 11124461 28603798 L 11123021 28607399 L 11121580 28612800 L 11121580 28621799 L 11123021 28627199 L 11124461 28630800 L 11127341 28634399 L 11130220 28636201 L 11135981 28636201 L 11138861 28634399 L 11141740 28630800 L 11143181 28627199 L 11143181 28621799 M 11135981 28621799 L 11143181 28621799"/><path class="fil0 str2" d=" M 11169101 28611000 L 11167661 28616398 L 11164781 28620000 L 11160461 28621799 L 11159020 28621799 L 11154700 28620000 L 11151821 28616398 L 11150380 28611000 L 11150380 28609199 L 11151821 28603798 L 11154700 28600200 L 11159020 28598400 L 11160461 28598400 L 11164781 28600200 L 11167661 28603798 L 11169101 28611000 L 11169101 28620000 L 11167661 28628999 L 11164781 28634399 L 11160461 28636201 L 11157580 28636201 L 11153261 28634399 L 11151821 28630800"/>
  <path class="fil0 str2" d=" M 12620438 13915074 L 12624289 13912415 L 12625983 13906535 L 12625521 13897432 L 12624399 13892150 L 12621119 13883646 L 12617178 13878963 L 12612579 13878100 L 12609763 13878699 L 12605910 13881358 L 12604216 13887239 L 12604680 13896341 L 12605802 13901623 L 12609082 13910128 L 12613021 13914810 L 12617622 13915673 L 12620438 13915074 M 12621119 13883646 L 12609082 13910128"/><path class="fil0 str2" d=" M 12596997 13874052 L 12625168 13868063"/><path class="fil0 str2" d=" M 12596494 13920164 L 12588634 13883190 M 12599310 13919565 L 12586634 13922260 L 12582033 13921397 L 12580251 13919936 L 12578094 13916715 L 12577346 13913193 L 12578005 13909372 L 12579040 13907312 L 12582891 13904653 M 12592751 13902558 L 12582891 13904653 L 12578292 13903791 L 12576508 13902330 L 12574351 13899107 L 12573228 13893825 L 12573889 13890004 L 12574923 13887945 L 12578774 13885286 L 12591451 13882591"/><path class="fil0 str2" d=" M 12571140 13925554 L 12563281 13888580 M 12571140 13925554 L 12552829 13929445 M 12567397 13907946 L 12556129 13910341"/>
  <path class="fil0 str2" d=" M 13795164 18038399 L 13790844 18040200 L 13787965 18045600 L 13786524 18054599 L 13786524 18060000 L 13787965 18069000 L 13790844 18074399 L 13795164 18076199 L 13798045 18076199 L 13802365 18074399 L 13805245 18069000 L 13806684 18060000 L 13806684 18054599 L 13805245 18045600 L 13802365 18040200 L 13798045 18038399 L 13795164 18038399 M 13787965 18069000 L 13805245 18045600"/><path class="fil0 str2" d=" M 13809565 18083399 L 13780765 18083399"/><path class="fil0 str2" d=" M 13819644 18038399 L 13819644 18076199 M 13816765 18038399 L 13822525 18038399 M 13816765 18076199 L 13822525 18076199"/><path class="fil0 str2" d=" M 13832604 18038399 L 13832604 18076199 M 13832604 18038399 L 13851325 18038399 M 13832604 18056400 L 13844124 18056400"/>
  <path class="fil0 str2" d=" M 14801040 27866574 L 14804891 27863916 L 14806585 27858037 L 14806123 27848933 L 14805000 27843652 L 14801721 27835146 L 14797780 27830463 L 14793181 27829602 L 14790363 27830200 L 14786512 27832858 L 14784818 27838740 L 14785280 27847841 L 14786403 27853125 L 14789683 27861628 L 14793623 27866311 L 14798222 27867175 L 14801040 27866574 M 14801721 27835146 L 14789683 27861628"/><path class="fil0 str2" d=" M 14777598 27825554 L 14805769 27819565"/><path class="fil0 str2" d=" M 14779912 27871066 L 14772053 27834091 M 14760192 27875258 L 14752333 27838283 M 14776169 27853459 L 14756450 27857651"/><path class="fil0 str2" d=" M 14747515 27877951 L 14739656 27840979 M 14750333 27877353 L 14740473 27879450 L 14735874 27878586 L 14732308 27875664 L 14730151 27872443 L 14727619 27867460 L 14725748 27858657 L 14726033 27853076 L 14726694 27849255 L 14728763 27845134 L 14732614 27842475 L 14742474 27840380"/>
  <path class="fil0 str2" d=" M 11971129 34121145 L 11968082 34117592 L 11962056 34116523 L 11953052 34117934 L 11947916 34119604 L 11939802 34123754 L 11935556 34128161 L 11935179 34132827 L 11936069 34135566 L 11939116 34139118 L 11945141 34140187 L 11954146 34138776 L 11959282 34137109 L 11967396 34132956 L 11971643 34128549 L 11972019 34123884 L 11971129 34121145 M 11939802 34123754 L 11967396 34132956"/><path class="fil0 str2" d=" M 11932781 34148747 L 11923881 34121357"/><path class="fil0 str2" d=" M 11980029 34148535 L 11940520 34149260 M 11980029 34148535 L 11947639 34171174 M 11953837 34149475 L 11958287 34163171"/><path class="fil0 str2" d=" M 11983039 34186926 L 11986018 34184443 L 11988552 34180590 L 11989373 34177297 L 11987593 34171818 L 11984992 34169636 L 11980678 34168007 L 11976809 34167751 L 11971229 34168051 L 11962669 34170832 L 11957978 34173869 L 11955000 34176352 L 11952465 34180202 L 11951644 34183498 L 11953424 34188977 L 11956025 34191159 L 11960339 34192785 L 11964208 34193044"/>
  <path class="fil0 str2" d=" M 14442806 31845576 L 14439592 31848977 L 14439157 31855080 L 14441502 31863889 L 14443698 31868820 L 14448674 31876457 L 14453502 31880219 L 14458181 31880107 L 14460811 31878935 L 14464025 31875534 L 14464460 31869428 L 14462115 31860622 L 14459919 31855688 L 14454943 31848051 L 14450115 31844291 L 14445437 31844404 L 14442806 31845576 M 14448674 31876457 L 14454943 31848051"/><path class="fil0 str2" d=" M 14474263 31880827 L 14447954 31892541"/><path class="fil0 str2" d=" M 14483449 31841271 L 14484331 31846789 L 14483164 31851250 L 14479949 31854653 L 14478634 31855236 L 14473955 31855351 L 14469859 31853232 L 14466347 31848886 L 14465616 31847241 L 14464735 31841723 L 14465902 31837263 L 14469116 31833859 L 14470432 31833276 L 14475109 31833161 L 14479205 31835280 L 14483449 31841271 L 14487110 31849494 L 14489455 31858300 L 14489020 31864406 L 14485806 31867807 L 14483175 31868979 L 14478497 31869091 L 14475716 31866389"/><path class="fil0 str2" d=" M 14490164 31824489 L 14505539 31859020 M 14487532 31825661 L 14496741 31821562 L 14501420 31821447 L 14505516 31823566 L 14508295 31826269 L 14511807 31830617 L 14515467 31838837 L 14516348 31844357 L 14516497 31848232 L 14515330 31852692 L 14512116 31856093 L 14502907 31860192"/>
  <path class="fil0 str2" d=" M 15824620 30387172 L 15826861 30391281 L 15832532 30393581 L 15841634 30394072 L 15847004 30393508 L 15855804 30391135 L 15860874 30387707 L 15862213 30383222 L 15861911 30380358 L 15859670 30376250 L 15853999 30373950 L 15844897 30373459 L 15839527 30374023 L 15830726 30376396 L 15825657 30379824 L 15824318 30384309 L 15824620 30387172 M 15855804 30391135 L 15830726 30376396"/><path class="fil0 str2" d=" M 15867868 30368149 L 15870878 30396791"/><path class="fil0 str2" d=" M 15822362 30365690 L 15859954 30361740 M 15822362 30365690 L 15821007 30352802 L 15822346 30348317 L 15823985 30346699 L 15827415 30344890 L 15832785 30344326 L 15836516 30345380 L 15838457 30346625 L 15840699 30350732 L 15842053 30363623"/><path class="fil0 str2" d=" M 15819351 30337050 L 15856944 30333098 M 15819351 30337050 L 15817395 30318432 M 15837253 30335168 L 15836048 30323710"/>
  <path class="fil0 str2" d=" M 6516983 20549023 L 6520834 20546364 L 6522529 20540483 L 6522066 20531379 L 6520943 20526098 L 6517664 20517595 L 6513724 20512910 L 6509124 20512048 L 6506307 20512646 L 6502456 20515305 L 6500761 20521186 L 6501224 20530290 L 6502346 20535571 L 6505626 20544074 L 6509566 20548759 L 6514166 20549621 L 6516983 20549023 M 6517664 20517595 L 6505626 20544074"/><path class="fil0 str2" d=" M 6493541 20508000 L 6521712 20502011"/><path class="fil0 str2" d=" M 6495855 20553513 L 6487996 20516540 M 6495855 20553513 L 6477544 20557404 M 6492113 20535905 L 6480844 20538303 M 6487996 20516540 L 6469685 20520432"/><path class="fil0 str2" d=" M 6450979 20550170 L 6451265 20544589 L 6453334 20540468 L 6457185 20537810 L 6458594 20537512 L 6463193 20538374 L 6466759 20541296 L 6469290 20546279 L 6469664 20548039 L 6469379 20553620 L 6467310 20557741 L 6463459 20560400 L 6462050 20560698 L 6457451 20559836 L 6453885 20556914 L 6450979 20550170 L 6449108 20541367 L 6448646 20532265 L 6450340 20526384 L 6454191 20523725 L 6457008 20523127 L 6461608 20523989 L 6463765 20527211"/>
  <path class="fil0 str2" d=" M 12088402 30140844 L 12090644 30144951 L 12096315 30147250 L 12105416 30147744 L 12110787 30147177 L 12119587 30144804 L 12124656 30141376 L 12125994 30136892 L 12125694 30134028 L 12123452 30129919 L 12117780 30127619 L 12108680 30127128 L 12103309 30127692 L 12094509 30130065 L 12089439 30133496 L 12088101 30137978 L 12088402 30140844 M 12119587 30144804 L 12094509 30130065"/><path class="fil0 str2" d=" M 12131650 30121818 L 12134660 30150461"/><path class="fil0 str2" d=" M 12086145 30119362 L 12123737 30115410 M 12084036 30099311 L 12121630 30095361 M 12104046 30117480 L 12101938 30097431"/><path class="fil0 str2" d=" M 12089826 30068298 L 12086397 30070104 L 12083117 30073347 L 12081629 30076398 L 12082231 30082126 L 12084322 30084802 L 12088203 30087290 L 12091934 30088347 L 12097454 30089213 L 12106406 30088273 L 12111625 30086276 L 12115056 30084467 L 12118334 30081228 L 12119824 30078176 L 12119222 30072446 L 12117131 30069770 L 12113249 30067282 L 12109519 30066228"/>
  <path class="fil0 str2" d=" M 15566219 4857189 L 15564881 4852705 L 15559812 4849276 L 15551011 4846903 L 15545640 4846339 L 15536540 4846830 L 15530869 4849130 L 15528626 4853238 L 15528325 4856102 L 15529664 4860587 L 15534733 4864016 L 15543533 4866388 L 15548903 4866953 L 15558005 4866462 L 15563676 4864162 L 15565919 4860054 L 15566219 4857189 M 15536540 4846830 L 15558005 4866462"/><path class="fil0 str2" d=" M 15519960 4866807 L 15522971 4838164"/><path class="fil0 str2" d=" M 15563962 4878671 L 15526368 4874720 M 15563962 4878671 L 15562607 4891560 L 15560364 4895668 L 15558425 4896912 L 15554693 4897968 L 15549323 4897404 L 15545893 4895595 L 15544254 4893975 L 15542916 4889490 L 15544270 4876601"/><path class="fil0 str2" d=" M 15549893 4926422 L 15553624 4925366 L 15557506 4922878 L 15559597 4920202 L 15560198 4914474 L 15558709 4911421 L 15555430 4908181 L 15552000 4906372 L 15546781 4904376 L 15537830 4903435 L 15532309 4904303 L 15528579 4905359 L 15524697 4907846 L 15522606 4910523 L 15522004 4916251 L 15523492 4919303 L 15526772 4922544 L 15530201 4924353"/>
  <path class="fil0 str2" d=" M 14888161 10304692 L 14892012 10302033 L 14893708 10296152 L 14893244 10287049 L 14892122 10281767 L 14888842 10273264 L 14884903 10268581 L 14880302 10267718 L 14877486 10268316 L 14873635 10270976 L 14871940 10276856 L 14872403 10285959 L 14873525 10291241 L 14876805 10299746 L 14880745 10304428 L 14885345 10305291 L 14888161 10304692 M 14888842 10273264 L 14876805 10299746"/><path class="fil0 str2" d=" M 14864720 10263669 L 14892891 10257681"/><path class="fil0 str2" d=" M 14861400 10310380 L 14865251 10307722 L 14865911 10303901 L 14865163 10300379 L 14863006 10297158 L 14859814 10295996 L 14853806 10295433 L 14849206 10294570 L 14845640 10291647 L 14843483 10288426 L 14842360 10283144 L 14843021 10279323 L 14844055 10277263 L 14847906 10274604 L 14853541 10273406 L 14858140 10274270 L 14859923 10275731 L 14862080 10278952 L 14863203 10284234 L 14862542 10288055 L 14860474 10292175 L 14856623 10294833 L 14851363 10297792 L 14848920 10300152 L 14848260 10303972 L 14849008 10307493 L 14851165 10310716 L 14855765 10311578 L 14861400 10310380"/><path class="fil0 str2" d=" M 14833229 10316368 L 14836638 10276999 M 14833229 10316368 L 14814101 10281789 M 14835032 10290222 L 14820947 10293216"/>
  <path class="fil0 str2" d=" M 12595649 1546598 L 12596025 1551263 L 12600270 1555671 L 12608386 1559821 L 12613521 1561490 L 12622526 1562902 L 12628552 1561831 L 12631599 1558279 L 12632489 1555540 L 12632111 1550875 L 12627866 1546467 L 12619750 1542317 L 12614615 1540648 L 12605611 1539236 L 12599586 1540307 L 12596539 1543859 L 12595649 1546598 M 12622526 1562902 L 12605611 1539236"/><path class="fil0 str2" d=" M 12642896 1546809 L 12633996 1574199"/><path class="fil0 str2" d=" M 12603214 1523316 L 12639163 1534997 M 12602324 1526055 L 12604104 1520577 M 12638273 1537736 L 12640053 1532258"/><path class="fil0 str2" d=" M 12622008 1494598 L 12618138 1494855 L 12613825 1496482 L 12611223 1498665 L 12609443 1504143 L 12610264 1507438 L 12612799 1511290 L 12615777 1513772 L 12620468 1516810 L 12629028 1519591 L 12634609 1519890 L 12638477 1519633 L 12642791 1518007 L 12645393 1515824 L 12647172 1510346 L 12646351 1507050 L 12643817 1503199 L 12640838 1500717"/>
  <path class="fil0 str2" d=" M 12662568 11723713 L 12661229 11719228 L 12656160 11715799 L 12647359 11713427 L 12641989 11712862 L 12632888 11713354 L 12627216 11715654 L 12624975 11719761 L 12624674 11722625 L 12626013 11727110 L 12631082 11730539 L 12639882 11732912 L 12645252 11733476 L 12654354 11732985 L 12660025 11730686 L 12662266 11726577 L 12662568 11723713 M 12632888 11713354 L 12654354 11732985"/><path class="fil0 str2" d=" M 12616309 11733330 L 12619320 11704688"/><path class="fil0 str2" d=" M 12659558 11752355 L 12658068 11749302 L 12654790 11746062 L 12651359 11744254 L 12646140 11742257 L 12637188 11741317 L 12631668 11742185 L 12627937 11743239 L 12624056 11745728 L 12621965 11748404 L 12621362 11754133 L 12622851 11757185 L 12626131 11760426 L 12629560 11762233 L 12634780 11764230 L 12643731 11765170 L 12649252 11764304 L 12652983 11763248 L 12656864 11760760 L 12658956 11758083 L 12659558 11752355 M 12628674 11753453 L 12617030 11760916"/><path class="fil0 str2" d=" M 12657149 11775269 L 12619556 11771318 M 12657149 11775269 L 12655192 11793886 M 12639248 11773387 L 12638044 11784844"/>
  <path class="fil0 str2" d=" M 15870186 31778400 L 15865866 31780200 L 15862987 31785600 L 15861546 31794599 L 15861546 31800000 L 15862987 31808999 L 15865866 31814399 L 15870186 31816201 L 15873066 31816201 L 15877386 31814399 L 15880266 31808999 L 15881706 31800000 L 15881706 31794599 L 15880266 31785600 L 15877386 31780200 L 15873066 31778400 L 15870186 31778400 M 15862987 31808999 L 15880266 31785600"/><path class="fil0 str2" d=" M 15884586 31823400 L 15855786 31823400"/><path class="fil0 str2" d=" M 15894666 31778400 L 15894666 31816201 M 15891787 31778400 L 15897546 31778400 M 15891787 31816201 L 15897546 31816201"/><path class="fil0 str2" d=" M 15910506 31778400 L 15910506 31816201 M 15907626 31778400 L 15917706 31778400 L 15922026 31780200 L 15924906 31783798 L 15926346 31787399 L 15927786 31792800 L 15927786 31801799 L 15926346 31807199 L 15924906 31810800 L 15922026 31814399 L 15917706 31816201 L 15907626 31816201"/>
  <path class="fil0 str2" d=" M 15375106 3153954 L 15373553 3158369 L 15375638 3164123 L 15381363 3171215 L 15385377 3174828 L 15393028 3179780 L 15398968 3181253 L 15403197 3179247 L 15405124 3177107 L 15406677 3172692 L 15404591 3166939 L 15398865 3159846 L 15394853 3156233 L 15387200 3151281 L 15381260 3149808 L 15377032 3151814 L 15375106 3153954 M 15393028 3179780 L 15387200 3151281"/><path class="fil0 str2" d=" M 15418182 3173364 L 15398912 3194766"/><path class="fil0 str2" d=" M 15390522 3136832 L 15401121 3125061 L 15406041 3141117 L 15408931 3137907 L 15412197 3136971 L 15414498 3137105 L 15419475 3139648 L 15422149 3142057 L 15425200 3146741 L 15425948 3151290 L 15424394 3155704 L 15421503 3158915 L 15417275 3160921 L 15414974 3160787 L 15411335 3159448"/><path class="fil0 str2" d=" M 15409793 3115429 L 15437884 3140723 M 15407866 3117570 L 15414611 3110079 L 15418840 3108073 L 15423442 3108342 L 15427081 3109680 L 15432058 3112224 L 15438746 3118246 L 15441795 3122929 L 15443507 3126408 L 15444255 3130957 L 15442702 3135372 L 15435957 3142863"/>
  <path class="fil0 str2" d=" M 12392451 25135139 L 12397050 25134277 L 12400991 25129594 L 12404270 25121091 L 12405393 25115808 L 12405855 25106706 L 12404161 25100825 L 12400310 25098166 L 12397492 25097568 L 12392893 25098430 L 12388953 25103112 L 12385673 25111616 L 12384550 25116899 L 12384088 25126000 L 12385782 25131882 L 12389633 25134541 L 12392451 25135139 M 12405855 25106706 L 12384088 25126000"/><path class="fil0 str2" d=" M 12387722 25088129 L 12415892 25094118"/><path class="fil0 str2" d=" M 12368505 25130051 L 12376364 25093076 M 12371323 25130649 L 12365688 25129450 M 12379182 25093674 L 12373548 25092478"/><path class="fil0 str2" d=" M 12353012 25126757 L 12360871 25089782 M 12355828 25127355 L 12343151 25124660 L 12339300 25122001 L 12338266 25119941 L 12337606 25116123 L 12338355 25112600 L 12340512 25109377 L 12342294 25107917 L 12346894 25107055 M 12356754 25109150 L 12346894 25107055 L 12343043 25104396 L 12342009 25102336 L 12341348 25098515 L 12342471 25093232 L 12344628 25090012 L 12346411 25088549 L 12351011 25087687 L 12363687 25090380"/>
  <path class="fil0 str2" d=" M 15688347 12516661 L 15692198 12514002 L 15693892 12508121 L 15693430 12499019 L 15692308 12493737 L 15689028 12485233 L 15685087 12480550 L 15680488 12479687 L 15677670 12480286 L 15673819 12482945 L 15672125 12488825 L 15672587 12497928 L 15673710 12503210 L 15676990 12511715 L 15680930 12516397 L 15685531 12517260 L 15688347 12516661 M 15689028 12485233 L 15676990 12511715"/><path class="fil0 str2" d=" M 15664906 12475638 L 15693077 12469650"/><path class="fil0 str2" d=" M 15664401 12521751 L 15656542 12484777 M 15667219 12521152 L 15654542 12523846 L 15649942 12522984 L 15648160 12521523 L 15646003 12518300 L 15645255 12514780 L 15645914 12510959 L 15646949 12508898 L 15650800 12506240 M 15660660 12504144 L 15650800 12506240 L 15646199 12505378 L 15644417 12503916 L 15642260 12500694 L 15641137 12495412 L 15641798 12491591 L 15642832 12489532 L 15646683 12486872 L 15659360 12484178"/><path class="fil0 str2" d=" M 15623554 12530433 L 15637640 12527440 L 15635681 12511293 L 15634645 12513354 L 15630794 12516013 L 15626569 12516911 L 15621970 12516048 L 15618404 12513126 L 15615872 12508143 L 15615124 12504622 L 15615410 12499040 L 15617479 12494920 L 15621330 12492261 L 15625555 12491363 L 15630155 12492226 L 15631938 12493687 L 15634095 12496909"/>
  <path class="fil0 str2" d=" M 14336871 35230002 L 14341470 35229140 L 14345411 35224458 L 14348690 35215952 L 14349813 35210671 L 14350275 35201567 L 14348581 35195688 L 14344730 35193029 L 14341912 35192429 L 14337313 35193293 L 14333374 35197976 L 14330093 35206479 L 14328970 35211762 L 14328508 35220864 L 14330202 35226745 L 14334053 35229404 L 14336871 35230002 M 14350275 35201567 L 14328508 35220864"/><path class="fil0 str2" d=" M 14332142 35182993 L 14360312 35188979"/><path class="fil0 str2" d=" M 14312926 35224912 L 14320784 35187939 M 14315743 35225512 L 14310108 35224313 M 14323602 35188537 L 14317968 35187341"/><path class="fil0 str2" d=" M 14285966 35206301 L 14288498 35201318 L 14292062 35198395 L 14296663 35197534 L 14298072 35197832 L 14301923 35200490 L 14303991 35204611 L 14304277 35210192 L 14303903 35211953 L 14301372 35216936 L 14297806 35219858 L 14293206 35220722 L 14291798 35220422 L 14287946 35217763 L 14285878 35213642 L 14285966 35206301 L 14287838 35197497 L 14291118 35188994 L 14295057 35184311 L 14299656 35183447 L 14302474 35184047 L 14306325 35186706 L 14306986 35190527"/>
  <path class="fil0 str2" d=" M 12464327 21983854 L 12468178 21981196 L 12469873 21975314 L 12469410 21966210 L 12468288 21960930 L 12465008 21952426 L 12461068 21947741 L 12456468 21946879 L 12453652 21947478 L 12449799 21950136 L 12448105 21956018 L 12448569 21965122 L 12449691 21970402 L 12452971 21978906 L 12456910 21983591 L 12461511 21984453 L 12464327 21983854 M 12465008 21952426 L 12452971 21978906"/><path class="fil0 str2" d=" M 12440886 21942832 L 12469057 21936843"/><path class="fil0 str2" d=" M 12436157 21989841 L 12439566 21950473 M 12436157 21989841 L 12417030 21955263 M 12437960 21963696 L 12423875 21966689"/><path class="fil0 str2" d=" M 12416437 21994033 L 12408579 21957060 M 12419255 21993435 L 12409394 21995529 L 12404794 21994667 L 12401229 21991745 L 12399072 21988522 L 12396541 21983540 L 12394670 21974738 L 12394956 21969155 L 12395616 21965334 L 12397684 21961215 L 12401535 21958557 L 12411395 21956459"/>
  <path class="fil0 str2" d=" M 6662359 5388400 L 6658038 5390200 L 6655159 5395599 L 6653718 5404600 L 6653718 5410000 L 6655159 5419000 L 6658038 5424400 L 6662359 5426199 L 6665239 5426199 L 6669559 5424400 L 6672438 5419000 L 6673878 5410000 L 6673878 5404600 L 6672438 5395599 L 6669559 5390200 L 6665239 5388400 L 6662359 5388400 M 6655159 5419000 L 6672438 5395599"/><path class="fil0 str2" d=" M 6676759 5433400 L 6647958 5433400"/><path class="fil0 str2" d=" M 6683958 5388400 L 6683958 5426199 M 6683958 5388400 L 6702678 5388400 M 6683958 5406400 L 6695479 5406400 M 6683958 5426199 L 6702678 5426199"/><path class="fil0 str2" d=" M 6717078 5388400 L 6705559 5426199 M 6717078 5388400 L 6728599 5426199 M 6709879 5413599 L 6724279 5413599"/>
  <path class="fil0 str2" d=" M 15857432 33428400 L 15853112 33430200 L 15850233 33435600 L 15848792 33444599 L 15848792 33450000 L 15850233 33458999 L 15853112 33464399 L 15857432 33466201 L 15860312 33466201 L 15864632 33464399 L 15867512 33458999 L 15868952 33450000 L 15868952 33444599 L 15867512 33435600 L 15864632 33430200 L 15860312 33428400 L 15857432 33428400 M 15850233 33458999 L 15867512 33435600"/><path class="fil0 str2" d=" M 15871832 33473400 L 15843032 33473400"/><path class="fil0 str2" d=" M 15879031 33428400 L 15879031 33466201 M 15879031 33428400 L 15890552 33466201 M 15902072 33428400 L 15890552 33466201 M 15902072 33428400 L 15902072 33466201"/><path class="fil0 str2" d=" M 15927991 33428400 L 15913592 33428400 L 15912152 33444599 L 15913592 33442800 L 15917912 33441000 L 15922232 33441000 L 15926552 33442800 L 15929432 33446398 L 15930872 33451799 L 15930872 33455400 L 15929432 33460800 L 15926552 33464399 L 15922232 33466201 L 15917912 33466201 L 15913592 33464399 L 15912152 33462600 L 15910712 33458999"/>
  <path class="fil0 str2" d=" M 14113139 1833698 L 14117740 1832835 L 14121679 1828152 L 14124959 1819648 L 14126081 1814366 L 14126545 1805263 L 14124851 1799383 L 14120998 1796724 L 14118182 1796125 L 14113582 1796987 L 14109642 1801671 L 14106362 1810175 L 14105240 1815457 L 14104777 1824559 L 14106472 1830440 L 14110323 1833099 L 14113139 1833698 M 14126545 1805263 L 14104777 1824559"/><path class="fil0 str2" d=" M 14108410 1786687 L 14136580 1792675"/><path class="fil0 str2" d=" M 14092011 1829207 L 14099870 1792233 M 14092011 1829207 L 14080151 1788041 M 14072292 1825015 L 14080151 1788041"/><path class="fil0 str2" d=" M 14049755 1820225 L 14069080 1798570 L 14047952 1794079 M 14049755 1820225 L 14057614 1783251"/>
  <path class="fil0 str2" d=" M 11541983 33231406 L 11545834 33228747 L 11547530 33222866 L 11547066 33213764 L 11545944 33208481 L 11542664 33199978 L 11538725 33195295 L 11534124 33194431 L 11531308 33195031 L 11527457 33197690 L 11525762 33203571 L 11526225 33212673 L 11527347 33217956 L 11530627 33226459 L 11534567 33231142 L 11539167 33232004 L 11541983 33231406 M 11542664 33199978 L 11530627 33226459"/><path class="fil0 str2" d=" M 11518542 33190383 L 11546713 33184394"/><path class="fil0 str2" d=" M 11513813 33237395 L 11517222 33198024 M 11513813 33237395 L 11494686 33202814 M 11515616 33211247 L 11501531 33214240"/><path class="fil0 str2" d=" M 11477388 33232255 L 11477674 33226672 L 11479743 33222553 L 11483594 33219895 L 11485003 33219594 L 11489603 33220456 L 11493168 33223381 L 11495699 33228361 L 11496074 33230124 L 11495788 33235705 L 11493719 33239824 L 11489868 33242482 L 11488459 33242783 L 11483859 33241921 L 11480294 33238999 L 11477388 33232255 L 11475517 33223452 L 11475054 33214348 L 11476749 33208469 L 11480600 33205808 L 11483417 33205209 L 11488017 33206071 L 11490174 33209294"/>
  <path class="fil0 str2" d=" M 14057954 5522841 L 14062554 5521978 L 14066494 5517295 L 14069774 5508791 L 14070897 5503509 L 14071359 5494406 L 14069665 5488526 L 14065814 5485867 L 14062996 5485268 L 14058397 5486130 L 14054456 5490814 L 14051176 5499318 L 14050054 5504600 L 14049592 5513702 L 14051286 5519583 L 14055137 5522242 L 14057954 5522841 M 14071359 5494406 L 14049592 5513702"/><path class="fil0 str2" d=" M 14053225 5475830 L 14081396 5481818"/><path class="fil0 str2" d=" M 14019638 5509176 L 14021706 5513296 L 14025557 5515955 L 14031192 5517152 L 14035792 5516290 L 14039357 5513367 L 14040106 5509846 L 14039445 5506025 L 14038411 5503965 L 14035969 5501605 L 14028266 5496288 L 14025823 5493928 L 14024788 5491868 L 14024129 5488048 L 14025251 5482766 L 14028817 5479843 L 14033417 5478981 L 14039051 5480178 L 14042902 5482837 L 14044971 5486957"/><path class="fil0 str2" d=" M 13992216 5499666 L 13992875 5503487 L 13994945 5507608 L 13997387 5509967 L 14003021 5511164 L 14006213 5510003 L 14009779 5507080 L 14011936 5503858 L 14014466 5498875 L 14016337 5490072 L 14016052 5484490 L 14015391 5480670 L 14013323 5476550 L 14010881 5474190 L 14005246 5472993 L 14002055 5474155 L 13998489 5477077 L 13996333 5480299 L 13995209 5485581 M 14002253 5487078 L 13995209 5485581"/>
  <path class="fil0 str2" d=" M 15827581 27066979 L 15829822 27071088 L 15835494 27073388 L 15844595 27073879 L 15849965 27073315 L 15858765 27070942 L 15863835 27067514 L 15865174 27063029 L 15864873 27060166 L 15862631 27056057 L 15856960 27053757 L 15847858 27053266 L 15842489 27053830 L 15833687 27056203 L 15828619 27059631 L 15827280 27064116 L 15827581 27066979 M 15858765 27070942 L 15833687 27056203"/><path class="fil0 str2" d=" M 15870830 27047956 L 15873840 27076599"/><path class="fil0 str2" d=" M 15832166 27024509 L 15828737 27026318 L 15825457 27029558 L 15823968 27032609 L 15824571 27038339 L 15826662 27041015 L 15830543 27043503 L 15834274 27044558 L 15839794 27045427 L 15848746 27044484 L 15853966 27042487 L 15857395 27040681 L 15860675 27037438 L 15862164 27034387 L 15861561 27028659 L 15859470 27025983 L 15855589 27023496 L 15851859 27022438 L 15846488 27023002 M 15847241 27030163 L 15846488 27023002"/><path class="fil0 str2" d=" M 15821560 27009697 L 15860357 27017202 M 15821560 27009697 L 15857949 26994289 M 15847375 27014223 L 15845870 26999902"/>
  <path class="fil0 str2" d=" M 9889342 5981575 L 9886127 5984977 L 9885693 5991082 L 9888038 5999889 L 9890234 6004822 L 9895211 6012459 L 9900038 6016220 L 9904716 6016107 L 9907348 6014936 L 9910562 6011535 L 9910997 6005430 L 9908651 5996622 L 9906455 5991690 L 9901479 5984053 L 9896652 5980291 L 9891973 5980404 L 9889342 5981575 M 9895211 6012459 L 9901479 5984053"/><path class="fil0 str2" d=" M 9920800 6016828 L 9894490 6028542"/><path class="fil0 str2" d=" M 9914634 5978196 L 9916533 5975380 L 9918283 5968690 L 9933658 6003222"/><path class="fil0 str2" d=" M 9956147 5961684 L 9953367 5958981 L 9949272 5956864 L 9945909 5956390 L 9940646 5958733 L 9938748 5961549 L 9937581 5966009 L 9937730 5969884 L 9938610 5975402 L 9942271 5983624 L 9945783 5987972 L 9948563 5990675 L 9952658 5992792 L 9956021 5993265 L 9961283 5990922 L 9963182 5988107 L 9964349 5983646 L 9964200 5979772 L 9962004 5974839 M 9955426 5977767 L 9962004 5974839"/>
  <path class="fil0 str2" d=" M 9585629 23935349 L 9590228 23934487 L 9594168 23929804 L 9597448 23921301 L 9598571 23916018 L 9599033 23906916 L 9597339 23901035 L 9593488 23898376 L 9590670 23897775 L 9586071 23898640 L 9582131 23903322 L 9578851 23911826 L 9577728 23917109 L 9577266 23926210 L 9578960 23932092 L 9582811 23934750 L 9585629 23935349 M 9599033 23906916 L 9577266 23926210"/><path class="fil0 str2" d=" M 9580899 23888339 L 9609070 23894326"/><path class="fil0 str2" d=" M 9557458 23929362 L 9560650 23928200 L 9564215 23925278 L 9566372 23922055 L 9568903 23917072 L 9570774 23908269 L 9570488 23902687 L 9569829 23898867 L 9567760 23894748 L 9565317 23892387 L 9559683 23891191 L 9556492 23892351 L 9552926 23895275 L 9550769 23898496 L 9548237 23903479 L 9546367 23912282 L 9546652 23917863 L 9547312 23921684 L 9549381 23925805 L 9551824 23928164 L 9557458 23929362 M 9559594 23898532 L 9553389 23886171"/><path class="fil0 str2" d=" M 9520639 23908654 L 9523170 23903671 L 9526735 23900749 L 9531336 23899887 L 9532744 23900185 L 9536595 23902844 L 9538664 23906965 L 9538950 23912546 L 9538576 23914306 L 9536044 23919289 L 9532479 23922211 L 9527879 23923073 L 9526470 23922775 L 9522619 23920117 L 9520550 23915996 L 9520639 23908654 L 9522510 23899851 L 9525790 23891347 L 9529729 23886665 L 9534329 23885800 L 9537146 23886398 L 9540997 23889060 L 9541658 23892880"/>
  <path class="fil0 str2" d=" M 9261710 26328400 L 9257390 26330200 L 9254509 26335600 L 9253070 26344599 L 9253070 26350000 L 9254509 26358999 L 9257390 26364399 L 9261710 26366201 L 9264589 26366201 L 9268909 26364399 L 9271790 26358999 L 9273229 26350000 L 9273229 26344599 L 9271790 26335600 L 9268909 26330200 L 9264589 26328400 L 9261710 26328400 M 9254509 26358999 L 9271790 26335600"/><path class="fil0 str2" d=" M 9276110 26373400 L 9247310 26373400"/><path class="fil0 str2" d=" M 9290510 26328400 L 9278989 26366201 M 9290510 26328400 L 9302030 26366201 M 9283309 26353601 L 9297709 26353601"/><path class="fil0 str2" d=" M 9310670 26328400 L 9310670 26366201 M 9307789 26328400 L 9320750 26328400 L 9325070 26330200 L 9326510 26331999 L 9327949 26335600 L 9327949 26339199 L 9326510 26342800 L 9325070 26344599 L 9320750 26346398 M 9310670 26346398 L 9320750 26346398 L 9325070 26348200 L 9326510 26350000 L 9327949 26353601 L 9327949 26358999 L 9326510 26362600 L 9325070 26364399 L 9320750 26366201 L 9307789 26366201"/>
  <path class="fil0 str2" d=" M 12177554 31908474 L 12182154 31907612 L 12186094 31902927 L 12189375 31894423 L 12190496 31889143 L 12190959 31880039 L 12189265 31874157 L 12185413 31871499 L 12182597 31870900 L 12177996 31871762 L 12174057 31876447 L 12170777 31884951 L 12169654 31890231 L 12169191 31899335 L 12170886 31905217 L 12174737 31907875 L 12177554 31908474 M 12190959 31880039 L 12169191 31899335"/><path class="fil0 str2" d=" M 12172825 31861462 L 12200996 31867451"/><path class="fil0 str2" d=" M 12156427 31903981 L 12164285 31867009 M 12156427 31903981 L 12153017 31864614 M 12133890 31899191 L 12153017 31864614 M 12133890 31899191 L 12141749 31862219"/><path class="fil0 str2" d=" M 12111353 31894401 L 12130678 31872746 L 12109550 31868256 M 12111353 31894401 L 12119212 31857429"/>
  <path class="fil0 str2" d=" M 15697401 34537746 L 15702001 34536884 L 15705941 34532199 L 15709221 34523696 L 15710344 34518415 L 15710806 34509311 L 15709112 34503430 L 15705261 34500771 L 15702443 34500173 L 15697844 34501035 L 15693903 34505720 L 15690623 34514223 L 15689501 34519504 L 15689039 34528608 L 15690733 34534489 L 15694584 34537148 L 15697401 34537746 M 15710806 34509311 L 15689039 34528608"/><path class="fil0 str2" d=" M 15692672 34490734 L 15720843 34496723"/><path class="fil0 str2" d=" M 15676273 34533254 L 15684132 34496281 M 15656553 34529064 L 15681512 34508605 M 15672598 34515913 L 15664412 34492089"/><path class="fil0 str2" d=" M 15633820 34511350 L 15636351 34506367 L 15639916 34503444 L 15644516 34502583 L 15645925 34502883 L 15649776 34505541 L 15651845 34509660 L 15652131 34515241 L 15651756 34517001 L 15649226 34521984 L 15645660 34524907 L 15641060 34525771 L 15639652 34525471 L 15635800 34522812 L 15633731 34518691 L 15633820 34511350 L 15635690 34502546 L 15638970 34494042 L 15642911 34489360 L 15647510 34488498 L 15650328 34489096 L 15654179 34491755 L 15654838 34495576"/>
  <path class="fil0 str2" d=" M 15472165 5935897 L 15476766 5935035 L 15480705 5930352 L 15483985 5921848 L 15485107 5916566 L 15485571 5907463 L 15483876 5901582 L 15480024 5898923 L 15477208 5898325 L 15472608 5899187 L 15468668 5903870 L 15465388 5912374 L 15464266 5917656 L 15463803 5926759 L 15465498 5932640 L 15469349 5935299 L 15472165 5935897 M 15485571 5907463 L 15463803 5926759"/><path class="fil0 str2" d=" M 15467436 5888887 L 15495606 5894875"/><path class="fil0 str2" d=" M 15451037 5931406 L 15458896 5894432 M 15451037 5931406 L 15439177 5890241 M 15431318 5927215 L 15439177 5890241"/><path class="fil0 str2" d=" M 15415825 5923922 L 15420424 5923059 L 15422581 5919837 L 15423330 5916316 L 15422669 5912495 L 15420227 5910136 L 15414967 5907177 L 15411115 5904519 L 15409047 5900399 L 15408387 5896578 L 15409510 5891296 L 15411667 5888074 L 15413449 5886613 L 15418049 5885750 L 15423684 5886948 L 15427535 5889606 L 15428569 5891666 L 15429229 5895487 L 15428106 5900769 L 15425949 5903991 L 15422384 5906914 L 15417784 5907777 L 15411776 5908339 L 15408583 5909501 L 15406427 5912723 L 15405678 5916245 L 15406339 5920065 L 15410190 5922724 L 15415825 5923922"/>
  <path class="fil0 str2" d=" M 14147513 30806699 L 14151364 30804040 L 14153059 30798159 L 14152596 30789057 L 14151474 30783774 L 14148194 30775270 L 14144254 30770588 L 14139654 30769726 L 14136837 30770324 L 14132985 30772983 L 14131291 30778864 L 14131754 30787966 L 14132877 30793249 L 14136157 30801752 L 14140096 30806435 L 14144697 30807297 L 14147513 30806699 M 14148194 30775270 L 14136157 30801752"/><path class="fil0 str2" d=" M 14124072 30765676 L 14152243 30759689"/><path class="fil0 str2" d=" M 14123568 30811789 L 14115709 30774814 M 14126385 30811191 L 14113708 30813884 L 14109108 30813022 L 14107326 30811560 L 14105169 30808339 L 14104421 30804816 L 14105080 30800996 L 14106115 30798937 L 14109967 30796279 M 14119826 30794182 L 14109967 30796279 L 14105366 30795415 L 14103583 30793955 L 14101427 30790732 L 14100303 30785451 L 14100964 30781630 L 14101998 30779570 L 14105849 30776911 L 14118526 30774216"/><path class="fil0 str2" d=" M 14078692 30808447 L 14078978 30802863 L 14081047 30798745 L 14084898 30796086 L 14086307 30795786 L 14090906 30796647 L 14094472 30799570 L 14097004 30804553 L 14097377 30806315 L 14097092 30811896 L 14095024 30816015 L 14091171 30818674 L 14089764 30818974 L 14085163 30818112 L 14081599 30815190 L 14078692 30808447 L 14076821 30799643 L 14076358 30790539 L 14078052 30784658 L 14081904 30781999 L 14084721 30781401 L 14089321 30782263 L 14091478 30785485"/>
  <path class="fil0 str2" d=" M 12594332 3058399 L 12590012 3060199 L 12587132 3065599 L 12585693 3074599 L 12585693 3080000 L 12587132 3088999 L 12590012 3094400 L 12594332 3096199 L 12597213 3096199 L 12601533 3094400 L 12604412 3088999 L 12605853 3080000 L 12605853 3074599 L 12604412 3065599 L 12601533 3060199 L 12597213 3058399 L 12594332 3058399 M 12587132 3088999 L 12604412 3065599"/><path class="fil0 str2" d=" M 12608732 3103399 L 12579932 3103399"/><path class="fil0 str2" d=" M 12615932 3058399 L 12615932 3096199 M 12636092 3058399 L 12636092 3096199 M 12615932 3076400 L 12636092 3076400"/><path class="fil0 str2" d=" M 12663452 3071000 L 12662012 3076400 L 12659133 3080000 L 12654813 3081799 L 12653372 3081799 L 12649052 3080000 L 12646173 3076400 L 12644732 3071000 L 12644732 3069200 L 12646173 3063800 L 12649052 3060199 L 12653372 3058399 L 12654813 3058399 L 12659133 3060199 L 12662012 3063800 L 12663452 3071000 L 12663452 3080000 L 12662012 3088999 L 12659133 3094400 L 12654813 3096199 L 12651932 3096199 L 12647612 3094400 L 12646173 3090799"/>
  <path class="fil0 str2" d=" M 12576855 4860428 L 12581455 4859565 L 12585394 4854882 L 12588674 4846378 L 12589797 4841096 L 12590260 4831993 L 12588565 4826112 L 12584714 4823453 L 12581896 4822855 L 12577297 4823717 L 12573356 4828400 L 12570078 4836904 L 12568955 4842186 L 12568492 4851289 L 12570186 4857170 L 12574038 4859829 L 12576855 4860428 M 12590260 4831993 L 12568492 4851289"/><path class="fil0 str2" d=" M 12572125 4813417 L 12600296 4819405"/><path class="fil0 str2" d=" M 12555726 4855937 L 12563586 4818963 M 12555726 4855937 L 12543050 4853242 L 12539199 4850583 L 12538164 4848523 L 12537504 4844703 L 12538253 4841181 L 12540410 4837959 L 12542192 4836498 L 12546791 4835635 L 12559468 4838330 M 12549609 4836234 L 12543865 4814771"/><path class="fil0 str2" d=" M 12520513 4848452 L 12539641 4813873 M 12520513 4848452 L 12517104 4809083 M 12532795 4825299 L 12518709 4822306"/>
  <path class="fil0 str2" d=" M 12565056 19487613 L 12569655 19486751 L 12573596 19482067 L 12576876 19473564 L 12577998 19468282 L 12578460 19459179 L 12576766 19453298 L 12572915 19450639 L 12570098 19450041 L 12565498 19450903 L 12561558 19455587 L 12558278 19464090 L 12557156 19469372 L 12556693 19478475 L 12558387 19484356 L 12562239 19487015 L 12565056 19487613 M 12578460 19459179 L 12556693 19478475"/><path class="fil0 str2" d=" M 12560327 19440603 L 12588497 19446590"/><path class="fil0 str2" d=" M 12543928 19483122 L 12549542 19456712 L 12549256 19451131 L 12547187 19447011 L 12543336 19444353 L 12540518 19443753 L 12535919 19444616 L 12532353 19447539 L 12529822 19452521 L 12524208 19478931"/><path class="fil0 str2" d=" M 12496501 19463840 L 12497160 19467661 L 12499229 19471782 L 12501672 19474140 L 12507307 19475338 L 12510498 19474177 L 12514063 19471253 L 12516220 19468032 L 12518751 19463049 L 12520622 19454246 L 12520336 19448664 L 12519676 19444843 L 12517608 19440723 L 12515166 19438364 L 12509531 19437166 L 12506340 19438328 L 12502774 19441251 L 12500617 19444473 L 12499494 19449755 M 12506538 19451252 L 12499494 19449755"/>
  <path class="fil0 str2" d=" M 15821727 24715268 L 15823968 24719377 L 15829641 24721677 L 15838741 24722167 L 15844112 24721604 L 15852912 24719230 L 15857982 24715803 L 15859320 24711318 L 15859019 24708452 L 15856777 24704345 L 15851105 24702045 L 15842004 24701555 L 15836634 24702119 L 15827834 24704492 L 15822764 24707919 L 15821425 24712404 L 15821727 24715268 M 15852912 24719230 L 15827834 24704492"/><path class="fil0 str2" d=" M 15864975 24696242 L 15867985 24724885"/><path class="fil0 str2" d=" M 15818717 24686625 L 15820958 24690734 L 15826629 24693034 L 15835731 24693525 L 15841102 24692961 L 15849902 24690588 L 15854970 24687160 L 15856309 24682675 L 15856008 24679812 L 15853767 24675703 L 15848095 24673403 L 15838994 24672912 L 15833624 24673476 L 15824824 24675849 L 15819754 24679277 L 15818415 24683762 L 15818717 24686625 M 15849902 24690588 L 15824824 24675849"/><path class="fil0 str2" d=" M 15815856 24659416 L 15854654 24666921 M 15815856 24659416 L 15852246 24644008 M 15841671 24663942 L 15840166 24649621"/>
  <path class="fil0 str2" d=" M 12582973 10507241 L 12579759 10510643 L 12579324 10516746 L 12581669 10525555 L 12583865 10530488 L 12588841 10538123 L 12593669 10541885 L 12598348 10541773 L 12600979 10540601 L 12604193 10537200 L 12604627 10531096 L 12602282 10522288 L 12600086 10517354 L 12595111 10509719 L 12590283 10505957 L 12585604 10506069 L 12582973 10507241 M 12588841 10538123 L 12595111 10509719"/><path class="fil0 str2" d=" M 12614431 10542493 L 12588121 10554207"/><path class="fil0 str2" d=" M 12609283 10495527 L 12606069 10498928 L 12605634 10505032 L 12607979 10513841 L 12610175 10518774 L 12615152 10526409 L 12619979 10530172 L 12624658 10530059 L 12627288 10528887 L 12630504 10525485 L 12630938 10519382 L 12628592 10510573 L 12626396 10505640 L 12621420 10498005 L 12616593 10494243 L 12611914 10494355 L 12609283 10495527 M 12615152 10526409 L 12621420 10498005"/><path class="fil0 str2" d=" M 12630332 10486156 L 12645706 10520688 M 12627700 10487327 L 12636909 10483227 L 12641588 10483115 L 12645683 10485231 L 12648463 10487935 L 12651975 10492282 L 12655634 10500504 L 12656516 10506022 L 12656665 10509897 L 12655498 10514357 L 12652283 10517760 L 12643074 10521859"/>
  <path class="fil0 str2" d=" M 12582312 15323872 L 12584554 15327980 L 12590225 15330280 L 12599327 15330771 L 12604697 15330207 L 12613497 15327834 L 12618566 15324405 L 12619904 15319921 L 12619604 15317056 L 12617362 15312949 L 12611690 15310649 L 12602590 15310157 L 12597219 15310722 L 12588419 15313094 L 12583349 15316523 L 12582011 15321008 L 12582312 15323872 M 12613497 15327834 L 12588419 15313094"/><path class="fil0 str2" d=" M 12625560 15304847 L 12628570 15333489"/><path class="fil0 str2" d=" M 12579301 15295230 L 12581544 15299338 L 12587215 15301638 L 12596315 15302130 L 12601687 15301564 L 12610487 15299191 L 12615556 15295762 L 12616894 15291279 L 12616594 15288414 L 12614351 15284306 L 12608680 15282006 L 12599580 15281516 L 12594208 15282080 L 12585408 15284453 L 12580339 15287882 L 12579001 15292365 L 12579301 15295230 M 12610487 15299191 L 12585408 15284453"/><path class="fil0 str2" d=" M 12576593 15269451 L 12578834 15273560 L 12582564 15274616 L 12586145 15274239 L 12589575 15272431 L 12591064 15269378 L 12592252 15263461 L 12593591 15258978 L 12596870 15255737 L 12600300 15253929 L 12605670 15253364 L 12609400 15254420 L 12611341 15255664 L 12613583 15259772 L 12614185 15265500 L 12612846 15269985 L 12611207 15271605 L 12607777 15273414 L 12602407 15273978 L 12598676 15272922 L 12594794 15270434 L 12592553 15266326 L 12590161 15260786 L 12588070 15258110 L 12584339 15257054 L 12580759 15257430 L 12577329 15259239 L 12575989 15263724 L 12576593 15269451"/>
  <path class="fil0 str2" d=" M 12169853 35316508 L 12172095 35320615 L 12177767 35322915 L 12186868 35323408 L 12192238 35322841 L 12201038 35320468 L 12206108 35317041 L 12207446 35312556 L 12207145 35309692 L 12204903 35305583 L 12199232 35303283 L 12190131 35302792 L 12184760 35303356 L 12175960 35305729 L 12170891 35309160 L 12169553 35313642 L 12169853 35316508 M 12201038 35320468 L 12175960 35305729"/><path class="fil0 str2" d=" M 12213101 35297482 L 12216112 35326125"/><path class="fil0 str2" d=" M 12166843 35287866 L 12169085 35291975 L 12174757 35294272 L 12183857 35294765 L 12189228 35294201 L 12198028 35291828 L 12203098 35288398 L 12204436 35283913 L 12204135 35281049 L 12201893 35276943 L 12196221 35274643 L 12187121 35274150 L 12181750 35274714 L 12172950 35277087 L 12167880 35280517 L 12166542 35285002 L 12166843 35287866 M 12198028 35291828 L 12172950 35277087"/><path class="fil0 str2" d=" M 12163983 35260656 L 12166225 35264763 L 12171896 35267062 L 12180998 35267553 L 12186368 35266989 L 12195168 35264616 L 12200238 35261188 L 12201577 35256704 L 12201275 35253840 L 12199033 35249731 L 12193361 35247431 L 12184261 35246940 L 12178890 35247504 L 12170090 35249877 L 12165020 35253308 L 12163682 35257790 L 12163983 35260656 M 12195168 35264616 L 12170090 35249877"/>
  <path class="fil0 str2" d=" M 14243382 3766933 L 14245625 3771041 L 14251296 3773341 L 14260397 3773832 L 14265767 3773268 L 14274567 3770895 L 14279637 3767466 L 14280975 3762982 L 14280675 3760118 L 14278432 3756009 L 14272761 3753710 L 14263660 3753218 L 14258289 3753783 L 14249489 3756156 L 14244420 3759584 L 14243082 3764069 L 14243382 3766933 M 14274567 3770895 L 14249489 3756156"/><path class="fil0 str2" d=" M 14286630 3747908 L 14289641 3776550"/><path class="fil0 str2" d=" M 14240372 3738291 L 14242614 3742399 L 14248286 3744699 L 14257386 3745190 L 14262757 3744625 L 14271557 3742253 L 14276627 3738824 L 14277965 3734339 L 14277664 3731475 L 14275422 3727367 L 14269750 3725067 L 14260650 3724576 L 14255279 3725140 L 14246479 3727513 L 14241409 3730942 L 14240072 3735426 L 14240372 3738291 M 14271557 3742253 L 14246479 3727513"/><path class="fil0 str2" d=" M 14236610 3702488 L 14238115 3716809 L 14254376 3716548 L 14252435 3715304 L 14250194 3711195 L 14249742 3706899 L 14251081 3702415 L 14254360 3699174 L 14259580 3697178 L 14263160 3696801 L 14268681 3697669 L 14272562 3700157 L 14274804 3704265 L 14275256 3708562 L 14273917 3713046 L 14272277 3714666 L 14268847 3716475"/>
  <path class="fil0 str2" d=" M 12002895 8715333 L 12007495 8714471 L 12011434 8709788 L 12014714 8701284 L 12015837 8696002 L 12016300 8686899 L 12014605 8681018 L 12010754 8678359 L 12007937 8677761 L 12003337 8678623 L 11999396 8683306 L 11996118 8691810 L 11994995 8697092 L 11994532 8706195 L 11996226 8712076 L 12000078 8714735 L 12002895 8715333 M 12016300 8686899 L 11994532 8706195"/><path class="fil0 str2" d=" M 11998165 8668323 L 12026336 8674311"/><path class="fil0 str2" d=" M 11974724 8709346 L 11979323 8708483 L 11983264 8703800 L 11986544 8695296 L 11987666 8690014 L 11988128 8680911 L 11986434 8675031 L 11982583 8672372 L 11979766 8671773 L 11975166 8672636 L 11971226 8677319 L 11967946 8685823 L 11966823 8691105 L 11966361 8700207 L 11968055 8706088 L 11971906 8708747 L 11974724 8709346 M 11988128 8680911 L 11966361 8700207"/><path class="fil0 str2" d=" M 11955004 8705154 L 11962863 8668180 M 11955004 8705154 L 11936694 8701262 M 11958747 8687548 L 11947479 8685153 M 11962863 8668180 L 11944553 8664288"/>
  <path class="fil0 str2" d=" M 13990114 805654 L 13994714 804791 L 13998653 800108 L 14001933 791604 L 14003056 786322 L 14003519 777220 L 14001824 771339 L 13997973 768680 L 13995156 768081 L 13990556 768944 L 13986616 773627 L 13983337 782131 L 13982214 787413 L 13981751 796516 L 13983446 802396 L 13987297 805055 L 13990114 805654 M 14003519 777220 L 13981751 796516"/><path class="fil0 str2" d=" M 13985384 758643 L 14013555 764631"/><path class="fil0 str2" d=" M 13961943 799666 L 13966542 798804 L 13970483 794120 L 13973763 785616 L 13974885 780334 L 13975347 771232 L 13973653 765351 L 13969802 762692 L 13966986 762093 L 13962385 762956 L 13958446 767639 L 13955166 776143 L 13954042 781425 L 13953580 790528 L 13955274 796408 L 13959125 799067 L 13961943 799666 M 13975347 771232 L 13953580 790528"/><path class="fil0 str2" d=" M 13942224 795475 L 13950083 758501 M 13942224 795475 L 13923913 791582 M 13945966 777868 L 13934698 775473"/>
  <path class="fil0 str2" d=" M 15826876 15101829 L 15829118 15105938 L 15834790 15108238 L 15843891 15108729 L 15849261 15108165 L 15858061 15105792 L 15863131 15102363 L 15864468 15097879 L 15864168 15095014 L 15861926 15090906 L 15856254 15088607 L 15847154 15088115 L 15841783 15088680 L 15832983 15091052 L 15827913 15094481 L 15826575 15098966 L 15826876 15101829 M 15858061 15105792 L 15832983 15091052"/><path class="fil0 str2" d=" M 15870124 15082805 L 15873134 15111447"/><path class="fil0 str2" d=" M 15824619 15080349 L 15851470 15077526 L 15856690 15075529 L 15859969 15072288 L 15861308 15067805 L 15861007 15064940 L 15858765 15060832 L 15854884 15058344 L 15849364 15057476 L 15822510 15060299"/><path class="fil0 str2" d=" M 15820705 15043114 L 15859501 15050618 M 15820705 15043114 L 15857093 15027705 M 15846519 15047640 L 15845014 15033319"/>
  <path class="fil0 str2" d=" M 12570694 16355852 L 12567647 16352299 L 12561622 16351229 L 12552617 16352640 L 12547481 16354309 L 12539367 16358460 L 12535122 16362867 L 12534744 16367532 L 12535634 16370272 L 12538681 16373824 L 12544707 16374893 L 12553712 16373482 L 12558847 16371813 L 12566961 16367663 L 12571207 16363255 L 12571584 16358591 L 12570694 16355852 M 12539367 16358460 L 12566961 16367663"/><path class="fil0 str2" d=" M 12532347 16383453 L 12523447 16356062"/><path class="fil0 str2" d=" M 12571412 16381358 L 12574013 16383541 L 12580484 16385981 L 12544534 16397662"/><path class="fil0 str2" d=" M 12577264 16405196 L 12578977 16404639 L 12582845 16404897 L 12585002 16405710 L 12587603 16407893 L 12589383 16413371 L 12588562 16416667 L 12587294 16418592 L 12584316 16421074 L 12580892 16422187 L 12577023 16421929 L 12570998 16420859 L 12549428 16412727 L 12555659 16431900"/>
  <path class="fil0 str2" d=" M 14122966 24014985 L 14118287 24014870 L 14113460 24018632 L 14108483 24026269 L 14106287 24031203 L 14103942 24040009 L 14104377 24046115 L 14107591 24049516 L 14110223 24050688 L 14114901 24050800 L 14119729 24047038 L 14124704 24039401 L 14126901 24034470 L 14129246 24025661 L 14128812 24019558 L 14125598 24016154 L 14122966 24014985 M 14103942 24040009 L 14129246 24025661"/><path class="fil0 str2" d=" M 14117818 24061950 L 14091508 24050236"/><path class="fil0 str2" d=" M 14142698 24023769 L 14131717 24048435 L 14130836 24053955 L 14132003 24058415 L 14135217 24061816 L 14137849 24062988 L 14142526 24063100 L 14146622 24060983 L 14150134 24056635 L 14161115 24031970"/><path class="fil0 str2" d=" M 14180986 24054609 L 14177474 24058955 L 14173378 24061074 L 14168699 24060961 L 14167384 24060375 L 14164169 24056972 L 14163002 24052512 L 14163884 24046994 L 14164616 24045349 L 14168128 24041003 L 14172224 24038884 L 14176901 24038999 L 14178217 24039582 L 14181431 24042985 L 14182598 24047446 L 14180986 24054609 L 14177325 24062829 L 14172348 24070466 L 14167521 24074228 L 14162843 24074116 L 14160212 24072944 L 14156998 24069543 L 14157145 24065668"/>
  <path class="fil0 str2" d=" M 14624509 25420493 L 14619830 25420380 L 14615003 25424143 L 14610026 25431779 L 14607830 25436713 L 14605485 25445520 L 14605920 25451625 L 14609134 25455026 L 14611765 25456198 L 14616444 25456311 L 14621271 25452548 L 14626247 25444912 L 14628443 25439980 L 14630788 25431171 L 14630354 25425068 L 14627139 25421665 L 14624509 25420493 M 14605485 25445520 L 14630788 25431171"/><path class="fil0 str2" d=" M 14619361 25467460 L 14593050 25455747"/><path class="fil0 str2" d=" M 14640581 25437502 L 14641313 25435856 L 14644093 25433154 L 14646140 25432094 L 14649503 25431623 L 14654765 25433964 L 14656665 25436782 L 14657248 25439011 L 14657099 25442885 L 14655634 25446174 L 14652855 25448876 L 14648027 25452639 L 14627551 25463225 L 14645968 25471425"/><path class="fil0 str2" d=" M 14686337 25448022 L 14657807 25476696 M 14667921 25439821 L 14686337 25448022"/>
  <path class="fil0 str2" d=" M 15824757 7141239 L 15826999 7145347 L 15832670 7147647 L 15841772 7148138 L 15847142 7147574 L 15855942 7145201 L 15861011 7141772 L 15862351 7137288 L 15862049 7134423 L 15859808 7130315 L 15854135 7128015 L 15845035 7127524 L 15839664 7128088 L 15830864 7130462 L 15825794 7133890 L 15824456 7138375 L 15824757 7141239 M 15855942 7145201 L 15830864 7130462"/><path class="fil0 str2" d=" M 15868005 7122214 L 15871016 7150856"/><path class="fil0 str2" d=" M 15821898 7114028 L 15859490 7110078 M 15822951 7124053 L 15820843 7104004"/><path class="fil0 str2" d=" M 15819489 7091115 L 15858286 7098621 M 15819489 7091115 L 15855877 7075707 M 15845303 7095642 L 15843798 7081320"/>
  <path class="fil0 str2" d=" M 8385450 925103 L 8380772 924990 L 8375944 928752 L 8370968 936388 L 8368771 941321 L 8366427 950129 L 8366861 956234 L 8370076 959635 L 8372706 960806 L 8377385 960919 L 8382213 957157 L 8387189 949521 L 8389385 944588 L 8391730 935780 L 8391295 929676 L 8388081 926274 L 8385450 925103 M 8366427 950129 L 8391730 935780"/><path class="fil0 str2" d=" M 8380302 972070 L 8353992 960356"/><path class="fil0 str2" d=" M 8410445 936231 L 8395070 970763 M 8401236 932131 L 8419653 940331"/><path class="fil0 str2" d=" M 8435576 961213 L 8432064 965561 L 8427969 967678 L 8423291 967565 L 8421975 966979 L 8418761 963578 L 8417594 959118 L 8418475 953599 L 8419207 951955 L 8422719 947607 L 8426814 945490 L 8431493 945603 L 8432808 946188 L 8436022 949590 L 8437189 954050 L 8435576 961213 L 8431916 969435 L 8426940 977071 L 8422113 980833 L 8417434 980720 L 8414803 979549 L 8411588 976147 L 8411737 972273"/>
  <path class="fil0 str2" d=" M 12486201 20723500 L 12488443 20727607 L 12494114 20729907 L 12503216 20730400 L 12508586 20729833 L 12517386 20727460 L 12522456 20724033 L 12523793 20719548 L 12523493 20716684 L 12521251 20712575 L 12515579 20710275 L 12506479 20709785 L 12501108 20710349 L 12492308 20712722 L 12487238 20716152 L 12485900 20720634 L 12486201 20723500 M 12517386 20727460 L 12492308 20712722"/><path class="fil0 str2" d=" M 12529449 20704475 L 12532459 20733117"/><path class="fil0 str2" d=" M 12490803 20698400 L 12488712 20695725 L 12482890 20691994 L 12520483 20688041"/><path class="fil0 str2" d=" M 12480482 20669079 L 12482723 20673188 L 12486453 20674243 L 12490034 20673867 L 12493464 20672058 L 12494953 20669006 L 12496141 20663090 L 12497480 20658605 L 12500759 20655366 L 12504189 20653557 L 12509559 20652993 L 12513289 20654047 L 12515230 20655292 L 12517473 20659399 L 12518074 20665129 L 12516735 20669614 L 12515096 20671232 L 12511666 20673041 L 12506296 20673605 L 12502565 20672551 L 12498684 20670063 L 12496442 20665954 L 12494050 20660415 L 12491959 20657739 L 12488228 20656682 L 12484648 20657058 L 12481218 20658867 L 12479879 20663352 L 12480482 20669079"/>
  <path class="fil0 str2" d=" M 15027210 8146422 L 15022982 8144415 L 15017042 8145889 L 15009390 8150841 L 15005377 8154454 L 14999652 8161546 L 14997567 8167300 L 14999119 8171715 L 15001047 8173855 L 15005274 8175861 L 15011215 8174388 L 15018867 8169436 L 15022879 8165822 L 15028604 8158730 L 15030690 8152977 L 15029138 8148562 L 15027210 8146422 M 14999652 8161546 L 15028604 8158730"/><path class="fil0 str2" d=" M 15003404 8187234 L 14984133 8165831"/><path class="fil0 str2" d=" M 15034975 8168496 L 15036313 8167291 L 15039952 8165952 L 15042253 8165818 L 15045517 8166754 L 15049372 8171035 L 15049962 8174379 L 15049587 8176654 L 15047875 8180133 L 15045200 8182542 L 15041561 8183880 L 15035621 8185354 L 15012609 8186696 L 15026098 8201679"/><path class="fil0 str2" d=" M 15067520 8199261 L 15069232 8195782 L 15067679 8191367 L 15065753 8189227 L 15061524 8187221 L 15055584 8188694 L 15047932 8193646 L 15041243 8199668 L 15036856 8205556 L 15036108 8210105 L 15037661 8214520 L 15038625 8215590 L 15042854 8217596 L 15047456 8217327 L 15052432 8214784 L 15053770 8213580 L 15056820 8208896 L 15057568 8204347 L 15056014 8199932 L 15055051 8198862 L 15050822 8196856 L 15046220 8197125 L 15041243 8199668"/>
  <path class="fil0 str2" d=" M 15835245 11146171 L 15839096 11143513 L 15840791 11137631 L 15840328 11128529 L 15839206 11123247 L 15835926 11114743 L 15831986 11110059 L 15827386 11109197 L 15824569 11109796 L 15820717 11112454 L 15819023 11118336 L 15819486 11127438 L 15820609 11132720 L 15823889 11141224 L 15827828 11145908 L 15832429 11146770 L 15835245 11146171 M 15835926 11114743 L 15823889 11141224"/><path class="fil0 str2" d=" M 15811804 11105148 L 15839975 11099161"/><path class="fil0 str2" d=" M 15812246 11141859 L 15812620 11143619 L 15811960 11147440 L 15810926 11149500 L 15808483 11151860 L 15802849 11153057 L 15799658 11151895 L 15797875 11150434 L 15795718 11147213 L 15794969 11143691 L 15795629 11139870 L 15797324 11133989 L 15807667 11113388 L 15787947 11117580"/><path class="fil0 str2" d=" M 15771861 11159644 L 15785947 11156650 L 15783988 11140505 L 15782952 11142564 L 15779101 11145223 L 15774876 11146121 L 15770275 11145260 L 15766711 11142337 L 15764179 11137354 L 15763431 11133833 L 15763717 11128251 L 15765784 11124132 L 15769637 11121472 L 15773862 11120574 L 15778461 11121436 L 15780245 11122897 L 15782402 11126120"/>
  <path class="fil0 str2" d=" M 15870449 718960 L 15869110 714476 L 15864040 711047 L 15855240 708674 L 15849870 708110 L 15840769 708601 L 15835097 710901 L 15832855 715009 L 15832554 717873 L 15833892 722358 L 15838962 725786 L 15847762 728159 L 15853133 728724 L 15862233 728232 L 15867906 725933 L 15870147 721824 L 15870449 718960 M 15840769 708601 L 15862233 728232"/><path class="fil0 str2" d=" M 15824189 728578 L 15827200 699935"/><path class="fil0 str2" d=" M 15860864 758495 L 15864744 756007 L 15866987 751899 L 15867589 746170 L 15866250 741686 L 15862971 738445 L 15859390 738069 L 15855660 739125 L 15853719 740369 L 15851628 743045 L 15847144 751261 L 15845053 753937 L 15843112 755181 L 15839382 756237 L 15834011 755673 L 15830732 752432 L 15829393 747948 L 15829996 742219 L 15832237 738111 L 15836119 735623"/><path class="fil0 str2" d=" M 15865030 770516 L 15827436 766565 M 15865330 767652 L 15863975 780541 L 15861734 784649 L 15859793 785893 L 15856063 786949 L 15852482 786573 L 15849052 784764 L 15847413 783144 L 15846075 778659 M 15847128 768635 L 15846075 778659 L 15843833 782768 L 15841892 784012 L 15838161 785067 L 15832791 784503 L 15829361 782695 L 15827722 781074 L 15826383 776590 L 15827738 763701"/>
  <path class="fil0 str2" d=" M 12016114 6979547 L 12013067 6975994 L 12007041 6974924 L 11998037 6976336 L 11992901 6978004 L 11984786 6982155 L 11980540 6986563 L 11980163 6991228 L 11981053 6993966 L 11984100 6997518 L 11990126 6998589 L 11999130 6997177 L 12004266 6995509 L 12012381 6991358 L 12016627 6986950 L 12017004 6982285 L 12016114 6979547 M 11984786 6982155 L 12012381 6991358"/><path class="fil0 str2" d=" M 11977766 7007147 L 11968865 6979757"/><path class="fil0 str2" d=" M 12022788 7000089 L 11997110 7008433 L 11992419 7011471 L 11989885 7015322 L 11989508 7019987 L 11990399 7022727 L 11993446 7026279 L 11997758 7027905 L 12003339 7027606 L 12029018 7019263"/><path class="fil0 str2" d=" M 12032578 7030219 L 12037473 7045283 L 12021108 7041516 L 12022442 7045625 L 12021621 7048920 L 12020354 7050846 L 12015662 7053884 L 12012239 7054996 L 12006658 7055296 L 12002344 7053669 L 11999298 7050117 L 11997963 7046008 L 11998339 7041343 L 11999606 7039418 L 12002585 7036936"/>
  <path class="fil0 str2" d=" M 14157115 9124601 L 14155562 9129016 L 14157648 9134769 L 14163374 9141862 L 14167386 9145475 L 14175039 9150427 L 14180979 9151900 L 14185207 9149894 L 14187133 9147753 L 14188686 9143339 L 14186601 9137586 L 14180876 9130493 L 14176864 9126880 L 14169211 9121928 L 14163271 9120455 L 14159042 9122460 L 14157115 9124601 M 14175039 9150427 L 14169211 9121928"/><path class="fil0 str2" d=" M 14200192 9144010 L 14180921 9165413"/><path class="fil0 str2" d=" M 14188107 9098250 L 14183505 9097982 L 14179277 9099988 L 14175423 9104268 L 14173870 9108683 L 14174619 9113233 L 14177293 9115641 L 14180932 9116980 L 14183233 9117114 L 14186499 9116179 L 14194956 9112166 L 14198220 9111231 L 14200521 9111365 L 14204160 9112704 L 14208173 9116317 L 14208922 9120866 L 14207368 9125281 L 14203514 9129561 L 14199285 9131567 L 14194683 9131299"/><path class="fil0 str2" d=" M 14210803 9083806 L 14213852 9088489 L 14214600 9093038 L 14213048 9097453 L 14212083 9098524 L 14207855 9100529 L 14203253 9100261 L 14198276 9097717 L 14196939 9096513 L 14193889 9091830 L 14193140 9087280 L 14194694 9082866 L 14195657 9081796 L 14199886 9079790 L 14204488 9080058 L 14210803 9083806 L 14217491 9089828 L 14223216 9096920 L 14225301 9102674 L 14223748 9107089 L 14221821 9109229 L 14217593 9111235 L 14213955 9109896"/>
  <path class="fil0 str2" d=" M 15823787 25882890 L 15826030 25886997 L 15831701 25889296 L 15840803 25889790 L 15846173 25889223 L 15854973 25886850 L 15860042 25883422 L 15861380 25878937 L 15861080 25876074 L 15858837 25871965 L 15853166 25869665 L 15844066 25869174 L 15838695 25869738 L 15829895 25872111 L 15824825 25875541 L 15823487 25880024 L 15823787 25882890 M 15854973 25886850 L 15829895 25872111"/><path class="fil0 str2" d=" M 15867036 25863864 L 15870046 25892507"/><path class="fil0 str2" d=" M 15828389 25857790 L 15826298 25855114 L 15820477 25851384 L 15858070 25847431"/><path class="fil0 str2" d=" M 15818520 25832766 L 15816864 25817011 L 15832088 25824099 L 15831636 25819804 L 15833126 25816750 L 15834765 25815131 L 15839985 25813134 L 15843565 25812758 L 15849086 25813625 L 15852967 25816113 L 15855209 25820222 L 15855661 25824519 L 15854322 25829003 L 15852683 25830622 L 15849252 25832431"/>
  <path class="fil0 str2" d=" M 15825264 9824767 L 15827507 9828875 L 15833178 9831174 L 15842280 9831666 L 15847650 9831102 L 15856450 9828729 L 15861519 9825300 L 15862857 9820816 L 15862557 9817951 L 15860314 9813843 L 15854643 9811543 L 15845543 9811052 L 15840172 9811616 L 15831372 9813989 L 15826302 9817418 L 15824964 9821903 L 15825264 9824767 M 15856450 9828729 L 15831372 9813989"/><path class="fil0 str2" d=" M 15868513 9805742 L 15871523 9834384"/><path class="fil0 str2" d=" M 15831958 9802344 L 15830168 9802532 L 15826436 9801477 L 15824497 9800233 L 15822406 9797557 L 15821802 9791828 L 15823292 9788776 L 15824931 9787155 L 15828361 9785347 L 15831942 9784971 L 15835672 9786027 L 15841343 9788327 L 15860750 9800766 L 15858643 9780717"/><path class="fil0 str2" d=" M 15818792 9763186 L 15845360 9774873 L 15843101 9753391 M 15818792 9763186 L 15856385 9759235"/>
  <path class="fil0 str2" d=" M 14193435 26815507 L 14192095 26811022 L 14187026 26807592 L 14178226 26805219 L 14172856 26804655 L 14163754 26805148 L 14158083 26807448 L 14155841 26811555 L 14155540 26814418 L 14156878 26818903 L 14161948 26822333 L 14170748 26824707 L 14176119 26825270 L 14185219 26824780 L 14190892 26822480 L 14193133 26818371 L 14193435 26815507 M 14163754 26805148 L 14185219 26824780"/><path class="fil0 str2" d=" M 14147175 26825124 L 14150186 26796481"/><path class="fil0 str2" d=" M 14191176 26836989 L 14153583 26833037 M 14191176 26836989 L 14189821 26849877 L 14187580 26853986 L 14185639 26855229 L 14181909 26856286 L 14178328 26855908 L 14174898 26854101 L 14173259 26852480 L 14171920 26847995 L 14173275 26835107 M 14172221 26845131 L 14151477 26853085"/><path class="fil0 str2" d=" M 14187413 26872790 L 14186075 26868308 L 14181005 26864877 L 14172205 26862504 L 14166834 26861940 L 14157734 26862431 L 14152062 26864731 L 14149820 26868840 L 14149520 26871704 L 14150858 26876188 L 14155927 26879616 L 14164727 26881989 L 14170098 26882556 L 14179199 26882062 L 14184870 26879763 L 14187113 26875656 L 14187413 26872790 M 14157734 26862431 L 14179199 26882062"/>
  <path class="fil0 str2" d=" M 15864583 23256716 L 15863245 23252231 L 15858176 23248803 L 15849376 23246430 L 15844005 23245866 L 15834904 23246357 L 15829233 23248657 L 15826990 23252766 L 15826690 23255629 L 15828028 23260114 L 15833098 23263542 L 15841898 23265915 L 15847269 23266479 L 15856369 23265988 L 15862041 23263688 L 15864283 23259580 L 15864583 23256716 M 15834904 23246357 L 15856369 23265988"/><path class="fil0 str2" d=" M 15818325 23266333 L 15821335 23237692"/><path class="fil0 str2" d=" M 15861723 23283925 L 15824130 23279975 M 15862778 23273901 L 15860670 23293952"/><path class="fil0 str2" d=" M 15851118 23298740 L 15852907 23298928 L 15856337 23300734 L 15857977 23302355 L 15859466 23305407 L 15858864 23311137 L 15856773 23313813 L 15854832 23315056 L 15851101 23316113 L 15847521 23315737 L 15844091 23313928 L 15839022 23310500 L 15822625 23294296 L 15820518 23314345"/>
  <path class="fil0 str2" d=" M 12578909 12899802 L 12581151 12903909 L 12586822 12906209 L 12595924 12906701 L 12601295 12906136 L 12610095 12903764 L 12615164 12900335 L 12616502 12895850 L 12616202 12892987 L 12613959 12888878 L 12608288 12886578 L 12599187 12886087 L 12593817 12886651 L 12585017 12889024 L 12579947 12892453 L 12578608 12896938 L 12578909 12899802 M 12610095 12903764 L 12585017 12889024"/><path class="fil0 str2" d=" M 12622158 12880777 L 12625168 12909418"/><path class="fil0 str2" d=" M 12576651 12878320 L 12614245 12874368 M 12576651 12878320 L 12575297 12865430 L 12576635 12860947 L 12578275 12859326 L 12581705 12857518 L 12585285 12857142 L 12589016 12858198 L 12590957 12859442 L 12593198 12863549 L 12594553 12876439 M 12593499 12866413 L 12612137 12854320"/><path class="fil0 str2" d=" M 12580501 12846062 L 12578409 12843385 L 12572587 12839653 L 12610180 12835701"/>
  <path class="fil0 str2" d=" M 14576453 6957641 L 14578890 6953646 L 14578046 6947584 L 14573920 6939457 L 14570747 6935088 L 14564291 6928654 L 14558787 6925977 L 14554235 6927061 L 14551905 6928753 L 14549468 6932749 L 14550312 6938811 L 14554437 6946938 L 14557611 6951307 L 14564066 6957741 L 14569570 6960417 L 14574123 6959334 L 14576453 6957641 M 14564291 6928654 L 14564066 6957741"/><path class="fil0 str2" d=" M 14538353 6929700 L 14561652 6912772"/><path class="fil0 str2" d=" M 14540660 6976972 L 14545106 6978192 L 14549659 6977109 L 14554318 6973723 L 14556755 6969728 L 14556970 6965122 L 14554853 6962210 L 14551572 6960144 L 14549349 6959534 L 14545961 6959771 L 14536855 6961937 L 14533468 6962174 L 14531245 6961563 L 14527963 6959497 L 14524790 6955129 L 14525003 6950523 L 14527440 6946528 L 14532100 6943142 L 14536654 6942059 L 14541099 6943279"/><path class="fil0 str2" d=" M 14530281 6982287 L 14529010 6985437 L 14528688 6992344 L 14506470 6961763"/>
  </g>
</svg>
