<?xml version="1.0" encoding="UTF-8"?>
<!DOCTYPE svg PUBLIC "-//W3C//DTD SVG 1.1//EN" "http://www.w3.org/Graphics/SVG/1.1/DTD/svg11.dtd">
<svg xmlns="http://www.w3.org/2000/svg"
     xmlns:xlink="http://www.w3.org/1999/xlink"
     version="1.1" baseProfile="full"
     width="304.8mm" height="177.8mm"
     viewBox="0 0 3048000 1778000">
  <defs>
    <style type="text/css">
      <![CDATA[
        .str0 {stroke:red; stroke-width:1}
        .str1 {stroke:green; stroke-width:1}
        .str2 {stroke:black; stroke-width:1}
        .fil0 {fill:none}
        .fil1 {fill:black}
        .fil2 {fill:green}
        .fnt0 {text-anchor:'middle'; dominant-baseline:'central'; font-weight:normal; font-size:3pt; font-family:'Arial'; text-decoration:underline;}
      ]]>
    </style>
  </defs>
  <g id="Layer_x0020_1">
    <metadata id="CorelCorpID_0Corel-Layer"/>
    <rect class="str1" x="0" y="0" width="3.048e+06" height="1.778e+06" />
    <circle class="fil0 str1" cx="0" cy="0" r="50000" />
    <circle class="fil0 str1" cx="0" cy="0" r="50000" />
    <circle class="fil0 str1" cx="0" cy="0" r="50000" />
    <circle class="fil0 str1" cx="0" cy="0" r="50000" />
    <circle class="fil0 str1" cx="0" cy="0" r="50000" />
    <circle class="fil0 str1" cx="0" cy="0" r="50000" />
    <circle class="fil0 str1" cx="0" cy="0" r="50000" />
    <circle class="fil0 str1" cx="0" cy="0" r="50000" />
    <circle class="fil0 str1" cx="0" cy="0" r="50000" />
  </g>
  <g id="Layer_x0020_2">
    <metadata id="CorelCorpID_1Corel-Layer"/>
    <path class="fil0 str0" d="M 7604907 7184977 C 7292271 7251430, 6979804 7317847, 6667640 7384199 C 6600992 7071217, 6534328 6758238, 6467649 6445262 C 6779937 6378883, 7092480 6312450, 7405170 6245986 C 7471754 6558981, 7538334 6871979, 7604907 7184977" />
    <path class="fil0 str0" d="M 3675145 3940595 C 3888129 3704052, 4101269 3467335, 4315139 3229809 C 4553356 3443474, 4791624 3657083, 5029931 3870649 C 4815935 4108316, 4602624 4345222, 4389479 4581944 C 4151329 4368204, 3913216 4154422, 3675145 3940595" />
    <path class="fil0 str0" d="M 12279107 28120000 C 12597648 28120000, 12916436 28120000, 13236248 28120000 C 13236996 28440000, 13237802 28760000, 13238651 29080000 C 12918681 29080000, 12599624 29080000, 12280811 29080000 C 12280192 28760000, 12279621 28440000, 12279107 28120000" />
    <path class="fil0 str0" d="M 6024497 1103410 C 6315516 973839, 6606291 844378, 6897292 714816 C 7027917 1006942, 7158594 1299044, 7289315 1591127 C 6998065 1720800, 6707038 1850373, 6415813 1980035 C 6285343 1687841, 6154904 1395632, 6024497 1103410" />
    <path class="fil0 str0" d="M 13353833 35623177 C 13194370 35346979, 13035101 35071117, 12876020 34795581 C 13153188 34635651, 13430343 34475697, 13707485 34315720 C 13866543 34591218, 14025797 34867053, 14185250 35143233 C 13908116 35303224, 13630978 35463206, 13353833 35623177" />
    <path class="fil0 str0" d="M 14545936 12861069 C 14386415 13137366, 14227067 13413366, 14067877 13689092 C 13790645 13529271, 13513397 13369478, 13236131 13209717 C 13395412 12933835, 13554827 12657720, 13714396 12381338 C 13991584 12541235, 14268763 12701145, 14545936 12861069" />
    <path class="fil0 str0" d="M 13464671 33695154 C 13305265 33419054, 13145736 33142743, 12985751 32865641 C 13262455 32704906, 13539138 32544134, 13815806 32383338 C 13975842 32660529, 14135503 32937070, 14295055 33213422 C 14018283 33374039, 13741489 33534618, 13464671 33695154" />
    <path class="fil0 str0" d="M 9391988 28753467 C 9358708 28436830, 9325461 28120506, 9292190 27803950 C 9610395 27770107, 9928595 27736203, 10246788 27702243 C 10280084 28019038, 10313355 28335586, 10346654 28652402 C 10028435 28686124, 9710213 28719812, 9391988 28753467" />
    <path class="fil0 str0" d="M 15240452 9608 C 15339338 313947, 15438223 618285, 15537109 922623 C 15232771 1021508, 14928433 1120394, 14624095 1219279 C 14525209 914941, 14426324 610603, 14327438 306265 C 14631776 207379, 14936114 108494, 15240452 9608" />
    <path class="fil0 str0" d="M 14579013 26560786 C 14545571 26878971, 14512132 27197124, 14478701 27515193 C 14160462 27481669, 13842223 27448148, 13523983 27414634 C 13557405 27096643, 13590839 26778533, 13624279 26460376 C 13942524 26493845, 14260769 26527315, 14579013 26560786" />
    <path class="fil0 str0" d="M 7002261 18681501 C 6689720 18747934, 6377395 18814320, 6065459 18880625 C 5998938 18567615, 5932406 18254608, 5865864 17941603 C 6177800 17875299, 6490125 17808912, 6802666 17742479 C 6869201 18055486, 6935733 18368493, 7002261 18681501" />
    <path class="fil0 str0" d="M 12316803 17458029 C 12609138 17327873, 12901472 17197718, 13193807 17067562 C 13323963 17359897, 13454118 17652231, 13584274 17944566 C 13291939 18074721, 12999605 18204877, 12707271 18335033 C 12577115 18042698, 12446959 17750364, 12316803 17458029" />
    <path class="fil0 str0" d="M 12851646 6259160 C 12818197 6577407, 12784748 6895654, 12751299 7213901 C 12433052 7180452, 12114805 7147002, 11796558 7113553 C 11830007 6795306, 11863456 6477059, 11896905 6158812 C 12215152 6192261, 12533399 6225711, 12851646 6259160" />
    <path class="fil0 str0" d="M 12547214 9061188 C 12288537 8873248, 12029956 8685378, 11771541 8497628 C 11959779 8238850, 12148005 7980062, 12336218 7721265 C 12594509 7908924, 12853010 8096736, 13111633 8284637 C 12923498 8543491, 12735359 8802341, 12547214 9061188" />
    <path class="fil0 str0" d="M 13192641 22637533 C 13291221 22940928, 13389579 23243643, 13488266 23547370 C 13184173 23647010, 12880115 23746758, 12576077 23846568 C 12477287 23542524, 12378686 23239061, 12279974 22935257 C 12584188 22835990, 12888411 22736748, 13192641 22637533" />
    <path class="fil0 str0" d="M 12476508 30391802 C 12690372 30154282, 12903302 29917800, 13116845 29680636 C 13354679 29894727, 13592609 30108712, 13830549 30322685 C 13617140 30559700, 13404293 30796090, 13190432 31033607 C 12952442 30819689, 12714438 30605787, 12476508 30391802" />
    <path class="fil0 str0" d="M 13270724 14251405 C 12957628 14317956, 12644495 14384515, 12332241 14450886 C 12265957 14137826, 12199746 13824751, 12133484 13511686 C 12445623 13445339, 12758551 13378824, 13071410 13312324 C 13137914 13625337, 13204359 13938363, 13270724 14251405" />
    <path class="fil0 str0" d="M 14463860 3005233 C 14756156 2875094, 15048430 2744965, 15340631 2614869 C 15470778 2907207, 15600926 3199545, 15731076 3491882 C 15438884 3621975, 15146616 3752101, 14854322 3882239 C 14724168 3589903, 14594013 3297568, 14463860 3005233" />
    <path class="fil0 str0" d="M 6707771 19956708 C 6674515 19640289, 6641297 19324245, 6608060 19008012 C 6926289 18974398, 7244513 18940727, 7562731 18907000 C 7595982 19223367, 7629212 19539526, 7662478 19856031 C 7344246 19889621, 7026010 19923178, 6707771 19956708" />
    <path class="fil0 str0" d="M 13136060 10823895 C 13102611 11142142, 13069162 11460389, 13035713 11778636 C 12717466 11745187, 12399219 11711738, 12080972 11678289 C 12114421 11360042, 12147870 11041795, 12181319 10723548 C 12499566 10756997, 12817813 10790446, 13136060 10823895" />
    <path class="fil0 str0" d="M 13658569 20644427 C 13398934 20833063, 13139060 21021872, 12879792 21210242 C 12691433 20951551, 12503109 20692834, 12314811 20434099 C 12573871 20245881, 12833269 20057417, 13092550 19869038 C 13281205 20127514, 13469877 20385978, 13658569 20644427" />
    <path class="fil0 str0" d="M 12613014 21348140 C 12905193 21478226, 13195884 21607650, 13487184 21737346 C 13357739 22029996, 13228431 22322708, 13099191 22615451 C 12807532 22485596, 12516218 22355895, 12224004 22225793 C 12353755 21933278, 12483433 21640730, 12613014 21348140" />
    <path class="fil0 str0" d="M 12809362 25340127 C 12649928 25063980, 12490161 24787255, 12329998 24509843 C 12606669 24349053, 12883288 24188171, 13159813 24027125 C 13319943 24304478, 13479762 24581294, 13639393 24857782 C 13362766 25018651, 13086102 25179454, 12809362 25340127" />
    <path class="fil0 str0" d="M 12423912 1580737 C 12638033 1818542, 12852153 2056346, 13066269 2294145 C 12828463 2508268, 12590658 2722391, 12352852 2936513 C 12138735 2698713, 11924615 2460908, 11710493 2223102 C 11948300 2008980, 12186106 1794858, 12423912 1580737" />
    <path class="fil0 str0" d="M 15370000 33550000 C 15689999 33550000, 16009997 33550000, 16329989 33550000 C 16329990 33870000, 16329991 34190000, 16329991 34510000 C 16009997 34510000, 15689999 34510000, 15370000 34510000 C 15369999 34190000, 15369999 33870000, 15370000 33550000" />
  </g>
  <g id="Layer_x0020_3">
    <metadata id="CorelCorpID_2Corel-Layer"/>
  <path class="fil0 str2" d=" M 7068925 6830263 L 7072777 6827604 L 7074471 6821723 L 7074008 6812620 L 7072885 6807338 L 7069606 6798834 L 7065666 6794152 L 7061066 6793289 L 7058249 6793887 L 7054398 6796547 L 7052703 6802427 L 7053166 6811530 L 7054288 6816812 L 7057568 6825316 L 7061508 6830000 L 7066108 6830862 L 7068925 6830263 M 7069606 6798834 L 7057568 6825316"/><path class="fil0 str2" d=" M 7045484 6789240 L 7073654 6783252"/><path class="fil0 str2" d=" M 7026206 6830142 L 7028363 6833364 L 7031929 6836287 L 7035120 6837448 L 7040755 6836251 L 7043197 6833891 L 7045266 6829771 L 7045926 6825950 L 7046212 6820369 L 7044340 6811566 L 7041809 6806583 L 7039652 6803361 L 7036087 6800439 L 7032896 6799277 L 7027261 6800474 L 7024818 6802834 L 7022750 6806954 L 7022090 6810775"/><path class="fil0 str2" d=" M 7019627 6840742 L 7011767 6803768 M 7019627 6840742 L 7001315 6844634 M 7015884 6823135 L 7004616 6825530 M 7011767 6803768 L 6993457 6807660"/>
  <path class="fil0 str2" d=" M 4317404 3912362 L 4315851 3916777 L 4317937 3922530 L 4323661 3929622 L 4327674 3933236 L 4335326 3938188 L 4341266 3939661 L 4345494 3937655 L 4347422 3935515 L 4348974 3931100 L 4346889 3925346 L 4341164 3918254 L 4337151 3914641 L 4329499 3909689 L 4323559 3908215 L 4319331 3910221 L 4317404 3912362 M 4335326 3938188 L 4329499 3909689"/><path class="fil0 str2" d=" M 4360480 3931771 L 4341210 3953174"/><path class="fil0 str2" d=" M 4331857 3896310 L 4359948 3921603 M 4331857 3896310 L 4344383 3882398 M 4345233 3908354 L 4352942 3899793"/><path class="fil0 str2" d=" M 4350164 3875977 L 4378255 3901271 M 4348237 3878117 L 4354982 3870627 L 4359210 3868621 L 4363813 3868889 L 4367452 3870228 L 4372428 3872771 L 4379116 3878793 L 4382166 3883477 L 4383878 3886956 L 4384626 3891505 L 4383073 3895920 L 4376328 3903411"/>
  <path class="fil0 str2" d=" M 12731818 28578400 L 12727498 28580200 L 12724617 28585600 L 12723178 28594599 L 12723178 28600000 L 12724617 28608999 L 12727498 28614399 L 12731818 28616201 L 12734698 28616201 L 12739018 28614399 L 12741898 28608999 L 12743338 28600000 L 12743338 28594599 L 12741898 28585600 L 12739018 28580200 L 12734698 28578400 L 12731818 28578400 M 12724617 28608999 L 12741898 28585600"/><path class="fil0 str2" d=" M 12746218 28623400 L 12717418 28623400"/><path class="fil0 str2" d=" M 12753417 28578400 L 12753417 28616201 M 12753417 28578400 L 12772138 28578400 M 12753417 28596398 L 12764937 28596398"/><path class="fil0 str2" d=" M 12777897 28578400 L 12777897 28616201 M 12777897 28578400 L 12796618 28578400 M 12777897 28596398 L 12789417 28596398 M 12777897 28616201 L 12796618 28616201"/>
  <path class="fil0 str2" d=" M 6622934 1338750 L 6619719 1342151 L 6619285 1348256 L 6621630 1357063 L 6623826 1361996 L 6628803 1369633 L 6633630 1373394 L 6638308 1373282 L 6640939 1372110 L 6644154 1368709 L 6644589 1362604 L 6642243 1353797 L 6640047 1348863 L 6635071 1341227 L 6630244 1337465 L 6625565 1337578 L 6622934 1338750 M 6628803 1369633 L 6635071 1341227"/><path class="fil0 str2" d=" M 6654392 1374002 L 6628082 1385716"/><path class="fil0 str2" d=" M 6642667 1329964 L 6658041 1364496 M 6642667 1329964 L 6659768 1322350 M 6649988 1346408 L 6660512 1341722 M 6658041 1364496 L 6675143 1356882"/><path class="fil0 str2" d=" M 6666345 1319421 L 6681720 1353954 M 6666345 1319421 L 6683447 1311807 M 6673667 1335865 L 6684191 1331180 M 6681720 1353954 L 6698822 1346339"/>
  <path class="fil0 str2" d=" M 13526632 35005673 L 13530351 35008515 L 13536467 35008310 L 13544981 35005056 L 13549658 35002355 L 13556733 34996608 L 13559969 34991416 L 13559367 34986774 L 13557928 34984279 L 13554208 34981437 L 13548093 34981645 L 13539578 34984897 L 13534902 34987597 L 13527828 34993344 L 13524591 34998537 L 13525192 35003181 L 13526632 35005673 M 13556733 34996608 L 13527828 34993344"/><path class="fil0 str2" d=" M 13558403 34970703 L 13572803 34995644"/><path class="fil0 str2" d=" M 13514392 34984472 L 13547127 34965573 M 13515832 34986967 L 13510792 34978237 L 13510191 34973596 L 13511868 34969304 L 13514266 34966254 L 13518222 34962309 L 13526018 34957810 L 13531413 34956354 L 13535251 34955803 L 13539809 34956496 L 13543527 34959338 L 13548568 34968068"/><path class="fil0 str2" d=" M 13498552 34957038 L 13502271 34959880 L 13506108 34959326 L 13509227 34957526 L 13511624 34954479 L 13511743 34951086 L 13510422 34945197 L 13509820 34940556 L 13511499 34936262 L 13513896 34933215 L 13518572 34930515 L 13522410 34929960 L 13524689 34930307 L 13528408 34933149 L 13531287 34938137 L 13531889 34942778 L 13531051 34944926 L 13528652 34947973 L 13523975 34950673 L 13520139 34951225 L 13515581 34950532 L 13511861 34947690 L 13507423 34943603 L 13504423 34942009 L 13500587 34942561 L 13497469 34944360 L 13495070 34947409 L 13495672 34952050 L 13498552 34957038"/>
  <path class="fil0 str2" d=" M 13924857 13020008 L 13925458 13015367 L 13922221 13010173 L 13915147 13004425 L 13910471 13001726 L 13901956 12998472 L 13895841 12998266 L 13892121 13001108 L 13890682 13003602 L 13890080 13008243 L 13893317 13013437 L 13900391 13019184 L 13905068 13021884 L 13913582 13025137 L 13919698 13025343 L 13923417 13022502 L 13924857 13020008 M 13901956 12998472 L 13913582 13025137"/><path class="fil0 str2" d=" M 13878686 13009979 L 13893085 12985037"/><path class="fil0 str2" d=" M 13912617 13041208 L 13879881 13022308 M 13914057 13038714 L 13909017 13047443 L 13905299 13050284 L 13900740 13050979 L 13896903 13050426 L 13891506 13048973 L 13883712 13044473 L 13879755 13040526 L 13877358 13037479 L 13875681 13033184 L 13876281 13028543 L 13881322 13019814"/><path class="fil0 str2" d=" M 13898217 13066149 L 13865482 13047249 M 13899658 13063656 L 13894617 13072385 L 13890898 13075227 L 13886341 13075920 L 13882503 13075367 L 13877106 13073914 L 13869312 13069415 L 13865356 13065467 L 13862958 13062420 L 13861280 13058126 L 13861882 13053485 L 13866921 13044755"/>
  <path class="fil0 str2" d=" M 13634682 33072822 L 13638400 33075664 L 13644517 33075458 L 13653032 33072204 L 13657708 33069504 L 13664782 33063757 L 13668018 33058564 L 13667418 33053923 L 13665977 33051428 L 13662259 33048586 L 13656142 33048793 L 13647628 33052045 L 13642951 33054746 L 13635877 33060493 L 13632641 33065686 L 13633242 33070329 L 13634682 33072822 M 13664782 33063757 L 13635877 33060493"/><path class="fil0 str2" d=" M 13666453 33037851 L 13680853 33062792"/><path class="fil0 str2" d=" M 13623881 33054116 L 13656618 33035217 M 13623881 33054116 L 13614522 33037905 M 13639470 33045117 L 13633710 33035139"/><path class="fil0 str2" d=" M 13611641 33032915 L 13644378 33014016 M 13611641 33032915 L 13602282 33016704 M 13627230 33023916 L 13621470 33013940"/>
  <path class="fil0 str2" d=" M 9800935 28258923 L 9803176 28263029 L 9808848 28265329 L 9817949 28265822 L 9823319 28265256 L 9832119 28262883 L 9837189 28259455 L 9838527 28254970 L 9838226 28252106 L 9835985 28247998 L 9830313 28245698 L 9821212 28245207 L 9815841 28245771 L 9807041 28248144 L 9801972 28251574 L 9800633 28256057 L 9800935 28258923 M 9832119 28262883 L 9807041 28248144"/><path class="fil0 str2" d=" M 9844183 28239897 L 9847193 28268540"/><path class="fil0 str2" d=" M 9798676 28237441 L 9836270 28233488 M 9798676 28237441 L 9796720 28218823 M 9816578 28235559 L 9815374 28224101 M 9836270 28233488 L 9834313 28214873"/><path class="fil0 str2" d=" M 9795666 28208798 L 9833259 28204848 M 9795967 28211662 L 9794913 28201638 L 9796252 28197153 L 9799531 28193913 L 9802961 28192104 L 9808181 28190107 L 9817131 28189167 L 9822653 28190034 L 9826383 28191091 L 9830265 28193579 L 9832506 28197687 L 9833560 28207712"/>
  <path class="fil0 str2" d=" M 14943471 579009 L 14940424 575457 L 14934398 574386 L 14925394 575798 L 14920258 577467 L 14912143 581617 L 14907897 586025 L 14907520 590690 L 14908410 593429 L 14911457 596981 L 14917484 598052 L 14926488 596640 L 14931623 594971 L 14939738 590821 L 14943984 586413 L 14944361 581748 L 14943471 579009 M 14912143 581617 L 14939738 590821"/><path class="fil0 str2" d=" M 14905123 606610 L 14896223 579220"/><path class="fil0 str2" d=" M 14941586 602333 L 14943298 601777 L 14947166 602034 L 14949323 602847 L 14951926 605030 L 14953706 610508 L 14952883 613803 L 14951617 615729 L 14948637 618211 L 14945214 619324 L 14941345 619066 L 14935319 617996 L 14913751 609863 L 14919980 629037"/><path class="fil0 str2" d=" M 14958601 625573 L 14922650 637254 M 14964830 644746 L 14928880 656427 M 14941481 631135 L 14947711 650308"/>
  <path class="fil0 str2" d=" M 14076059 26960673 L 14074720 26956188 L 14069650 26952758 L 14060850 26950385 L 14055480 26949821 L 14046379 26950314 L 14040708 26952614 L 14038465 26956721 L 14038165 26959584 L 14039503 26964069 L 14044572 26967500 L 14053372 26969873 L 14058743 26970437 L 14067844 26969946 L 14073516 26967646 L 14075758 26963537 L 14076059 26960673 M 14046379 26950314 L 14067844 26969946"/><path class="fil0 str2" d=" M 14029799 26970290 L 14032811 26941647"/><path class="fil0 str2" d=" M 14073499 26985019 L 14035906 26981066 M 14073801 26982155 L 14072446 26995043 L 14070205 26999152 L 14068264 27000395 L 14064533 27001452 L 14060953 27001074 L 14057523 26999267 L 14055883 26997646 L 14054544 26993161 M 14055599 26983137 L 14054544 26993161 L 14052303 26997270 L 14050362 26998513 L 14046632 26999570 L 14041260 26999006 L 14037832 26997197 L 14036192 26995576 L 14034853 26991091 L 14036208 26978203"/><path class="fil0 str2" d=" M 14061839 27009855 L 14063630 27010043 L 14067060 27011853 L 14068699 27013474 L 14070189 27016525 L 14069586 27022253 L 14067495 27024929 L 14065555 27026174 L 14061823 27027229 L 14058243 27026853 L 14054814 27025043 L 14049744 27021616 L 14033348 27005412 L 14031241 27025463"/>
  <path class="fil0 str2" d=" M 6467318 18326567 L 6471169 18323908 L 6472863 18318027 L 6472401 18308925 L 6471278 18303643 L 6467998 18295139 L 6464058 18290456 L 6459458 18289593 L 6456641 18290192 L 6452790 18292851 L 6451096 18298731 L 6451558 18307834 L 6452681 18313116 L 6455961 18321621 L 6459901 18326303 L 6464500 18327166 L 6467318 18326567 M 6467998 18295139 L 6455961 18321621"/><path class="fil0 str2" d=" M 6443876 18285544 L 6472047 18279556"/><path class="fil0 str2" d=" M 6424598 18326446 L 6426755 18329669 L 6430321 18332591 L 6433513 18333752 L 6439147 18332554 L 6441589 18330196 L 6443658 18326075 L 6444318 18322254 L 6444604 18316673 L 6442733 18307869 L 6440202 18302888 L 6438045 18299665 L 6434479 18296743 L 6431287 18295581 L 6425653 18296778 L 6423211 18299138 L 6421142 18303258 L 6420482 18307078"/><path class="fil0 str2" d=" M 6398497 18328314 L 6398782 18322733 L 6400851 18318613 L 6404702 18315954 L 6406111 18315654 L 6410711 18316517 L 6414276 18319439 L 6416807 18324422 L 6417182 18326182 L 6416896 18331763 L 6414827 18335885 L 6410976 18338543 L 6409567 18338842 L 6404968 18337979 L 6401402 18335057 L 6398497 18328314 L 6396625 18319510 L 6396163 18310408 L 6397857 18304527 L 6401708 18301868 L 6404525 18301269 L 6409125 18302132 L 6411282 18305354"/>
  <path class="fil0 str2" d=" M 12915443 17693280 L 12912227 17696682 L 12911793 17702786 L 12914139 17711594 L 12916335 17716527 L 12921311 17724163 L 12926138 17727924 L 12930817 17727812 L 12933448 17726640 L 12936662 17723239 L 12937097 17717135 L 12934752 17708327 L 12932556 17703393 L 12927579 17695758 L 12922752 17691995 L 12918073 17692109 L 12915443 17693280 M 12921311 17724163 L 12927579 17695758"/><path class="fil0 str2" d=" M 12946900 17728532 L 12920590 17740246"/><path class="fil0 str2" d=" M 12953157 17682399 L 12950378 17679696 L 12945699 17679809 L 12943068 17680980 L 12939853 17684382 L 12939418 17690487 L 12941763 17699294 L 12945424 17707515 L 12949669 17713508 L 12953764 17715625 L 12958442 17715512 L 12959758 17714926 L 12962972 17711525 L 12964139 17707065 L 12963259 17701546 L 12962526 17699902 L 12959014 17695554 L 12954919 17693437 L 12950240 17693549 L 12948925 17694135 L 12945710 17697536 L 12944544 17701997 L 12945424 17707515"/><path class="fil0 str2" d=" M 12965432 17671024 L 12962218 17674425 L 12962365 17678299 L 12963830 17681588 L 12966610 17684291 L 12969973 17684764 L 12975968 17684066 L 12980645 17683952 L 12984741 17686070 L 12987520 17688773 L 12989718 17693707 L 12989866 17697581 L 12989283 17699810 L 12986068 17703212 L 12980806 17705555 L 12976127 17705668 L 12974080 17704609 L 12971300 17701906 L 12969104 17696973 L 12968955 17693099 L 12970122 17688638 L 12973336 17685236 L 12977866 17681250 L 12979765 17678433 L 12979616 17674559 L 12978151 17671270 L 12975372 17668568 L 12970693 17668680 L 12965432 17671024"/>
  <path class="fil0 str2" d=" M 12348745 6658540 L 12347407 6654056 L 12342337 6650627 L 12333537 6648255 L 12328166 6647690 L 12319066 6648181 L 12313394 6650481 L 12311152 6654589 L 12310850 6657454 L 12312189 6661938 L 12317259 6665366 L 12326059 6667739 L 12331429 6668304 L 12340531 6667813 L 12346202 6665513 L 12348444 6661405 L 12348745 6658540 M 12319066 6648181 L 12340531 6667813"/><path class="fil0 str2" d=" M 12302486 6668157 L 12305496 6639515"/><path class="fil0 str2" d=" M 12346336 6681454 L 12344681 6697207 L 12331263 6687109 L 12330811 6691406 L 12328720 6694082 L 12326779 6695326 L 12321258 6696193 L 12317678 6695817 L 12312458 6693821 L 12309179 6690580 L 12307840 6686096 L 12308292 6681799 L 12310534 6677691 L 12312474 6676447 L 12316206 6675391"/><path class="fil0 str2" d=" M 12343627 6707232 L 12306035 6703281 M 12341520 6727282 L 12303927 6723331 M 12325726 6705350 L 12323619 6725401"/>
  <path class="fil0 str2" d=" M 12452785 8425968 L 12457337 8427051 L 12462841 8424375 L 12469296 8417940 L 12472470 8413571 L 12476596 8405444 L 12477440 8399382 L 12475003 8395387 L 12472673 8393694 L 12468120 8392611 L 12462615 8395287 L 12456160 8401721 L 12452987 8406090 L 12448862 8414218 L 12448018 8420280 L 12450455 8424275 L 12452785 8425968 M 12476596 8405444 L 12448862 8414218"/><path class="fil0 str2" d=" M 12467585 8381098 L 12490885 8398026"/><path class="fil0 str2" d=" M 12424290 8394141 L 12423339 8397899 L 12423553 8402505 L 12424825 8405654 L 12429484 8409039 L 12432873 8409276 L 12437319 8408056 L 12440600 8405990 L 12444938 8402468 L 12450229 8395187 L 12452238 8389972 L 12453189 8386213 L 12452976 8381608 L 12451704 8378458 L 12447043 8375073 L 12443656 8374837 L 12439210 8376056 L 12435928 8378122"/><path class="fil0 str2" d=" M 12410845 8395497 L 12398031 8386187 L 12413485 8379615 L 12409990 8377076 L 12408718 8373927 L 12408610 8371624 L 12410620 8366409 L 12412735 8363496 L 12417075 8359974 L 12421520 8358754 L 12426074 8359838 L 12429569 8362377 L 12432005 8366372 L 12432113 8368675 L 12431162 8372434"/>
  <path class="fil0 str2" d=" M 12896304 23208913 L 12893258 23205361 L 12887231 23204289 L 12878227 23205703 L 12873092 23207370 L 12864976 23211520 L 12860731 23215930 L 12860354 23220593 L 12861243 23223332 L 12864290 23226884 L 12870317 23227956 L 12879321 23226542 L 12884456 23224875 L 12892572 23220725 L 12896817 23216315 L 12897194 23211652 L 12896304 23208913 M 12864976 23211520 L 12892572 23220725"/><path class="fil0 str2" d=" M 12857956 23236513 L 12849057 23209123"/><path class="fil0 str2" d=" M 12906539 23240412 L 12879149 23249311 L 12873568 23249611 L 12871411 23248798 L 12868808 23246613 L 12867918 23243876 L 12868741 23240581 L 12870008 23238654 L 12874698 23235617 L 12878122 23234504"/><path class="fil0 str2" d=" M 12909654 23250000 L 12873703 23261679 M 12915883 23269172 L 12879934 23280852 M 12892535 23255561 L 12898764 23274733"/>
  <path class="fil0 str2" d=" M 13116390 30366208 L 13114837 30370622 L 13116922 30376376 L 13122647 30383469 L 13126661 30387082 L 13134312 30392033 L 13140252 30393508 L 13144481 30391501 L 13146408 30389362 L 13147961 30384946 L 13145875 30379194 L 13140150 30372102 L 13136137 30368488 L 13128485 30363535 L 13122545 30362062 L 13118316 30364067 L 13116390 30366208 M 13134312 30392033 L 13128485 30363535"/><path class="fil0 str2" d=" M 13159466 30385617 L 13140196 30407021"/><path class="fil0 str2" d=" M 13130843 30350156 L 13158934 30375449 M 13130843 30350156 L 13166643 30366889 M 13146259 30333034 L 13166643 30366889 M 13146259 30333034 L 13174350 30358327"/><path class="fil0 str2" d=" M 13165531 30311633 L 13183986 30347626 M 13152041 30326613 L 13165531 30311633"/>
  <path class="fil0 str2" d=" M 12735195 13896595 L 12739046 13893936 L 12740740 13888055 L 12740278 13878953 L 12739156 13873671 L 12735876 13865167 L 12731936 13860484 L 12727336 13859621 L 12724519 13860220 L 12720667 13862879 L 12718973 13868759 L 12719436 13877862 L 12720559 13883144 L 12723839 13891649 L 12727778 13896331 L 12732379 13897194 L 12735195 13896595 M 12735876 13865167 L 12723839 13891649"/><path class="fil0 str2" d=" M 12711754 13855572 L 12739925 13849584"/><path class="fil0 str2" d=" M 12714067 13901086 L 12706208 13864112 M 12714067 13901086 L 12701390 13903780 L 12696790 13902918 L 12695008 13901457 L 12692851 13898234 L 12691728 13892952 L 12692388 13889132 L 12693422 13887072 L 12697274 13884414 L 12709951 13881718"/><path class="fil0 str2" d=" M 12667586 13910966 L 12673812 13870998 M 12687305 13906774 L 12667586 13910966"/>
  <path class="fil0 str2" d=" M 15063710 3239943 L 15060496 3243345 L 15060062 3249449 L 15062407 3258257 L 15064603 3263190 L 15069580 3270826 L 15074406 3274588 L 15079085 3274475 L 15081717 3273304 L 15084931 3269902 L 15085366 3263798 L 15083021 3254990 L 15080823 3250057 L 15075848 3242421 L 15071020 3238659 L 15066342 3238772 L 15063710 3239943 M 15069580 3270826 L 15075848 3242421"/><path class="fil0 str2" d=" M 15095169 3275196 L 15068859 3286910"/><path class="fil0 str2" d=" M 15090021 3228229 L 15094871 3267447 M 15090021 3228229 L 15115920 3258076 M 15093693 3254179 L 15106848 3248322"/><path class="fil0 str2" d=" M 15123790 3219106 L 15121010 3216402 L 15116331 3216515 L 15113699 3217687 L 15110485 3221088 L 15110051 3227192 L 15112396 3236000 L 15116057 3244222 L 15120301 3250214 L 15124396 3252331 L 15129074 3252219 L 15130390 3251633 L 15133604 3248231 L 15134771 3243771 L 15133890 3238252 L 15133159 3236608 L 15129647 3232261 L 15125551 3230143 L 15120872 3230256 L 15119558 3230841 L 15116342 3234243 L 15115177 3238703 L 15116057 3244222"/>
  <path class="fil0 str2" d=" M 7116787 19462823 L 7119029 19466932 L 7124700 19469232 L 7133801 19469722 L 7139172 19469158 L 7147972 19466785 L 7153041 19463356 L 7154380 19458873 L 7154079 19456008 L 7151837 19451900 L 7146166 19449600 L 7137064 19449108 L 7131694 19449674 L 7122894 19452045 L 7117825 19455474 L 7116486 19459959 L 7116787 19462823 M 7147972 19466785 L 7122894 19452045"/><path class="fil0 str2" d=" M 7160036 19443798 L 7163046 19472441"/><path class="fil0 str2" d=" M 7114529 19441342 L 7152122 19437391 M 7114529 19441342 L 7112573 19422724 M 7132431 19439460 L 7131226 19428004 M 7152122 19437391 L 7150166 19418773"/><path class="fil0 str2" d=" M 7111519 19412700 L 7149111 19408748 M 7111820 19415563 L 7110465 19402675 L 7111804 19398190 L 7113443 19396571 L 7116873 19394761 L 7120454 19394385 L 7124184 19395441 L 7126125 19396685 L 7128367 19400793 M 7129420 19410817 L 7128367 19400793 L 7129705 19396308 L 7131345 19394688 L 7134774 19392880 L 7140145 19392315 L 7143876 19393371 L 7145816 19394615 L 7148058 19398724 L 7149413 19411612"/>
  <path class="fil0 str2" d=" M 12633009 11224708 L 12631669 11220223 L 12626601 11216794 L 12617800 11214422 L 12612430 11213857 L 12603328 11214349 L 12597657 11216649 L 12595416 11220756 L 12595114 11223620 L 12596453 11228105 L 12601523 11231534 L 12610323 11233907 L 12615693 11234471 L 12624794 11233980 L 12630466 11231680 L 12632707 11227572 L 12633009 11224708 M 12603328 11214349 L 12624794 11233980"/><path class="fil0 str2" d=" M 12586750 11234324 L 12589760 11205683"/><path class="fil0 str2" d=" M 12623574 11262811 L 12627304 11261755 L 12629547 11257646 L 12629847 11254782 L 12628509 11250297 L 12623439 11246868 L 12614639 11244495 L 12605689 11243555 L 12598377 11244234 L 12594497 11246723 L 12592254 11250831 L 12592104 11252263 L 12593443 11256748 L 12596722 11259989 L 12601942 11261984 L 12603732 11262172 L 12609252 11261304 L 12613134 11258817 L 12615375 11254709 L 12615527 11253277 L 12614188 11248792 L 12610909 11245551 L 12605689 11243555"/><path class="fil0 str2" d=" M 12625935 11292017 L 12589846 11273745 M 12628041 11271967 L 12625935 11292017"/>
  <path class="fil0 str2" d=" M 13024693 20538349 L 13027130 20534355 L 13026285 20528293 L 13022160 20520166 L 13018986 20515798 L 13012531 20509362 L 13007027 20506687 L 13002474 20507770 L 13000145 20509462 L 12997707 20513457 L 12998552 20519519 L 13002677 20527646 L 13005850 20532016 L 13012305 20538449 L 13017810 20541125 L 13022363 20540043 L 13024693 20538349 M 13012531 20509362 L 13012305 20538449"/><path class="fil0 str2" d=" M 12986593 20510410 L 13009892 20493481"/><path class="fil0 str2" d=" M 13007218 20551047 L 12985000 20520466 M 12990908 20562895 L 12968690 20532316 M 12996638 20536484 L 12980328 20548334"/><path class="fil0 str2" d=" M 12982753 20568820 L 12960535 20538239 M 12966444 20580671 L 12944226 20550090 M 12972172 20554260 L 12955864 20566108"/>
  <path class="fil0 str2" d=" M 12834509 21948537 L 12829830 21948425 L 12825003 21952185 L 12820026 21959821 L 12817830 21964755 L 12815485 21973562 L 12815920 21979667 L 12819134 21983068 L 12821765 21984240 L 12826444 21984353 L 12831271 21980590 L 12836247 21972954 L 12838443 21968022 L 12840788 21959213 L 12840354 21953110 L 12837139 21949709 L 12834509 21948537 M 12815485 21973562 L 12840788 21959213"/><path class="fil0 str2" d=" M 12829361 21995502 L 12803050 21983789"/><path class="fil0 str2" d=" M 12854241 21957321 L 12838867 21991855 M 12854241 21957321 L 12849390 21996540 M 12875289 21966694 L 12849390 21996540 M 12875289 21966694 L 12859914 22001225"/><path class="fil0 str2" d=" M 12884498 21970793 L 12869123 22005324 M 12902915 21978994 L 12887540 22013525 M 12877176 21987236 L 12895594 21995437"/>
  <path class="fil0 str2" d=" M 12981915 24722197 L 12985634 24725039 L 12991750 24724833 L 13000264 24721579 L 13004941 24718879 L 13012015 24713132 L 13015252 24707939 L 13014650 24703298 L 13013211 24700803 L 13009492 24697963 L 13003375 24698168 L 12994862 24701420 L 12990185 24704121 L 12983110 24709868 L 12979874 24715063 L 12980474 24719704 L 12981915 24722197 M 13012015 24713132 L 12983110 24709868"/><path class="fil0 str2" d=" M 13013686 24687226 L 13028085 24712167"/><path class="fil0 str2" d=" M 12971115 24703491 L 13003851 24684592 M 12971115 24703491 L 12993770 24667133 M 12961035 24686032 L 12993770 24667133"/><path class="fil0 str2" d=" M 12955994 24677302 L 12988731 24658403 M 12945915 24659843 L 12978651 24640944 M 12971583 24668303 L 12961503 24650844"/>
  <path class="fil0 str2" d=" M 12385645 2223305 L 12381417 2221299 L 12375477 2222772 L 12367824 2227724 L 12363812 2231337 L 12358087 2238429 L 12356000 2244183 L 12357554 2248598 L 12359481 2250738 L 12363709 2252744 L 12369649 2251271 L 12377302 2246319 L 12381314 2242705 L 12387039 2235613 L 12389125 2229860 L 12387572 2225445 L 12385645 2223305 M 12358087 2238429 L 12387039 2235613"/><path class="fil0 str2" d=" M 12361839 2264117 L 12342568 2242714"/><path class="fil0 str2" d=" M 12403952 2243637 L 12399724 2241631 L 12396085 2242970 L 12393410 2245379 L 12391697 2248858 L 12392287 2252202 L 12394804 2257687 L 12396357 2262102 L 12395609 2266651 L 12393897 2270130 L 12389884 2273744 L 12386245 2275082 L 12383944 2275217 L 12379715 2273211 L 12375861 2268930 L 12374309 2264515 L 12374682 2262241 L 12376395 2258762 L 12380407 2255148 L 12384046 2253810 L 12388648 2253541 L 12392877 2255547 L 12398068 2258623 L 12401334 2259559 L 12404973 2258220 L 12407647 2255811 L 12409360 2252332 L 12407806 2247918 L 12403952 2243637"/><path class="fil0 str2" d=" M 12418405 2259689 L 12390314 2284982 M 12418405 2259689 L 12430932 2273601 M 12405029 2271733 L 12412738 2280294 M 12390314 2284982 L 12402841 2298894"/>
  <path class="fil0 str2" d=" M 15822637 34008400 L 15818317 34010200 L 15815437 34015600 L 15813997 34024599 L 15813997 34030000 L 15815437 34038999 L 15818317 34044399 L 15822637 34046201 L 15825517 34046201 L 15829837 34044399 L 15832717 34038999 L 15834157 34030000 L 15834157 34024599 L 15832717 34015600 L 15829837 34010200 L 15825517 34008400 L 15822637 34008400 M 15815437 34038999 L 15832717 34015600"/><path class="fil0 str2" d=" M 15837037 34053400 L 15808237 34053400"/><path class="fil0 str2" d=" M 15849997 34008400 L 15845677 34010200 L 15844237 34013798 L 15844237 34017399 L 15845677 34021000 L 15848557 34022800 L 15854317 34024599 L 15858637 34026398 L 15861517 34030000 L 15862957 34033601 L 15862957 34038999 L 15861517 34042600 L 15860078 34044399 L 15855758 34046201 L 15849997 34046201 L 15845677 34044399 L 15844237 34042600 L 15842797 34038999 L 15842797 34033601 L 15844237 34030000 L 15847117 34026398 L 15851437 34024599 L 15857197 34022800 L 15860078 34021000 L 15861517 34017399 L 15861517 34013798 L 15860078 34010200 L 15855758 34008400 L 15849997 34008400"/><path class="fil0 str2" d=" M 15871597 34008400 L 15871597 34046201 M 15871597 34008400 L 15890317 34008400 M 15871597 34026398 L 15883117 34026398"/>
  </g>
</svg>
