<?xml version="1.0" encoding="UTF-8"?>
<!DOCTYPE svg PUBLIC "-//W3C//DTD SVG 1.1//EN" "http://www.w3.org/Graphics/SVG/1.1/DTD/svg11.dtd">
<svg xmlns="http://www.w3.org/2000/svg"
     xmlns:xlink="http://www.w3.org/1999/xlink"
     version="1.1" baseProfile="full"
     width="304.8mm" height="177.8mm"
     viewBox="0 0 3048000 1778000">
  <defs>
    <style type="text/css">
      <![CDATA[
        .str0 {stroke:red; stroke-width:1}
        .str1 {stroke:green; stroke-width:1}
        .str2 {stroke:black; stroke-width:1}
        .fil0 {fill:none}
        .fil1 {fill:black}
        .fil2 {fill:green}
        .fnt0 {text-anchor:'middle'; dominant-baseline:'central'; font-weight:normal; font-size:3pt; font-family:'Arial'; text-decoration:underline;}
      ]]>
    </style>
  </defs>
  <g id="Layer_x0020_1">
    <metadata id="CorelCorpID_0Corel-Layer"/>
    <rect class="str1" x="0" y="0" width="3.048e+06" height="1.778e+06" />
    <circle class="fil0 str1" cx="0" cy="0" r="50000" />
    <circle class="fil0 str1" cx="0" cy="0" r="50000" />
    <circle class="fil0 str1" cx="0" cy="0" r="50000" />
    <circle class="fil0 str1" cx="0" cy="0" r="50000" />
    <circle class="fil0 str1" cx="0" cy="0" r="50000" />
    <circle class="fil0 str1" cx="0" cy="0" r="50000" />
    <circle class="fil0 str1" cx="0" cy="0" r="50000" />
    <circle class="fil0 str1" cx="0" cy="0" r="50000" />
    <circle class="fil0 str1" cx="0" cy="0" r="50000" />
  </g>
  <g id="Layer_x0020_2">
    <metadata id="CorelCorpID_1Corel-Layer"/>
    <path class="fil0 str0" d="M 6014614 10671393 C 5701785 10604899, 5390187 10538667, 5077755 10472258 C 5144380 10159270, 5210986 9846279, 5277555 9533279 C 5590165 9599727, 5901923 9665993, 6214862 9732510 C 6148216 10045493, 6081455 10358452, 6014614 10671393" />
    <path class="fil0 str0" d="M 3955727 25715671 C 4054609 25411343, 4153488 25107023, 4252359 24802730 C 4556697 24901616, 4861035 25000502, 5165373 25099388 C 5066502 25403681, 4967623 25708001, 4868741 26012328 C 4564403 25913442, 4260065 25814556, 3955727 25715671" />
    <path class="fil0 str0" d="M 8300414 23400000 C 8620345 23400000, 8939068 23400000, 9258662 23400000 C 9258624 23720000, 9258624 24040000, 9258662 24360000 C 8939068 24360000, 8620345 24360000, 8300414 24360000 C 8300297 24040000, 8300297 23720000, 8300414 23400000" />
    <path class="fil0 str0" d="M 5309401 2877374 C 5408440 2572564, 5507638 2267265, 5606404 1963294 C 5910799 2062005, 6215228 2160609, 6519651 2259233 C 6420886 2563200, 6321652 2868610, 6222552 3173611 C 5918169 3074865, 5613779 2976139, 5309401 2877374" />
    <path class="fil0 str0" d="M 8389276 24395471 C 8355944 24712607, 8322538 25030443, 8289089 25348690 C 7970780 25315829, 7652449 25283184, 7334106 25250643 C 7367589 24932071, 7400990 24614287, 7434321 24297166 C 7752649 24329842, 8070961 24362667, 8389276 24395471" />
    <path class="fil0 str0" d="M 5421735 8814384 C 5262174 8538017, 5102183 8260904, 4941935 7983346 C 5218999 7823236, 5496044 7663090, 5773099 7502963 C 5933447 7780695, 6093579 8058052, 6253285 8334671 C 5976110 8494589, 5698924 8654490, 5421735 8814384" />
    <path class="fil0 str0" d="M 5674038 17319530 C 5640639 17637303, 5607263 17954856, 5573928 18272014 C 5255680 18238575, 4937431 18205147, 4619180 18171731 C 4652517 17854552, 4685895 17536988, 4719295 17219206 C 5037543 17252643, 5355791 17286085, 5674038 17319530" />
    <path class="fil0 str0" d="M 7617543 26993909 C 7909868 27124060, 8202186 27254208, 8494480 27384346 C 8364323 27676680, 8234166 27969014, 8104010 28261348 C 7811718 28131211, 7519400 28001063, 7227076 27870912 C 7357232 27578578, 7487387 27286243, 7617543 26993909" />
    <path class="fil0 str0" d="M 8684477 19577798 C 8650846 19897773, 8617299 20216954, 8583891 20534804 C 8265688 20500938, 7947483 20467092, 7629269 20433328 C 7662699 20115262, 7696261 19795945, 7729897 19475916 C 8048101 19509776, 8366292 19543753, 8684477 19577798" />
    <path class="fil0 str0" d="M 5838406 4371198 C 5804947 4689545, 5771432 5008420, 5737886 5327589 C 5419561 5294879, 5101239 5262144, 4782919 5229387 C 4816419 4910653, 4849905 4592061, 4883361 4273746 C 5201710 4306221, 5520059 4338704, 5838406 4371198" />
    <path class="fil0 str0" d="M 7157912 26377580 C 7256797 26073242, 7355682 25768904, 7454568 25464566 C 7758906 25563451, 8063244 25662336, 8367582 25761222 C 8268697 26065560, 8169811 26369898, 8070926 26674236 C 7766588 26575351, 7462250 26476465, 7157912 26377580" />
    <path class="fil0 str0" d="M 4546575 20356791 C 4644876 20659331, 4743241 20962069, 4841953 21265871 C 4537755 21365188, 4233583 21464584, 3929434 21564053 C 3830665 21260073, 3732233 20957130, 3633873 20654409 C 3938088 20555146, 4242323 20455942, 4546575 20356791" />
    <path class="fil0 str0" d="M 4630911 14596796 C 4923104 14466704, 5215220 14336645, 5507144 14206672 C 5637280 14499015, 5767421 14791357, 5897565 15083696 C 5605658 15213661, 5313553 15343715, 5021366 15473805 C 4891213 15181469, 4761062 14889133, 4630911 14596796" />
    <path class="fil0 str0" d="M 3461117 29778681 C 3674810 29541352, 3889214 29303231, 4103965 29064726 C 4342341 29278216, 4580709 29491713, 4819071 29705218 C 4604563 29943453, 4390239 30181485, 4176324 30419061 C 3937868 30205661, 3699454 29992213, 3461117 29778681" />
    <path class="fil0 str0" d="M 5172241 12807863 C 5138794 12489634, 5105347 12171417, 5071905 11853232 C 5390150 11819760, 5708394 11786288, 6026639 11752814 C 6060084 12071030, 6093532 12389262, 6126980 12707499 C 5808734 12740954, 5490487 12774408, 5172241 12807863" />
    <path class="fil0 str0" d="M 4113558 34923005 C 3854694 35111081, 3595842 35299147, 3337030 35487186 C 3148954 35228289, 2960878 34969392, 2772800 34710498 C 3031593 34522473, 3290436 34334412, 3549295 34146341 C 3737383 34405228, 3925471 34664116, 4113558 34923005" />
    <path class="fil0 str0" d="M 4889320 23350618 C 4855918 23668418, 4822538 23986010, 4789196 24303232 C 4470956 24269723, 4152713 24236228, 3834470 24202745 C 3867807 23885566, 3901184 23568002, 3934584 23250220 C 4252830 23283682, 4571075 23317147, 4889320 23350618" />
    <path class="fil0 str0" d="M 8032953 32760390 C 7999455 33079108, 7966034 33397080, 7932689 33714341 C 7614478 33680547, 7296265 33646780, 6978050 33613025 C 7011373 33295976, 7044802 32977917, 7078332 32658901 C 7396533 32692790, 7714741 32726612, 8032953 32760390" />
    <path class="fil0 str0" d="M 7131737 32312225 C 7098391 31994964, 7065121 31678415, 7031739 31360806 C 7350069 31328146, 7668387 31295373, 7986693 31262484 C 8020040 31579759, 8053257 31895798, 8086580 32212847 C 7768301 32245990, 7450020 32279122, 7131737 32312225" />
  </g>
  <g id="Layer_x0020_3">
    <metadata id="CorelCorpID_2Corel-Layer"/>
  <path class="fil0 str2" d=" M 5667015 10128868 L 5671615 10128005 L 5675555 10123322 L 5678834 10114818 L 5679957 10109536 L 5680420 10100433 L 5678726 10094553 L 5674874 10091893 L 5672057 10091295 L 5667457 10092157 L 5663518 10096840 L 5660238 10105344 L 5659115 10110626 L 5658652 10119729 L 5660347 10125610 L 5664198 10128269 L 5667015 10128868 M 5680420 10100433 L 5658652 10119729"/><path class="fil0 str2" d=" M 5662286 10081857 L 5690457 10087845"/><path class="fil0 str2" d=" M 5634619 10121981 L 5640607 10093811 L 5643138 10088828 L 5644921 10087367 L 5648112 10086205 L 5650929 10086804 L 5653372 10089163 L 5654406 10091223 L 5654692 10096805 L 5653944 10100326"/><path class="fil0 str2" d=" M 5619125 10118688 L 5623725 10117826 L 5625882 10114604 L 5626630 10111082 L 5625971 10107262 L 5623527 10104902 L 5618267 10101944 L 5614416 10099285 L 5612348 10095165 L 5611688 10091345 L 5612810 10086063 L 5614967 10082841 L 5616750 10081380 L 5621350 10080516 L 5626984 10081715 L 5630836 10084373 L 5631870 10086433 L 5632530 10090254 L 5631407 10095536 L 5629250 10098758 L 5625684 10101680 L 5621085 10102543 L 5615076 10103106 L 5611885 10104268 L 5609728 10107490 L 5608980 10111011 L 5609639 10114832 L 5613491 10117491 L 5619125 10118688"/>
  <path class="fil0 str2" d=" M 4531109 25428237 L 4531486 25432902 L 4535732 25437309 L 4543847 25441459 L 4548982 25443129 L 4557987 25444541 L 4564013 25443471 L 4567059 25439919 L 4567949 25437180 L 4567572 25432514 L 4563327 25428107 L 4555212 25423955 L 4550076 25422287 L 4541072 25420876 L 4535046 25421945 L 4531999 25425498 L 4531109 25428237 M 4557987 25444541 L 4541072 25420876"/><path class="fil0 str2" d=" M 4578357 25428447 L 4569457 25455837"/><path class="fil0 str2" d=" M 4555107 25395153 L 4559798 25398193 L 4562332 25402043 L 4562709 25406708 L 4562264 25408078 L 4559217 25411630 L 4554903 25413256 L 4549322 25412958 L 4547611 25412402 L 4542920 25409362 L 4540386 25405512 L 4540009 25400847 L 4540454 25399477 L 4543501 25395925 L 4547815 25394299 L 4555107 25395153 L 4563667 25397934 L 4571781 25402084 L 4576027 25406494 L 4576404 25411159 L 4575514 25413896 L 4572467 25417448 L 4568598 25417707"/><path class="fil0 str2" d=" M 4548019 25376196 L 4548396 25380861 L 4551375 25383342 L 4554798 25384455 L 4558667 25384199 L 4561269 25382014 L 4564761 25377092 L 4567808 25373540 L 4572121 25371914 L 4575990 25371657 L 4581126 25373325 L 4584105 25375808 L 4585372 25377734 L 4585749 25382397 L 4583969 25387875 L 4580922 25391428 L 4578765 25392241 L 4574896 25392500 L 4569761 25390830 L 4566782 25388349 L 4564248 25384497 L 4563871 25379831 L 4563939 25373798 L 4563117 25370502 L 4560138 25368020 L 4556714 25366909 L 4552846 25367165 L 4549799 25370717 L 4548019 25376196"/>
  <path class="fil0 str2" d=" M 8753652 23858400 L 8749332 23860200 L 8746452 23865600 L 8745012 23874599 L 8745012 23880000 L 8746452 23888999 L 8749332 23894399 L 8753652 23896201 L 8756532 23896201 L 8760852 23894399 L 8763732 23888999 L 8765172 23880000 L 8765172 23874599 L 8763732 23865600 L 8760852 23860200 L 8756532 23858400 L 8753652 23858400 M 8746452 23888999 L 8763732 23865600"/><path class="fil0 str2" d=" M 8768052 23903400 L 8739252 23903400"/><path class="fil0 str2" d=" M 8786772 23858400 L 8786772 23887199 L 8785332 23892600 L 8783892 23894399 L 8781012 23896201 L 8778132 23896201 L 8775252 23894399 L 8773812 23892600 L 8772373 23887199 L 8772373 23883601"/><path class="fil0 str2" d=" M 8814132 23871000 L 8812692 23876398 L 8809812 23880000 L 8805492 23881799 L 8804052 23881799 L 8799732 23880000 L 8796853 23876398 L 8795412 23871000 L 8795412 23869199 L 8796853 23863798 L 8799732 23860200 L 8804052 23858400 L 8805492 23858400 L 8809812 23860200 L 8812692 23863798 L 8814132 23871000 L 8814132 23880000 L 8812692 23888999 L 8809812 23894399 L 8805492 23896201 L 8802612 23896201 L 8798292 23894399 L 8796853 23890800"/>
  <path class="fil0 str2" d=" M 5885781 2586874 L 5886158 2591539 L 5890404 2595946 L 5898518 2600097 L 5903654 2601766 L 5912658 2603177 L 5918684 2602107 L 5921730 2598554 L 5922620 2595816 L 5922244 2591151 L 5917998 2586743 L 5909884 2582592 L 5904748 2580924 L 5895744 2579512 L 5889718 2580582 L 5886671 2584135 L 5885781 2586874 M 5912658 2603177 L 5895744 2579512"/><path class="fil0 str2" d=" M 5933028 2587084 L 5924129 2614475"/><path class="fil0 str2" d=" M 5892456 2566331 L 5928405 2578012 M 5928405 2578012 L 5933745 2561578"/><path class="fil0 str2" d=" M 5905360 2526615 L 5936860 2551991 M 5899130 2545788 L 5905360 2526615"/>
  <path class="fil0 str2" d=" M 7886445 24794177 L 7885107 24789692 L 7880037 24786264 L 7871237 24783891 L 7865867 24783327 L 7856765 24783818 L 7851094 24786118 L 7848853 24790227 L 7848551 24793090 L 7849890 24797575 L 7854959 24801003 L 7863759 24803376 L 7869130 24803940 L 7878231 24803449 L 7883903 24801149 L 7886145 24797041 L 7886445 24794177 M 7856765 24783818 L 7878231 24803449"/><path class="fil0 str2" d=" M 7840187 24803793 L 7843197 24775151"/><path class="fil0 str2" d=" M 7884188 24815659 L 7846594 24811708 M 7884188 24815659 L 7844487 24831757 M 7882080 24835708 L 7844487 24831757"/><path class="fil0 str2" d=" M 7869968 24864841 L 7873699 24863786 L 7877581 24861298 L 7879672 24858623 L 7880274 24852893 L 7878785 24849841 L 7875505 24846601 L 7872076 24844792 L 7866856 24842795 L 7857905 24841855 L 7852384 24842722 L 7848654 24843779 L 7844772 24846267 L 7842681 24848942 L 7842079 24854670 L 7843568 24857724 L 7846847 24860964 L 7850277 24862773 L 7855648 24863337 M 7856400 24856176 L 7855648 24863337"/>
  <path class="fil0 str2" d=" M 5593694 8195426 L 5597413 8198267 L 5603529 8198061 L 5612044 8194808 L 5616720 8192108 L 5623794 8186361 L 5627031 8181167 L 5626430 8176526 L 5624990 8174031 L 5621271 8171190 L 5615154 8171397 L 5606640 8174649 L 5601964 8177349 L 5594889 8183096 L 5591652 8188291 L 5592254 8192932 L 5593694 8195426 M 5623794 8186361 L 5594889 8183096"/><path class="fil0 str2" d=" M 5625465 8160455 L 5639865 8185397"/><path class="fil0 str2" d=" M 5582894 8176719 L 5615629 8157820 M 5572814 8159260 L 5604718 8164120 M 5593323 8162384 L 5605549 8140361"/><path class="fil0 str2" d=" M 5559134 8135566 L 5599069 8129137 M 5569214 8153025 L 5559134 8135566"/>
  <path class="fil0 str2" d=" M 5171016 17720062 L 5169677 17715578 L 5164608 17712149 L 5155808 17709776 L 5150437 17709212 L 5141336 17709703 L 5135664 17712003 L 5133422 17716112 L 5133121 17718975 L 5134460 17723460 L 5139530 17726889 L 5148330 17729261 L 5153700 17729826 L 5162801 17729334 L 5168473 17727034 L 5170714 17722927 L 5171016 17720062 M 5141336 17709703 L 5162801 17729334"/><path class="fil0 str2" d=" M 5124757 17729680 L 5127767 17701037"/><path class="fil0 str2" d=" M 5157700 17760653 L 5161430 17759597 L 5165312 17757109 L 5167403 17754433 L 5168005 17748704 L 5166516 17745653 L 5163237 17742412 L 5159807 17740604 L 5154587 17738607 L 5145636 17737666 L 5140115 17738533 L 5136384 17739589 L 5132503 17742077 L 5130412 17744753 L 5129810 17750482 L 5131299 17753535 L 5134578 17756774 L 5138008 17758583"/><path class="fil0 str2" d=" M 5164995 17777347 L 5128606 17761939 M 5164995 17777347 L 5126198 17784853 M 5140686 17767552 L 5139180 17781873"/>
  <path class="fil0 str2" d=" M 7843259 27596184 L 7838580 27596071 L 7833753 27599833 L 7828776 27607470 L 7826580 27612404 L 7824235 27621210 L 7824669 27627316 L 7827884 27630717 L 7830515 27631889 L 7835194 27632001 L 7840021 27628239 L 7844997 27620603 L 7847194 27615671 L 7849539 27606862 L 7849104 27600759 L 7845889 27597355 L 7843259 27596184 M 7824235 27621210 L 7849539 27606862"/><path class="fil0 str2" d=" M 7838110 27643151 L 7811801 27631437"/><path class="fil0 str2" d=" M 7873652 27623510 L 7870140 27627856 L 7866045 27629975 L 7861367 27629860 L 7860051 27629277 L 7856837 27625874 L 7855670 27621413 L 7856551 27615895 L 7857283 27614250 L 7860795 27609904 L 7864890 27607785 L 7869569 27607900 L 7870885 27608483 L 7874099 27611887 L 7875266 27616347 L 7873652 27623510 L 7869992 27631730 L 7865015 27639367 L 7860188 27643129 L 7855510 27643017 L 7852879 27641845 L 7849664 27638444 L 7849813 27634570"/><path class="fil0 str2" d=" M 7905087 27623713 L 7876558 27652387 M 7886670 27615512 L 7905087 27623713"/>
  <path class="fil0 str2" d=" M 8180736 19985162 L 8179398 19980677 L 8174329 19977248 L 8165528 19974875 L 8160158 19974311 L 8151057 19974802 L 8145385 19977102 L 8143143 19981210 L 8142843 19984074 L 8144181 19988559 L 8149251 19991988 L 8158051 19994361 L 8163421 19994925 L 8172522 19994433 L 8178193 19992133 L 8180435 19988026 L 8180736 19985162 M 8151057 19974802 L 8172522 19994433"/><path class="fil0 str2" d=" M 8134478 19994779 L 8137488 19966136"/><path class="fil0 str2" d=" M 8178178 20009508 L 8140585 20005556 M 8178479 20006643 L 8177877 20012371 M 8140886 20002692 L 8140283 20008420"/><path class="fil0 str2" d=" M 8174866 20041014 L 8138778 20022741 M 8176973 20020964 L 8174866 20041014"/>
  <path class="fil0 str2" d=" M 5335373 4771834 L 5334035 4767350 L 5328965 4763921 L 5320165 4761548 L 5314794 4760984 L 5305693 4761475 L 5300021 4763775 L 5297780 4767883 L 5297479 4770747 L 5298817 4775231 L 5303887 4778660 L 5312687 4781033 L 5318057 4781598 L 5327159 4781106 L 5332830 4778807 L 5335072 4774698 L 5335373 4771834 M 5305693 4761475 L 5327159 4781106"/><path class="fil0 str2" d=" M 5289114 4781452 L 5292125 4752809"/><path class="fil0 str2" d=" M 5322057 4812424 L 5325788 4811369 L 5329669 4808881 L 5331760 4806205 L 5332362 4800476 L 5330874 4797424 L 5327594 4794183 L 5324165 4792375 L 5318944 4790379 L 5309994 4789438 L 5304473 4790305 L 5300742 4791361 L 5296860 4793849 L 5294769 4796525 L 5294168 4802254 L 5295657 4805306 L 5298936 4808547 L 5302366 4810355 L 5307736 4810919 M 5308489 4803759 L 5307736 4810919"/><path class="fil0 str2" d=" M 5330104 4821958 L 5292512 4818007 M 5327998 4842008 L 5290404 4838056 M 5312203 4820076 L 5310096 4840126"/>
  <path class="fil0 str2" d=" M 7733304 26090114 L 7733681 26094780 L 7737927 26099187 L 7746041 26103337 L 7751177 26105007 L 7760181 26106418 L 7766207 26105349 L 7769254 26101796 L 7770144 26099057 L 7769767 26094392 L 7765521 26089985 L 7757407 26085832 L 7752271 26084165 L 7743267 26082753 L 7737241 26083823 L 7734194 26087375 L 7733304 26090114 M 7760181 26106418 L 7743267 26082753"/><path class="fil0 str2" d=" M 7780552 26090324 L 7771652 26117714"/><path class="fil0 str2" d=" M 7744874 26054506 L 7740424 26068203 L 7755386 26074577 L 7754119 26072651 L 7753742 26067988 L 7755077 26063879 L 7758124 26060327 L 7762438 26058701 L 7768018 26058999 L 7771442 26060112 L 7776133 26063149 L 7778667 26067001 L 7779044 26071667 L 7777709 26075773 L 7774662 26079326 L 7772505 26080141 L 7768637 26080397"/><path class="fil0 str2" d=" M 7750214 26038073 L 7750590 26042739 L 7753569 26045219 L 7756993 26046333 L 7760862 26046076 L 7763464 26043891 L 7766956 26038969 L 7770003 26035417 L 7774317 26033791 L 7778185 26033535 L 7783321 26035202 L 7786300 26037685 L 7787567 26039611 L 7787943 26044274 L 7786163 26049753 L 7783117 26053305 L 7780960 26054118 L 7777091 26054377 L 7771955 26052707 L 7768977 26050227 L 7766442 26046374 L 7766066 26041708 L 7766134 26035676 L 7765312 26032380 L 7762333 26029897 L 7758909 26028786 L 7755040 26029042 L 7751994 26032595 L 7750214 26038073"/>
  <path class="fil0 str2" d=" M 4249739 20926638 L 4246692 20923085 L 4240667 20922016 L 4231662 20923427 L 4226527 20925097 L 4218412 20929248 L 4214166 20933654 L 4213789 20938320 L 4214679 20941059 L 4217726 20944611 L 4223752 20945681 L 4232756 20944270 L 4237892 20942602 L 4246007 20938449 L 4250252 20934042 L 4250629 20929377 L 4249739 20926638 M 4218412 20929248 L 4246007 20938449"/><path class="fil0 str2" d=" M 4211392 20954240 L 4202492 20926850"/><path class="fil0 str2" d=" M 4256414 20947182 L 4220464 20958862 M 4256414 20947182 L 4262199 20964985 M 4239295 20952744 L 4242855 20963701"/><path class="fil0 str2" d=" M 4261649 20992419 L 4264628 20989936 L 4267162 20986083 L 4267984 20982790 L 4266204 20977312 L 4263602 20975129 L 4259288 20973500 L 4255419 20973244 L 4249839 20973544 L 4241279 20976325 L 4236588 20979362 L 4233609 20981845 L 4231076 20985695 L 4230254 20988991 L 4232034 20994470 L 4234635 20996652 L 4238949 20998278 L 4242818 20998537"/>
  <path class="fil0 str2" d=" M 5228544 14832495 L 5225329 14835897 L 5224895 14842000 L 5227239 14850809 L 5229436 14855742 L 5234412 14863377 L 5239240 14867139 L 5243918 14867027 L 5246549 14865855 L 5249764 14862454 L 5250198 14856350 L 5247853 14847542 L 5245657 14842608 L 5240681 14834973 L 5235853 14831210 L 5231174 14831323 L 5228544 14832495 M 5234412 14863377 L 5240681 14834973"/><path class="fil0 str2" d=" M 5260002 14867747 L 5233692 14879461"/><path class="fil0 str2" d=" M 5250907 14822537 L 5266282 14857070 M 5248276 14823709 L 5260115 14818438 L 5264794 14818325 L 5266842 14819384 L 5269622 14822087 L 5271086 14825375 L 5271235 14829250 L 5270651 14831480 L 5267437 14834882 M 5258228 14838981 L 5267437 14834882 L 5272116 14834769 L 5274163 14835827 L 5276943 14838531 L 5279140 14843464 L 5279288 14847338 L 5278705 14849569 L 5275490 14852969 L 5263651 14858242"/><path class="fil0 str2" d=" M 5291688 14804381 L 5293908 14844770 M 5273271 14812581 L 5291688 14804381"/>
  <path class="fil0 str2" d=" M 4103187 29750659 L 4101634 29755073 L 4103720 29760827 L 4109444 29767919 L 4113457 29771533 L 4121109 29776484 L 4127049 29777958 L 4131278 29775952 L 4133205 29773811 L 4134758 29769396 L 4132672 29763642 L 4126947 29756550 L 4122934 29752937 L 4115282 29747985 L 4109342 29746513 L 4105114 29748518 L 4103187 29750659 M 4121109 29776484 L 4115282 29747985"/><path class="fil0 str2" d=" M 4146264 29770068 L 4126993 29791472"/><path class="fil0 str2" d=" M 4117640 29734606 L 4145731 29759899 M 4131130 29719626 L 4136367 29751469 M 4134497 29740095 L 4159220 29744919"/><path class="fil0 str2" d=" M 4136911 29713205 L 4165002 29738498 M 4150401 29698222 L 4178491 29723515 M 4150288 29725249 L 4163777 29710266"/>
  <path class="fil0 str2" d=" M 5580969 12311246 L 5583211 12315355 L 5588883 12317655 L 5597984 12318145 L 5603354 12317581 L 5612154 12315208 L 5617224 12311779 L 5618562 12307296 L 5618261 12304431 L 5616019 12300323 L 5610348 12298023 L 5601246 12297531 L 5595876 12298096 L 5587076 12300468 L 5582007 12303897 L 5580668 12308382 L 5580969 12311246 M 5612154 12315208 L 5587076 12300468"/><path class="fil0 str2" d=" M 5624218 12292221 L 5627228 12320864"/><path class="fil0 str2" d=" M 5577958 12282604 L 5616756 12290109 M 5577958 12282604 L 5614348 12267196 M 5603773 12287131 L 5602268 12272810"/><path class="fil0 str2" d=" M 5576152 12265418 L 5613745 12261468 M 5574045 12245369 L 5611638 12241418 M 5594054 12263537 L 5591947 12243487"/>
  <path class="fil0 str2" d=" M 3477991 34818156 L 3480428 34814160 L 3479584 34808098 L 3475459 34799970 L 3472285 34795603 L 3465830 34789167 L 3460326 34786491 L 3455773 34787575 L 3453443 34789267 L 3451006 34793264 L 3451850 34799323 L 3455975 34807451 L 3459149 34811821 L 3465604 34818254 L 3471108 34820932 L 3475661 34819848 L 3477991 34818156 M 3465830 34789167 L 3465604 34818254"/><path class="fil0 str2" d=" M 3439891 34790214 L 3463191 34773286"/><path class="fil0 str2" d=" M 3454691 34835083 L 3441793 34797731 M 3454691 34835083 L 3423153 34811274 M 3445704 34810463 L 3434054 34818928"/><path class="fil0 str2" d=" M 3439547 34846086 L 3426732 34855397 L 3425258 34838669 L 3421763 34841208 L 3418375 34841445 L 3416152 34840834 L 3411813 34837312 L 3409696 34834401 L 3407687 34829184 L 3407901 34824580 L 3410338 34820585 L 3413833 34818044 L 3418386 34816962 L 3420609 34817573 L 3423890 34819638"/>
  <path class="fil0 str2" d=" M 4386448 23749711 L 4385110 23745227 L 4380041 23741796 L 4371240 23739423 L 4365870 23738859 L 4356769 23739353 L 4351097 23741652 L 4348856 23745759 L 4348554 23748623 L 4349893 23753107 L 4354963 23756538 L 4363763 23758911 L 4369133 23759475 L 4378234 23758984 L 4383906 23756684 L 4386148 23752575 L 4386448 23749711 M 4356769 23739353 L 4378234 23758984"/><path class="fil0 str2" d=" M 4340190 23759328 L 4343200 23730686"/><path class="fil0 str2" d=" M 4373133 23790302 L 4376864 23789245 L 4380745 23786757 L 4382836 23784082 L 4383438 23778354 L 4381949 23775300 L 4378670 23772060 L 4375240 23770251 L 4370020 23768254 L 4361069 23767314 L 4355549 23768181 L 4351818 23769238 L 4347937 23771726 L 4345845 23774401 L 4345243 23780129 L 4346732 23783183 L 4350011 23786423 L 4353441 23788232"/><path class="fil0 str2" d=" M 4379223 23818452 L 4343136 23800180 M 4381331 23798403 L 4379223 23818452"/>
  <path class="fil0 str2" d=" M 7529362 33166335 L 7528023 33161850 L 7522954 33158422 L 7514154 33156049 L 7508783 33155485 L 7499682 33155976 L 7494011 33158276 L 7491769 33162385 L 7491468 33165249 L 7492807 33169733 L 7497876 33173161 L 7506676 33175534 L 7512047 33176098 L 7521148 33175607 L 7526819 33173308 L 7529061 33169199 L 7529362 33166335 M 7499682 33155976 L 7521148 33175607"/><path class="fil0 str2" d=" M 7483103 33175954 L 7486113 33147312"/><path class="fil0 str2" d=" M 7526803 33190681 L 7489210 33186730 M 7527104 33187817 L 7526502 33193547 M 7489511 33183867 L 7488909 33189594"/><path class="fil0 str2" d=" M 7516498 33202629 L 7518288 33202817 L 7521718 33204626 L 7523357 33206247 L 7524846 33209299 L 7524244 33215026 L 7522153 33217705 L 7520213 33218947 L 7516481 33220004 L 7512901 33219626 L 7509472 33217819 L 7504402 33214389 L 7488006 33198188 L 7485899 33218237"/>
  <path class="fil0 str2" d=" M 7540422 31815205 L 7542664 31819313 L 7548336 31821613 L 7557437 31822104 L 7562808 31821540 L 7571608 31819167 L 7576677 31815739 L 7578016 31811254 L 7577714 31808391 L 7575473 31804282 L 7569802 31801982 L 7560700 31801491 L 7555330 31802055 L 7546530 31804428 L 7541460 31807856 L 7540122 31812341 L 7540422 31815205 M 7571608 31819167 L 7546530 31804428"/><path class="fil0 str2" d=" M 7583671 31796181 L 7586682 31824824"/><path class="fil0 str2" d=" M 7536961 31782268 L 7565603 31779257 L 7571124 31780124 L 7573065 31781369 L 7575156 31784045 L 7575457 31786909 L 7573968 31789960 L 7572328 31791582 L 7567108 31793579 L 7563528 31793955"/><path class="fil0 str2" d=" M 7544858 31771301 L 7543068 31771489 L 7539337 31770434 L 7537396 31769189 L 7535305 31766513 L 7534703 31760786 L 7536192 31757734 L 7537832 31756113 L 7541262 31754304 L 7544841 31753928 L 7548572 31754985 L 7554244 31757285 L 7573651 31769724 L 7571543 31749675"/>
  </g>
</svg>
