<?xml version="1.0" encoding="UTF-8"?>
<!DOCTYPE svg PUBLIC "-//W3C//DTD SVG 1.1//EN" "http://www.w3.org/Graphics/SVG/1.1/DTD/svg11.dtd">
<svg xmlns="http://www.w3.org/2000/svg"
     xmlns:xlink="http://www.w3.org/1999/xlink"
     version="1.1" baseProfile="full"
     width="800mm" height="800mm"
     viewBox="0 0 8000000 8000000">
  <defs>
    <style type="text/css">
      <![CDATA[
        .str0 {stroke:red; stroke-width:1}
        .str1 {stroke:green; stroke-width:1}
        .str2 {stroke:black; stroke-width:1}
        .fil0 {fill:none}
        .fil1 {fill:black}
        .fil2 {fill:green}
        .fnt0 {text-anchor:'middle'; dominant-baseline:'central'; font-weight:normal; font-size:3pt; font-family:'Arial'; text-decoration:underline;}
      ]]>
    </style>
  </defs>
  <g id="Layer_x0020_1">
    <metadata id="CorelCorpID_0Corel-Layer"/>
    <rect class="str1" x="0" y="0" width="8e+06" height="8e+06" />
    <circle class="fil0 str1" cx="0" cy="0" r="50000" />
    <circle class="fil0 str1" cx="0" cy="0" r="50000" />
    <circle class="fil0 str1" cx="0" cy="0" r="50000" />
    <circle class="fil0 str1" cx="0" cy="0" r="50000" />
  </g>
  <g id="Layer_x0020_2">
    <metadata id="CorelCorpID_1Corel-Layer"/>
    <path class="fil0 str0" d="M 6663643 2152321 C 6526702 2181428, 6389761 2210536, 6252821 2239643 C 6223713 2102703, 6194605 1965762, 6165498 1828821 C 6302438 1799714, 6439379 1770606, 6576320 1741499 C 6605427 1878439, 6634535 2015380, 6663643 2152321" />
    <path class="fil0 str0" d="M 7229490 2042391 C 7092549 2013284, 6955608 1984176, 6818668 1955068 C 6847775 1818128, 6876883 1681187, 6905990 1544246 C 7042931 1573354, 7179872 1602462, 7316812 1631569 C 7287705 1768510, 7258597 1905451, 7229490 2042391" />
    <path class="fil0 str0" d="M 6512326 2385865 C 6640223 2328922, 6768119 2271979, 6896015 2215035 C 6952959 2342932, 7009902 2470828, 7066845 2598724 C 6938949 2655668, 6811052 2712611, 6683156 2769554 C 6626213 2641658, 6569270 2513761, 6512326 2385865" />
    <path class="fil0 str0" d="M 3733106 1240983 C 3663106 1362226, 3593106 1483470, 3523106 1604714 C 3401862 1534714, 3280619 1464714, 3159375 1394714 C 3229375 1273470, 3299375 1152226, 3369375 1030983 C 3490619 1100983, 3611862 1170983, 3733106 1240983" />
    <path class="fil0 str0" d="M 6268889 3122328 C 6362567 3018288, 6456246 2914248, 6549924 2810208 C 6653964 2903886, 6758004 2997564, 6862045 3091242 C 6768366 3195283, 6674688 3299323, 6581010 3403363 C 6476970 3309685, 6372929 3216007, 6268889 3122328" />
    <path class="fil0 str0" d="M 4945538 733231 C 4930904 872464, 4916270 1011698, 4901637 1150931 C 4762403 1136297, 4623170 1121663, 4483937 1107029 C 4498571 967796, 4513205 828563, 4527839 689329 C 4667072 703963, 4806305 718597, 4945538 733231" />
    <path class="fil0 str0" d="M 5460868 2260180 C 5446234 2120947, 5431600 1981714, 5416966 1842481 C 5556199 1827847, 5695432 1813213, 5834665 1798579 C 5849299 1937812, 5863933 2077045, 5878567 2216278 C 5739334 2230912, 5600101 2245546, 5460868 2260180" />
    <path class="fil0 str0" d="M 4374085 2800401 C 4467763 2904442, 4561442 3008482, 4655120 3112522 C 4551080 3206200, 4447040 3299879, 4342999 3393557 C 4249321 3289517, 4155643 3185476, 4061964 3081436 C 4166005 2987758, 4270045 2894080, 4374085 2800401" />
    <path class="fil0 str0" d="M 1724338 462330 C 1587397 491437, 1450457 520545, 1313516 549653 C 1284408 412712, 1255301 275771, 1226193 138831 C 1363134 109723, 1500074 80615, 1637015 51508 C 1666123 188448, 1695230 325389, 1724338 462330" />
    <path class="fil0 str0" d="M 3527341 672047 C 3390400 701155, 3253459 730262, 3116519 759370 C 3087411 622429, 3058303 485489, 3029196 348548 C 3166136 319440, 3303077 290333, 3440018 261225 C 3469125 398166, 3498233 535106, 3527341 672047" />
    <path class="fil0 str0" d="M 5889319 1033528 C 5874685 1172761, 5860051 1311994, 5845417 1451227 C 5706184 1436593, 5566951 1421960, 5427718 1407326 C 5442352 1268092, 5456986 1128859, 5471620 989626 C 5610853 1004260, 5750086 1018894, 5889319 1033528" />
    <path class="fil0 str0" d="M 1448705 1763356 C 1434071 1902589, 1419437 2041822, 1404803 2181056 C 1265570 2166422, 1126337 2151788, 987104 2137154 C 1001738 1997921, 1016372 1858688, 1031006 1719454 C 1170239 1734088, 1309472 1748722, 1448705 1763356" />
    <path class="fil0 str0" d="M 2128767 137609 C 2172030 270757, 2215292 403904, 2258555 537052 C 2125407 580315, 1992259 623577, 1859111 666840 C 1815848 533692, 1772586 400544, 1729324 267396 C 1862472 224133, 1995619 180871, 2128767 137609" />
    <path class="fil0 str0" d="M 5038408 1720796 C 4901468 1749904, 4764527 1779011, 4627586 1808119 C 4598479 1671178, 4569371 1534238, 4540263 1397297 C 4677204 1368189, 4814145 1339082, 4951085 1309974 C 4980193 1446915, 5009301 1583855, 5038408 1720796" />
    <path class="fil0 str0" d="M 1729717 2798428 C 1857614 2855371, 1985510 2912314, 2113406 2969257 C 2056463 3097153, 1999520 3225050, 1942577 3352946 C 1814681 3296003, 1686784 3239060, 1558888 3182117 C 1615831 3054220, 1672774 2926324, 1729717 2798428" />
    <path class="fil0 str0" d="M 3881610 1958734 C 3866976 2097967, 3852342 2237200, 3837708 2376433 C 3698475 2361799, 3559242 2347165, 3420009 2332531 C 3434643 2193298, 3449277 2054065, 3463911 1914832 C 3603144 1929466, 3742377 1944100, 3881610 1958734" />
    <path class="fil0 str0" d="M 3346689 2073448 C 3332055 2212681, 3317421 2351914, 3302787 2491147 C 3163554 2476513, 3024321 2461879, 2885088 2447245 C 2899722 2308012, 2914356 2168779, 2928990 2029546 C 3068223 2044180, 3207456 2058814, 3346689 2073448" />
    <path class="fil0 str0" d="M 5778099 2491621 C 5871777 2595661, 5965455 2699701, 6059134 2803741 C 5955094 2897420, 5851053 2991098, 5747013 3084776 C 5653335 2980736, 5559656 2876696, 5465978 2772655 C 5570018 2678977, 5674059 2585299, 5778099 2491621" />
    <path class="fil0 str0" d="M 2771149 182931 C 2756515 322165, 2741881 461398, 2727247 600631 C 2588014 585997, 2448781 571363, 2309548 556729 C 2324182 417496, 2338816 278263, 2353450 139030 C 2492683 153664, 2631916 168298, 2771149 182931" />
    <path class="fil0 str0" d="M 14795 330996 C 142691 274053, 270588 217110, 398484 160167 C 455427 288063, 512370 415960, 569313 543856 C 441417 600799, 313521 657742, 185624 714685 C 128681 586789, 71738 458893, 14795 330996" />
    <path class="fil0 str0" d="M 5566800 647483 C 5429860 676590, 5292919 705698, 5155978 734806 C 5126871 597865, 5097763 460924, 5068655 323984 C 5205596 294876, 5342537 265768, 5479477 236661 C 5508585 373601, 5537693 510542, 5566800 647483" />
    <path class="fil0 str0" d="M 5280061 2861579 C 5210061 2982822, 5140061 3104066, 5070061 3225309 C 4948817 3155309, 4827574 3085309, 4706330 3015309 C 4776330 2894066, 4846330 2772822, 4916330 2651579 C 5037574 2721579, 5158817 2791579, 5280061 2861579" />
    <path class="fil0 str0" d="M 4240204 1236162 C 4103264 1265269, 3966323 1294377, 3829382 1323485 C 3800275 1186544, 3771167 1049603, 3742059 912663 C 3879000 883555, 4015941 854447, 4152881 825340 C 4181989 962280, 4211097 1099221, 4240204 1236162" />
    <path class="fil0 str0" d="M 6006745 2479608 C 6134642 2422665, 6262538 2365721, 6390434 2308778 C 6447377 2436675, 6504321 2564571, 6561264 2692467 C 6433367 2749410, 6305471 2806354, 6177575 2863297 C 6120632 2735400, 6063688 2607504, 6006745 2479608" />
    <path class="fil0 str0" d="M 4560000 180000 C 4699999 180000, 4840000 180000, 4980000 180000 C 4980000 320000, 4980000 460000, 4980000 600000 C 4840000 599999, 4699999 599999, 4560000 600000 C 4560000 460000, 4560000 320000, 4560000 180000" />
    <path class="fil0 str0" d="M 1040801 765251 C 1026167 904484, 1011533 1043717, 996899 1182950 C 857666 1168316, 718433 1153682, 579200 1139048 C 593834 999815, 608468 860582, 623102 721349 C 762335 735983, 901568 750617, 1040801 765251" />
    <path class="fil0 str0" d="M 664960 2405939 C 792856 2348995, 920752 2292052, 1048649 2235109 C 1105592 2363006, 1162535 2490902, 1219478 2618798 C 1091582 2675741, 963685 2732685, 835789 2789628 C 778846 2661731, 721903 2533835, 664960 2405939" />
    <path class="fil0 str0" d="M 1496035 1600687 C 1359095 1571580, 1222154 1542472, 1085213 1513364 C 1114321 1376424, 1143429 1239483, 1172536 1102542 C 1309477 1131650, 1446418 1160758, 1583358 1189865 C 1554251 1326806, 1525143 1463747, 1496035 1600687" />
    <path class="fil0 str0" d="M 1987777 1417812 C 1973144 1557045, 1958510 1696278, 1943876 1835511 C 1804643 1820877, 1665409 1806243, 1526176 1791609 C 1540810 1652376, 1555444 1513143, 1570078 1373910 C 1709311 1388544, 1848544 1403178, 1987777 1417812" />
    <path class="fil0 str0" d="M 3742498 2708299 C 3727864 2847532, 3713230 2986765, 3698596 3125998 C 3559363 3111364, 3420129 3096730, 3280896 3082096 C 3295530 2942863, 3310164 2803630, 3324798 2664397 C 3464031 2679031, 3603264 2693665, 3742498 2708299" />
    <path class="fil0 str0" d="M 3068063 1515672 C 2931123 1486565, 2794182 1457457, 2657241 1428350 C 2686349 1291409, 2715457 1154468, 2744564 1017528 C 2881505 1046635, 3018446 1075743, 3155386 1104850 C 3126279 1241791, 3097171 1378732, 3068063 1515672" />
    <path class="fil0 str0" d="M 4510787 2095249 C 4496153 2234482, 4481519 2373715, 4466885 2512948 C 4327652 2498314, 4188419 2483680, 4049186 2469046 C 4063820 2329813, 4078454 2190580, 4093088 2051347 C 4232321 2065981, 4371554 2080615, 4510787 2095249" />
    <path class="fil0 str0" d="M 6128959 475521 C 6114325 614754, 6099691 753987, 6085057 893220 C 5945824 878586, 5806591 863952, 5667358 849318 C 5681992 710085, 5696626 570852, 5711260 431619 C 5850493 446253, 5989726 460887, 6128959 475521" />
    <path class="fil0 str0" d="M 6707451 1249265 C 6637451 1370508, 6567451 1491752, 6497451 1612996 C 6376208 1542996, 6254964 1472996, 6133721 1402996 C 6203721 1281752, 6273721 1160509, 6343721 1039265 C 6464964 1109265, 6586208 1179265, 6707451 1249265" />
    <path class="fil0 str0" d="M 4723847 2518636 C 4709213 2379403, 4694579 2240170, 4679945 2100937 C 4819178 2086303, 4958411 2071669, 5097644 2057035 C 5112278 2196268, 5126912 2335501, 5141546 2474734 C 5002313 2489368, 4863080 2504002, 4723847 2518636" />
    <path class="fil0 str0" d="M 4246022 1652585 C 4176022 1773829, 4106022 1895072, 4036022 2016316 C 3914779 1946316, 3793535 1876316, 3672292 1806316 C 3742292 1685072, 3812292 1563829, 3882292 1442585 C 4003535 1512585, 4124779 1582585, 4246022 1652585" />
    <path class="fil0 str0" d="M 1329035 2997609 C 1314401 3136842, 1299767 3276075, 1285133 3415308 C 1145900 3400674, 1006667 3386040, 867434 3371406 C 882068 3232173, 896702 3092940, 911336 2953707 C 1050569 2968341, 1189802 2982975, 1329035 2997609" />
    <path class="fil0 str0" d="M 753034 2866819 C 616094 2895927, 479153 2925034, 342212 2954142 C 313105 2817201, 283997 2680261, 254889 2543320 C 391830 2514212, 528771 2485105, 665711 2455997 C 694819 2592938, 723927 2729879, 753034 2866819" />
    <path class="fil0 str0" d="M 2258836 943547 C 2244203 1082780, 2229569 1222013, 2214935 1361246 C 2075702 1346612, 1936468 1331978, 1797235 1317344 C 1811869 1178111, 1826503 1038878, 1841137 899645 C 1980370 914279, 2119603 928913, 2258836 943547" />
    <path class="fil0 str0" d="M 939579 1717547 C 802638 1688440, 665698 1659332, 528757 1630224 C 557864 1493284, 586972 1356343, 616080 1219402 C 753020 1248510, 889961 1277618, 1026902 1306725 C 997794 1443666, 968686 1580607, 939579 1717547" />
    <path class="fil0 str0" d="M 740385 493930 C 725751 354697, 711117 215464, 696483 76231 C 835716 61597, 974949 46963, 1114183 32329 C 1128817 171562, 1143451 310795, 1158085 450028 C 1018851 464662, 879618 479296, 740385 493930" />
    <path class="fil0 str0" d="M 6718307 1024109 C 6811985 920069, 6905663 816029, 6999342 711988 C 7103382 805667, 7207422 899345, 7311463 993023 C 7217784 1097064, 7124106 1201104, 7030428 1305144 C 6926387 1211466, 6822347 1117788, 6718307 1024109" />
  </g>
  <g id="Layer_x0020_3">
    <metadata id="CorelCorpID_2Corel-Layer"/>
  <path class="fil0 str2" d=" M 6447936 2005561 L 6451787 2002903 L 6453482 1997022 L 6453019 1987919 L 6451896 1982637 L 6448616 1974133 L 6444677 1969450 L 6440076 1968588 L 6437260 1969186 L 6433408 1971845 L 6431714 1977726 L 6432177 1986829 L 6433299 1992111 L 6436579 2000615 L 6440519 2005298 L 6445119 2006160 L 6447936 2005561 M 6448616 1974133 L 6436579 2000615"/><path class="fil0 str2" d=" M 6424494 1964539 L 6452665 1958551"/><path class="fil0 str2" d=" M 6423991 2010651 L 6416132 1973677 M 6426807 2010052 L 6414131 2012747 L 6409531 2011884 L 6407749 2010423 L 6405591 2007201 L 6404843 2003680 L 6405503 1999859 L 6406537 1997799 L 6410388 1995140 M 6420248 1993045 L 6410388 1995140 L 6405789 1994278 L 6404006 1992817 L 6401849 1989595 L 6400726 1984313 L 6401386 1980492 L 6402420 1978432 L 6406271 1975773 L 6418948 1973078"/><path class="fil0 str2" d=" M 6380612 2014351 L 6382769 2017573 L 6387369 2018435 L 6390186 2017837 L 6394037 2015178 L 6395731 2009297 L 6395269 2000194 L 6393397 1991391 L 6390492 1984648 L 6386926 1981725 L 6382327 1980863 L 6380918 1981162 L 6377067 1983821 L 6374998 1987941 L 6374713 1993522 L 6375087 1995283 L 6377618 2000266 L 6381184 2003188 L 6385783 2004051 L 6387192 2003751 L 6391043 2001092 L 6393112 1996972 L 6393397 1991391"/>
  <path class="fil0 str2" d=" M 7086490 1819387 L 7091090 1818524 L 7095029 1813841 L 7098309 1805337 L 7099432 1800055 L 7099895 1790952 L 7098200 1785072 L 7094349 1782413 L 7091532 1781814 L 7086932 1782677 L 7082992 1787360 L 7079713 1795864 L 7078590 1801146 L 7078127 1810248 L 7079821 1816129 L 7083673 1818788 L 7086490 1819387 M 7099895 1790952 L 7078127 1810248"/><path class="fil0 str2" d=" M 7081760 1772376 L 7109931 1778364"/><path class="fil0 str2" d=" M 7062545 1814297 L 7070404 1777323 M 7065362 1814896 L 7059728 1813698 M 7073221 1777922 L 7067587 1776724"/><path class="fil0 str2" d=" M 7047051 1811004 L 7054910 1774030 M 7049868 1811602 L 7040008 1809507 L 7036157 1806848 L 7034088 1802728 L 7033428 1798907 L 7033142 1793326 L 7035014 1784522 L 7037545 1779540 L 7039702 1776318 L 7043267 1773395 L 7047868 1772533 L 7057727 1774629"/>
  <path class="fil0 str2" d=" M 6759752 2481933 L 6756538 2485335 L 6756103 2491439 L 6758448 2500247 L 6760645 2505180 L 6765621 2512816 L 6770448 2516578 L 6775126 2516465 L 6777758 2515294 L 6780972 2511893 L 6781407 2505788 L 6779061 2496980 L 6776865 2492047 L 6771889 2484411 L 6767062 2480649 L 6762383 2480762 L 6759752 2481933 M 6765621 2512816 L 6771889 2484411"/><path class="fil0 str2" d=" M 6791210 2517186 L 6764900 2528900"/><path class="fil0 str2" d=" M 6782116 2471976 L 6797490 2506508 M 6779484 2473148 L 6784747 2470805 M 6794859 2507680 L 6800122 2505337"/><path class="fil0 str2" d=" M 6808426 2460262 L 6795270 2466119 L 6800545 2481505 L 6801128 2479275 L 6804342 2475873 L 6808289 2474116 L 6812967 2474003 L 6817062 2476121 L 6820574 2480468 L 6822039 2483757 L 6822919 2489276 L 6821753 2493736 L 6818538 2497137 L 6814592 2498894 L 6809913 2499007 L 6807866 2497948 L 6805086 2495245"/>
  <path class="fil0 str2" d=" M 3477907 1306201 L 3478508 1301560 L 3475271 1296366 L 3468197 1290619 L 3463521 1287919 L 3455007 1284665 L 3448890 1284460 L 3445171 1287301 L 3443731 1289795 L 3443130 1294436 L 3446366 1299631 L 3453441 1305378 L 3458117 1308078 L 3466631 1311331 L 3472748 1311536 L 3476467 1308695 L 3477907 1306201 M 3455007 1284665 L 3466631 1311331"/><path class="fil0 str2" d=" M 3431736 1296172 L 3446136 1271230"/><path class="fil0 str2" d=" M 3463507 1331143 L 3436531 1302266 M 3463507 1331143 L 3425011 1322219 M 3445283 1312307 L 3438083 1324778"/><path class="fil0 str2" d=" M 3451267 1352343 L 3424291 1323466 M 3451267 1352343 L 3412771 1343419 M 3433043 1333507 L 3425843 1345978"/>
  <path class="fil0 str2" d=" M 6531108 3112665 L 6529555 3117080 L 6531641 3122833 L 6537365 3129925 L 6541378 3133539 L 6549030 3138491 L 6554970 3139964 L 6559199 3137958 L 6561126 3135817 L 6562679 3131403 L 6560593 3125649 L 6554868 3118557 L 6550855 3114943 L 6543203 3109992 L 6537263 3108518 L 6533035 3110524 L 6531108 3112665 M 6549030 3138491 L 6543203 3109992"/><path class="fil0 str2" d=" M 6574185 3132074 L 6554913 3153477"/><path class="fil0 str2" d=" M 6566487 3092202 L 6569536 3096885 L 6570285 3101435 L 6568732 3105849 L 6567768 3106920 L 6563540 3108926 L 6558937 3108657 L 6553961 3106114 L 6552623 3104909 L 6549574 3100226 L 6548826 3095677 L 6550379 3091262 L 6551342 3090192 L 6555571 3088186 L 6560173 3088455 L 6566487 3092202 L 6573175 3098224 L 6578900 3105317 L 6580986 3111070 L 6579433 3115485 L 6577506 3117625 L 6573278 3119631 L 6569639 3118293"/><path class="fil0 str2" d=" M 6568686 3070930 L 6589069 3104784 M 6568686 3070930 L 6604486 3087662 M 6582595 3093142 L 6592231 3082441"/>
  <path class="fil0 str2" d=" M 4739079 895178 L 4737741 890693 L 4732672 887265 L 4723871 884892 L 4718501 884327 L 4709400 884819 L 4703728 887118 L 4701487 891227 L 4701185 894091 L 4702524 898575 L 4707593 902004 L 4716394 904377 L 4721764 904941 L 4730865 904450 L 4736537 902150 L 4738778 898042 L 4739079 895178 M 4709400 884819 L 4730865 904450"/><path class="fil0 str2" d=" M 4692821 904795 L 4695831 876153"/><path class="fil0 str2" d=" M 4736069 923820 L 4699680 908412 M 4736069 923820 L 4697272 931326 M 4711760 914025 L 4710255 928347"/><path class="fil0 str2" d=" M 4733661 946734 L 4732322 942249 L 4728892 940441 L 4725312 940065 L 4721581 941120 L 4719490 943796 L 4717098 949337 L 4714856 953445 L 4710975 955933 L 4707244 956989 L 4701874 956424 L 4698444 954616 L 4696804 952996 L 4695466 948511 L 4696068 942783 L 4698309 938675 L 4700250 937431 L 4703981 936375 L 4709351 936939 L 4712781 938748 L 4716060 941988 L 4717399 946473 L 4718587 952389 L 4720076 955442 L 4723506 957250 L 4727086 957626 L 4730817 956570 L 4733059 952462 L 4733661 946734"/>
  <path class="fil0 str2" d=" M 5629296 2060280 L 5631538 2064388 L 5637209 2066688 L 5646310 2067179 L 5651680 2066615 L 5660480 2064242 L 5665550 2060813 L 5666889 2056329 L 5666588 2053464 L 5664346 2049356 L 5658674 2047057 L 5649573 2046565 L 5644202 2047130 L 5635402 2049503 L 5630333 2052931 L 5628994 2057416 L 5629296 2060280 M 5660480 2064242 L 5635402 2049503"/><path class="fil0 str2" d=" M 5672544 2041255 L 5675554 2069897"/><path class="fil0 str2" d=" M 5625382 2023045 L 5626887 2037366 L 5643149 2037105 L 5641209 2035861 L 5638967 2031753 L 5638515 2027456 L 5639854 2022972 L 5643133 2019731 L 5648353 2017735 L 5651933 2017359 L 5657454 2018226 L 5661336 2020714 L 5663577 2024822 L 5664028 2029119 L 5662690 2033603 L 5661051 2035223 L 5657621 2037032"/><path class="fil0 str2" d=" M 5627742 1993838 L 5624312 1995647 L 5622974 2000131 L 5623275 2002995 L 5625516 2007104 L 5631188 2009403 L 5640289 2009895 L 5649240 2008954 L 5656250 2006769 L 5659529 2003529 L 5660867 1999044 L 5660717 1997612 L 5658475 1993504 L 5654594 1991016 L 5649073 1990148 L 5647283 1990337 L 5642063 1992333 L 5638784 1995574 L 5637445 2000058 L 5637596 2001490 L 5639838 2005598 L 5643719 2008086 L 5649240 2008954"/>
  <path class="fil0 str2" d=" M 4355323 3061123 L 4351095 3059117 L 4345155 3060590 L 4337503 3065542 L 4333490 3069155 L 4327765 3076248 L 4325679 3082001 L 4327232 3086416 L 4329159 3088557 L 4333388 3090563 L 4339328 3089089 L 4346979 3084137 L 4350992 3080524 L 4356717 3073432 L 4358803 3067678 L 4357250 3063263 L 4355323 3061123 M 4327765 3076248 L 4356717 3073432"/><path class="fil0 str2" d=" M 4331517 3101935 L 4312246 3080533"/><path class="fil0 str2" d=" M 4382302 3091087 L 4344576 3105679 M 4368813 3076105 L 4382302 3091087"/><path class="fil0 str2" d=" M 4395633 3113962 L 4397345 3110483 L 4395792 3106069 L 4393865 3103928 L 4389637 3101922 L 4383696 3103395 L 4376045 3108347 L 4369356 3114370 L 4364969 3120257 L 4364221 3124807 L 4365774 3129221 L 4366737 3130292 L 4370966 3132297 L 4375568 3132029 L 4380545 3129486 L 4381882 3128281 L 4384932 3123598 L 4385680 3119049 L 4384127 3114634 L 4383164 3113564 L 4378935 3111558 L 4374333 3111826 L 4369356 3114370"/>
  <path class="fil0 str2" d=" M 1507927 315720 L 1511778 313062 L 1513473 307181 L 1513010 298078 L 1511887 292796 L 1508608 284292 L 1504668 279609 L 1500068 278746 L 1497251 279345 L 1493399 282004 L 1491705 287885 L 1492168 296988 L 1493291 302270 L 1496570 310773 L 1500510 315457 L 1505110 316319 L 1507927 315720 M 1508608 284292 L 1496570 310773"/><path class="fil0 str2" d=" M 1484486 274698 L 1512656 268710"/><path class="fil0 str2" d=" M 1467277 311479 L 1467563 305898 L 1469631 301778 L 1473483 299119 L 1474891 298820 L 1479491 299682 L 1483057 302605 L 1485588 307587 L 1485962 309348 L 1485676 314929 L 1483608 319049 L 1479756 321708 L 1478348 322008 L 1473748 321145 L 1470182 318223 L 1467277 311479 L 1465406 302676 L 1464943 293573 L 1466637 287693 L 1470489 285034 L 1473306 284435 L 1477906 285297 L 1480063 288519"/><path class="fil0 str2" d=" M 1458628 326199 L 1443135 329492 L 1448592 313611 L 1444366 314509 L 1441175 313347 L 1439392 311886 L 1436861 306903 L 1436112 303382 L 1436398 297800 L 1438467 293680 L 1442318 291022 L 1446544 290123 L 1451144 290986 L 1452926 292447 L 1455083 295669"/>
  <path class="fil0 str2" d=" M 3310225 525587 L 3314077 522929 L 3315771 517048 L 3315308 507945 L 3314186 502663 L 3310906 494159 L 3306966 489476 L 3302366 488613 L 3299549 489212 L 3295698 491871 L 3294003 497752 L 3294466 506855 L 3295589 512137 L 3298869 520641 L 3302808 525324 L 3307408 526186 L 3310225 525587 M 3310906 494159 L 3298869 520641"/><path class="fil0 str2" d=" M 3286784 484565 L 3314955 478577"/><path class="fil0 str2" d=" M 3287689 530378 L 3272195 533671 L 3277652 517789 L 3273427 518688 L 3270235 517526 L 3268453 516064 L 3265921 511082 L 3265173 507560 L 3265458 501979 L 3267527 497859 L 3271378 495200 L 3275604 494302 L 3280204 495164 L 3281986 496626 L 3284144 499848"/><path class="fil0 str2" d=" M 3262335 535767 L 3254476 498793 M 3262335 535767 L 3244024 539659 M 3258593 518160 L 3247324 520555 M 3254476 498793 L 3236165 502685"/>
  <path class="fil0 str2" d=" M 5683161 1192610 L 5681823 1188126 L 5676754 1184697 L 5667953 1182324 L 5662583 1181760 L 5653482 1182251 L 5647810 1184551 L 5645568 1188659 L 5645267 1191523 L 5646606 1196008 L 5651676 1199437 L 5660476 1201809 L 5665846 1202374 L 5674947 1201883 L 5680618 1199583 L 5682860 1195475 L 5683161 1192610 M 5653482 1182251 L 5674947 1201883"/><path class="fil0 str2" d=" M 5636903 1202228 L 5639913 1173585"/><path class="fil0 str2" d=" M 5669846 1233201 L 5673576 1232145 L 5677458 1229657 L 5679549 1226981 L 5680151 1221253 L 5678662 1218200 L 5675383 1214960 L 5671953 1213151 L 5666733 1211155 L 5657782 1210214 L 5652261 1211082 L 5648530 1212137 L 5644649 1214625 L 5642558 1217301 L 5641956 1223030 L 5643445 1226082 L 5646724 1229323 L 5650154 1231131 L 5655524 1231696 M 5656277 1224535 L 5655524 1231696"/><path class="fil0 str2" d=" M 5666835 1261843 L 5670566 1260787 L 5674447 1258299 L 5676538 1255623 L 5677141 1249895 L 5675651 1246842 L 5672372 1243602 L 5668942 1241794 L 5663723 1239797 L 5654772 1238856 L 5649251 1239724 L 5645520 1240780 L 5641639 1243268 L 5639548 1245944 L 5638945 1251672 L 5640435 1254724 L 5643714 1257965 L 5647144 1259773"/>
  <path class="fil0 str2" d=" M 1242472 1923154 L 1241133 1918670 L 1236064 1915241 L 1227264 1912868 L 1221893 1912304 L 1212792 1912795 L 1207121 1915095 L 1204879 1919203 L 1204578 1922068 L 1205917 1926552 L 1210986 1929981 L 1219786 1932353 L 1225157 1932918 L 1234258 1932427 L 1239929 1930127 L 1242171 1926019 L 1242472 1923154 M 1212792 1912795 L 1234258 1932427"/><path class="fil0 str2" d=" M 1196213 1932772 L 1199224 1904130"/><path class="fil0 str2" d=" M 1231263 1943695 L 1233054 1943883 L 1236483 1945692 L 1238123 1947312 L 1239612 1950365 L 1239010 1956093 L 1236919 1958769 L 1234978 1960013 L 1231247 1961069 L 1227667 1960693 L 1224237 1958884 L 1219168 1955455 L 1202772 1939253 L 1200664 1959302"/><path class="fil0 str2" d=" M 1237053 1974710 L 1199460 1970759 M 1237354 1971846 L 1236301 1981871 L 1234059 1985979 L 1230178 1988467 L 1226447 1989523 L 1220926 1990391 L 1211975 1989450 L 1206755 1987453 L 1203326 1985645 L 1200046 1982404 L 1198708 1977920 L 1199761 1967895"/>
  <path class="fil0 str2" d=" M 2007807 375007 L 2004760 371454 L 1998735 370384 L 1989730 371795 L 1984594 373464 L 1976480 377615 L 1972234 382023 L 1971857 386687 L 1972747 389426 L 1975794 392979 L 1981820 394049 L 1990824 392637 L 1995960 390969 L 2004074 386818 L 2008320 382410 L 2008697 377746 L 2007807 375007 M 1976480 377615 L 2004074 386818"/><path class="fil0 str2" d=" M 1969459 402607 L 1960560 375217"/><path class="fil0 str2" d=" M 2015372 398288 L 1979422 409969 M 2014482 395549 L 2016262 401027 M 1978532 407230 L 1980312 412708"/><path class="fil0 str2" d=" M 2021602 417462 L 1982092 418186 M 2021602 417462 L 1989212 440099 M 1995410 418401 L 1999860 432097"/>
  <path class="fil0 str2" d=" M 4821293 1574336 L 4825144 1571678 L 4826839 1565797 L 4826376 1556694 L 4825253 1551412 L 4821974 1542908 L 4818034 1538225 L 4813434 1537362 L 4810617 1537961 L 4806766 1540620 L 4805071 1546501 L 4805534 1555604 L 4806657 1560886 L 4809936 1569389 L 4813876 1574073 L 4818476 1574935 L 4821293 1574336 M 4821974 1542908 L 4809936 1569389"/><path class="fil0 str2" d=" M 4797852 1533314 L 4826022 1527326"/><path class="fil0 str2" d=" M 4798294 1570024 L 4798668 1571785 L 4798008 1575605 L 4796974 1577665 L 4794531 1580025 L 4788897 1581222 L 4785705 1580061 L 4783923 1578599 L 4781766 1575377 L 4781017 1571856 L 4781677 1568035 L 4783372 1562154 L 4793714 1541554 L 4773995 1545746"/><path class="fil0 str2" d=" M 4773403 1584516 L 4765544 1547542 M 4773403 1584516 L 4755092 1588408 M 4769660 1566909 L 4758392 1569304 M 4765544 1547542 L 4747233 1551434"/>
  <path class="fil0 str2" d=" M 1817307 3043655 L 1812628 3043542 L 1807801 3047304 L 1802825 3054940 L 1800628 3059873 L 1798283 3068681 L 1798718 3074785 L 1801932 3078186 L 1804563 3079358 L 1809242 3079471 L 1814069 3075709 L 1819046 3068073 L 1821242 3063139 L 1823587 3054332 L 1823152 3048227 L 1819938 3044826 L 1817307 3043655 M 1798283 3068681 L 1823587 3054332"/><path class="fil0 str2" d=" M 1812159 3090621 L 1785849 3078907"/><path class="fil0 str2" d=" M 1837040 3052440 L 1821665 3086972 M 1855457 3060640 L 1840082 3095172 M 1829718 3068884 L 1848135 3077084"/><path class="fil0 str2" d=" M 1879136 3071182 L 1865981 3065325 L 1858076 3079539 L 1860124 3078480 L 1864802 3078593 L 1868749 3080350 L 1871963 3083752 L 1873130 3088212 L 1872249 3093731 L 1870785 3097019 L 1867273 3101367 L 1863178 3103484 L 1858499 3103372 L 1854553 3101614 L 1851338 3098213 L 1850755 3095983 L 1850904 3092109"/>
  <path class="fil0 str2" d=" M 3675528 2117100 L 3674189 2112616 L 3669120 2109187 L 3660320 2106814 L 3654949 2106250 L 3645848 2106741 L 3640177 2109041 L 3637935 2113149 L 3637634 2116013 L 3638972 2120498 L 3644042 2123926 L 3652842 2126299 L 3658212 2126864 L 3667313 2126372 L 3672985 2124073 L 3675227 2119964 L 3675528 2117100 M 3645848 2106741 L 3667313 2126372"/><path class="fil0 str2" d=" M 3629269 2126717 L 3632279 2098075"/><path class="fil0 str2" d=" M 3673270 2138582 L 3635677 2134631 M 3671163 2158631 L 3633569 2154680 M 3655368 2136700 L 3653261 2156750"/><path class="fil0 str2" d=" M 3659051 2187765 L 3662782 2186709 L 3666663 2184221 L 3668754 2181545 L 3669356 2175817 L 3667867 2172764 L 3664588 2169524 L 3661158 2167715 L 3655938 2165719 L 3646988 2164778 L 3641466 2165646 L 3637736 2166702 L 3633854 2169189 L 3631763 2171865 L 3631161 2177594 L 3632650 2180646 L 3635930 2183887 L 3639359 2185695"/>
  <path class="fil0 str2" d=" M 3140456 2233246 L 3139118 2228762 L 3134048 2225333 L 3125248 2222960 L 3119878 2222396 L 3110776 2222887 L 3105105 2225187 L 3102863 2229295 L 3102562 2232159 L 3103901 2236644 L 3108970 2240073 L 3117770 2242445 L 3123141 2243010 L 3132242 2242518 L 3137913 2240219 L 3140155 2236110 L 3140456 2233246 M 3110776 2222887 L 3132242 2242518"/><path class="fil0 str2" d=" M 3094197 2242864 L 3097208 2214221"/><path class="fil0 str2" d=" M 3130737 2256840 L 3132226 2259892 L 3137145 2264753 L 3099552 2260802"/><path class="fil0 str2" d=" M 3135037 2284802 L 3097445 2280851 M 3135339 2281938 L 3134285 2291963 L 3132043 2296071 L 3128162 2298559 L 3124431 2299615 L 3118910 2300482 L 3109959 2299542 L 3104739 2297545 L 3101310 2295737 L 3098031 2292496 L 3096692 2288012 L 3097745 2277987"/>
  <path class="fil0 str2" d=" M 5759337 2752343 L 5755108 2750337 L 5749168 2751810 L 5741516 2756762 L 5737503 2760375 L 5731779 2767467 L 5729692 2773221 L 5731246 2777636 L 5733173 2779776 L 5737401 2781782 L 5743341 2780309 L 5750993 2775357 L 5755006 2771744 L 5760731 2764651 L 5762817 2758898 L 5761264 2754483 L 5759337 2752343 M 5731779 2767467 L 5760731 2764651"/><path class="fil0 str2" d=" M 5735531 2793155 L 5716260 2771752"/><path class="fil0 str2" d=" M 5777644 2772675 L 5773416 2770669 L 5769777 2772008 L 5767102 2774417 L 5765390 2777896 L 5765979 2781240 L 5768496 2786725 L 5770049 2791140 L 5769301 2795689 L 5767589 2799168 L 5763576 2802781 L 5759937 2804120 L 5757636 2804255 L 5753407 2802249 L 5749553 2797968 L 5748000 2793553 L 5748374 2791279 L 5750086 2787800 L 5754099 2784187 L 5757738 2782848 L 5762340 2782579 L 5766569 2784585 L 5771760 2787661 L 5775025 2788597 L 5778664 2787258 L 5781339 2784849 L 5783051 2781370 L 5781499 2776955 L 5777644 2772675"/><path class="fil0 str2" d=" M 5785409 2794749 L 5786746 2793545 L 5790385 2792206 L 5792687 2792072 L 5795952 2793007 L 5799805 2797288 L 5800395 2800633 L 5800021 2802907 L 5798309 2806386 L 5795634 2808795 L 5791995 2810134 L 5786055 2811607 L 5763043 2812950 L 5776533 2827932"/>
  <path class="fil0 str2" d=" M 2564991 342014 L 2563652 337529 L 2558583 334100 L 2549783 331728 L 2544412 331163 L 2535311 331654 L 2529640 333954 L 2527398 338062 L 2527097 340927 L 2528435 345411 L 2533505 348840 L 2542305 351213 L 2547675 351777 L 2556777 351286 L 2562448 348986 L 2564690 344878 L 2564991 342014 M 2535311 331654 L 2556777 351286"/><path class="fil0 str2" d=" M 2518732 351631 L 2521743 322989"/><path class="fil0 str2" d=" M 2562432 366359 L 2524839 362408 M 2562733 363495 L 2561378 376384 L 2559137 380492 L 2557196 381736 L 2553465 382792 L 2549885 382416 L 2546455 380608 L 2544816 378987 L 2543477 374503 M 2544531 364478 L 2543477 374503 L 2541235 378611 L 2539295 379855 L 2535564 380911 L 2530193 380346 L 2526764 378538 L 2525124 376918 L 2523786 372433 L 2525140 359544"/><path class="fil0 str2" d=" M 2548665 411246 L 2552395 410191 L 2556277 407703 L 2558368 405027 L 2558970 399298 L 2557481 396246 L 2554202 393005 L 2550772 391197 L 2545552 389200 L 2536601 388259 L 2531080 389127 L 2527350 390183 L 2523468 392671 L 2521377 395347 L 2520775 401075 L 2522264 404128 L 2525543 407368 L 2528973 409177"/>
  <path class="fil0 str2" d=" M 256959 429408 L 253744 432809 L 253309 438914 L 255655 447721 L 257851 452654 L 262827 460291 L 267655 464052 L 272333 463940 L 274964 462768 L 278179 459367 L 278613 453262 L 276268 444455 L 274072 439521 L 269096 431885 L 264268 428123 L 259590 428236 L 256959 429408 M 262827 460291 L 269096 431885"/><path class="fil0 str2" d=" M 288417 464660 L 262107 476374"/><path class="fil0 str2" d=" M 297602 425104 L 298483 430623 L 297316 435083 L 294102 438485 L 292786 439070 L 288108 439183 L 284012 437066 L 280500 432718 L 279768 431074 L 278887 425555 L 280054 421095 L 283269 417694 L 284584 417108 L 289263 416995 L 293358 419112 L 297602 425104 L 301263 433326 L 303608 442134 L 303173 448238 L 299959 451640 L 297328 452811 L 292649 452924 L 289869 450221"/><path class="fil0 str2" d=" M 319668 407398 L 316888 404695 L 312210 404808 L 309579 405979 L 306364 409381 L 305930 415486 L 308275 424293 L 311935 432515 L 316179 438507 L 320275 440624 L 324953 440512 L 326269 439926 L 329483 436524 L 330650 432064 L 329769 426545 L 329037 424901 L 325525 420554 L 321430 418436 L 316751 418549 L 315436 419135 L 312221 422536 L 311055 426996 L 311935 432515"/>
  <path class="fil0 str2" d=" M 5349685 501023 L 5353536 498364 L 5355231 492483 L 5354768 483381 L 5353645 478099 L 5350366 469595 L 5346426 464911 L 5341826 464049 L 5339009 464648 L 5335158 467307 L 5333463 473187 L 5333926 482290 L 5335048 487572 L 5338328 496076 L 5342268 500759 L 5346868 501622 L 5349685 501023 M 5350366 469595 L 5338328 496076"/><path class="fil0 str2" d=" M 5326243 460000 L 5354414 454012"/><path class="fil0 str2" d=" M 5313063 508807 L 5327149 505813 L 5325189 489668 L 5324155 491728 L 5320303 494387 L 5316077 495285 L 5311478 494422 L 5307912 491500 L 5305381 486517 L 5304633 482996 L 5304918 477415 L 5306987 473294 L 5310838 470636 L 5315064 469737 L 5319664 470600 L 5321447 472061 L 5323604 475283"/><path class="fil0 str2" d=" M 5301795 511202 L 5293936 474228 M 5301795 511202 L 5283484 515094 M 5298052 493596 L 5286784 495991 M 5293936 474228 L 5275625 478120"/>
  <path class="fil0 str2" d=" M 5026301 2924302 L 5026903 2919661 L 5023666 2914467 L 5016592 2908720 L 5011915 2906020 L 5003401 2902767 L 4997285 2902561 L 4993566 2905403 L 4992126 2907897 L 4991524 2912538 L 4994761 2917732 L 5001835 2923479 L 5006512 2926179 L 5015026 2929432 L 5021143 2929638 L 5024862 2926797 L 5026301 2924302 M 5003401 2902767 L 5015026 2929432"/><path class="fil0 str2" d=" M 4980130 2914273 L 4994530 2889332"/><path class="fil0 str2" d=" M 5002185 2955274 L 5006023 2955827 L 5009741 2952985 L 5011181 2950491 L 5011783 2945850 L 5008546 2940656 L 5001472 2934909 L 4993677 2930409 L 4986722 2928056 L 4982164 2928750 L 4978446 2931591 L 4977726 2932838 L 4977124 2937479 L 4978802 2941773 L 4982759 2945721 L 4984318 2946621 L 4989714 2948074 L 4994272 2947379 L 4997991 2944538 L 4998711 2943291 L 4999312 2938650 L 4997634 2934356 L 4993677 2930409"/><path class="fil0 str2" d=" M 4994027 2962203 L 4995586 2963103 L 4997984 2966150 L 4998823 2968297 L 4998941 2971691 L 4996062 2976680 L 4993063 2978274 L 4990784 2978621 L 4986946 2978068 L 4983828 2976268 L 4981431 2973221 L 4978194 2968027 L 4969806 2946556 L 4959726 2964015"/>
  <path class="fil0 str2" d=" M 4025202 1089253 L 4029053 1086594 L 4030747 1080713 L 4030285 1071611 L 4029162 1066329 L 4025882 1057825 L 4021943 1053141 L 4017343 1052279 L 4014526 1052878 L 4010674 1055537 L 4008980 1061417 L 4009443 1070520 L 4010565 1075802 L 4013845 1084306 L 4017785 1088989 L 4022385 1089852 L 4025202 1089253 M 4025882 1057825 L 4013845 1084306"/><path class="fil0 str2" d=" M 4001760 1048230 L 4029931 1042242"/><path class="fil0 str2" d=" M 4001257 1094343 L 3993398 1057369 M 4004074 1093744 L 3994214 1095839 L 3989614 1094977 L 3986049 1092054 L 3983892 1088833 L 3981360 1083850 L 3979489 1075047 L 3979775 1069465 L 3980435 1065644 L 3982504 1061524 L 3986355 1058866 L 3996215 1056770"/><path class="fil0 str2" d=" M 3973086 1100330 L 3965227 1063356 M 3975903 1099732 L 3966044 1101827 L 3961444 1100965 L 3957878 1098042 L 3955721 1094820 L 3953190 1089838 L 3951318 1081034 L 3951604 1075453 L 3952265 1071632 L 3954333 1067512 L 3958184 1064853 L 3968044 1062758"/>
  <path class="fil0 str2" d=" M 6248909 2578019 L 6245695 2581421 L 6245260 2587525 L 6247605 2596333 L 6249802 2601266 L 6254777 2608902 L 6259605 2612664 L 6264284 2612551 L 6266915 2611380 L 6270129 2607978 L 6270563 2601874 L 6268218 2593066 L 6266022 2588133 L 6261046 2580497 L 6256218 2576735 L 6251540 2576848 L 6248909 2578019 M 6254777 2608902 L 6261046 2580497"/><path class="fil0 str2" d=" M 6280367 2613272 L 6254057 2624986"/><path class="fil0 str2" d=" M 6286624 2567138 L 6283844 2564435 L 6279166 2564548 L 6276535 2565719 L 6273320 2569121 L 6272886 2575225 L 6275231 2584033 L 6278891 2592255 L 6283135 2598247 L 6287230 2600364 L 6291909 2600252 L 6293225 2599666 L 6296439 2596264 L 6297606 2591804 L 6296725 2586285 L 6295993 2584641 L 6292481 2580293 L 6288386 2578176 L 6283707 2578289 L 6282391 2578875 L 6279177 2582276 L 6278010 2586736 L 6278891 2592255"/><path class="fil0 str2" d=" M 6311619 2556010 L 6308839 2553307 L 6304160 2553420 L 6301529 2554591 L 6298315 2557993 L 6297880 2564097 L 6300225 2572905 L 6303886 2581127 L 6308130 2587118 L 6312225 2589236 L 6316904 2589123 L 6318219 2588537 L 6321434 2585136 L 6322601 2580676 L 6321719 2575157 L 6320988 2573513 L 6317476 2569165 L 6313380 2567048 L 6308702 2567160 L 6307386 2567746 L 6304172 2571148 L 6303005 2575608 L 6303886 2581127"/>
  <path class="fil0 str2" d=" M 4741199 368400 L 4736879 370200 L 4733999 375600 L 4732560 384599 L 4732560 390000 L 4733999 399000 L 4736879 404399 L 4741199 406199 L 4744079 406199 L 4748399 404399 L 4751279 399000 L 4752720 390000 L 4752720 384599 L 4751279 375600 L 4748399 370200 L 4744079 368400 L 4741199 368400 M 4733999 399000 L 4751279 375600"/><path class="fil0 str2" d=" M 4755599 413400 L 4726799 413400"/><path class="fil0 str2" d=" M 4765679 368400 L 4765679 406199 M 4762799 368400 L 4775759 368400 L 4780079 370200 L 4781520 372000 L 4782959 375600 L 4782959 379199 L 4781520 382799 L 4780079 384599 L 4775759 386399 M 4765679 386399 L 4775759 386399 L 4780079 388199 L 4781520 390000 L 4782959 393600 L 4782959 399000 L 4781520 402599 L 4780079 404399 L 4775759 406199 L 4762799 406199"/><path class="fil0 str2" d=" M 4791600 368400 L 4791600 406199 M 4791600 368400 L 4810320 368400 M 4791600 386399 L 4803120 386399 M 4791600 406199 L 4810320 406199"/>
  <path class="fil0 str2" d=" M 834417 926481 L 833079 921997 L 828009 918568 L 819209 916195 L 813839 915631 L 804737 916122 L 799066 918422 L 796824 922530 L 796523 925394 L 797862 929879 L 802931 933308 L 811731 935680 L 817102 936245 L 826203 935754 L 831874 933454 L 834116 929346 L 834417 926481 M 804737 916122 L 826203 935754"/><path class="fil0 str2" d=" M 788158 936099 L 791169 907457"/><path class="fil0 str2" d=" M 832159 947963 L 794566 944012 M 832159 947963 L 830203 966581 M 814258 946082 L 813054 957538"/><path class="fil0 str2" d=" M 829299 975173 L 791707 971222 M 829600 972309 L 828547 982334 L 826305 986442 L 822424 988930 L 818693 989986 L 813172 990853 L 804221 989913 L 799001 987916 L 795572 986108 L 792293 982867 L 790954 978383 L 792008 968358"/>
  <path class="fil0 str2" d=" M 907781 2504057 L 904567 2507458 L 904132 2513563 L 906477 2522371 L 908674 2527304 L 913650 2534940 L 918477 2538702 L 923156 2538589 L 925787 2537417 L 929001 2534016 L 929436 2527911 L 927091 2519104 L 924894 2514171 L 919918 2506535 L 915091 2502773 L 910412 2502885 L 907781 2504057 M 913650 2534940 L 919918 2506535"/><path class="fil0 str2" d=" M 939239 2539309 L 912929 2551023"/><path class="fil0 str2" d=" M 927514 2495271 L 942888 2529803 M 927514 2495271 L 944615 2487657 M 934835 2511715 L 945359 2507030 M 942888 2529803 L 959990 2522189"/><path class="fil0 str2" d=" M 954853 2492951 L 954121 2491306 L 953972 2487432 L 954556 2485202 L 956455 2482386 L 961717 2480043 L 965080 2480516 L 967127 2481575 L 969907 2484278 L 971371 2487567 L 971520 2491441 L 971086 2497546 L 965252 2519846 L 983669 2511647"/>
  <path class="fil0 str2" d=" M 1357261 1378581 L 1361861 1377718 L 1365801 1373035 L 1369081 1364531 L 1370203 1359249 L 1370666 1350147 L 1368972 1344266 L 1365120 1341607 L 1362303 1341008 L 1357703 1341871 L 1353764 1346554 L 1350484 1355058 L 1349361 1360340 L 1348898 1369443 L 1350593 1375323 L 1354444 1377982 L 1357261 1378581 M 1370666 1350147 L 1348898 1369443"/><path class="fil0 str2" d=" M 1352532 1331570 L 1380702 1337558"/><path class="fil0 str2" d=" M 1336133 1374090 L 1343992 1337116 M 1336133 1374090 L 1317822 1370198 M 1339876 1356483 L 1328607 1354088 M 1343992 1337116 L 1325681 1333224"/><path class="fil0 str2" d=" M 1309371 1368402 L 1293877 1365108 L 1305322 1352819 L 1301097 1351921 L 1298654 1349562 L 1297620 1347502 L 1297334 1341920 L 1298082 1338399 L 1300614 1333416 L 1304179 1330494 L 1308779 1329631 L 1313005 1330529 L 1316856 1333188 L 1317890 1335248 L 1318550 1339069"/>
  <path class="fil0 str2" d=" M 1781318 1579758 L 1779980 1575274 L 1774911 1571845 L 1766110 1569472 L 1760740 1568908 L 1751639 1569399 L 1745967 1571699 L 1743726 1575807 L 1743424 1578671 L 1744763 1583156 L 1749832 1586584 L 1758633 1588957 L 1764003 1589522 L 1773104 1589030 L 1778776 1586730 L 1781017 1582622 L 1781318 1579758 M 1751639 1569399 L 1773104 1589030"/><path class="fil0 str2" d=" M 1735060 1589375 L 1738070 1560733"/><path class="fil0 str2" d=" M 1779061 1601240 L 1741468 1597288 M 1779061 1601240 L 1777104 1619857 M 1761159 1599358 L 1759955 1610815"/><path class="fil0 str2" d=" M 1769040 1627697 L 1770529 1630750 L 1775448 1635610 L 1737855 1631659"/>
  <path class="fil0 str2" d=" M 3536189 2868814 L 3534851 2864329 L 3529781 2860900 L 3520981 2858527 L 3515611 2857963 L 3506510 2858454 L 3500838 2860754 L 3498596 2864862 L 3498295 2867727 L 3499634 2872211 L 3504703 2875640 L 3513504 2878013 L 3518874 2878577 L 3527975 2878086 L 3533647 2875786 L 3535888 2871678 L 3536189 2868814 M 3506510 2858454 L 3527975 2878086"/><path class="fil0 str2" d=" M 3489931 2878431 L 3492941 2849789"/><path class="fil0 str2" d=" M 3532577 2903184 L 3509020 2886229 L 3506762 2907711 M 3532577 2903184 L 3494984 2899233"/><path class="fil0 str2" d=" M 3523895 2934126 L 3527626 2933070 L 3529867 2928962 L 3530169 2926098 L 3528830 2921613 L 3523760 2918185 L 3514960 2915812 L 3506010 2914871 L 3498699 2915551 L 3494817 2918038 L 3492575 2922147 L 3492425 2923579 L 3493764 2928063 L 3497043 2931304 L 3502263 2933300 L 3504053 2933489 L 3509574 2932621 L 3513455 2930133 L 3515697 2926025 L 3515847 2924593 L 3514509 2920108 L 3511230 2916868 L 3506010 2914871"/>
  <path class="fil0 str2" d=" M 2929289 1293566 L 2933889 1292704 L 2937829 1288020 L 2941109 1279516 L 2942231 1274235 L 2942694 1265132 L 2941000 1259251 L 2937148 1256592 L 2934331 1255993 L 2929731 1256856 L 2925791 1261539 L 2922512 1270043 L 2921389 1275325 L 2920926 1284428 L 2922621 1290308 L 2926472 1292967 L 2929289 1293566 M 2942694 1265132 L 2920926 1284428"/><path class="fil0 str2" d=" M 2924560 1246556 L 2952731 1252543"/><path class="fil0 str2" d=" M 2908161 1289075 L 2916020 1252101 M 2908161 1289075 L 2889850 1285183 M 2911903 1271469 L 2900635 1269073"/><path class="fil0 str2" d=" M 2866368 1270991 L 2867028 1274811 L 2869096 1278932 L 2871539 1281291 L 2877173 1282489 L 2880365 1281327 L 2883930 1278404 L 2886087 1275182 L 2888619 1270200 L 2890490 1261396 L 2890204 1255815 L 2889544 1251994 L 2887475 1247874 L 2885032 1245515 L 2879398 1244317 L 2876207 1245479 L 2872641 1248402 L 2870484 1251623"/>
  <path class="fil0 str2" d=" M 4304479 2255763 L 4303140 2251279 L 4298071 2247850 L 4289271 2245477 L 4283901 2244913 L 4274799 2245404 L 4269128 2247704 L 4266886 2251812 L 4266585 2254676 L 4267924 2259161 L 4272993 2262589 L 4281793 2264962 L 4287164 2265527 L 4296265 2265035 L 4301936 2262735 L 4304178 2258627 L 4304479 2255763 M 4274799 2245404 L 4296265 2265035"/><path class="fil0 str2" d=" M 4258220 2265380 L 4261231 2236738"/><path class="fil0 str2" d=" M 4300264 2295862 L 4264177 2277590 M 4302372 2275813 L 4300264 2295862"/><path class="fil0 str2" d=" M 4290411 2303514 L 4292201 2303702 L 4295631 2305511 L 4297270 2307131 L 4298759 2310183 L 4298157 2315912 L 4296066 2318588 L 4294125 2319832 L 4290395 2320888 L 4286814 2320511 L 4283385 2318703 L 4278315 2315274 L 4261919 2299072 L 4259812 2319121"/>
  <path class="fil0 str2" d=" M 5922651 636035 L 5921312 631550 L 5916243 628122 L 5907443 625749 L 5902072 625184 L 5892971 625676 L 5887299 627976 L 5885058 632084 L 5884757 634948 L 5886095 639432 L 5891165 642861 L 5899965 645234 L 5905335 645798 L 5914437 645307 L 5920108 643007 L 5922350 638899 L 5922651 636035 M 5892971 625676 L 5914437 645307"/><path class="fil0 str2" d=" M 5876392 645652 L 5879403 617010"/><path class="fil0 str2" d=" M 5920393 657517 L 5882800 653565 M 5920393 657517 L 5918436 676134 M 5902492 655635 L 5901287 667092 M 5882800 653565 L 5880843 672183"/><path class="fil0 str2" d=" M 5906625 702403 L 5910357 701348 L 5914238 698860 L 5916329 696184 L 5916931 690455 L 5915442 687403 L 5912163 684162 L 5908733 682354 L 5903513 680357 L 5894562 679417 L 5889041 680284 L 5885311 681340 L 5881429 683828 L 5879338 686504 L 5878736 692232 L 5880225 695285 L 5883504 698525 L 5886934 700334"/>
  <path class="fil0 str2" d=" M 6454052 1311365 L 6454653 1306724 L 6451417 1301530 L 6444343 1295783 L 6439666 1293083 L 6431152 1289830 L 6425036 1289624 L 6421317 1292465 L 6419876 1294959 L 6419275 1299600 L 6422512 1304795 L 6429586 1310542 L 6434263 1313242 L 6442777 1316495 L 6448894 1316701 L 6452612 1313859 L 6454052 1311365 M 6431152 1289830 L 6442777 1316495"/><path class="fil0 str2" d=" M 6407881 1301336 L 6422281 1276394"/><path class="fil0 str2" d=" M 6423700 1338736 L 6419744 1334789 L 6418066 1330495 L 6418667 1325854 L 6419387 1324607 L 6423106 1321765 L 6427664 1321071 L 6433060 1322524 L 6434619 1323424 L 6438576 1327371 L 6440253 1331665 L 6439652 1336307 L 6438932 1337554 L 6435213 1340395 L 6430656 1341089 L 6423700 1338736 L 6415906 1334236 L 6408832 1328489 L 6405595 1323295 L 6406196 1318654 L 6407636 1316160 L 6411355 1313318 L 6415193 1313871"/><path class="fil0 str2" d=" M 6411698 1366725 L 6415535 1367278 L 6420093 1366584 L 6423092 1364989 L 6425972 1360001 L 6425853 1356607 L 6424176 1352313 L 6421778 1349266 L 6417821 1345319 L 6410027 1340819 L 6404631 1339366 L 6400793 1338813 L 6396235 1339507 L 6393236 1341101 L 6390357 1346089 L 6390476 1349484 L 6392153 1353778 L 6394551 1356825"/>
  <path class="fil0 str2" d=" M 4892123 2317303 L 4894365 2321412 L 4900036 2323711 L 4909138 2324203 L 4914508 2323638 L 4923308 2321265 L 4928377 2317837 L 4929716 2313352 L 4929415 2310488 L 4927174 2306380 L 4921502 2304080 L 4912401 2303589 L 4907030 2304153 L 4898230 2306526 L 4893161 2309955 L 4891822 2314439 L 4892123 2317303 M 4923308 2321265 L 4898230 2306526"/><path class="fil0 str2" d=" M 4935372 2298278 L 4938382 2326921"/><path class="fil0 str2" d=" M 4889866 2295822 L 4927458 2291871 M 4889866 2295822 L 4887909 2277204 M 4907767 2293940 L 4906563 2282483"/><path class="fil0 str2" d=" M 4885651 2255723 L 4887156 2270044 L 4903418 2269783 L 4901477 2268538 L 4899235 2264430 L 4898784 2260134 L 4900122 2255650 L 4903402 2252409 L 4908622 2250412 L 4912202 2250036 L 4917723 2250904 L 4921604 2253392 L 4923846 2257500 L 4924297 2261796 L 4922959 2266281 L 4921319 2267901 L 4917890 2269709"/>
  <path class="fil0 str2" d=" M 3992263 1715309 L 3992864 1710668 L 3989628 1705474 L 3982554 1699727 L 3977877 1697027 L 3969363 1693774 L 3963247 1693568 L 3959528 1696409 L 3958088 1698903 L 3957486 1703545 L 3960723 1708739 L 3967797 1714486 L 3972474 1717186 L 3980988 1720439 L 3987105 1720645 L 3990823 1717803 L 3992263 1715309 M 3969363 1693774 L 3980988 1720439"/><path class="fil0 str2" d=" M 3946092 1705280 L 3960492 1680339"/><path class="fil0 str2" d=" M 3961911 1742680 L 3957955 1738733 L 3956277 1734439 L 3956878 1729798 L 3957598 1728551 L 3961317 1725709 L 3965875 1725015 L 3971271 1726468 L 3972830 1727368 L 3976787 1731315 L 3978464 1735610 L 3977863 1740251 L 3977143 1741498 L 3973424 1744339 L 3968867 1745033 L 3961911 1742680 L 3954117 1738180 L 3947043 1732433 L 3943807 1727239 L 3944407 1722598 L 3945848 1720104 L 3949566 1717263 L 3953404 1717815"/><path class="fil0 str2" d=" M 3948231 1766375 L 3944275 1762428 L 3942597 1758134 L 3943198 1753492 L 3943918 1752245 L 3947637 1749404 L 3952195 1748710 L 3957591 1750163 L 3959150 1751063 L 3963107 1755010 L 3964785 1759304 L 3964183 1763945 L 3963463 1765192 L 3959744 1768034 L 3955187 1768728 L 3948231 1766375 L 3940437 1761875 L 3933363 1756128 L 3930126 1750933 L 3930728 1746292 L 3932167 1743798 L 3935886 1740957 L 3939724 1741510"/>
  <path class="fil0 str2" d=" M 1122802 3157407 L 1121464 3152922 L 1116394 3149494 L 1107594 3147121 L 1102224 3146557 L 1093122 3147048 L 1087451 3149348 L 1085209 3153456 L 1084908 3156320 L 1086247 3160805 L 1091316 3164233 L 1100116 3166606 L 1105487 3167171 L 1114588 3166679 L 1120259 3164379 L 1122501 3160271 L 1122802 3157407 M 1093122 3147048 L 1114588 3166679"/><path class="fil0 str2" d=" M 1076543 3167024 L 1079554 3138382"/><path class="fil0 str2" d=" M 1119190 3191778 L 1095633 3174822 L 1093375 3196304 M 1119190 3191778 L 1081597 3187827"/><path class="fil0 str2" d=" M 1117383 3208963 L 1079790 3205012 M 1117684 3206099 L 1116631 3216124 L 1114389 3220232 L 1110508 3222720 L 1106777 3223775 L 1101256 3224643 L 1092305 3223703 L 1087085 3221706 L 1083656 3219898 L 1080376 3216657 L 1079038 3212172 L 1080091 3202148"/>
  <path class="fil0 str2" d=" M 536623 2720210 L 540475 2717551 L 542169 2711670 L 541706 2702568 L 540584 2697286 L 537304 2688782 L 533364 2684098 L 528764 2683236 L 525947 2683835 L 522096 2686493 L 520401 2692374 L 520864 2701477 L 521987 2706759 L 525267 2715263 L 529206 2719946 L 533806 2720809 L 536623 2720210 M 537304 2688782 L 525267 2715263"/><path class="fil0 str2" d=" M 513182 2679187 L 541353 2673199"/><path class="fil0 str2" d=" M 497470 2723011 L 499627 2726233 L 504227 2727096 L 507044 2726497 L 510895 2723838 L 512590 2717958 L 512127 2708855 L 510256 2700051 L 507350 2693308 L 503785 2690386 L 499185 2689523 L 497777 2689822 L 493925 2692481 L 491857 2696601 L 491571 2702183 L 491945 2703944 L 494476 2708926 L 498042 2711849 L 502642 2712711 L 504050 2712412 L 507902 2709753 L 509970 2705633 L 510256 2700051"/><path class="fil0 str2" d=" M 487325 2730689 L 471831 2733982 L 477288 2718100 L 473062 2718999 L 469871 2717836 L 468088 2716375 L 465557 2711393 L 464809 2707871 L 465094 2702290 L 467163 2698170 L 471014 2695511 L 475240 2694613 L 479840 2695475 L 481623 2696936 L 483780 2700158"/>
  <path class="fil0 str2" d=" M 2052603 1103345 L 2051265 1098861 L 2046195 1095432 L 2037395 1093059 L 2032025 1092495 L 2022923 1092986 L 2017252 1095286 L 2015010 1099394 L 2014709 1102258 L 2016048 1106743 L 2021117 1110171 L 2029917 1112544 L 2035288 1113109 L 2044389 1112617 L 2050060 1110318 L 2052302 1106210 L 2052603 1103345 M 2022923 1092986 L 2044389 1112617"/><path class="fil0 str2" d=" M 2006345 1112963 L 2009355 1084320"/><path class="fil0 str2" d=" M 2039287 1143936 L 2043018 1142880 L 2046900 1140392 L 2048991 1137716 L 2049593 1131987 L 2048104 1128935 L 2044824 1125695 L 2041395 1123886 L 2036175 1121890 L 2027224 1120949 L 2021703 1121817 L 2017972 1122872 L 2014091 1125360 L 2012000 1128036 L 2011398 1133765 L 2012887 1136817 L 2016166 1140058 L 2019596 1141866 L 2024966 1142431 M 2025719 1135270 L 2024966 1142431"/><path class="fil0 str2" d=" M 2045679 1169222 L 2047184 1154901 L 2031224 1151776 L 2032863 1153396 L 2034202 1157881 L 2033750 1162177 L 2031509 1166285 L 2027627 1168773 L 2022106 1169641 L 2018526 1169264 L 2013306 1167268 L 2010027 1164027 L 2008688 1159543 L 2009140 1155246 L 2011382 1151138 L 2013322 1149894 L 2017053 1148838"/>
  <path class="fil0 str2" d=" M 802918 1495890 L 807517 1495027 L 811457 1490344 L 814737 1481840 L 815860 1476558 L 816322 1467456 L 814628 1461575 L 810777 1458916 L 807960 1458317 L 803360 1459180 L 799420 1463863 L 796140 1472367 L 795018 1477649 L 794555 1486752 L 796249 1492632 L 800101 1495291 L 802918 1495890 M 816322 1467456 L 794555 1486752"/><path class="fil0 str2" d=" M 798188 1448879 L 826359 1454867"/><path class="fil0 str2" d=" M 781790 1491399 L 789649 1454425 M 762070 1487208 L 787029 1466750 M 778115 1474056 L 769929 1450234"/><path class="fil0 str2" d=" M 750802 1484812 L 758661 1447838 M 753619 1485411 L 743759 1483315 L 739908 1480657 L 737839 1476537 L 737179 1472716 L 736893 1467134 L 738765 1458331 L 741296 1453348 L 743453 1450126 L 747018 1447204 L 751618 1446342 L 761478 1448437"/>
  <path class="fil0 str2" d=" M 908813 294029 L 911054 298137 L 916726 300437 L 925827 300928 L 931198 300364 L 939998 297991 L 945067 294562 L 946406 290078 L 946105 287214 L 943863 283106 L 938191 280806 L 929090 280314 L 923720 280879 L 914920 283252 L 909850 286680 L 908512 291165 L 908813 294029 M 939998 297991 L 914920 283252"/><path class="fil0 str2" d=" M 952061 275004 L 955071 303647"/><path class="fil0 str2" d=" M 917280 254045 L 922801 254913 L 926682 257401 L 928924 261509 L 929074 262941 L 927736 267425 L 924456 270666 L 919236 272663 L 917446 272851 L 911925 271983 L 908044 269495 L 905802 265387 L 905652 263955 L 906990 259470 L 910270 256230 L 917280 254045 L 926230 253104 L 935332 253596 L 941003 255895 L 943245 260004 L 943546 262868 L 942207 267352 L 938777 269161"/><path class="fil0 str2" d=" M 902039 229584 L 903544 243905 L 919806 243644 L 917866 242400 L 915624 238292 L 915172 233996 L 916511 229511 L 919790 226271 L 925010 224274 L 928590 223898 L 934111 224765 L 937993 227253 L 940234 231361 L 940686 235658 L 939347 240142 L 937708 241763 L 934278 243571"/>
  <path class="fil0 str2" d=" M 6979080 1016051 L 6977527 1020466 L 6979613 1026219 L 6985338 1033311 L 6989351 1036925 L 6997003 1041877 L 7002943 1043350 L 7007171 1041344 L 7009098 1039204 L 7010651 1034789 L 7008565 1029035 L 7002841 1021943 L 6998828 1018330 L 6991176 1013377 L 6985236 1011904 L 6981007 1013910 L 6979080 1016051 M 6997003 1041877 L 6991176 1013377"/><path class="fil0 str2" d=" M 7022157 1035460 L 7002886 1056863"/><path class="fil0 str2" d=" M 6995460 997858 L 7023551 1023152 M 6993533 999999 L 7000278 992508 L 7004506 990502 L 7009109 990771 L 7012748 992109 L 7017724 994652 L 7024412 1000675 L 7027462 1005358 L 7029174 1008837 L 7029922 1013386 L 7028369 1017801 L 7021624 1025292"/><path class="fil0 str2" d=" M 7013768 977526 L 7024367 965755 L 7029287 981811 L 7032177 978600 L 7035442 977665 L 7037744 977799 L 7042720 980342 L 7045395 982751 L 7048445 987434 L 7049193 991984 L 7047640 996398 L 7044749 999609 L 7040521 1001615 L 7038220 1001480 L 7034581 1000142"/>
  </g>
</svg>
