<?xml version="1.0" encoding="UTF-8"?>
<!DOCTYPE svg PUBLIC "-//W3C//DTD SVG 1.1//EN" "http://www.w3.org/Graphics/SVG/1.1/DTD/svg11.dtd">
<svg xmlns="http://www.w3.org/2000/svg"
     xmlns:xlink="http://www.w3.org/1999/xlink"
     version="1.1" baseProfile="full"
     width="304.8mm" height="177.8mm"
     viewBox="0 0 3048000 1778000">
  <defs>
    <style type="text/css">
      <![CDATA[
        .str0 {stroke:red; stroke-width:1}
        .str1 {stroke:green; stroke-width:1}
        .str2 {stroke:black; stroke-width:1}
        .fil0 {fill:none}
        .fil1 {fill:black}
        .fil2 {fill:green}
        .fnt0 {text-anchor:'middle'; dominant-baseline:'central'; font-weight:normal; font-size:3pt; font-family:'Arial'; text-decoration:underline;}
      ]]>
    </style>
  </defs>
  <g id="Layer_x0020_1">
    <metadata id="CorelCorpID_0Corel-Layer"/>
    <rect class="str1" x="0" y="0" width="3.048e+06" height="1.778e+06" />
    <circle class="fil0 str1" cx="0" cy="0" r="50000" />
    <circle class="fil0 str1" cx="0" cy="0" r="50000" />
    <circle class="fil0 str1" cx="0" cy="0" r="50000" />
    <circle class="fil0 str1" cx="0" cy="0" r="50000" />
  </g>
  <g id="Layer_x0020_2">
    <metadata id="CorelCorpID_1Corel-Layer"/>
    <path class="fil0 str0" d="M 5270000 4740000 C 5410000 4740000, 5550000 4740000, 5690000 4740000 C 5689999 4880000, 5689999 5020000, 5690000 5160000 C 5550000 5160000, 5410000 5160000, 5270000 5160000 C 5269999 5020000, 5269999 4880000, 5270000 4740000" />
    <path class="fil0 str0" d="M 3658698 2079997 C 3786594 2136941, 3914490 2193884, 4042387 2250827 C 3985444 2378723, 3928501 2506620, 3871557 2634516 C 3743661 2577573, 3615765 2520630, 3487868 2463687 C 3544811 2335790, 3601755 2207894, 3658698 2079997" />
    <path class="fil0 str0" d="M 5329806 4225065 C 5423484 4121025, 5517163 4016984, 5610841 3912944 C 5714881 4006622, 5818922 4100301, 5922962 4193979 C 5829284 4298019, 5735605 4402059, 5641927 4506100 C 5537887 4412421, 5433846 4318743, 5329806 4225065" />
    <path class="fil0 str0" d="M 4617693 1091740 C 4547693 970497, 4477693 849253, 4407693 728010 C 4528937 658010, 4650180 588010, 4771424 518010 C 4841424 639253, 4911424 760497, 4981424 881740 C 4860180 951740, 4738937 1021740, 4617693 1091740" />
    <path class="fil0 str0" d="M 4394817 4948703 C 4522713 4891760, 4650609 4834817, 4778506 4777873 C 4835449 4905770, 4892392 5033666, 4949335 5161563 C 4821439 5218506, 4693542 5275449, 4565646 5332392 C 4508703 5204496, 4451760 5076599, 4394817 4948703" />
    <path class="fil0 str0" d="M 3195390 5977870 C 3082128 5895580, 2968865 5813290, 2855603 5731000 C 2937893 5617738, 3020183 5504475, 3102473 5391213 C 3215735 5473503, 3328997 5555793, 3442260 5638083 C 3359970 5751345, 3277680 5864608, 3195390 5977870" />
    <path class="fil0 str0" d="M 5365373 2426759 C 5295373 2305515, 5225373 2184272, 5155373 2063028 C 5276616 1993028, 5397860 1923028, 5519104 1853028 C 5589104 1974272, 5659104 2095515, 5729104 2216759 C 5607860 2286759, 5486617 2356759, 5365373 2426759" />
    <path class="fil0 str0" d="M 3620000 4730000 C 3760000 4730000, 3900000 4729999, 4040000 4730000 C 4040000 4870000, 4040000 5009999, 4040000 5150000 C 3900000 5150000, 3760000 5150000, 3620000 5150000 C 3620000 5009999, 3620000 4870000, 3620000 4730000" />
    <path class="fil0 str0" d="M 746058 3634572 C 609117 3605465, 472177 3576357, 335236 3547250 C 364344 3410309, 393451 3273368, 422559 3136428 C 559499 3165535, 696440 3194643, 833381 3223750 C 804273 3360691, 775166 3497632, 746058 3634572" />
    <path class="fil0 str0" d="M 3822009 5425671 C 3949906 5482614, 4077802 5539557, 4205698 5596500 C 4148755 5724396, 4091812 5852293, 4034869 5980189 C 3906973 5923246, 3779076 5866303, 3651180 5809360 C 3708123 5681463, 3765066 5553567, 3822009 5425671" />
    <path class="fil0 str0" d="M 5872778 5576694 C 5802778 5697937, 5732778 5819181, 5662778 5940424 C 5541534 5870424, 5420291 5800424, 5299047 5730424 C 5369047 5609181, 5439047 5487937, 5509047 5366694 C 5630291 5436694, 5751534 5506694, 5872778 5576694" />
    <path class="fil0 str0" d="M 4482426 5391337 C 4610323 5334393, 4738219 5277450, 4866115 5220507 C 4923058 5348404, 4980002 5476300, 5036945 5604196 C 4909048 5661139, 4781152 5718082, 4653256 5775026 C 4596312 5647129, 4539369 5519233, 4482426 5391337" />
    <path class="fil0 str0" d="M 2760469 1037610 C 2745835 1176843, 2731201 1316077, 2716567 1455310 C 2577334 1440676, 2438100 1426042, 2298867 1411408 C 2313501 1272175, 2328135 1132942, 2342769 993709 C 2482002 1008342, 2621235 1022976, 2760469 1037610" />
    <path class="fil0 str0" d="M 579666 5372303 C 442725 5401411, 305785 5430519, 168844 5459626 C 139736 5322686, 110629 5185745, 81521 5048804 C 218462 5019697, 355402 4990589, 492343 4961481 C 521451 5098422, 550558 5235363, 579666 5372303" />
    <path class="fil0 str0" d="M 2493328 149061 C 2621225 206004, 2749121 262947, 2877018 319891 C 2820075 447787, 2763131 575683, 2706188 703580 C 2578292 646637, 2450396 589693, 2322499 532750 C 2379442 404854, 2436385 276958, 2493328 149061" />
    <path class="fil0 str0" d="M 4280418 3228883 C 4323680 3095735, 4366942 2962587, 4410205 2829439 C 4543353 2872702, 4676501 2915964, 4809649 2959227 C 4766386 3092375, 4723124 3225522, 4679861 3358670 C 4546713 3315408, 4413566 3272146, 4280418 3228883" />
    <path class="fil0 str0" d="M 1707994 2908708 C 1571053 2879601, 1434113 2850493, 1297172 2821385 C 1326280 2684445, 1355387 2547504, 1384495 2410563 C 1521436 2439671, 1658376 2468779, 1795317 2497886 C 1766209 2634827, 1737102 2771768, 1707994 2908708" />
    <path class="fil0 str0" d="M 4226611 1549703 C 4320290 1445663, 4413968 1341622, 4507646 1237582 C 4611686 1331260, 4715727 1424939, 4819767 1518617 C 4726089 1622657, 4632410 1726698, 4538732 1830738 C 4434692 1737060, 4330652 1643381, 4226611 1549703" />
    <path class="fil0 str0" d="M 5280000 1250000 C 5420000 1250000, 5560000 1250000, 5700000 1250000 C 5700000 1389999, 5700000 1529999, 5700000 1670000 C 5560000 1670000, 5420000 1670000, 5280000 1670000 C 5280000 1529999, 5280000 1389999, 5280000 1250000" />
    <path class="fil0 str0" d="M 5342113 3777280 C 5205172 3806387, 5068231 3835495, 4931291 3864602 C 4902183 3727662, 4873075 3590721, 4843968 3453780 C 4980908 3424673, 5117849 3395565, 5254790 3366458 C 5283897 3503398, 5313005 3640339, 5342113 3777280" />
    <path class="fil0 str0" d="M 4791808 4320725 C 4654867 4291617, 4517927 4262510, 4380986 4233402 C 4410094 4096461, 4439201 3959521, 4468309 3822580 C 4605250 3851688, 4742190 3880795, 4879131 3909903 C 4850023 4046844, 4820916 4183784, 4791808 4320725" />
    <path class="fil0 str0" d="M 543733 4142910 C 529099 4282143, 514465 4421376, 499831 4560609 C 360598 4545975, 221365 4531341, 82132 4516707 C 96766 4377474, 111400 4238241, 126034 4099008 C 265267 4113642, 404500 4128276, 543733 4142910" />
    <path class="fil0 str0" d="M 593236 3079376 C 456295 3108484, 319355 3137591, 182414 3166699 C 153306 3029758, 124199 2892818, 95091 2755877 C 232032 2726769, 368972 2697662, 505913 2668554 C 535021 2805495, 564128 2942435, 593236 3079376" />
    <path class="fil0 str0" d="M 3280014 707447 C 3143074 678339, 3006133 649231, 2869192 620124 C 2898300 483183, 2927408 346243, 2956515 209302 C 3093456 238409, 3230397 267517, 3367337 296625 C 3338230 433565, 3309122 570506, 3280014 707447" />
    <path class="fil0 str0" d="M 2948112 4605555 C 2834850 4687845, 2721587 4770134, 2608325 4852424 C 2526035 4739162, 2443745 4625900, 2361455 4512637 C 2474717 4430347, 2587980 4348057, 2701242 4265767 C 2783532 4379030, 2865822 4492292, 2948112 4605555" />
    <path class="fil0 str0" d="M 5743867 3112261 C 5606926 3083153, 5469985 3054046, 5333045 3024938 C 5362152 2887998, 5391260 2751057, 5420367 2614116 C 5557308 2643224, 5694249 2672331, 5831189 2701439 C 5802082 2838380, 5772974 2975320, 5743867 3112261" />
    <path class="fil0 str0" d="M 1616036 3322026 C 1479096 3351134, 1342155 3380242, 1205214 3409349 C 1176107 3272409, 1146999 3135468, 1117891 2998527 C 1254832 2969420, 1391773 2940312, 1528713 2911204 C 1557821 3048145, 1586929 3185086, 1616036 3322026" />
    <path class="fil0 str0" d="M 1307662 2423342 C 1293028 2562575, 1278394 2701808, 1263760 2841041 C 1124527 2826407, 985294 2811773, 846061 2797139 C 860695 2657906, 875329 2518673, 889962 2379440 C 1029196 2394074, 1168429 2408708, 1307662 2423342" />
    <path class="fil0 str0" d="M 2242280 5162031 C 2105339 5191139, 1968399 5220247, 1831458 5249354 C 1802350 5112414, 1773243 4975473, 1744135 4838532 C 1881076 4809425, 2018016 4780317, 2154957 4751209 C 2184065 4888150, 2213172 5025091, 2242280 5162031" />
    <path class="fil0 str0" d="M 703950 2245462 C 567009 2216355, 430069 2187247, 293128 2158139 C 322236 2021199, 351343 1884258, 380451 1747317 C 517391 1776425, 654332 1805533, 791273 1834640 C 762165 1971581, 733058 2108522, 703950 2245462" />
    <path class="fil0 str0" d="M 578198 3623668 C 563564 3762901, 548930 3902134, 534296 4041367 C 395063 4026733, 255830 4012099, 116596 3997465 C 131230 3858232, 145864 3718999, 160498 3579766 C 299731 3594400, 438964 3609034, 578198 3623668" />
    <path class="fil0 str0" d="M 1820000 5530000 C 1960000 5530000, 2100000 5530000, 2240000 5530000 C 2240000 5670000, 2240000 5810000, 2240000 5950000 C 2100000 5950000, 1960000 5950000, 1820000 5950000 C 1820000 5810000, 1820000 5670000, 1820000 5530000" />
    <path class="fil0 str0" d="M 5290000 810000 C 5430000 810000, 5570000 810000, 5710000 810000 C 5710000 949999, 5710000 1089999, 5710000 1230000 C 5570000 1229999, 5430000 1229999, 5290000 1230000 C 5290000 1089999, 5290000 949999, 5290000 810000" />
    <path class="fil0 str0" d="M 2899822 1816443 C 2885188 1955676, 2870554 2094909, 2855920 2234143 C 2716687 2219509, 2577454 2204875, 2438221 2190241 C 2452855 2051008, 2467489 1911774, 2482123 1772541 C 2621356 1787175, 2760589 1801809, 2899822 1816443" />
    <path class="fil0 str0" d="M 596173 880719 C 459233 909827, 322292 938935, 185351 968042 C 156244 831102, 127136 694161, 98028 557220 C 234969 528113, 371910 499005, 508850 469897 C 537958 606838, 567066 743779, 596173 880719" />
    <path class="fil0 str0" d="M 2629808 2280763 C 2615174 2419996, 2600540 2559229, 2585906 2698462 C 2446673 2683828, 2307440 2669194, 2168207 2654560 C 2182841 2515327, 2197475 2376094, 2212109 2236861 C 2351342 2251495, 2490575 2266129, 2629808 2280763" />
    <path class="fil0 str0" d="M 5357269 3774496 C 5342635 3635263, 5328001 3496030, 5313367 3356797 C 5452600 3342163, 5591833 3327529, 5731066 3312895 C 5745700 3452128, 5760334 3591361, 5774968 3730594 C 5635735 3745228, 5496502 3759862, 5357269 3774496" />
    <path class="fil0 str0" d="M 866986 1057159 C 994882 1000216, 1122779 943273, 1250675 886330 C 1307618 1014226, 1364561 1142123, 1421505 1270019 C 1293608 1326962, 1165712 1383905, 1037816 1440848 C 980872 1312952, 923929 1185056, 866986 1057159" />
    <path class="fil0 str0" d="M 4665115 2463806 C 4528174 2434698, 4391233 2405591, 4254293 2376483 C 4283400 2239542, 4312508 2102602, 4341616 1965661 C 4478556 1994769, 4615497 2023876, 4752438 2052984 C 4723330 2189924, 4694222 2326865, 4665115 2463806" />
    <path class="fil0 str0" d="M 4389117 4361257 C 4482795 4465297, 4576474 4569337, 4670152 4673378 C 4566112 4767056, 4462071 4860734, 4358031 4954413 C 4264353 4850372, 4170674 4746332, 4076996 4642292 C 4181036 4548614, 4285077 4454935, 4389117 4361257" />
    <path class="fil0 str0" d="M 5686538 544224 C 5549598 515117, 5412657 486009, 5275716 456901 C 5304824 319961, 5333932 183020, 5363039 46079 C 5499980 75187, 5636921 104295, 5773861 133402 C 5744754 270343, 5715646 407284, 5686538 544224" />
    <path class="fil0 str0" d="M 4591924 3818185 C 4454983 3789077, 4318043 3759970, 4181102 3730862 C 4210210 3593921, 4239317 3456981, 4268425 3320040 C 4405366 3349148, 4542306 3378255, 4679247 3407363 C 4650139 3544304, 4621032 3681244, 4591924 3818185" />
    <path class="fil0 str0" d="M 1349815 4481275 C 1236552 4563565, 1123290 4645855, 1010027 4728145 C 927737 4614883, 845448 4501620, 763158 4388358 C 876420 4306068, 989682 4223778, 1102945 4141488 C 1185235 4254750, 1267525 4368013, 1349815 4481275" />
    <path class="fil0 str0" d="M 380000 10000 C 520000 10000, 660000 10000, 800000 10000 C 800000 150000, 800000 290000, 800000 430000 C 660000 430000, 520000 430000, 380000 430000 C 380000 290000, 380000 150000, 380000 10000" />
    <path class="fil0 str0" d="M 3436081 1467708 C 3563978 1410765, 3691874 1353822, 3819770 1296878 C 3876713 1424775, 3933657 1552671, 3990600 1680568 C 3862703 1737511, 3734807 1794454, 3606911 1851397 C 3549968 1723501, 3493024 1595604, 3436081 1467708" />
    <path class="fil0 str0" d="M 376738 1308271 C 504635 1251328, 632531 1194384, 760427 1137441 C 817370 1265338, 874314 1393234, 931257 1521130 C 803360 1578074, 675464 1635017, 547568 1691960 C 490624 1564063, 433681 1436167, 376738 1308271" />
    <path class="fil0 str0" d="M 3298224 5383414 C 3161284 5354306, 3024343 5325199, 2887402 5296091 C 2916510 5159150, 2945618 5022210, 2974725 4885269 C 3111666 4914377, 3248607 4943484, 3385547 4972592 C 3356440 5109532, 3327332 5246473, 3298224 5383414" />
    <path class="fil0 str0" d="M 4711385 425163 C 4574445 454271, 4437504 483379, 4300563 512486 C 4271456 375546, 4242348 238605, 4213240 101664 C 4350181 72557, 4487122 43449, 4624062 14341 C 4653170 151282, 4682278 288223, 4711385 425163" />
    <path class="fil0 str0" d="M 2900125 3430407 C 2943387 3563555, 2986650 3696703, 3029912 3829851 C 2896764 3873113, 2763616 3916376, 2630469 3959638 C 2587206 3826490, 2543944 3693342, 2500681 3560194 C 2633829 3516932, 2766977 3473669, 2900125 3430407" />
    <path class="fil0 str0" d="M 4035826 970811 C 4163722 913868, 4291618 856925, 4419515 799981 C 4476458 927878, 4533401 1055774, 4590344 1183670 C 4462448 1240614, 4334551 1297557, 4206655 1354500 C 4149712 1226604, 4092769 1098707, 4035826 970811" />
    <path class="fil0 str0" d="M 690721 2692480 C 553780 2663373, 416839 2634265, 279899 2605157 C 309006 2468217, 338114 2331276, 367221 2194335 C 504162 2223443, 641103 2252551, 778043 2281658 C 748936 2418599, 719828 2555540, 690721 2692480" />
    <path class="fil0 str0" d="M 4140811 2349380 C 4268707 2406323, 4396604 2463266, 4524500 2520209 C 4467557 2648106, 4410614 2776002, 4353671 2903898 C 4225774 2846955, 4097878 2790012, 3969982 2733069 C 4026925 2605173, 4083868 2477276, 4140811 2349380" />
    <path class="fil0 str0" d="M 3037898 3385633 C 2900957 3356525, 2764016 3327417, 2627076 3298310 C 2656183 3161369, 2685291 3024428, 2714398 2887488 C 2851339 2916595, 2988280 2945703, 3125220 2974811 C 3096113 3111751, 3067005 3248692, 3037898 3385633" />
    <path class="fil0 str0" d="M 3824815 2690329 C 3952711 2747272, 4080608 2804216, 4208504 2861159 C 4151561 2989055, 4094618 3116951, 4037675 3244848 C 3909778 3187905, 3781882 3130962, 3653986 3074019 C 3710929 2946122, 3767872 2818226, 3824815 2690329" />
    <path class="fil0 str0" d="M 4114666 5063384 C 4242563 5120327, 4370459 5177270, 4498355 5234213 C 4441412 5362109, 4384469 5490006, 4327526 5617902 C 4199630 5560959, 4071733 5504016, 3943837 5447073 C 4000780 5319176, 4057723 5191280, 4114666 5063384" />
    <path class="fil0 str0" d="M 4053622 3700749 C 4181518 3757692, 4309415 3814635, 4437311 3871578 C 4380368 3999474, 4323425 4127371, 4266482 4255267 C 4138585 4198324, 4010689 4141381, 3882793 4084438 C 3939736 3956542, 3996679 3828645, 4053622 3700749" />
    <path class="fil0 str0" d="M 3051718 2475934 C 3037085 2615167, 3022451 2754400, 3007817 2893633 C 2868584 2878999, 2729350 2864365, 2590117 2849731 C 2604751 2710498, 2619385 2571265, 2634019 2432032 C 2773252 2446666, 2912485 2461300, 3051718 2475934" />
    <path class="fil0 str0" d="M 2798278 5775876 C 2685015 5693586, 2571753 5611296, 2458490 5529006 C 2540780 5415744, 2623070 5302481, 2705360 5189219 C 2818623 5271509, 2931885 5353799, 3045147 5436089 C 2962857 5549351, 2880567 5662613, 2798278 5775876" />
    <path class="fil0 str0" d="M 5387232 2449918 C 5372598 2589151, 5357964 2728385, 5343330 2867618 C 5204097 2852984, 5064864 2838350, 4925631 2823716 C 4940265 2684483, 4954899 2545250, 4969533 2406016 C 5108766 2420650, 5247999 2435284, 5387232 2449918" />
    <path class="fil0 str0" d="M 1158634 5204662 C 1021693 5175554, 884753 5146447, 747812 5117339 C 776919 4980398, 806027 4843458, 835135 4706517 C 972075 4735625, 1109016 4764732, 1245957 4793840 C 1216849 4930781, 1187741 5067721, 1158634 5204662" />
    <path class="fil0 str0" d="M 1253668 5233090 C 1239034 5372323, 1224400 5511556, 1209766 5650789 C 1070533 5636155, 931300 5621522, 792067 5606888 C 806700 5467654, 821334 5328421, 835968 5189188 C 975201 5203822, 1114435 5218456, 1253668 5233090" />
    <path class="fil0 str0" d="M 1262327 3715683 C 1247693 3854916, 1233059 3994149, 1218425 4133382 C 1079192 4118748, 939959 4104114, 800726 4089480 C 815360 3950247, 829994 3811014, 844628 3671781 C 983861 3686415, 1123094 3701049, 1262327 3715683" />
    <path class="fil0 str0" d="M 2804290 1294575 C 2932186 1351519, 3060083 1408462, 3187979 1465405 C 3131036 1593301, 3074093 1721198, 3017150 1849094 C 2889253 1792151, 2761357 1735208, 2633461 1678265 C 2690404 1550368, 2747347 1422472, 2804290 1294575" />
    <path class="fil0 str0" d="M 868902 485642 C 854268 346409, 839634 207176, 825000 67943 C 964233 53309, 1103466 38675, 1242699 24041 C 1257333 163274, 1271967 302507, 1286601 441740 C 1147368 456374, 1008135 471008, 868902 485642" />
    <path class="fil0 str0" d="M 3210034 4217486 C 3096771 4299776, 2983509 4382066, 2870247 4464356 C 2787957 4351094, 2705667 4237831, 2623377 4124569 C 2736639 4042279, 2849902 3959989, 2963164 3877699 C 3045454 3990962, 3127744 4104224, 3210034 4217486" />
    <path class="fil0 str0" d="M 3835990 5324514 C 3765990 5445758, 3695990 5567001, 3625990 5688245 C 3504746 5618245, 3383503 5548245, 3262259 5478245 C 3332259 5357001, 3402259 5235758, 3472259 5114514 C 3593503 5184514, 3714746 5254514, 3835990 5324514" />
    <path class="fil0 str0" d="M 5331294 2886463 C 5316660 3025696, 5302026 3164929, 5287392 3304162 C 5148159 3289528, 5008926 3274894, 4869693 3260260 C 4884327 3121027, 4898961 2981794, 4913595 2842561 C 5052828 2857195, 5192061 2871829, 5331294 2886463" />
    <path class="fil0 str0" d="M 4265916 2225603 C 4128976 2196495, 3992035 2167387, 3855094 2138280 C 3884202 2001339, 3913310 1864398, 3942417 1727458 C 4079358 1756565, 4216299 1785673, 4353239 1814781 C 4324132 1951721, 4295024 2088662, 4265916 2225603" />
    <path class="fil0 str0" d="M 5024129 2115708 C 4954129 1994464, 4884129 1873221, 4814129 1751977 C 4935373 1681977, 5056616 1611977, 5177860 1541977 C 5247860 1663221, 5317860 1784464, 5387860 1905708 C 5266616 1975708, 5145373 2045708, 5024129 2115708" />
  </g>
  <g id="Layer_x0020_3">
    <metadata id="CorelCorpID_2Corel-Layer"/>
  <path class="fil0 str2" d=" M 5454080 4928399 L 5449760 4930199 L 5446879 4935599 L 5445440 4944599 L 5445440 4950000 L 5446879 4958999 L 5449760 4964400 L 5454080 4966199 L 5456959 4966199 L 5461279 4964400 L 5464160 4958999 L 5465599 4950000 L 5465599 4944599 L 5464160 4935599 L 5461279 4930199 L 5456959 4928399 L 5454080 4928399 M 5446879 4958999 L 5464160 4935599"/><path class="fil0 str2" d=" M 5468480 4973399 L 5439680 4973399"/><path class="fil0 str2" d=" M 5487199 4928399 L 5487199 4957200 L 5485759 4962600 L 5484320 4964400 L 5481439 4966199 L 5478560 4966199 L 5475679 4964400 L 5474240 4962600 L 5472800 4957200 L 5472800 4953599"/><path class="fil0 str2" d=" M 5513120 4928399 L 5498720 4928399 L 5497280 4944599 L 5498720 4942799 L 5503040 4941000 L 5507360 4941000 L 5511680 4942799 L 5514559 4946400 L 5515999 4951799 L 5515999 4955400 L 5514559 4960799 L 5511680 4964400 L 5507360 4966199 L 5503040 4966199 L 5498720 4964400 L 5497280 4962600 L 5495839 4958999"/>
  <path class="fil0 str2" d=" M 3746288 2325224 L 3741609 2325112 L 3736781 2328873 L 3731806 2336510 L 3729609 2341443 L 3727264 2350250 L 3727698 2356355 L 3730913 2359756 L 3733544 2360928 L 3738222 2361041 L 3743050 2357279 L 3748026 2349643 L 3750223 2344709 L 3752568 2335902 L 3752133 2329797 L 3748919 2326396 L 3746288 2325224 M 3727264 2350250 L 3752568 2335902"/><path class="fil0 str2" d=" M 3741139 2372191 L 3714830 2360477"/><path class="fil0 str2" d=" M 3766020 2334010 L 3750646 2368542 M 3784437 2342210 L 3755770 2357031 M 3766008 2351738 L 3769063 2376742"/><path class="fil0 str2" d=" M 3794961 2346895 L 3779587 2381427 M 3792330 2345724 L 3804170 2350995 L 3807384 2354397 L 3807968 2356627 L 3807819 2360501 L 3806354 2363790 L 3803575 2366493 L 3801527 2367552 L 3796849 2367439 M 3787640 2363339 L 3796849 2367439 L 3800063 2370841 L 3800646 2373071 L 3800498 2376945 L 3798301 2381878 L 3795521 2384581 L 3793474 2385640 L 3788795 2385527 L 3776956 2380256"/>
  <path class="fil0 str2" d=" M 5591062 4216472 L 5589509 4220886 L 5591594 4226640 L 5597319 4233732 L 5601332 4237346 L 5608984 4242297 L 5614924 4243771 L 5619152 4241765 L 5621079 4239624 L 5622633 4235210 L 5620546 4229456 L 5614822 4222364 L 5610809 4218750 L 5603157 4213798 L 5597217 4212325 L 5592988 4214331 L 5591062 4216472 M 5608984 4242297 L 5603157 4213798"/><path class="fil0 str2" d=" M 5634138 4235881 L 5614868 4257284"/><path class="fil0 str2" d=" M 5616114 4188648 L 5606478 4199349 L 5617554 4211260 L 5617180 4208985 L 5618732 4204570 L 5621623 4201360 L 5625852 4199354 L 5630454 4199622 L 5635430 4202166 L 5638106 4204574 L 5641155 4209258 L 5641903 4213807 L 5640350 4218222 L 5637460 4221432 L 5633231 4223438 L 5630930 4223304 L 5627291 4221965"/><path class="fil0 str2" d=" M 5631100 4182765 L 5631690 4179420 L 5630567 4172596 L 5658658 4197890"/>
  <path class="fil0 str2" d=" M 4690253 840616 L 4693972 843458 L 4700088 843252 L 4708602 839999 L 4713279 837299 L 4720353 831552 L 4723590 826358 L 4722988 821716 L 4721549 819222 L 4717830 816381 L 4711713 816587 L 4703199 819840 L 4698522 822540 L 4691448 828287 L 4688211 833481 L 4688813 838122 L 4690253 840616 M 4720353 831552 L 4691448 828287"/><path class="fil0 str2" d=" M 4722024 805646 L 4736424 830587"/><path class="fil0 str2" d=" M 4681725 800645 L 4687121 799192 L 4691679 799887 L 4695398 802728 L 4696118 803975 L 4696719 808616 L 4695041 812910 L 4691085 816857 L 4689526 817757 L 4684129 819210 L 4679572 818516 L 4675853 815675 L 4675133 814428 L 4674532 809787 L 4676209 805492 L 4681725 800645 L 4689519 796145 L 4698033 792892 L 4704150 792686 L 4707868 795528 L 4709309 798022 L 4709909 802663 L 4707512 805710"/><path class="fil0 str2" d=" M 4670568 792122 L 4667569 790527 L 4660733 789486 L 4693468 770586"/>
  <path class="fil0 str2" d=" M 4636980 5047114 L 4633766 5050516 L 4633331 5056620 L 4635676 5065428 L 4637873 5070361 L 4642849 5077997 L 4647676 5081759 L 4652355 5081646 L 4654986 5080475 L 4658200 5077073 L 4658635 5070969 L 4656290 5062161 L 4654093 5057228 L 4649117 5049592 L 4644290 5045830 L 4639611 5045943 L 4636980 5047114 M 4642849 5077997 L 4649117 5049592"/><path class="fil0 str2" d=" M 4668439 5082367 L 4642128 5094081"/><path class="fil0 str2" d=" M 4671184 5031886 L 4658028 5037743 L 4663302 5053128 L 4663885 5050898 L 4667100 5047497 L 4671046 5045740 L 4675725 5045627 L 4679820 5047744 L 4683332 5052092 L 4684796 5055380 L 4685677 5060899 L 4684510 5065359 L 4681296 5068761 L 4677350 5070518 L 4672671 5070631 L 4670623 5069572 L 4667843 5066869"/><path class="fil0 str2" d=" M 4685368 5035422 L 4684636 5033778 L 4684487 5029904 L 4685071 5027673 L 4686969 5024858 L 4692232 5022515 L 4695595 5022988 L 4697642 5024046 L 4700422 5026750 L 4701886 5030038 L 4702035 5033913 L 4701600 5040018 L 4695767 5062318 L 4714184 5054118"/>
  <path class="fil0 str2" d=" M 3160700 5719791 L 3165253 5720874 L 3170757 5718198 L 3177212 5711763 L 3180386 5707395 L 3184511 5699266 L 3185355 5693205 L 3182918 5689210 L 3180588 5687517 L 3176035 5686434 L 3170531 5689110 L 3164076 5695545 L 3160902 5699913 L 3156777 5708041 L 3155933 5714102 L 3158370 5718098 L 3160700 5719791 M 3184511 5699266 L 3156777 5708041"/><path class="fil0 str2" d=" M 3175500 5674921 L 3198800 5691849"/><path class="fil0 str2" d=" M 3143225 5707094 L 3165444 5676514 M 3126915 5695245 L 3149134 5664664 M 3153805 5692532 L 3137496 5680682"/><path class="fil0 str2" d=" M 3120663 5681802 L 3117275 5681566 L 3110606 5683395 L 3132824 5652814"/>
  <path class="fil0 str2" d=" M 5438652 2176882 L 5442371 2179724 L 5448488 2179518 L 5457001 2176265 L 5461678 2173565 L 5468753 2167818 L 5471989 2162624 L 5471388 2157982 L 5469948 2155488 L 5466229 2152647 L 5460112 2152853 L 5451598 2156106 L 5446921 2158806 L 5439848 2164553 L 5436611 2169747 L 5437212 2174388 L 5438652 2176882 M 5468753 2167818 L 5439848 2164553"/><path class="fil0 str2" d=" M 5470423 2141912 L 5484823 2166853"/><path class="fil0 str2" d=" M 5427852 2158176 L 5460588 2139276 M 5417772 2140717 L 5450508 2121817 M 5443441 2149176 L 5433361 2131717"/><path class="fil0 str2" d=" M 5409132 2125752 L 5412851 2128593 L 5418967 2128388 L 5427482 2125135 L 5432158 2122435 L 5439232 2116688 L 5442469 2111493 L 5441868 2106852 L 5440428 2104358 L 5436709 2101517 L 5430593 2101723 L 5422078 2104976 L 5417402 2107676 L 5410327 2113423 L 5407091 2118617 L 5407692 2123258 L 5409132 2125752 M 5439232 2116688 L 5410327 2113423"/>
  <path class="fil0 str2" d=" M 3804079 4918399 L 3799760 4920199 L 3796879 4925599 L 3795440 4934599 L 3795440 4940000 L 3796879 4948999 L 3799760 4954400 L 3804079 4956199 L 3806960 4956199 L 3811279 4954400 L 3814159 4948999 L 3815599 4940000 L 3815599 4934599 L 3814159 4925599 L 3811279 4920199 L 3806960 4918399 L 3804079 4918399 M 3796879 4948999 L 3814159 4925599"/><path class="fil0 str2" d=" M 3818479 4963399 L 3789679 4963399"/><path class="fil0 str2" d=" M 3837200 4918399 L 3837200 4947200 L 3835759 4952600 L 3834320 4954400 L 3831440 4956199 L 3828559 4956199 L 3825679 4954400 L 3824240 4952600 L 3822799 4947200 L 3822799 4943599"/><path class="fil0 str2" d=" M 3853039 4918399 L 3848720 4920199 L 3847279 4923800 L 3847279 4927399 L 3848720 4931000 L 3851600 4932799 L 3857359 4934599 L 3861679 4936400 L 3864559 4940000 L 3866000 4943599 L 3866000 4948999 L 3864559 4952600 L 3863120 4954400 L 3858800 4956199 L 3853039 4956199 L 3848720 4954400 L 3847279 4952600 L 3845840 4948999 L 3845840 4943599 L 3847279 4940000 L 3850159 4936400 L 3854479 4934599 L 3860239 4932799 L 3863120 4931000 L 3864559 4927399 L 3864559 4923800 L 3863120 4920199 L 3858800 4918399 L 3853039 4918399"/>
  <path class="fil0 str2" d=" M 605171 3412017 L 609771 3411155 L 613711 3406471 L 616990 3397967 L 618113 3392685 L 618576 3383583 L 616881 3377702 L 613030 3375043 L 610213 3374444 L 605613 3375307 L 601673 3379990 L 598394 3388494 L 597271 3393776 L 596808 3402879 L 598503 3408759 L 602354 3411418 L 605171 3412017 M 618576 3383583 L 596808 3402879"/><path class="fil0 str2" d=" M 600442 3365007 L 628612 3370994"/><path class="fil0 str2" d=" M 572775 3405131 L 578763 3376960 L 581294 3371978 L 583077 3370516 L 586268 3369355 L 589085 3369953 L 591528 3372313 L 592562 3374373 L 592848 3379954 L 592099 3383476"/><path class="fil0 str2" d=" M 547135 3394161 L 547795 3397981 L 551647 3400640 L 554464 3401239 L 559064 3400376 L 563003 3395693 L 566283 3387189 L 568154 3378386 L 568243 3371044 L 566174 3366924 L 562323 3364265 L 560914 3363966 L 556315 3364828 L 552749 3367751 L 550218 3372733 L 549844 3374494 L 550129 3380075 L 552198 3384195 L 556049 3386854 L 557458 3387153 L 562058 3386291 L 565623 3383369 L 568154 3378386"/>
  <path class="fil0 str2" d=" M 3913546 5672655 L 3908867 5672542 L 3904039 5676304 L 3899064 5683941 L 3896867 5688873 L 3894522 5697681 L 3894956 5703786 L 3898171 5707187 L 3900802 5708359 L 3905480 5708471 L 3910308 5704710 L 3915284 5697073 L 3917481 5692140 L 3919826 5683333 L 3919391 5677228 L 3916177 5673826 L 3913546 5672655 M 3894522 5697681 L 3919826 5683333"/><path class="fil0 str2" d=" M 3908397 5719622 L 3882087 5707908"/><path class="fil0 str2" d=" M 3943802 5686126 L 3932088 5712437 L 3928576 5716784 L 3926529 5717843 L 3923165 5718316 L 3920534 5717144 L 3918636 5714328 L 3918052 5712098 L 3918933 5706580 L 3920397 5703291"/><path class="fil0 str2" d=" M 3970112 5697840 L 3941582 5726516 M 3951695 5689641 L 3970112 5697840"/>
  <path class="fil0 str2" d=" M 5619379 5638794 L 5619980 5634153 L 5616743 5628959 L 5609669 5623212 L 5604993 5620512 L 5596478 5617258 L 5590362 5617053 L 5586643 5619894 L 5585203 5622388 L 5584602 5627030 L 5587838 5632224 L 5594913 5637971 L 5599589 5640671 L 5608103 5643923 L 5614220 5644129 L 5617939 5641288 L 5619379 5638794 M 5596478 5617258 L 5608103 5643923"/><path class="fil0 str2" d=" M 5573208 5628765 L 5587608 5603823"/><path class="fil0 str2" d=" M 5600903 5656394 L 5601022 5659788 L 5603539 5666230 L 5570803 5647330"/><path class="fil0 str2" d=" M 5593459 5683688 L 5560723 5664789 M 5594899 5681195 L 5588419 5692418 L 5584700 5695260 L 5582421 5695607 L 5578583 5695054 L 5575466 5693254 L 5573068 5690206 L 5572229 5688060 L 5572830 5683418 M 5577870 5674689 L 5572830 5683418 L 5569111 5686259 L 5566832 5686607 L 5562995 5686054 L 5558319 5683353 L 5555921 5680307 L 5555082 5678159 L 5555683 5673518 L 5562163 5662294"/>
  <path class="fil0 str2" d=" M 4723932 5490040 L 4720718 5493442 L 4720283 5499547 L 4722629 5508354 L 4724825 5513287 L 4729801 5520924 L 4734628 5524685 L 4739307 5524572 L 4741938 5523401 L 4745152 5520000 L 4745587 5513895 L 4743242 5505087 L 4741046 5500155 L 4736069 5492518 L 4731242 5488756 L 4726564 5488869 L 4723932 5490040 M 4729801 5520924 L 4736069 5492518"/><path class="fil0 str2" d=" M 4755391 5525293 L 4729081 5537007"/><path class="fil0 str2" d=" M 4746296 5480084 L 4761671 5514616 M 4743665 5481255 L 4752874 5477155 L 4757552 5477042 L 4761647 5479160 L 4764427 5481863 L 4767939 5486210 L 4771600 5494432 L 4772481 5499951 L 4772629 5503825 L 4771463 5508286 L 4768248 5511687 L 4759040 5515787"/><path class="fil0 str2" d=" M 4775534 5474947 L 4777434 5472131 L 4779184 5465441 L 4794558 5499973"/>
  <path class="fil0 str2" d=" M 2554160 1198125 L 2552821 1193640 L 2547752 1190212 L 2538952 1187839 L 2533582 1187274 L 2524480 1187766 L 2518809 1190065 L 2516567 1194173 L 2516266 1197038 L 2517605 1201522 L 2522674 1204951 L 2531474 1207324 L 2536845 1207888 L 2545946 1207397 L 2551617 1205097 L 2553859 1200989 L 2554160 1198125 M 2524480 1187766 L 2545946 1207397"/><path class="fil0 str2" d=" M 2507901 1207742 L 2510912 1179100"/><path class="fil0 str2" d=" M 2544726 1236227 L 2548456 1235171 L 2550698 1231063 L 2550999 1228199 L 2549660 1223715 L 2544591 1220286 L 2535791 1217913 L 2526840 1216972 L 2519529 1217652 L 2515648 1220140 L 2513406 1224248 L 2513256 1225680 L 2514594 1230164 L 2517873 1233405 L 2523093 1235401 L 2524884 1235590 L 2530404 1234722 L 2534286 1232234 L 2536528 1228126 L 2536678 1226694 L 2535339 1222209 L 2532060 1218969 L 2526840 1216972"/><path class="fil0 str2" d=" M 2541581 1248928 L 2543070 1251980 L 2547989 1256841 L 2510396 1252890"/>
  <path class="fil0 str2" d=" M 363255 5225694 L 367106 5223035 L 368801 5217154 L 368338 5208051 L 367215 5202769 L 363936 5194265 L 359996 5189583 L 355396 5188720 L 352579 5189318 L 348727 5191978 L 347033 5197858 L 347496 5206961 L 348619 5212243 L 351898 5220747 L 355838 5225430 L 360438 5226293 L 363255 5225694 M 363936 5194265 L 351898 5220747"/><path class="fil0 str2" d=" M 339814 5184671 L 367984 5178683"/><path class="fil0 str2" d=" M 340718 5230484 L 325225 5233778 L 330682 5217896 L 326456 5218794 L 323265 5217632 L 321482 5216171 L 318951 5211188 L 318202 5207667 L 318488 5202086 L 320557 5197965 L 324408 5195307 L 328634 5194408 L 333234 5195271 L 335016 5196732 L 337173 5199954"/><path class="fil0 str2" d=" M 297340 5234184 L 299497 5237406 L 304097 5238269 L 306914 5237670 L 310765 5235010 L 312459 5229130 L 311997 5220027 L 310126 5211224 L 307220 5204481 L 303654 5201558 L 299055 5200695 L 297646 5200995 L 293795 5203654 L 291726 5207774 L 291440 5213355 L 291815 5215116 L 294346 5220098 L 297911 5223021 L 302511 5223884 L 303920 5223584 L 307771 5220925 L 309840 5216806 L 310126 5211224"/>
  <path class="fil0 str2" d=" M 2583549 395460 L 2578871 395347 L 2574043 399109 L 2569067 406745 L 2566871 411678 L 2564526 420486 L 2564960 426590 L 2568175 429992 L 2570806 431163 L 2575484 431276 L 2580312 427514 L 2585288 419878 L 2587484 414945 L 2589829 406137 L 2589395 400032 L 2586180 396631 L 2583549 395460 M 2564526 420486 L 2589829 406137"/><path class="fil0 str2" d=" M 2578401 442426 L 2552091 430712"/><path class="fil0 str2" d=" M 2609859 407174 L 2583961 437020 M 2609859 407174 L 2605009 446391 M 2593032 427266 L 2606187 433123"/><path class="fil0 str2" d=" M 2626961 414788 L 2641432 421230 L 2627681 430871 L 2631628 432628 L 2633527 435444 L 2634110 437674 L 2633229 443193 L 2631765 446482 L 2628253 450829 L 2624158 452947 L 2619479 452834 L 2615533 451077 L 2612319 447675 L 2611735 445445 L 2611884 441571"/>
  <path class="fil0 str2" d=" M 4515368 3115455 L 4515745 3120120 L 4519991 3124528 L 4528105 3128679 L 4533241 3130347 L 4542246 3131759 L 4548271 3130689 L 4551318 3127136 L 4552208 3124397 L 4551831 3119732 L 4547585 3115325 L 4539471 3111174 L 4534335 3109505 L 4525331 3108094 L 4519305 3109164 L 4516258 3112716 L 4515368 3115455 M 4542246 3131759 L 4525331 3108094"/><path class="fil0 str2" d=" M 4562615 3115666 L 4553716 3143056"/><path class="fil0 str2" d=" M 4536832 3078520 L 4532963 3078778 L 4528650 3080404 L 4526048 3082587 L 4524268 3088065 L 4525090 3091360 L 4527623 3095212 L 4530602 3097694 L 4535293 3100732 L 4543853 3103513 L 4549433 3103812 L 4553302 3103555 L 4557616 3101929 L 4560218 3099746 L 4561997 3094268 L 4561176 3090972 L 4558642 3087121 L 4555663 3084639 L 4550527 3082970 M 4548302 3089818 L 4550527 3082970"/><path class="fil0 str2" d=" M 4533168 3060675 L 4533544 3065339 L 4537790 3069747 L 4545905 3073898 L 4551040 3075567 L 4560045 3076978 L 4566071 3075908 L 4569117 3072355 L 4570007 3069616 L 4569631 3064952 L 4565385 3060544 L 4557270 3056393 L 4552135 3054725 L 4543130 3053313 L 4537104 3054383 L 4534057 3057936 L 4533168 3060675 M 4560045 3076978 L 4543130 3053313"/>
  <path class="fil0 str2" d=" M 1570628 2686901 L 1575228 2686039 L 1579168 2681356 L 1582448 2672852 L 1583571 2667570 L 1584033 2658467 L 1582339 2652586 L 1578488 2649927 L 1575670 2649328 L 1571071 2650191 L 1567131 2654874 L 1563851 2663378 L 1562728 2668660 L 1562266 2677763 L 1563960 2683644 L 1567811 2686303 L 1570628 2686901 M 1584033 2658467 L 1562266 2677763"/><path class="fil0 str2" d=" M 1565899 2639891 L 1594070 2645878"/><path class="fil0 str2" d=" M 1531652 2669416 L 1532312 2673236 L 1534381 2677356 L 1536824 2679716 L 1542458 2680914 L 1545649 2679751 L 1549215 2676829 L 1551372 2673607 L 1553903 2668624 L 1555774 2659821 L 1555488 2654240 L 1554828 2650419 L 1552760 2646299 L 1550317 2643939 L 1544683 2642742 L 1541492 2643904 L 1537926 2646826 L 1535769 2650048 L 1534646 2655330 M 1541689 2656827 L 1534646 2655330"/><path class="fil0 str2" d=" M 1505550 2667548 L 1506210 2671369 L 1510062 2674028 L 1512879 2674626 L 1517478 2673764 L 1521418 2669081 L 1524698 2660577 L 1526569 2651773 L 1526658 2644431 L 1524589 2640311 L 1520738 2637652 L 1519329 2637353 L 1514729 2638215 L 1511164 2641138 L 1508633 2646120 L 1508258 2647881 L 1508544 2653463 L 1510613 2657583 L 1514464 2660242 L 1515873 2660541 L 1520472 2659678 L 1524038 2656756 L 1526569 2651773"/>
  <path class="fil0 str2" d=" M 4487866 1541109 L 4486313 1545524 L 4488399 1551278 L 4494124 1558370 L 4498137 1561983 L 4505789 1566935 L 4511729 1568408 L 4515957 1566402 L 4517884 1564262 L 4519437 1559847 L 4517351 1554094 L 4511627 1547001 L 4507614 1543388 L 4499962 1538436 L 4494022 1536963 L 4489794 1538969 L 4487866 1541109 M 4505789 1566935 L 4499962 1538436"/><path class="fil0 str2" d=" M 4530943 1560519 L 4511672 1581921"/><path class="fil0 str2" d=" M 4503283 1523987 L 4513882 1512216 L 4518802 1528272 L 4521693 1525062 L 4524957 1524126 L 4527259 1524260 L 4532235 1526803 L 4534911 1529212 L 4537960 1533896 L 4538708 1538445 L 4537155 1542860 L 4534265 1546070 L 4530036 1548076 L 4527735 1547942 L 4524096 1546603"/><path class="fil0 str2" d=" M 4531226 1492954 L 4521590 1503655 L 4532666 1515565 L 4532292 1513290 L 4533845 1508876 L 4536735 1505665 L 4540964 1503659 L 4545566 1503928 L 4550543 1506471 L 4553218 1508880 L 4556268 1513563 L 4557015 1518112 L 4555463 1522527 L 4552572 1525738 L 4548344 1527743 L 4546043 1527609 L 4542404 1526270"/>
  <path class="fil0 str2" d=" M 5460479 1438399 L 5456160 1440200 L 5453280 1445599 L 5451840 1454600 L 5451840 1460000 L 5453280 1468999 L 5456160 1474400 L 5460479 1476199 L 5463359 1476199 L 5467680 1474400 L 5470560 1468999 L 5472000 1460000 L 5472000 1454600 L 5470560 1445599 L 5467680 1440200 L 5463359 1438399 L 5460479 1438399 M 5453280 1468999 L 5470560 1445599"/><path class="fil0 str2" d=" M 5474879 1483399 L 5446079 1483399"/><path class="fil0 str2" d=" M 5502239 1447400 L 5500800 1443800 L 5497919 1440200 L 5495040 1438399 L 5489279 1438399 L 5486400 1440200 L 5483519 1443800 L 5482080 1447400 L 5480640 1452799 L 5480640 1461799 L 5482080 1467200 L 5483519 1470800 L 5486400 1474400 L 5489279 1476199 L 5495040 1476199 L 5497919 1474400 L 5500800 1470800 L 5502239 1467200"/><path class="fil0 str2" d=" M 5510880 1447400 L 5510880 1445599 L 5512319 1441999 L 5513759 1440200 L 5516640 1438399 L 5522399 1438399 L 5525280 1440200 L 5526719 1441999 L 5528159 1445599 L 5528159 1449199 L 5526719 1452799 L 5523839 1458200 L 5509439 1476199 L 5529600 1476199"/>
  <path class="fil0 str2" d=" M 5125702 3630670 L 5129553 3628011 L 5131248 3622131 L 5130785 3613028 L 5129662 3607746 L 5126383 3599242 L 5122443 3594559 L 5117843 3593696 L 5115026 3594295 L 5111174 3596954 L 5109480 3602835 L 5109943 3611937 L 5111065 3617219 L 5114345 3625723 L 5118285 3630406 L 5122885 3631269 L 5125702 3630670 M 5126383 3599242 L 5114345 3625723"/><path class="fil0 str2" d=" M 5102261 3589647 L 5130431 3583659"/><path class="fil0 str2" d=" M 5103165 3635460 L 5087671 3638754 L 5093129 3622872 L 5088903 3623770 L 5085712 3622608 L 5083929 3621147 L 5081398 3616164 L 5080649 3612643 L 5080935 3607062 L 5083004 3602941 L 5086855 3600283 L 5091081 3599385 L 5095680 3600247 L 5097463 3601708 L 5099620 3604930"/><path class="fil0 str2" d=" M 5059501 3644742 L 5065727 3604774 M 5079220 3640550 L 5059501 3644742"/>
  <path class="fil0 str2" d=" M 4648104 4097571 L 4652704 4096708 L 4656644 4092025 L 4659924 4083521 L 4661047 4078239 L 4661509 4069136 L 4659815 4063255 L 4655963 4060597 L 4653146 4059998 L 4648547 4060860 L 4644607 4065544 L 4641327 4074047 L 4640204 4079329 L 4639742 4088432 L 4641436 4094313 L 4645287 4096972 L 4648104 4097571 M 4661509 4069136 L 4639742 4088432"/><path class="fil0 str2" d=" M 4643375 4050560 L 4671546 4056548"/><path class="fil0 str2" d=" M 4624159 4092481 L 4632018 4055507 M 4626976 4093080 L 4621342 4091882 M 4634835 4056106 L 4629201 4054908"/><path class="fil0 str2" d=" M 4598806 4087092 L 4618130 4065437 L 4597002 4060946 M 4598806 4087092 L 4606665 4050118"/>
  <path class="fil0 str2" d=" M 337425 4303424 L 336086 4298940 L 331017 4295511 L 322217 4293138 L 316846 4292574 L 307745 4293065 L 302074 4295365 L 299832 4299473 L 299531 4302337 L 300869 4306822 L 305939 4310250 L 314739 4312623 L 320109 4313188 L 329211 4312696 L 334882 4310397 L 337124 4306288 L 337425 4303424 M 307745 4293065 L 329211 4312696"/><path class="fil0 str2" d=" M 291166 4313041 L 294177 4284399"/><path class="fil0 str2" d=" M 334565 4330634 L 333226 4326150 L 329797 4324341 L 326216 4323965 L 322485 4325021 L 320394 4327697 L 318002 4333237 L 315760 4337345 L 311879 4339833 L 308148 4340889 L 302778 4340325 L 299348 4338516 L 297708 4336896 L 296370 4332411 L 296972 4326683 L 299214 4322575 L 301154 4321331 L 304885 4320275 L 310256 4320839 L 313685 4322648 L 316965 4325888 L 318303 4330373 L 319491 4336289 L 320980 4339342 L 324410 4341150 L 327990 4341527 L 331721 4340471 L 333963 4336363 L 334565 4330634"/><path class="fil0 str2" d=" M 324845 4354227 L 326335 4357280 L 331253 4362141 L 293661 4358190"/>
  <path class="fil0 str2" d=" M 376825 2932767 L 380676 2930108 L 382371 2924227 L 381908 2915124 L 380785 2909842 L 377505 2901338 L 373566 2896655 L 368966 2895793 L 366149 2896391 L 362297 2899050 L 360603 2904931 L 361066 2914034 L 362188 2919316 L 365468 2927820 L 369408 2932503 L 374008 2933365 L 376825 2932767 M 377505 2901338 L 365468 2927820"/><path class="fil0 str2" d=" M 353384 2891744 L 381554 2885756"/><path class="fil0 str2" d=" M 353826 2928454 L 354200 2930215 L 353540 2934035 L 352506 2936096 L 350063 2938455 L 344429 2939653 L 341237 2938491 L 339455 2937030 L 337298 2933807 L 336549 2930286 L 337209 2926466 L 338903 2920585 L 349246 2899984 L 329527 2904176"/><path class="fil0 str2" d=" M 309413 2934214 L 309699 2928633 L 311767 2924512 L 315618 2921854 L 317027 2921554 L 321627 2922417 L 325192 2925339 L 327724 2930322 L 328098 2932083 L 327812 2937664 L 325743 2941784 L 321892 2944443 L 320484 2944742 L 315884 2943880 L 312318 2940957 L 309413 2934214 L 307542 2925411 L 307079 2916308 L 308773 2910427 L 312625 2907768 L 315442 2907170 L 320041 2908032 L 322198 2911254"/>
  <path class="fil0 str2" d=" M 3140536 485191 L 3145136 484328 L 3149076 479645 L 3152355 471141 L 3153478 465859 L 3153941 456756 L 3152247 450876 L 3148395 448217 L 3145578 447618 L 3140978 448480 L 3137038 453164 L 3133759 461668 L 3132636 466950 L 3132173 476052 L 3133868 481933 L 3137719 484592 L 3140536 485191 M 3153941 456756 L 3132173 476052"/><path class="fil0 str2" d=" M 3135807 438180 L 3163977 444168"/><path class="fil0 str2" d=" M 3112366 479203 L 3131493 444624 M 3112366 479203 L 3108956 439834 M 3124648 456051 L 3110562 453057"/><path class="fil0 str2" d=" M 3082786 472916 L 3102111 451260 L 3080983 446769 M 3082786 472916 L 3090645 435942"/>
  <path class="fil0 str2" d=" M 2690779 4559642 L 2693216 4555647 L 2692372 4549585 L 2688247 4541458 L 2685073 4537089 L 2678618 4530654 L 2673114 4527979 L 2668561 4529062 L 2666231 4530755 L 2663794 4534750 L 2664638 4540811 L 2668763 4548939 L 2671937 4553308 L 2678392 4559742 L 2683896 4562418 L 2688449 4561335 L 2690779 4559642 M 2678618 4530654 L 2678392 4559742"/><path class="fil0 str2" d=" M 2652679 4531701 L 2675979 4514772"/><path class="fil0 str2" d=" M 2668014 4565057 L 2669072 4566514 L 2670024 4570273 L 2669916 4572575 L 2668645 4575724 L 2663985 4579110 L 2660597 4579346 L 2658374 4578737 L 2655093 4576671 L 2652976 4573758 L 2652026 4569999 L 2651181 4563938 L 2652251 4540911 L 2635942 4552761"/><path class="fil0 str2" d=" M 2646510 4591806 L 2648947 4587810 L 2647996 4584052 L 2645880 4581139 L 2642599 4579073 L 2639211 4579310 L 2633493 4581239 L 2628940 4582322 L 2624494 4581102 L 2621213 4579036 L 2618039 4574668 L 2617088 4570909 L 2617195 4568606 L 2619632 4564611 L 2624291 4561225 L 2628844 4560142 L 2631068 4560752 L 2634349 4562818 L 2637523 4567187 L 2638474 4570946 L 2638260 4575551 L 2635823 4579546 L 2632221 4584388 L 2630949 4587537 L 2631900 4591296 L 2634016 4594208 L 2637297 4596275 L 2641850 4595192 L 2646510 4591806"/>
  <path class="fil0 str2" d=" M 5605092 2890155 L 5609692 2889292 L 5613632 2884609 L 5616912 2876105 L 5618034 2870823 L 5618497 2861720 L 5616802 2855840 L 5612951 2853181 L 5610134 2852582 L 5605534 2853444 L 5601595 2858128 L 5598315 2866632 L 5597192 2871914 L 5596729 2881016 L 5598424 2886897 L 5602276 2889556 L 5605092 2890155 M 5618497 2861720 L 5596729 2881016"/><path class="fil0 str2" d=" M 5600363 2843144 L 5628533 2849132"/><path class="fil0 str2" d=" M 5583964 2885664 L 5591823 2848690 M 5564245 2881472 L 5589204 2861015 M 5580290 2868321 L 5572104 2844498"/><path class="fil0 str2" d=" M 5548751 2878179 L 5567879 2843600 M 5548751 2878179 L 5545342 2838810 M 5561033 2855027 L 5546948 2852033"/>
  <path class="fil0 str2" d=" M 1400330 3175267 L 1404181 3172608 L 1405875 3166728 L 1405413 3157625 L 1404290 3152343 L 1401010 3143839 L 1397071 3139156 L 1392471 3138293 L 1389654 3138892 L 1385802 3141551 L 1384108 3147432 L 1384571 3156535 L 1385693 3161817 L 1388973 3170321 L 1392913 3175004 L 1397513 3175866 L 1400330 3175267 M 1401010 3143839 L 1388973 3170321"/><path class="fil0 str2" d=" M 1376888 3134244 L 1405059 3128257"/><path class="fil0 str2" d=" M 1361177 3178069 L 1363334 3181291 L 1367933 3182153 L 1370751 3181555 L 1374602 3178896 L 1376296 3173015 L 1375834 3163912 L 1373962 3155109 L 1371057 3148366 L 1367491 3145443 L 1362891 3144580 L 1361483 3144880 L 1357632 3147539 L 1355563 3151659 L 1355277 3157240 L 1355652 3159001 L 1358183 3163984 L 1361748 3166906 L 1366348 3167769 L 1367757 3167469 L 1371608 3164810 L 1373677 3160690 L 1373962 3155109"/><path class="fil0 str2" d=" M 1349623 3186045 L 1341763 3149071 M 1352440 3185447 L 1339763 3188141 L 1335163 3187279 L 1333380 3185817 L 1331223 3182596 L 1330475 3179074 L 1331135 3175253 L 1332169 3173193 L 1336020 3170534 M 1345880 3168439 L 1336020 3170534 L 1331421 3169672 L 1329638 3168211 L 1327481 3164989 L 1326358 3159707 L 1327018 3155886 L 1328052 3153826 L 1331904 3151167 L 1344580 3148473"/>
  <path class="fil0 str2" d=" M 1101504 2582424 L 1100165 2577940 L 1095096 2574511 L 1086296 2572138 L 1080925 2571574 L 1071824 2572065 L 1066153 2574365 L 1063911 2578473 L 1063610 2581337 L 1064948 2585822 L 1070018 2589250 L 1078818 2591623 L 1084188 2592188 L 1093290 2591696 L 1098961 2589396 L 1101203 2585288 L 1101504 2582424 M 1071824 2572065 L 1093290 2591696"/><path class="fil0 str2" d=" M 1055245 2592041 L 1058255 2563399"/><path class="fil0 str2" d=" M 1098945 2606770 L 1061352 2602819 M 1099246 2603906 L 1098192 2613930 L 1095951 2618039 L 1092069 2620527 L 1088339 2621582 L 1082818 2622450 L 1073867 2621509 L 1068647 2619513 L 1065217 2617704 L 1061938 2614464 L 1060599 2609979 L 1061653 2599955"/><path class="fil0 str2" d=" M 1095934 2635412 L 1058342 2631461 M 1096236 2632548 L 1094881 2645437 L 1092639 2649545 L 1090699 2650789 L 1086968 2651845 L 1083387 2651469 L 1079958 2649660 L 1078318 2648040 L 1076979 2643555 M 1078033 2633531 L 1076979 2643555 L 1074738 2647664 L 1072797 2648908 L 1069066 2649963 L 1063696 2649399 L 1060266 2647590 L 1058627 2645970 L 1057288 2641486 L 1058643 2628597"/>
  <path class="fil0 str2" d=" M 2025869 5015422 L 2029720 5012763 L 2031415 5006883 L 2030952 4997780 L 2029829 4992498 L 2026550 4983994 L 2022610 4979311 L 2018010 4978448 L 2015193 4979047 L 2011342 4981706 L 2009647 4987587 L 2010110 4996689 L 2011233 5001971 L 2014512 5010475 L 2018452 5015158 L 2023052 5016021 L 2025869 5015422 M 2026550 4983994 L 2014512 5010475"/><path class="fil0 str2" d=" M 2002428 4974400 L 2030598 4968412"/><path class="fil0 str2" d=" M 1999107 5021111 L 2002958 5018452 L 2003618 5014631 L 2002870 5011110 L 2000713 5007888 L 1997521 5006726 L 1991513 5006163 L 1986913 5005300 L 1983348 5002378 L 1981191 4999156 L 1980068 4993874 L 1980728 4990053 L 1981762 4987993 L 1985614 4985334 L 1991248 4984137 L 1995848 4984999 L 1997630 4986460 L 1999788 4989682 L 2000910 4994964 L 2000250 4998785 L 1998182 5002905 L 1994330 5005564 L 1989070 5008522 L 1986627 5010882 L 1985968 5014703 L 1986716 5018224 L 1988873 5021446 L 1993473 5022308 L 1999107 5021111"/><path class="fil0 str2" d=" M 1976570 5025901 L 1961077 5029194 L 1966534 5013312 L 1962308 5014211 L 1959117 5013049 L 1957334 5011588 L 1954803 5006605 L 1954054 5003084 L 1954340 4997502 L 1956409 4993382 L 1960260 4990723 L 1964486 4989825 L 1969086 4990688 L 1970868 4992149 L 1973025 4995371"/>
  <path class="fil0 str2" d=" M 566584 2023655 L 571184 2022793 L 575124 2018110 L 578404 2009606 L 579526 2004324 L 579989 1995221 L 578295 1989340 L 574443 1986681 L 571626 1986083 L 567026 1986945 L 563087 1991628 L 559807 2000132 L 558684 2005414 L 558222 2014517 L 559916 2020398 L 563767 2023056 L 566584 2023655 M 579989 1995221 L 558222 2014517"/><path class="fil0 str2" d=" M 561855 1976645 L 590026 1982633"/><path class="fil0 str2" d=" M 545456 2019164 L 553315 1982190 M 525737 2014973 L 550696 1994515 M 541782 2001821 L 533596 1977999"/><path class="fil0 str2" d=" M 503003 1997259 L 505534 1992277 L 509100 1989354 L 513700 1988491 L 515108 1988791 L 518960 1991450 L 521028 1995570 L 521314 2001151 L 520940 2002912 L 518408 2007895 L 514843 2010817 L 510243 2011679 L 508834 2011380 L 504983 2008721 L 502915 2004601 L 503003 1997259 L 504874 1988456 L 508154 1979952 L 512094 1975269 L 516694 1974406 L 519511 1975005 L 523362 1977664 L 524022 1981484"/>
  <path class="fil0 str2" d=" M 371889 3784182 L 370550 3779698 L 365481 3776269 L 356681 3773896 L 351311 3773332 L 342209 3773823 L 336538 3776123 L 334296 3780231 L 333995 3783095 L 335334 3787580 L 340403 3791008 L 349203 3793381 L 354574 3793946 L 363675 3793454 L 369346 3791155 L 371588 3787046 L 371889 3784182 M 342209 3773823 L 363675 3793454"/><path class="fil0 str2" d=" M 325630 3793800 L 328641 3765157"/><path class="fil0 str2" d=" M 367675 3824281 L 331587 3806009 M 369782 3804232 L 367675 3824281"/><path class="fil0 str2" d=" M 359310 3834985 L 360799 3838038 L 365718 3842899 L 328125 3838948"/>
  <path class="fil0 str2" d=" M 2001920 5718400 L 1997599 5720200 L 1994720 5725599 L 1993280 5734600 L 1993280 5740000 L 1994720 5749000 L 1997599 5754400 L 2001920 5756199 L 2004799 5756199 L 2009120 5754400 L 2011999 5749000 L 2013439 5740000 L 2013439 5734600 L 2011999 5725599 L 2009120 5720200 L 2004799 5718400 L 2001920 5718400 M 1994720 5749000 L 2011999 5725599"/><path class="fil0 str2" d=" M 2016320 5763400 L 1987519 5763400"/><path class="fil0 str2" d=" M 2023520 5718400 L 2023520 5756199 M 2023520 5718400 L 2042239 5718400 M 2023520 5736400 L 2035039 5736400 M 2023520 5756199 L 2042239 5756199"/><path class="fil0 str2" d=" M 2062400 5718400 L 2048000 5743599 L 2069600 5743599 M 2062400 5718400 L 2062400 5756199"/>
  <path class="fil0 str2" d=" M 5470479 998399 L 5466160 1000199 L 5463280 1005599 L 5461840 1014599 L 5461840 1020000 L 5463280 1029000 L 5466160 1034400 L 5470479 1036200 L 5473359 1036200 L 5477680 1034400 L 5480560 1029000 L 5482000 1020000 L 5482000 1014599 L 5480560 1005599 L 5477680 1000199 L 5473359 998399 L 5470479 998399 M 5463280 1029000 L 5480560 1005599"/><path class="fil0 str2" d=" M 5484879 1043399 L 5456079 1043399"/><path class="fil0 str2" d=" M 5512239 1007399 L 5510800 1003799 L 5507919 1000199 L 5505040 998399 L 5499279 998399 L 5496400 1000199 L 5493519 1003799 L 5492080 1007399 L 5490640 1012799 L 5490640 1021800 L 5492080 1027200 L 5493519 1030800 L 5496400 1034400 L 5499279 1036200 L 5505040 1036200 L 5507919 1034400 L 5510800 1030800 L 5512239 1027200"/><path class="fil0 str2" d=" M 5533839 998399 L 5519439 1023600 L 5541040 1023600 M 5533839 998399 L 5533839 1036200"/>
  <path class="fil0 str2" d=" M 2693363 1978390 L 2692024 1973905 L 2686955 1970476 L 2678155 1968104 L 2672785 1967539 L 2663683 1968031 L 2658012 1970330 L 2655770 1974438 L 2655469 1977303 L 2656808 1981787 L 2661877 1985216 L 2670677 1987589 L 2676047 1988153 L 2685149 1987662 L 2690820 1985362 L 2693062 1981254 L 2693363 1978390 M 2663683 1968031 L 2685149 1987662"/><path class="fil0 str2" d=" M 2647104 1988007 L 2650115 1959365"/><path class="fil0 str2" d=" M 2691105 1999871 L 2653512 1995920 M 2691105 1999871 L 2689148 2018489 M 2673204 1997990 L 2672000 2009447"/><path class="fil0 str2" d=" M 2687794 2031378 L 2686455 2026893 L 2681386 2023465 L 2672586 2021092 L 2667215 2020527 L 2658114 2021019 L 2652442 2023318 L 2650201 2027427 L 2649900 2030291 L 2651238 2034775 L 2656308 2038204 L 2665108 2040577 L 2670478 2041141 L 2679580 2040650 L 2685251 2038350 L 2687493 2034242 L 2687794 2031378 M 2658114 2021019 L 2679580 2040650"/>
  <path class="fil0 str2" d=" M 380467 733960 L 384318 731302 L 386012 725421 L 385550 716318 L 384427 711036 L 381147 702532 L 377208 697849 L 372608 696986 L 369791 697585 L 365939 700244 L 364245 706125 L 364708 715227 L 365830 720510 L 369110 729013 L 373050 733697 L 377650 734559 L 380467 733960 M 381147 702532 L 369110 729013"/><path class="fil0 str2" d=" M 357025 692938 L 385196 686950"/><path class="fil0 str2" d=" M 352296 739948 L 356147 737289 L 357842 731409 L 357379 722306 L 356256 717024 L 352977 708520 L 349037 703837 L 344437 702974 L 341620 703573 L 337769 706232 L 336074 712113 L 336537 721215 L 337660 726497 L 340939 735001 L 344879 739684 L 349479 740547 L 352296 739948 M 352977 708520 L 340939 735001"/><path class="fil0 str2" d=" M 329760 744738 L 321901 707765 M 332577 744140 L 322717 746235 L 318117 745373 L 314552 742450 L 312395 739228 L 309863 734246 L 307992 725443 L 308278 719861 L 308938 716040 L 311007 711920 L 314858 709262 L 324718 707166"/>
  <path class="fil0 str2" d=" M 2423575 2440561 L 2422236 2436076 L 2417167 2432648 L 2408367 2430275 L 2402996 2429710 L 2393895 2430202 L 2388224 2432502 L 2385982 2436610 L 2385681 2439474 L 2387019 2443958 L 2392089 2447387 L 2400889 2449760 L 2406259 2450325 L 2415361 2449833 L 2421032 2447533 L 2423274 2443425 L 2423575 2440561 M 2393895 2430202 L 2415361 2449833"/><path class="fil0 str2" d=" M 2377316 2450178 L 2380327 2421536"/><path class="fil0 str2" d=" M 2421016 2464907 L 2383423 2460956 M 2421317 2462043 L 2419962 2474932 L 2417721 2479040 L 2415780 2480284 L 2412049 2481340 L 2408469 2480963 L 2405039 2479155 L 2403400 2477535 L 2402061 2473050 M 2403115 2463025 L 2402061 2473050 L 2399819 2477158 L 2397879 2478402 L 2394148 2479458 L 2388777 2478894 L 2385348 2477085 L 2383708 2475465 L 2382369 2470980 L 2383724 2458091"/><path class="fil0 str2" d=" M 2416651 2506438 L 2418156 2492117 L 2402195 2488992 L 2403835 2490612 L 2405174 2495096 L 2404722 2499393 L 2402480 2503501 L 2398599 2505989 L 2393078 2506856 L 2389498 2506480 L 2384278 2504483 L 2380999 2501243 L 2379660 2496758 L 2380112 2492462 L 2382353 2488354 L 2384294 2487110 L 2388025 2486054"/>
  <path class="fil0 str2" d=" M 5525620 3573880 L 5527862 3577988 L 5533533 3580288 L 5542635 3580779 L 5548005 3580215 L 5556806 3577842 L 5561875 3574413 L 5563214 3569929 L 5562912 3567064 L 5560671 3562956 L 5554999 3560657 L 5545898 3560165 L 5540527 3560729 L 5531727 3563103 L 5526658 3566531 L 5525319 3571015 L 5525620 3573880 M 5556806 3577842 L 5531727 3563103"/><path class="fil0 str2" d=" M 5568869 3554855 L 5571879 3583497"/><path class="fil0 str2" d=" M 5523363 3552398 L 5560955 3548447 M 5523363 3552398 L 5521406 3533781 M 5541264 3550516 L 5540060 3539060 M 5560955 3548447 L 5558999 3529830"/><path class="fil0 str2" d=" M 5519901 3519460 L 5522142 3523568 L 5527814 3525867 L 5536915 3526359 L 5542285 3525794 L 5551086 3523421 L 5556155 3519993 L 5557493 3515508 L 5557192 3512644 L 5554951 3508536 L 5549279 3506236 L 5540178 3505745 L 5534808 3506309 L 5526008 3508682 L 5520938 3512111 L 5519600 3516595 L 5519901 3519460 M 5551086 3523421 L 5526008 3508682"/>
  <path class="fil0 str2" d=" M 1110465 1154985 L 1107251 1158386 L 1106816 1164491 L 1109161 1173298 L 1111358 1178232 L 1116334 1185868 L 1121161 1189630 L 1125840 1189517 L 1128471 1188345 L 1131685 1184944 L 1132120 1178839 L 1129775 1170032 L 1127578 1165099 L 1122602 1157462 L 1117775 1153701 L 1113096 1153813 L 1110465 1154985 M 1116334 1185868 L 1122602 1157462"/><path class="fil0 str2" d=" M 1141923 1190237 L 1115613 1201951"/><path class="fil0 str2" d=" M 1133859 1154421 L 1133126 1152777 L 1132978 1148902 L 1133561 1146672 L 1135460 1143856 L 1140722 1141514 L 1144085 1141987 L 1146133 1143045 L 1148912 1145748 L 1150377 1149037 L 1150525 1152912 L 1150091 1159016 L 1144257 1181317 L 1162674 1173117"/><path class="fil0 str2" d=" M 1161770 1132142 L 1166621 1171360 M 1161770 1132142 L 1187669 1161989 M 1165442 1158092 L 1178597 1152235"/>
  <path class="fil0 str2" d=" M 4525636 2241550 L 4530236 2240687 L 4534176 2236004 L 4537456 2227500 L 4538578 2222218 L 4539041 2213115 L 4537347 2207235 L 4533495 2204576 L 4530678 2203977 L 4526078 2204839 L 4522138 2209523 L 4518859 2218027 L 4517736 2223309 L 4517273 2232411 L 4518968 2238292 L 4522819 2240951 L 4525636 2241550 M 4539041 2213115 L 4517273 2232411"/><path class="fil0 str2" d=" M 4520907 2194539 L 4549078 2200527"/><path class="fil0 str2" d=" M 4497466 2235562 L 4516593 2200983 M 4497466 2235562 L 4494056 2196193 M 4509748 2212409 L 4495662 2209416"/><path class="fil0 str2" d=" M 4482434 2223166 L 4482060 2224926 L 4479903 2228148 L 4478120 2229610 L 4474929 2230772 L 4469295 2229574 L 4466852 2227214 L 4465818 2225155 L 4465158 2221334 L 4465906 2217812 L 4468063 2214590 L 4472003 2209907 L 4489831 2195295 L 4470111 2191103"/>
  <path class="fil0 str2" d=" M 4374209 4626259 L 4369981 4624253 L 4364041 4625726 L 4356389 4630679 L 4352376 4634292 L 4346651 4641384 L 4344565 4647138 L 4346118 4651553 L 4348045 4653693 L 4352273 4655699 L 4358214 4654226 L 4365865 4649273 L 4369878 4645660 L 4375603 4638568 L 4377689 4632814 L 4376136 4628399 L 4374209 4626259 M 4346651 4641384 L 4375603 4638568"/><path class="fil0 str2" d=" M 4350403 4667071 L 4331132 4645669"/><path class="fil0 str2" d=" M 4390589 4644451 L 4362498 4669745 M 4388662 4642311 L 4392516 4646592 M 4360571 4667604 L 4364425 4671885"/><path class="fil0 str2" d=" M 4395838 4661041 L 4399102 4661976 L 4406006 4661574 L 4377915 4686867"/>
  <path class="fil0 str2" d=" M 5542835 321070 L 5547434 320208 L 5551374 315524 L 5554654 307020 L 5555776 301738 L 5556239 292636 L 5554545 286755 L 5550693 284096 L 5547877 283497 L 5543276 284360 L 5539337 289043 L 5536057 297547 L 5534934 302829 L 5534472 311932 L 5536166 317812 L 5540017 320471 L 5542835 321070 M 5556239 292636 L 5534472 311932"/><path class="fil0 str2" d=" M 5538105 274059 L 5566276 280047"/><path class="fil0 str2" d=" M 5518889 315980 L 5526749 279006 M 5521707 316579 L 5516072 315382 M 5529566 279605 L 5523931 278408"/><path class="fil0 str2" d=" M 5504804 312986 L 5489310 309693 L 5500756 297404 L 5496530 296506 L 5494087 294147 L 5493052 292086 L 5492767 286505 L 5493515 282984 L 5496047 278001 L 5499612 275079 L 5504212 274216 L 5508438 275114 L 5512289 277773 L 5513323 279833 L 5513983 283654"/>
  <path class="fil0 str2" d=" M 4451037 3595630 L 4455637 3594767 L 4459577 3590084 L 4462857 3581580 L 4463980 3576298 L 4464442 3567195 L 4462748 3561315 L 4458896 3558656 L 4456079 3558057 L 4451480 3558919 L 4447540 3563603 L 4444260 3572107 L 4443137 3577389 L 4442675 3586491 L 4444369 3592372 L 4448220 3595031 L 4451037 3595630 M 4464442 3567195 L 4442675 3586491"/><path class="fil0 str2" d=" M 4446308 3548619 L 4474479 3554607"/><path class="fil0 str2" d=" M 4418641 3588744 L 4424629 3560573 L 4427160 3555590 L 4428943 3554129 L 4432134 3552967 L 4434951 3553566 L 4437394 3555925 L 4438428 3557986 L 4438714 3563567 L 4437966 3567088"/><path class="fil0 str2" d=" M 4396105 3583953 L 4415429 3562298 L 4394301 3557807 M 4396105 3583953 L 4403964 3546979"/>
  <path class="fil0 str2" d=" M 1093064 4434940 L 1095501 4430944 L 1094657 4424883 L 1090532 4416755 L 1087358 4412387 L 1080903 4405952 L 1075399 4403276 L 1070846 4404359 L 1068516 4406052 L 1066079 4410047 L 1066923 4416109 L 1071048 4424236 L 1074222 4428605 L 1080677 4435040 L 1086181 4437716 L 1090734 4436632 L 1093064 4434940 M 1080903 4405952 L 1080677 4435040"/><path class="fil0 str2" d=" M 1054964 4406998 L 1078264 4390070"/><path class="fil0 str2" d=" M 1069765 4451868 L 1072202 4447872 L 1071358 4441811 L 1067232 4433683 L 1064058 4429315 L 1057603 4422880 L 1052099 4420204 L 1047546 4421287 L 1045216 4422980 L 1042779 4426976 L 1043624 4433037 L 1047749 4441164 L 1050923 4445533 L 1057378 4451968 L 1062882 4454644 L 1067435 4453561 L 1069765 4451868 M 1057603 4422880 L 1057378 4451968"/><path class="fil0 str2" d=" M 1031855 4468286 L 1035136 4470352 L 1039582 4471572 L 1042970 4471335 L 1047630 4467950 L 1048902 4464801 L 1049116 4460195 L 1048165 4456437 L 1046156 4451221 L 1040866 4443940 L 1036527 4440418 L 1033246 4438352 L 1028800 4437132 L 1025412 4437369 L 1020752 4440755 L 1019480 4443904 L 1019266 4448509 L 1020217 4452268"/>
  <path class="fil0 str2" d=" M 560480 198400 L 556160 200200 L 553279 205599 L 551839 214599 L 551839 220000 L 553279 228999 L 556160 234400 L 560480 236200 L 563359 236200 L 567680 234400 L 570559 228999 L 572000 220000 L 572000 214599 L 570559 205599 L 567680 200200 L 563359 198400 L 560480 198400 M 553279 228999 L 570559 205599"/><path class="fil0 str2" d=" M 574879 243400 L 546080 243400"/><path class="fil0 str2" d=" M 602239 207399 L 600800 203799 L 597919 200200 L 595040 198400 L 589280 198400 L 586399 200200 L 583520 203799 L 582080 207399 L 580639 212800 L 580639 221800 L 582080 227199 L 583520 230799 L 586399 234400 L 589280 236200 L 595040 236200 L 597919 234400 L 600800 230799 L 602239 227199"/><path class="fil0 str2" d=" M 612319 198400 L 628160 198400 L 619519 212800 L 623839 212800 L 626720 214599 L 628160 216399 L 629599 221800 L 629599 225400 L 628160 230799 L 625279 234400 L 620960 236200 L 616640 236200 L 612319 234400 L 610880 232600 L 609440 228999"/>
  <path class="fil0 str2" d=" M 3677587 1566412 L 3674373 1569813 L 3673938 1575918 L 3676283 1584726 L 3678480 1589659 L 3683456 1597295 L 3688283 1601057 L 3692962 1600944 L 3695593 1599773 L 3698807 1596371 L 3699242 1590267 L 3696897 1581459 L 3694700 1576526 L 3689724 1568890 L 3684897 1565128 L 3680218 1565241 L 3677587 1566412 M 3683456 1597295 L 3689724 1568890"/><path class="fil0 str2" d=" M 3709046 1601665 L 3682735 1613379"/><path class="fil0 str2" d=" M 3702879 1563033 L 3704778 1560217 L 3706528 1553527 L 3721903 1588059"/><path class="fil0 str2" d=" M 3744392 1546520 L 3741612 1543817 L 3737517 1541700 L 3734154 1541227 L 3728892 1543570 L 3726993 1546385 L 3725826 1550846 L 3725975 1554720 L 3726856 1560239 L 3730516 1568461 L 3734028 1572808 L 3736808 1575511 L 3740903 1577629 L 3744266 1578102 L 3749529 1575759 L 3751427 1572943 L 3752594 1568483 L 3752445 1564608"/>
  <path class="fil0 str2" d=" M 618902 1406682 L 615687 1410083 L 615253 1416188 L 617598 1424996 L 619794 1429929 L 624770 1437565 L 629598 1441327 L 634276 1441214 L 636907 1440043 L 640122 1436641 L 640557 1430537 L 638211 1421729 L 636015 1416796 L 631039 1409160 L 626212 1405398 L 621533 1405511 L 618902 1406682 M 624770 1437565 L 631039 1409160"/><path class="fil0 str2" d=" M 650360 1441935 L 624050 1453649"/><path class="fil0 str2" d=" M 650474 1392625 L 647569 1421504 L 667301 1412718 M 650474 1392625 L 665849 1427157"/><path class="fil0 str2" d=" M 675469 1381497 L 672563 1410375 L 692296 1401590 M 675469 1381497 L 690843 1416029"/>
  <path class="fil0 str2" d=" M 3157337 5160859 L 3161937 5159996 L 3165877 5155313 L 3169157 5146809 L 3170280 5141527 L 3170742 5132424 L 3169048 5126544 L 3165196 5123884 L 3162379 5123286 L 3157780 5124148 L 3153840 5128831 L 3150560 5137335 L 3149437 5142617 L 3148975 5151720 L 3150669 5157601 L 3154520 5160260 L 3157337 5160859 M 3170742 5132424 L 3148975 5151720"/><path class="fil0 str2" d=" M 3152608 5113848 L 3180779 5119836"/><path class="fil0 str2" d=" M 3136210 5156368 L 3144068 5119394 M 3144068 5119394 L 3127166 5115801"/><path class="fil0 str2" d=" M 3113673 5151577 L 3121532 5114603 M 3113673 5151577 L 3095362 5147685 M 3117415 5133971 L 3106147 5131575 M 3121532 5114603 L 3103221 5110711"/>
  <path class="fil0 str2" d=" M 4494974 278554 L 4498825 275895 L 4500520 270014 L 4500057 260912 L 4498934 255630 L 4495655 247126 L 4491715 242442 L 4487115 241580 L 4484298 242179 L 4480447 244838 L 4478753 250718 L 4479215 259821 L 4480338 265103 L 4483618 273607 L 4487557 278290 L 4492157 279153 L 4494974 278554 M 4495655 247126 L 4483618 273607"/><path class="fil0 str2" d=" M 4471533 237531 L 4499703 231543"/><path class="fil0 str2" d=" M 4461170 285739 L 4470015 258096 L 4448887 262587 M 4461170 285739 L 4453310 248765"/><path class="fil0 str2" d=" M 4445676 289033 L 4430182 292326 L 4435639 276444 L 4431413 277343 L 4428222 276181 L 4426439 274719 L 4423908 269737 L 4423160 266215 L 4423446 260634 L 4425514 256514 L 4429365 253855 L 4433591 252957 L 4438191 253819 L 4439974 255281 L 4442131 258503"/>
  <path class="fil0 str2" d=" M 2776717 3660273 L 2773670 3656720 L 2767645 3655650 L 2758640 3657062 L 2753505 3658730 L 2745390 3662881 L 2741145 3667289 L 2740767 3671954 L 2741658 3674692 L 2744704 3678245 L 2750730 3679315 L 2759734 3677904 L 2764870 3676235 L 2772985 3672084 L 2777230 3667677 L 2777607 3663012 L 2776717 3660273 M 2745390 3662881 L 2772985 3672084"/><path class="fil0 str2" d=" M 2738370 3687874 L 2729470 3660483"/><path class="fil0 str2" d=" M 2784282 3683554 L 2748332 3695235 M 2783392 3680816 L 2786507 3690402 L 2786130 3695067 L 2783596 3698919 L 2780617 3701401 L 2775927 3704439 L 2767367 3707220 L 2761787 3707519 L 2757918 3707262 L 2753604 3705635 L 2750557 3702083 L 2747442 3692496"/><path class="fil0 str2" d=" M 2794517 3715054 L 2791470 3711501 L 2785444 3710431 L 2776440 3711842 L 2771304 3713511 L 2763190 3717662 L 2758944 3722070 L 2758567 3726734 L 2759457 3729473 L 2762504 3733026 L 2768529 3734096 L 2777534 3732684 L 2782669 3731016 L 2790784 3726865 L 2795030 3722457 L 2795407 3717793 L 2794517 3715054 M 2763190 3717662 L 2790784 3726865"/>
  <path class="fil0 str2" d=" M 4277331 1069515 L 4274117 1072916 L 4273682 1079021 L 4276028 1087828 L 4278224 1092762 L 4283200 1100398 L 4288027 1104160 L 4292706 1104047 L 4295337 1102875 L 4298551 1099474 L 4298986 1093369 L 4296641 1084562 L 4294445 1079629 L 4289468 1071992 L 4284641 1068231 L 4279963 1068343 L 4277331 1069515 M 4283200 1100398 L 4289468 1071992"/><path class="fil0 str2" d=" M 4308790 1104767 L 4282480 1116481"/><path class="fil0 str2" d=" M 4319142 1060751 L 4316362 1058048 L 4312267 1055931 L 4308904 1055458 L 4303641 1057801 L 4301743 1060617 L 4300576 1065077 L 4300725 1068951 L 4301606 1074470 L 4305266 1082692 L 4308778 1087039 L 4311558 1089742 L 4315653 1091860 L 4319016 1092333 L 4324278 1089990 L 4326177 1087174 L 4327344 1082714 L 4327195 1078840"/><path class="fil0 str2" d=" M 4328934 1054421 L 4330833 1051606 L 4332583 1044915 L 4347957 1079447"/>
  <path class="fil0 str2" d=" M 547017 2469326 L 551617 2468464 L 555556 2463780 L 558836 2455276 L 559959 2449994 L 560421 2440892 L 558727 2435011 L 554876 2432352 L 552059 2431753 L 547459 2432616 L 543519 2437299 L 540239 2445803 L 539117 2451085 L 538654 2460188 L 540348 2466069 L 544200 2468727 L 547017 2469326 M 560421 2440892 L 538654 2460188"/><path class="fil0 str2" d=" M 542287 2422316 L 570458 2428303"/><path class="fil0 str2" d=" M 523072 2464236 L 530931 2427263 M 525889 2464835 L 520255 2463638 M 533748 2427861 L 528114 2426664"/><path class="fil0 str2" d=" M 512266 2452739 L 511892 2454499 L 509735 2457721 L 507952 2459182 L 504761 2460344 L 499127 2459147 L 496684 2456787 L 495649 2454727 L 494989 2450906 L 495738 2447385 L 497895 2444163 L 501835 2439480 L 519662 2424867 L 499943 2420676"/>
  <path class="fil0 str2" d=" M 4229058 2594899 L 4224380 2594787 L 4219552 2598548 L 4214576 2606185 L 4212380 2611118 L 4210035 2619925 L 4210469 2626030 L 4213684 2629432 L 4216315 2630603 L 4220993 2630716 L 4225821 2626954 L 4230797 2619318 L 4232993 2614385 L 4235338 2605577 L 4234904 2599472 L 4231689 2596071 L 4229058 2594899 M 4210035 2619925 L 4235338 2605577"/><path class="fil0 str2" d=" M 4223910 2641866 L 4197600 2630152"/><path class="fil0 str2" d=" M 4251422 2604856 L 4236047 2639389 M 4248791 2603685 L 4260631 2608956 L 4263845 2612358 L 4264428 2614588 L 4264280 2618462 L 4262815 2621751 L 4260036 2624454 L 4257988 2625513 L 4253309 2625400 M 4244101 2621300 L 4253309 2625400 L 4256524 2628802 L 4257107 2631032 L 4256958 2634906 L 4254762 2639839 L 4251982 2642542 L 4249934 2643601 L 4245256 2643488 L 4233416 2638217"/><path class="fil0 str2" d=" M 4286941 2620670 L 4263536 2637835 L 4283268 2646620 M 4286941 2620670 L 4271566 2655202"/>
  <path class="fil0 str2" d=" M 2898419 3163377 L 2903019 3162514 L 2906959 3157831 L 2910239 3149327 L 2911361 3144045 L 2911824 3134942 L 2910130 3129061 L 2906278 3126403 L 2903461 3125804 L 2898861 3126666 L 2894922 3131350 L 2891642 3139854 L 2890519 3145136 L 2890057 3154238 L 2891751 3160119 L 2895602 3162778 L 2898419 3163377 M 2911824 3134942 L 2890057 3154238"/><path class="fil0 str2" d=" M 2893690 3116366 L 2921861 3122354"/><path class="fil0 str2" d=" M 2877291 3158886 L 2885151 3121912 M 2885151 3121912 L 2868248 3118319"/><path class="fil0 str2" d=" M 2836907 3141101 L 2837567 3144921 L 2839635 3149042 L 2842078 3151401 L 2847712 3152598 L 2850903 3151437 L 2854469 3148514 L 2856626 3145292 L 2859157 3140310 L 2861029 3131506 L 2860743 3125925 L 2860083 3122104 L 2858014 3117984 L 2855571 3115625 L 2849937 3114427 L 2846746 3115589 L 2843180 3118511 L 2841023 3121733"/>
  <path class="fil0 str2" d=" M 3915036 2936728 L 3910357 2936615 L 3905530 2940377 L 3900554 2948013 L 3898357 2952946 L 3896012 2961754 L 3896447 2967858 L 3899661 2971260 L 3902292 2972431 L 3906971 2972544 L 3911798 2968782 L 3916774 2961146 L 3918971 2956213 L 3921316 2947405 L 3920881 2941300 L 3917667 2937899 L 3915036 2936728 M 3896012 2961754 L 3921316 2947405"/><path class="fil0 str2" d=" M 3909888 2983694 L 3883578 2971980"/><path class="fil0 str2" d=" M 3934768 2945513 L 3919394 2980045 M 3919394 2980045 L 3935180 2987074"/><path class="fil0 str2" d=" M 3958447 2956056 L 3943073 2990588 M 3955816 2954884 L 3965025 2958984 L 3968240 2962386 L 3969406 2966846 L 3969257 2970720 L 3968377 2976239 L 3964716 2984461 L 3961204 2988809 L 3958424 2991512 L 3954329 2993629 L 3949650 2993516 L 3940442 2989416"/>
  <path class="fil0 str2" d=" M 4204887 5309782 L 4200208 5309669 L 4195381 5313431 L 4190405 5321067 L 4188208 5326000 L 4185863 5334808 L 4186298 5340913 L 4189512 5344314 L 4192143 5345485 L 4196822 5345598 L 4201649 5341836 L 4206625 5334200 L 4208822 5329267 L 4211167 5320459 L 4210732 5314355 L 4207518 5310953 L 4204887 5309782 M 4185863 5334808 L 4211167 5320459"/><path class="fil0 str2" d=" M 4199739 5356749 L 4173429 5345034"/><path class="fil0 str2" d=" M 4224322 5326317 L 4227685 5325844 L 4233828 5322667 L 4218453 5357199"/><path class="fil0 str2" d=" M 4256192 5332624 L 4230293 5362471 M 4256192 5332624 L 4251341 5371842 M 4239364 5352717 L 4252519 5358574"/>
  <path class="fil0 str2" d=" M 4142527 3946562 L 4137849 3946449 L 4133021 3950211 L 4128045 3957847 L 4125849 3962780 L 4123504 3971588 L 4123938 3977692 L 4127153 3981094 L 4129784 3982265 L 4134462 3982378 L 4139290 3978616 L 4144266 3970980 L 4146462 3966047 L 4148807 3957239 L 4148373 3951134 L 4145158 3947733 L 4142527 3946562 M 4123504 3971588 L 4148807 3957239"/><path class="fil0 str2" d=" M 4137379 3993528 L 4111069 3981814"/><path class="fil0 str2" d=" M 4158599 3963569 L 4159331 3961925 L 4162111 3959222 L 4164159 3958163 L 4167522 3957690 L 4172784 3960033 L 4174683 3962849 L 4175266 3965079 L 4175118 3968953 L 4173653 3972242 L 4170874 3974945 L 4166046 3978707 L 4145570 3989293 L 4163987 3997493"/><path class="fil0 str2" d=" M 4204356 3974089 L 4175827 4002765 M 4185939 3965890 L 4204356 3974089"/>
  <path class="fil0 str2" d=" M 2845260 2637880 L 2843921 2633395 L 2838852 2629967 L 2830051 2627594 L 2824681 2627029 L 2815580 2627521 L 2809909 2629820 L 2807667 2633929 L 2807366 2636793 L 2808704 2641277 L 2813774 2644706 L 2822574 2647079 L 2827944 2647643 L 2837045 2647152 L 2842717 2644852 L 2844959 2640744 L 2845260 2637880 M 2815580 2627521 L 2837045 2647152"/><path class="fil0 str2" d=" M 2799001 2647497 L 2802011 2618855"/><path class="fil0 str2" d=" M 2843002 2659361 L 2805409 2655410 M 2805409 2655410 L 2803603 2672596"/><path class="fil0 str2" d=" M 2840292 2685140 L 2802699 2681188 M 2840593 2682275 L 2839239 2695164 L 2836997 2699273 L 2835057 2700516 L 2831326 2701572 L 2827745 2701196 L 2824316 2699388 L 2822676 2697767 L 2821337 2693283 M 2822391 2683258 L 2821337 2693283 L 2819096 2697391 L 2817155 2698635 L 2813424 2699691 L 2808054 2699126 L 2804624 2697318 L 2802984 2695698 L 2801646 2691213 L 2803001 2678324"/>
  <path class="fil0 str2" d=" M 2762422 5516950 L 2766975 5518033 L 2772479 5515357 L 2778934 5508922 L 2782108 5504554 L 2786233 5496427 L 2787077 5490364 L 2784641 5486369 L 2782311 5484677 L 2777758 5483593 L 2772254 5486269 L 2765798 5492704 L 2762624 5497073 L 2758499 5505200 L 2757655 5511262 L 2760092 5515257 L 2762422 5516950 M 2786233 5496427 L 2758499 5505200"/><path class="fil0 str2" d=" M 2777223 5472080 L 2800522 5489008"/><path class="fil0 str2" d=" M 2734463 5496636 L 2760924 5484713 L 2743450 5472017 M 2734463 5496636 L 2756681 5466055"/><path class="fil0 str2" d=" M 2728103 5480891 L 2727045 5482347 L 2723764 5484413 L 2721541 5485023 L 2718153 5484786 L 2713493 5481401 L 2712221 5478252 L 2712114 5475949 L 2713065 5472190 L 2715181 5469278 L 2718462 5467212 L 2723966 5464536 L 2746196 5458438 L 2729886 5446588"/>
  <path class="fil0 str2" d=" M 5180547 2614013 L 5179208 2609529 L 5174140 2606100 L 5165339 2603727 L 5159968 2603163 L 5150867 2603654 L 5145196 2605954 L 5142954 2610062 L 5142653 2612926 L 5143992 2617410 L 5149061 2620839 L 5157861 2623212 L 5163232 2623777 L 5172333 2623285 L 5178004 2620986 L 5180246 2616877 L 5180547 2614013 M 5150867 2603654 L 5172333 2623285"/><path class="fil0 str2" d=" M 5134288 2623630 L 5137299 2594988"/><path class="fil0 str2" d=" M 5178289 2635495 L 5140697 2631543 M 5140697 2631543 L 5138890 2648729"/><path class="fil0 str2" d=" M 5175128 2665569 L 5138740 2650161 M 5175128 2665569 L 5136331 2673075 M 5150819 2655774 L 5149314 2670095"/>
  <path class="fil0 str2" d=" M 1020564 4982705 L 1025164 4981843 L 1029104 4977160 L 1032383 4968656 L 1033506 4963374 L 1033969 4954271 L 1032275 4948390 L 1028423 4945732 L 1025606 4945133 L 1021006 4945995 L 1017066 4950679 L 1013787 4959183 L 1012664 4964465 L 1012201 4973567 L 1013896 4979448 L 1017747 4982107 L 1020564 4982705 M 1033969 4954271 L 1012201 4973567"/><path class="fil0 str2" d=" M 1015835 4935695 L 1044005 4941683"/><path class="fil0 str2" d=" M 1001307 4969411 L 1000933 4971172 L 998776 4974394 L 996993 4975855 L 993802 4977017 L 988168 4975820 L 985725 4973460 L 984691 4971400 L 984031 4967579 L 984779 4964058 L 986936 4960836 L 990876 4956153 L 1008704 4941540 L 988984 4937348"/><path class="fil0 str2" d=" M 956894 4963652 L 957554 4967472 L 961406 4970131 L 964223 4970730 L 968823 4969867 L 972762 4965184 L 976042 4956680 L 977913 4947877 L 978002 4940535 L 975933 4936415 L 972082 4933756 L 970673 4933457 L 966073 4934319 L 962508 4937242 L 959977 4942224 L 959602 4943985 L 959888 4949566 L 961957 4953686 L 965808 4956345 L 967217 4956644 L 971817 4955782 L 975382 4952860 L 977913 4947877"/>
  <path class="fil0 str2" d=" M 1047133 5395752 L 1045795 5391268 L 1040725 5387839 L 1031925 5385466 L 1026555 5384902 L 1017454 5385393 L 1011782 5387693 L 1009540 5391801 L 1009239 5394665 L 1010578 5399150 L 1015647 5402578 L 1024448 5404951 L 1029818 5405516 L 1038919 5405025 L 1044591 5402725 L 1046832 5398616 L 1047133 5395752 M 1017454 5385393 L 1038919 5405025"/><path class="fil0 str2" d=" M 1000875 5405369 L 1003885 5376727"/><path class="fil0 str2" d=" M 1044876 5417234 L 1007283 5413283 M 1007283 5413283 L 1005476 5430468"/><path class="fil0 str2" d=" M 1028130 5456016 L 1022910 5454019 L 1019631 5450779 L 1018292 5446295 L 1018443 5444862 L 1020684 5440754 L 1024566 5438266 L 1030087 5437399 L 1031877 5437587 L 1037097 5439583 L 1040376 5442824 L 1041715 5447308 L 1041564 5448740 L 1039322 5452849 L 1035441 5455336 L 1028130 5456016 L 1019179 5455075 L 1010379 5452702 L 1005310 5449274 L 1003971 5444789 L 1004272 5441925 L 1006514 5437817 L 1010245 5436761"/>
  <path class="fil0 str2" d=" M 1056094 3875481 L 1054755 3870997 L 1049686 3867568 L 1040886 3865195 L 1035515 3864631 L 1026414 3865122 L 1020743 3867422 L 1018501 3871530 L 1018200 3874394 L 1019538 3878879 L 1024608 3882307 L 1033408 3884680 L 1038778 3885245 L 1047880 3884753 L 1053551 3882453 L 1055793 3878345 L 1056094 3875481 M 1026414 3865122 L 1047880 3884753"/><path class="fil0 str2" d=" M 1009835 3885098 L 1012846 3856456"/><path class="fil0 str2" d=" M 1042778 3916072 L 1046509 3915016 L 1050390 3912528 L 1052481 3909852 L 1053083 3904123 L 1051594 3901071 L 1048315 3897830 L 1044885 3896022 L 1039665 3894025 L 1030715 3893085 L 1025194 3893952 L 1021463 3895008 L 1017582 3897496 L 1015491 3900172 L 1014888 3905901 L 1016378 3908953 L 1019657 3912193 L 1023087 3914002"/><path class="fil0 str2" d=" M 1050073 3932766 L 1048734 3928281 L 1043665 3924852 L 1034865 3922480 L 1029495 3921915 L 1020393 3922406 L 1014722 3924706 L 1012480 3928815 L 1012179 3931679 L 1013518 3936163 L 1018587 3939592 L 1027387 3941965 L 1032758 3942529 L 1041859 3942038 L 1047530 3939738 L 1049772 3935630 L 1050073 3932766 M 1020393 3922406 L 1041859 3942038"/>
  <path class="fil0 str2" d=" M 2895827 1541560 L 2891148 1541447 L 2886320 1545209 L 2881344 1552845 L 2879148 1557778 L 2876803 1566586 L 2877237 1572690 L 2880452 1576092 L 2883083 1577263 L 2887761 1577376 L 2892589 1573614 L 2897565 1565978 L 2899761 1561045 L 2902106 1552237 L 2901672 1546132 L 2898457 1542731 L 2895827 1541560 M 2876803 1566586 L 2902106 1552237"/><path class="fil0 str2" d=" M 2890678 1588526 L 2864368 1576812"/><path class="fil0 str2" d=" M 2926083 1555031 L 2914369 1581341 L 2910857 1585688 L 2908810 1586747 L 2905446 1587220 L 2902815 1586049 L 2900917 1583233 L 2900333 1581003 L 2901214 1575484 L 2902678 1572195"/><path class="fil0 str2" d=" M 2936607 1559716 L 2951078 1566159 L 2937328 1575800 L 2941274 1577557 L 2943173 1580373 L 2943757 1582603 L 2942875 1588122 L 2941411 1591410 L 2937899 1595758 L 2933804 1597875 L 2929125 1597763 L 2925179 1596006 L 2921965 1592604 L 2921381 1590374 L 2921530 1586499"/>
  <path class="fil0 str2" d=" M 1037405 286457 L 1039646 290566 L 1045318 292865 L 1054419 293357 L 1059789 292792 L 1068590 290419 L 1073659 286991 L 1074997 282506 L 1074696 279642 L 1072455 275534 L 1066783 273234 L 1057682 272743 L 1052312 273307 L 1043511 275680 L 1038442 279109 L 1037103 283593 L 1037405 286457 M 1068590 290419 L 1043511 275680"/><path class="fil0 str2" d=" M 1080653 267433 L 1083663 296075"/><path class="fil0 str2" d=" M 1035147 264976 L 1072740 261025 M 1033039 244926 L 1060209 262342 M 1050505 256122 L 1070632 240975"/><path class="fil0 str2" d=" M 1030179 217716 L 1069278 228086 M 1032287 237766 L 1030179 217716"/>
  <path class="fil0 str2" d=" M 2952701 4171574 L 2955138 4167579 L 2954294 4161517 L 2950169 4153389 L 2946995 4149021 L 2940540 4142586 L 2935036 4139910 L 2930483 4140993 L 2928153 4142686 L 2925716 4146681 L 2926560 4152743 L 2930685 4160870 L 2933859 4165239 L 2940314 4171674 L 2945818 4174350 L 2950371 4173267 L 2952701 4171574 M 2940540 4142586 L 2940314 4171674"/><path class="fil0 str2" d=" M 2914601 4143632 L 2937901 4126704"/><path class="fil0 str2" d=" M 2934061 4185116 L 2921247 4194427 L 2919772 4177699 L 2916278 4180238 L 2912890 4180474 L 2910667 4179865 L 2906328 4176342 L 2904212 4173430 L 2902203 4168215 L 2902416 4163609 L 2904853 4159614 L 2908348 4157075 L 2912901 4155992 L 2915124 4156602 L 2918405 4158668"/><path class="fil0 str2" d=" M 2911927 4201198 L 2899112 4210509 L 2897638 4193780 L 2894143 4196320 L 2890755 4196556 L 2888532 4195946 L 2884193 4192424 L 2882077 4189512 L 2880068 4184297 L 2880282 4179691 L 2882719 4175696 L 2886213 4173157 L 2890766 4172074 L 2892990 4172684 L 2896271 4174750"/>
  <path class="fil0 str2" d=" M 3582231 5387238 L 3582832 5382597 L 3579595 5377402 L 3572521 5371655 L 3567845 5368956 L 3559330 5365703 L 3553214 5365497 L 3549495 5368338 L 3548055 5370832 L 3547454 5375473 L 3550690 5380667 L 3557765 5386414 L 3562441 5389114 L 3570955 5392368 L 3577072 5392573 L 3580791 5389732 L 3582231 5387238 M 3559330 5365703 L 3570955 5392368"/><path class="fil0 str2" d=" M 3536060 5377209 L 3550460 5352267"/><path class="fil0 str2" d=" M 3567831 5412180 L 3568432 5407539 L 3565195 5402344 L 3558121 5396597 L 3553445 5393897 L 3544930 5390644 L 3538814 5390438 L 3535095 5393280 L 3533655 5395773 L 3533054 5400415 L 3536290 5405609 L 3543365 5411356 L 3548041 5414056 L 3556555 5417309 L 3562672 5417515 L 3566391 5414674 L 3567831 5412180 M 3544930 5390644 L 3556555 5417309"/><path class="fil0 str2" d=" M 3549831 5443356 L 3557031 5430886 L 3543721 5421539 L 3544560 5423685 L 3543959 5428327 L 3541799 5432068 L 3538080 5434909 L 3533522 5435604 L 3528126 5434151 L 3525008 5432351 L 3521051 5428403 L 3519374 5424110 L 3519975 5419468 L 3522135 5415727 L 3525854 5412886 L 3528133 5412539 L 3531970 5413092"/>
  <path class="fil0 str2" d=" M 5125061 3046261 L 5123723 3041776 L 5118653 3038348 L 5109853 3035975 L 5104483 3035410 L 5095381 3035902 L 5089710 3038201 L 5087468 3042310 L 5087167 3045174 L 5088506 3049658 L 5093575 3053087 L 5102375 3055460 L 5107745 3056024 L 5116847 3055533 L 5122518 3053233 L 5124760 3049125 L 5125061 3046261 M 5095381 3035902 L 5116847 3055533"/><path class="fil0 str2" d=" M 5078802 3055878 L 5081813 3027236"/><path class="fil0 str2" d=" M 5122803 3067742 L 5085210 3063791 M 5120696 3087792 L 5097741 3065108 M 5105939 3073210 L 5083103 3083841"/><path class="fil0 str2" d=" M 5118137 3112138 L 5119642 3097817 L 5103681 3094691 L 5105321 3096312 L 5106660 3100796 L 5106208 3105093 L 5103966 3109201 L 5100085 3111689 L 5094564 3112556 L 5090984 3112180 L 5085764 3110183 L 5082485 3106943 L 5081146 3102458 L 5081598 3098162 L 5083840 3094054 L 5085780 3092810 L 5089511 3091754"/>
  <path class="fil0 str2" d=" M 4128551 2003795 L 4133151 2002933 L 4137091 1998250 L 4140370 1989746 L 4141493 1984464 L 4141956 1975361 L 4140261 1969480 L 4136410 1966822 L 4133593 1966223 L 4128993 1967085 L 4125054 1971768 L 4121773 1980272 L 4120651 1985554 L 4120188 1994657 L 4121882 2000538 L 4125734 2003197 L 4128551 2003795 M 4141956 1975361 L 4120188 1994657"/><path class="fil0 str2" d=" M 4123822 1956785 L 4151992 1962773"/><path class="fil0 str2" d=" M 4107423 1999305 L 4115282 1962331 M 4087704 1995113 L 4112662 1974655 M 4103749 1981962 L 4095563 1958139"/><path class="fil0 str2" d=" M 4066575 1990622 L 4085900 1968967 L 4064772 1964476 M 4066575 1990622 L 4074435 1953648"/>
  <path class="fil0 str2" d=" M 5096689 1864584 L 5100408 1867425 L 5106524 1867220 L 5115039 1863967 L 5119715 1861267 L 5126789 1855520 L 5130026 1850325 L 5129425 1845684 L 5127985 1843190 L 5124266 1840349 L 5118149 1840555 L 5109635 1843807 L 5104958 1846508 L 5097884 1852255 L 5094648 1857449 L 5095249 1862090 L 5096689 1864584 M 5126789 1855520 L 5097884 1852255"/><path class="fil0 str2" d=" M 5128460 1829613 L 5142860 1854555"/><path class="fil0 str2" d=" M 5085169 1844631 L 5077249 1830913 L 5094040 1831195 L 5091880 1827454 L 5091998 1824060 L 5092837 1821913 L 5096794 1817966 L 5099912 1816166 L 5105308 1814713 L 5109866 1815407 L 5113585 1818248 L 5115745 1821990 L 5116346 1826631 L 5115507 1828778 L 5113109 1831825"/><path class="fil0 str2" d=" M 5068609 1815948 L 5072328 1818789 L 5078444 1818583 L 5086958 1815331 L 5091635 1812631 L 5098709 1806884 L 5101946 1801689 L 5101345 1797048 L 5099905 1794554 L 5096186 1791713 L 5090069 1791919 L 5081555 1795171 L 5076878 1797872 L 5069804 1803619 L 5066568 1808813 L 5067169 1813454 L 5068609 1815948 M 5098709 1806884 L 5069804 1803619"/>
  </g>
</svg>
