<?xml version="1.0" encoding="UTF-8"?>
<!DOCTYPE svg PUBLIC "-//W3C//DTD SVG 1.1//EN" "http://www.w3.org/Graphics/SVG/1.1/DTD/svg11.dtd">
<svg xmlns="http://www.w3.org/2000/svg"
     xmlns:xlink="http://www.w3.org/1999/xlink"
     version="1.1" baseProfile="full"
     width="304.8mm" height="177.8mm"
     viewBox="0 0 3048000 1778000">
  <defs>
    <style type="text/css">
      <![CDATA[
        .str0 {stroke:red; stroke-width:1}
        .str1 {stroke:green; stroke-width:1}
        .str2 {stroke:black; stroke-width:1}
        .fil0 {fill:none}
        .fil1 {fill:black}
        .fil2 {fill:green}
        .fnt0 {text-anchor:'middle'; dominant-baseline:'central'; font-weight:normal; font-size:3pt; font-family:'Arial'; text-decoration:underline;}
      ]]>
    </style>
  </defs>
  <g id="Layer_x0020_1">
    <metadata id="CorelCorpID_0Corel-Layer"/>
    <rect class="str1" x="0" y="0" width="3.048e+06" height="1.778e+06" />
    <circle class="fil0 str1" cx="0" cy="0" r="50000" />
    <circle class="fil0 str1" cx="0" cy="0" r="50000" />
    <circle class="fil0 str1" cx="0" cy="0" r="50000" />
    <circle class="fil0 str1" cx="0" cy="0" r="50000" />
  </g>
  <g id="Layer_x0020_2">
    <metadata id="CorelCorpID_1Corel-Layer"/>
    <path class="fil0 str0" d="M 2167729 353892 C 2153095 493125, 2138461 632358, 2123827 771591 C 1984594 756957, 1845361 742323, 1706128 727689 C 1720762 588456, 1735396 449223, 1750030 309990 C 1889263 324624, 2028496 339258, 2167729 353892" />
    <path class="fil0 str0" d="M 4269690 30799 C 4312952 163947, 4356214 297095, 4399477 430243 C 4266329 473505, 4133181 516768, 4000033 560030 C 3956771 426882, 3913508 293734, 3870246 160587 C 4003394 117324, 4136542 74062, 4269690 30799" />
    <path class="fil0 str0" d="M 4891274 679027 C 4754333 649919, 4617393 620811, 4480452 591704 C 4509560 454763, 4538667 317822, 4567775 180882 C 4704716 209989, 4841656 239097, 4978597 268205 C 4949489 405145, 4920382 542086, 4891274 679027" />
    <path class="fil0 str0" d="M 3269488 661454 C 3132547 632347, 2995606 603239, 2858666 574131 C 2887773 437191, 2916881 300250, 2945989 163309 C 3082929 192417, 3219870 221525, 3356811 250632 C 3327703 387573, 3298595 524514, 3269488 661454" />
    <path class="fil0 str0" d="M 2229783 286207 C 2357679 229264, 2485576 172321, 2613472 115378 C 2670415 243274, 2727358 371171, 2784302 499067 C 2656405 556010, 2528509 612953, 2400612 669897 C 2343669 542000, 2286726 414104, 2229783 286207" />
    <path class="fil0 str0" d="M 1759220 1280129 C 1802482 1146981, 1845744 1013834, 1889007 880686 C 2022155 923948, 2155303 967210, 2288450 1010473 C 2245188 1143621, 2201926 1276769, 2158663 1409917 C 2025515 1366654, 1892368 1323392, 1759220 1280129" />
  </g>
  <g id="Layer_x0020_3">
    <metadata id="CorelCorpID_2Corel-Layer"/>
  <path class="fil0 str2" d=" M 1961345 515122 L 1960007 510638 L 1954937 507209 L 1946137 504836 L 1940767 504272 L 1931665 504763 L 1925994 507063 L 1923752 511171 L 1923451 514035 L 1924790 518520 L 1929859 521948 L 1938659 524321 L 1944030 524886 L 1953131 524394 L 1958802 522095 L 1961044 517986 L 1961345 515122 M 1931665 504763 L 1953131 524394"/><path class="fil0 str2" d=" M 1915086 524739 L 1918097 496097"/><path class="fil0 str2" d=" M 1958786 539468 L 1921193 535517 M 1959087 536604 L 1957733 549493 L 1955491 553601 L 1953550 554845 L 1949819 555901 L 1946239 555524 L 1942809 553716 L 1941170 552096 L 1939831 547611 M 1940885 537587 L 1939831 547611 L 1937589 551719 L 1935649 552963 L 1931918 554019 L 1926548 553455 L 1923118 551646 L 1921478 550026 L 1920140 545542 L 1921494 532653"/><path class="fil0 str2" d=" M 1955324 572407 L 1918936 556999 M 1955324 572407 L 1916527 579912 M 1931015 562612 L 1929510 576933"/>
  <path class="fil0 str2" d=" M 4146060 259980 L 4143013 256428 L 4136987 255357 L 4127983 256769 L 4122847 258438 L 4114732 262588 L 4110487 266996 L 4110110 271661 L 4111000 274400 L 4114047 277952 L 4120072 279023 L 4129077 277611 L 4134212 275942 L 4142327 271792 L 4146573 267384 L 4146950 262719 L 4146060 259980 M 4114732 262588 L 4142327 271792"/><path class="fil0 str2" d=" M 4107712 287581 L 4098812 260191"/><path class="fil0 str2" d=" M 4153624 283262 L 4117674 294943 M 4152734 280523 L 4156739 292849 L 4156362 297513 L 4155095 299439 L 4152117 301921 L 4148693 303034 L 4144824 302777 L 4142667 301963 L 4139620 298411 M 4136506 288824 L 4139620 298411 L 4139243 303076 L 4137976 305001 L 4134998 307483 L 4129862 309152 L 4125993 308895 L 4123836 308082 L 4120789 304529 L 4116784 292204"/><path class="fil0 str2" d=" M 4162524 310652 L 4126574 322333 M 4161634 307913 L 4165639 320239 L 4165262 324904 L 4163995 326830 L 4161016 329312 L 4157593 330424 L 4153724 330167 L 4151567 329354 L 4148520 325801 M 4145405 316215 L 4148520 325801 L 4148143 330466 L 4146876 332392 L 4143897 334874 L 4138762 336543 L 4134893 336286 L 4132736 335472 L 4129689 331920 L 4125684 319594"/>
  <path class="fil0 str2" d=" M 4754613 457369 L 4759213 456507 L 4763153 451824 L 4766432 443320 L 4767555 438038 L 4768018 428935 L 4766323 423054 L 4762472 420395 L 4759655 419797 L 4755055 420659 L 4751115 425342 L 4747835 433846 L 4746713 439128 L 4746250 448231 L 4747944 454112 L 4751796 456771 L 4754613 457369 M 4768018 428935 L 4746250 448231"/><path class="fil0 str2" d=" M 4749884 410359 L 4778054 416347"/><path class="fil0 str2" d=" M 4715637 439884 L 4716297 443704 L 4718365 447824 L 4720808 450184 L 4726442 451381 L 4729634 450220 L 4733199 447297 L 4735356 444075 L 4737887 439093 L 4739759 430289 L 4739473 424708 L 4738813 420887 L 4736744 416767 L 4734301 414407 L 4728667 413210 L 4725476 414372 L 4721911 417294 L 4719753 420516 L 4718630 425798 M 4725673 427295 L 4718630 425798"/><path class="fil0 str2" d=" M 4702497 446292 L 4710356 409318 M 4705314 446891 L 4695455 444795 L 4691603 442136 L 4689535 438016 L 4688875 434195 L 4688589 428614 L 4690460 419810 L 4692991 414828 L 4695148 411606 L 4698714 408683 L 4703314 407821 L 4713173 409917"/>
  <path class="fil0 str2" d=" M 3130714 439348 L 3135314 438486 L 3139253 433802 L 3142533 425298 L 3143656 420016 L 3144118 410914 L 3142424 405033 L 3138573 402374 L 3135756 401775 L 3131156 402638 L 3127216 407321 L 3123936 415825 L 3122814 421107 L 3122351 430210 L 3124045 436090 L 3127897 438749 L 3130714 439348 M 3144118 410914 L 3122351 430210"/><path class="fil0 str2" d=" M 3125984 392337 L 3154155 398325"/><path class="fil0 str2" d=" M 3109586 434857 L 3117445 397883 M 3109586 434857 L 3091275 430965 M 3113328 417250 L 3102060 414855 M 3117445 397883 L 3099134 393991"/><path class="fil0 str2" d=" M 3068738 426175 L 3082824 429169 L 3087600 413622 L 3085817 415083 L 3081218 415946 L 3076992 415048 L 3073141 412389 L 3071072 408269 L 3070786 402687 L 3071535 399166 L 3074066 394183 L 3077632 391261 L 3082231 390398 L 3086457 391297 L 3090308 393955 L 3091343 396015 L 3092003 399836"/>
  <path class="fil0 str2" d=" M 2471289 384912 L 2468074 388313 L 2467640 394418 L 2469985 403225 L 2472181 408158 L 2477157 415795 L 2481985 419556 L 2486663 419444 L 2489295 418272 L 2492509 414871 L 2492944 408766 L 2490598 399959 L 2488402 395025 L 2483426 387389 L 2478598 383628 L 2473920 383740 L 2471289 384912 M 2477157 415795 L 2483426 387389"/><path class="fil0 str2" d=" M 2502747 420164 L 2476437 431878"/><path class="fil0 str2" d=" M 2493652 374955 L 2509027 409487 M 2491021 376126 L 2502861 370855 L 2507540 370742 L 2509587 371801 L 2512367 374504 L 2513831 377793 L 2513980 381667 L 2513397 383897 L 2510182 387299 M 2500974 391399 L 2510182 387299 L 2514861 387186 L 2516909 388245 L 2519688 390948 L 2521885 395881 L 2522033 399755 L 2521450 401985 L 2518236 405387 L 2506396 410658"/><path class="fil0 str2" d=" M 2538242 368894 L 2539123 374413 L 2537957 378873 L 2534742 382275 L 2533427 382861 L 2528748 382973 L 2524653 380856 L 2521141 376508 L 2520409 374864 L 2519528 369345 L 2520695 364885 L 2523909 361484 L 2525225 360898 L 2529903 360785 L 2533999 362903 L 2538242 368894 L 2541903 377116 L 2544248 385924 L 2543814 392028 L 2540599 395430 L 2537968 396601 L 2533290 396714 L 2530510 394011"/>
  <path class="fil0 str2" d=" M 1994837 1164647 L 1995214 1169312 L 1999460 1173720 L 2007575 1177870 L 2012710 1179539 L 2021715 1180951 L 2027740 1179880 L 2030787 1176328 L 2031677 1173589 L 2031300 1168924 L 2027055 1164516 L 2018940 1160366 L 2013804 1158697 L 2004800 1157285 L 1998774 1158356 L 1995727 1161908 L 1994837 1164647 M 2021715 1180951 L 2004800 1157285"/><path class="fil0 str2" d=" M 2042085 1164858 L 2033185 1192248"/><path class="fil0 str2" d=" M 2003737 1137257 L 2036127 1159894 M 2003737 1137257 L 2043247 1137981 M 2025479 1151892 L 2029929 1138196"/><path class="fil0 str2" d=" M 2026400 1108282 L 2031091 1111320 L 2033625 1115172 L 2034002 1119836 L 2033557 1121206 L 2030510 1124758 L 2026196 1126385 L 2020615 1126086 L 2018903 1125529 L 2014213 1122491 L 2011679 1118640 L 2011302 1113975 L 2011747 1112605 L 2014794 1109053 L 2019107 1107426 L 2026400 1108282 L 2034960 1111063 L 2043074 1115214 L 2047320 1119621 L 2047697 1124286 L 2046807 1127025 L 2043760 1130578 L 2039891 1130835"/>
  </g>
</svg>
