<?xml version="1.0" encoding="UTF-8"?>
<!DOCTYPE svg PUBLIC "-//W3C//DTD SVG 1.1//EN" "http://www.w3.org/Graphics/SVG/1.1/DTD/svg11.dtd">
<svg xmlns="http://www.w3.org/2000/svg"
     xmlns:xlink="http://www.w3.org/1999/xlink"
     version="1.1" baseProfile="full"
     width="304.8mm" height="177.8mm"
     viewBox="0 0 3048000 1778000">
  <defs>
    <style type="text/css">
      <![CDATA[
        .str0 {stroke:red; stroke-width:1}
        .str1 {stroke:green; stroke-width:1}
        .str2 {stroke:black; stroke-width:1}
        .fil0 {fill:none}
        .fil1 {fill:black}
        .fil2 {fill:green}
        .fnt0 {text-anchor:'middle'; dominant-baseline:'central'; font-weight:normal; font-size:3pt; font-family:'Arial'; text-decoration:underline;}
      ]]>
    </style>
  </defs>
  <g id="Layer_x0020_1">
    <metadata id="CorelCorpID_0Corel-Layer"/>
    <rect class="str1" x="0" y="0" width="3.048e+06" height="1.778e+06" />
    <circle class="fil0 str1" cx="0" cy="0" r="50000" />
    <circle class="fil0 str1" cx="0" cy="0" r="50000" />
    <circle class="fil0 str1" cx="0" cy="0" r="50000" />
    <circle class="fil0 str1" cx="0" cy="0" r="50000" />
    <circle class="fil0 str1" cx="0" cy="0" r="50000" />
    <circle class="fil0 str1" cx="0" cy="0" r="50000" />
    <circle class="fil0 str1" cx="0" cy="0" r="50000" />
    <circle class="fil0 str1" cx="0" cy="0" r="50000" />
    <circle class="fil0 str1" cx="0" cy="0" r="50000" />
  </g>
  <g id="Layer_x0020_2">
    <metadata id="CorelCorpID_1Corel-Layer"/>
    <path class="fil0 str0" d="M 6643256 13442654 C 6154183 13338698, 5665109 13234742, 5176035 13130786 C 5279991 12641713, 5383947 12152639, 5487902 11663565 C 5976976 11767521, 6466050 11871477, 6955124 11975432 C 6851168 12464506, 6747212 12953580, 6643256 13442654" />
    <path class="fil0 str0" d="M 15495222 19607717 C 15245222 20040729, 14995222 20473742, 14745222 20906755 C 14312210 20656755, 13879197 20406755, 13446184 20156755 C 13696184 19723742, 13946184 19290730, 14196184 18857717 C 14629197 19107717, 15062209 19357717, 15495222 19607717" />
    <path class="fil0 str0" d="M 13403110 1079754 C 13557619 1555283, 13712127 2030811, 13866636 2506339 C 13391108 2660848, 12915579 2815356, 12440051 2969865 C 12285543 2494337, 12131034 2018808, 11976525 1543280 C 12452054 1388772, 12927582 1234263, 13403110 1079754" />
    <path class="fil0 str0" d="M 11053306 11772711 C 11001042 12269972, 10948778 12767232, 10896514 13264493 C 10399253 13212229, 9901992 13159965, 9404731 13107701 C 9456995 12610440, 9509259 12113179, 9561523 11615918 C 10058784 11668182, 10556045 11720446, 11053306 11772711" />
    <path class="fil0 str0" d="M 14240000 9860000 C 14740000 9859999, 15240000 9859999, 15740000 9860000 C 15740000 10360000, 15740000 10859999, 15740000 11360000 C 15240000 11360000, 14740000 11360000, 14240000 11360000 C 14240000 10859999, 14240000 10360000, 14240000 9860000" />
    <path class="fil0 str0" d="M 9668281 1440272 C 9418281 1873284, 9168281 2306297, 8918281 2739310 C 8485269 2489310, 8052256 2239310, 7619243 1989310 C 7869243 1556297, 8119243 1123285, 8369243 690272 C 8802256 940272, 9235268 1190272, 9668281 1440272" />
    <path class="fil0 str0" d="M 12277874 3914081 C 12734647 4117449, 13191420 4320817, 13648193 4524186 C 13444824 4980958, 13241456 5437731, 13038088 5894504 C 12581315 5691136, 12124542 5487767, 11667770 5284399 C 11871138 4827626, 12074506 4370854, 12277874 3914081" />
    <path class="fil0 str0" d="M 15167761 15135265 C 14763253 14841373, 14358744 14547480, 13954236 14253587 C 14248128 13849079, 14542021 13444570, 14835913 13040062 C 15240422 13333954, 15644930 13627847, 16049439 13921740 C 15755546 14326248, 15461654 14730757, 15167761 15135265" />
    <path class="fil0 str0" d="M 6409652 14602714 C 6564160 15078242, 6718669 15553771, 6873177 16029299 C 6397649 16183807, 5922121 16338316, 5446593 16492825 C 5292084 16017296, 5137576 15541768, 4983067 15066240 C 5458595 14911731, 5934124 14757223, 6409652 14602714" />
    <path class="fil0 str0" d="M 14779103 23394118 C 14374594 23100225, 13970086 22806332, 13565577 22512440 C 13859470 22107931, 14153362 21703423, 14447255 21298914 C 14851764 21592807, 15256272 21886700, 15660781 22180592 C 15366888 22585101, 15072995 22989609, 14779103 23394118" />
    <path class="fil0 str0" d="M 5220000 4100000 C 5720000 4099999, 6219999 4100000, 6720000 4100000 C 6719999 4600000, 6719999 5100000, 6720000 5600000 C 6219999 5600000, 5720000 5600000, 5220000 5600000 C 5220000 5100000, 5220000 4600000, 5220000 4100000" />
    <path class="fil0 str0" d="M 14691204 28440860 C 14845713 28916388, 15000221 29391917, 15154730 29867445 C 14679202 30021954, 14203674 30176462, 13728145 30330971 C 13573637 29855442, 13419128 29379914, 13264620 28904386 C 13740148 28749877, 14215676 28595369, 14691204 28440860" />
    <path class="fil0 str0" d="M 6116629 24841783 C 6451194 24470210, 6785759 24098638, 7120325 23727065 C 7491897 24061631, 7863470 24396196, 8235042 24730761 C 7900477 25102334, 7565911 25473906, 7231346 25845478 C 6859774 25510913, 6488201 25176348, 6116629 24841783" />
    <path class="fil0 str0" d="M 15777126 17648120 C 15372618 17942012, 14968110 18235905, 14563601 18529798 C 14269708 18125289, 13975816 17720781, 13681923 17316272 C 14086432 17022380, 14490940 16728487, 14895448 16434594 C 15189341 16839103, 15483234 17243611, 15777126 17648120" />
    <path class="fil0 str0" d="M 7210327 17803749 C 7667100 18007117, 8123873 18210485, 8580646 18413853 C 8377277 18870626, 8173909 19327399, 7970541 19784172 C 7513768 19580803, 7056995 19377435, 6600223 19174067 C 6803591 18717294, 7006959 18260521, 7210327 17803749" />
    <path class="fil0 str0" d="M 3458253 35675407 C 3053745 35381514, 2649236 35087622, 2244728 34793729 C 2538620 34389221, 2832513 33984712, 3126406 33580204 C 3530914 33874096, 3935423 34167989, 4339931 34461881 C 4046039 34866390, 3752146 35270898, 3458253 35675407" />
    <path class="fil0 str0" d="M 5979087 20222726 C 5490013 20118770, 5000939 20014814, 4511865 19910859 C 4615821 19421785, 4719777 18932711, 4823733 18443637 C 5312807 18547593, 5801881 18651549, 6290954 18755505 C 6186999 19244578, 6083043 19733652, 5979087 20222726" />
    <path class="fil0 str0" d="M 7949759 23841531 C 7460685 23737575, 6971612 23633620, 6482538 23529664 C 6586494 23040590, 6690449 22551516, 6794405 22062442 C 7283479 22166398, 7772553 22270354, 8261627 22374310 C 8157671 22863384, 8053715 23352457, 7949759 23841531" />
    <path class="fil0 str0" d="M 14250000 26900000 C 14750000 26900000, 15250000 26900000, 15750000 26900000 C 15750000 27400000, 15749999 27900000, 15750000 28400000 C 15250000 28400000, 14750000 28400000, 14250000 28400000 C 14249999 27900000, 14249999 27400000, 14250000 26900000" />
    <path class="fil0 str0" d="M 15910033 7657834 C 15857769 8155095, 15805505 8652356, 15753240 9149617 C 15255979 9097353, 14758719 9045089, 14261458 8992825 C 14313722 8495564, 14365986 7998303, 14418250 7501042 C 14915511 7553306, 15412772 7605570, 15910033 7657834" />
    <path class="fil0 str0" d="M 14336257 5294789 C 14086257 4861776, 13836257 4428763, 13586257 3995751 C 14019270 3745751, 14452282 3495751, 14885295 3245751 C 15135295 3678763, 15385295 4111776, 15635295 4544789 C 15202282 4794789, 14769270 5044789, 14336257 5294789" />
    <path class="fil0 str0" d="M 6483635 7663876 C 6079127 7957769, 5674618 8251662, 5270110 8545554 C 4976217 8141046, 4682324 7736537, 4388432 7332029 C 4792940 7038136, 5197449 6744243, 5601957 6450351 C 5895850 6854859, 6189742 7259368, 6483635 7663876" />
    <path class="fil0 str0" d="M 8185852 28227920 C 7935852 28660933, 7685852 29093946, 7435852 29526958 C 7002839 29276958, 6569827 29026958, 6136814 28776958 C 6386814 28343946, 6636814 27910933, 6886814 27477920 C 7319826 27727920, 7752839 27977920, 8185852 28227920" />
    <path class="fil0 str0" d="M 6544964 27494795 C 6492699 26997534, 6440435 26500273, 6388171 26003012 C 6885432 25950748, 7382693 25898483, 7879954 25846219 C 7932218 26343480, 7984482 26840741, 8036747 27338002 C 7539486 27390266, 7042225 27442530, 6544964 27494795" />
    <path class="fil0 str0" d="M 7241294 31945878 C 7395802 31470350, 7550311 30994822, 7704819 30519293 C 8180348 30673802, 8655876 30828310, 9131404 30982819 C 8976896 31458347, 8822387 31933875, 8667879 32409404 C 8192350 32254895, 7716822 32100387, 7241294 31945878" />
    <path class="fil0 str0" d="M 6850000 34450000 C 7350000 34450000, 7850000 34450000, 8350000 34450000 C 8350000 34950000, 8350000 35450000, 8350000 35950000 C 7850000 35950000, 7350000 35950000, 6850000 35950000 C 6850000 35450000, 6850000 34950000, 6850000 34450000" />
    <path class="fil0 str0" d="M 4079316 12666077 C 4536089 12869445, 4992861 13072814, 5449634 13276182 C 5246266 13732955, 5042898 14189727, 4839529 14646500 C 4382757 14443132, 3925984 14239764, 3469211 14036396 C 3672579 13579623, 3875948 13122850, 4079316 12666077" />
    <path class="fil0 str0" d="M 6600772 3806024 C 6196264 3512131, 5791755 3218239, 5387247 2924346 C 5681140 2519838, 5975032 2115329, 6268925 1710821 C 6673433 2004713, 7077942 2298606, 7482450 2592498 C 7188558 2997007, 6894665 3401515, 6600772 3806024" />
    <path class="fil0 str0" d="M 7364753 34145058 C 6875679 34041102, 6386605 33937147, 5897531 33833191 C 6001487 33344117, 6105443 32855043, 6209399 32365969 C 6698472 32469925, 7187546 32573881, 7676620 32677837 C 7572664 33166911, 7468708 33655984, 7364753 34145058" />
    <path class="fil0 str0" d="M 5869013 9312856 C 6203579 9684428, 6538144 10056001, 6872710 10427573 C 6501137 10762138, 6129565 11096704, 5757992 11431269 C 5423427 11059697, 5088862 10688124, 4754296 10316552 C 5125869 9981987, 5497441 9647421, 5869013 9312856" />
    <path class="fil0 str0" d="M 4594890 27042346 C 4749399 27517874, 4903907 27993402, 5058416 28468931 C 4582888 28623439, 4107359 28777948, 3631831 28932456 C 3477323 28456928, 3322814 27981400, 3168306 27505872 C 3643834 27351363, 4119362 27196855, 4594890 27042346" />
    <path class="fil0 str0" d="M 5072014 21604326 C 4582941 21500371, 4093867 21396415, 3604793 21292459 C 3708749 20803385, 3812705 20314311, 3916660 19825238 C 4405734 19929193, 4894808 20033149, 5383882 20137105 C 5279926 20626179, 5175970 21115253, 5072014 21604326" />
    <path class="fil0 str0" d="M 8077147 21895491 C 7588073 21791535, 7099000 21687579, 6609926 21583624 C 6713882 21094550, 6817837 20605476, 6921793 20116402 C 7410867 20220358, 7899941 20324314, 8389015 20428270 C 8285059 20917343, 8181103 21406417, 8077147 21895491" />
    <path class="fil0 str0" d="M 8601542 15484422 C 8112468 15380466, 7623395 15276510, 7134321 15172554 C 7238277 14683481, 7342232 14194407, 7446188 13705333 C 7935262 13809289, 8424336 13913245, 8913410 14017200 C 8809454 14506274, 8705498 14995348, 8601542 15484422" />
    <path class="fil0 str0" d="M 6557356 16760078 C 6505092 17257339, 6452827 17754600, 6400563 18251860 C 5903302 18199596, 5406041 18147332, 4908780 18095068 C 4961045 17597807, 5013309 17100546, 5065573 16603285 C 5562834 16655549, 6060095 16707813, 6557356 16760078" />
    <path class="fil0 str0" d="M 8550000 8740000 C 9049999 8740000, 9549999 8740000, 10050000 8740000 C 10050000 9240000, 10050000 9740000, 10050000 10240000 C 9549999 10240000, 9049999 10240000, 8550000 10240000 C 8550000 9740000, 8550000 9240000, 8550000 8740000" />
    <path class="fil0 str0" d="M 8684322 13171081 C 8195248 13067125, 7706174 12963169, 7217100 12859213 C 7321056 12370139, 7425012 11881065, 7528968 11391992 C 8018042 11495947, 8507115 11599903, 8996189 11703859 C 8892233 12192933, 8788278 12682007, 8684322 13171081" />
    <path class="fil0 str0" d="M 8740000 4240000 C 9239999 4239999, 9739999 4240000, 10240000 4240000 C 10240000 4740000, 10240000 5240000, 10240000 5740000 C 9739999 5740000, 9239999 5740000, 8740000 5740000 C 8740000 5240000, 8740000 4740000, 8740000 4240000" />
    <path class="fil0 str0" d="M 8436222 18787406 C 8892995 18990774, 9349768 19194143, 9806540 19397511 C 9603172 19854284, 9399804 20311057, 9196436 20767829 C 8739663 20564461, 8282890 20361093, 7826117 20157725 C 8029486 19700952, 8232854 19244179, 8436222 18787406" />
    <path class="fil0 str0" d="M 8060000 16660000 C 8559999 16660000, 9059999 16660000, 9560000 16660000 C 9560000 17159999, 9560000 17659999, 9560000 18160000 C 9059999 18160000, 8559999 18160000, 8060000 18160000 C 8060000 17659999, 8060000 17159999, 8060000 16660000" />
    <path class="fil0 str0" d="M 3502327 3257038 C 3013253 3153082, 2524180 3049127, 2035106 2945171 C 2139062 2456097, 2243017 1967023, 2346973 1477949 C 2836047 1581905, 3325121 1685861, 3814195 1789817 C 3710239 2278891, 3606283 2767964, 3502327 3257038" />
    <path class="fil0 str0" d="M 4480000 24880000 C 4980000 24880000, 5480000 24880000, 5980000 24880000 C 5980000 25380000, 5980000 25880000, 5980000 26380000 C 5480000 26379999, 4980000 26380000, 4480000 26380000 C 4480000 25880000, 4480000 25380000, 4480000 24880000" />
    <path class="fil0 str0" d="M 4954131 12828034 C 4465058 12724078, 3975984 12620123, 3486910 12516167 C 3590866 12027093, 3694822 11538019, 3798777 11048945 C 4287851 11152901, 4776925 11256857, 5265999 11360813 C 5162043 11849887, 5058087 12338960, 4954131 12828034" />
    <path class="fil0 str0" d="M 4482232 18463060 C 3993158 18359104, 3504085 18255148, 3015011 18151192 C 3118967 17662118, 3222922 17173045, 3326878 16683971 C 3815952 16787927, 4305026 16891882, 4794100 16995838 C 4690144 17484912, 4586188 17973986, 4482232 18463060" />
    <path class="fil0 str0" d="M 7405143 31117292 C 6916069 31013336, 6426995 30909380, 5937921 30805424 C 6041877 30316351, 6145833 29827277, 6249789 29338203 C 6738863 29442159, 7227937 29546115, 7717010 29650070 C 7613055 30139144, 7509099 30628218, 7405143 31117292" />
    <path class="fil0 str0" d="M 9326350 24675975 C 8837277 24572019, 8348203 24468063, 7859129 24364108 C 7963085 23875034, 8067041 23385960, 8170996 22896886 C 8660070 23000842, 9149144 23104798, 9638218 23208754 C 9534262 23697827, 9430306 24186901, 9326350 24675975" />
    <path class="fil0 str0" d="M 5381915 24859900 C 4892841 24755945, 4403767 24651989, 3914693 24548033 C 4018649 24058959, 4122605 23569885, 4226561 23080812 C 4715635 23184767, 5204709 23288723, 5693782 23392679 C 5589827 23881753, 5485871 24370827, 5381915 24859900" />
    <path class="fil0 str0" d="M 4732825 33156242 C 4243751 33052286, 3754677 32948330, 3265604 32844374 C 3369559 32355301, 3473515 31866227, 3577471 31377153 C 4066545 31481109, 4555619 31585065, 5044692 31689020 C 4940737 32178094, 4836781 32667168, 4732825 33156242" />
    <path class="fil0 str0" d="M 5014497 31590592 C 4525423 31486636, 4036349 31382680, 3547276 31278724 C 3651231 30789650, 3755187 30300577, 3859143 29811503 C 4348217 29915459, 4837291 30019414, 5326365 30123370 C 5222409 30612444, 5118453 31101518, 5014497 31590592" />
    <path class="fil0 str0" d="M 5575554 23275538 C 5086480 23171582, 4597406 23067626, 4108332 22963671 C 4212288 22474597, 4316244 21985523, 4420200 21496449 C 4909273 21600405, 5398347 21704361, 5887421 21808317 C 5783465 22297390, 5679510 22786464, 5575554 23275538" />
    <path class="fil0 str0" d="M 3325610 6204710 C 2836537 6100755, 2347463 5996799, 1858389 5892843 C 1962345 5403769, 2066301 4914695, 2170256 4425622 C 2659330 4529577, 3148404 4633533, 3637478 4737489 C 3533522 5226563, 3429566 5715637, 3325610 6204710" />
    <path class="fil0 str0" d="M 3246989 8498489 C 2757915 8394533, 2268842 8290577, 1779768 8186621 C 1883724 7697547, 1987679 7208474, 2091635 6719400 C 2580709 6823356, 3069783 6927311, 3558857 7031267 C 3454901 7520341, 3350945 8009415, 3246989 8498489" />
    <path class="fil0 str0" d="M 6752600 169602 C 6700336 666863, 6648072 1164124, 6595808 1661385 C 6098547 1609121, 5601286 1556857, 5104025 1504592 C 5156289 1007331, 5208553 510070, 5260817 12810 C 5758078 65074, 6255339 117338, 6752600 169602" />
  </g>
  <g id="Layer_x0020_3">
    <metadata id="CorelCorpID_2Corel-Layer"/>
  <path class="fil0 str2" d=" M 6089963 12580375 L 6094563 12579512 L 6098503 12574830 L 6101783 12566325 L 6102905 12561043 L 6103368 12551942 L 6101674 12546060 L 6097822 12543402 L 6095006 12542802 L 6090405 12543665 L 6086466 12548348 L 6083186 12556853 L 6082063 12562135 L 6081600 12571237 L 6083295 12577117 L 6087146 12579776 L 6089963 12580375 M 6103368 12551942 L 6081600 12571237"/><path class="fil0 str2" d=" M 6085234 12533365 L 6113405 12539353"/><path class="fil0 str2" d=" M 6050987 12562890 L 6051647 12566711 L 6053716 12570831 L 6056159 12573190 L 6061793 12574388 L 6064984 12573226 L 6068549 12570303 L 6070706 12567081 L 6073238 12562099 L 6075109 12553295 L 6074823 12547714 L 6074163 12543894 L 6072095 12539772 L 6069652 12537414 L 6064017 12536217 L 6060827 12537377 L 6057261 12540301 L 6055104 12543522"/><path class="fil0 str2" d=" M 6035031 12568699 L 6039630 12567836 L 6041787 12564615 L 6042536 12561093 L 6041876 12557272 L 6039433 12554913 L 6034173 12551955 L 6030322 12549296 L 6028253 12545177 L 6027593 12541356 L 6028716 12536074 L 6030873 12532851 L 6032656 12531390 L 6037255 12530528 L 6042890 12531726 L 6046741 12534384 L 6047775 12536444 L 6048435 12540264 L 6047313 12545546 L 6045156 12548769 L 6041590 12551691 L 6036990 12552553 L 6030982 12553117 L 6027791 12554278 L 6025634 12557501 L 6024885 12561022 L 6025545 12564843 L 6029396 12567502 L 6035031 12568699"/>
  <path class="fil0 str2" d=" M 14503809 19868094 L 14504410 19863453 L 14501174 19858259 L 14494099 19852512 L 14489422 19849812 L 14480909 19846558 L 14474792 19846353 L 14471072 19849194 L 14469633 19851689 L 14469031 19856330 L 14472269 19861524 L 14479343 19867271 L 14484019 19869971 L 14492534 19873223 L 14498649 19873430 L 14502369 19870588 L 14503809 19868094 M 14480909 19846558 L 14492534 19873223"/><path class="fil0 str2" d=" M 14457637 19858065 L 14472038 19833123"/><path class="fil0 str2" d=" M 14485214 19882301 L 14486773 19883200 L 14489171 19886247 L 14490010 19888394 L 14490129 19891789 L 14487249 19896777 L 14484250 19898371 L 14481971 19898718 L 14478133 19898165 L 14475015 19896365 L 14472618 19893319 L 14469382 19888125 L 14460993 19866654 L 14450913 19884112"/><path class="fil0 str2" d=" M 14480048 19909248 L 14437233 19907807 M 14469969 19926707 L 14447313 19890347"/>
  <path class="fil0 str2" d=" M 12932333 1988005 L 12929287 1984453 L 12923261 1983383 L 12914256 1984794 L 12909121 1986463 L 12901007 1990614 L 12896761 1995021 L 12896384 1999686 L 12897274 2002425 L 12900321 2005978 L 12906346 2007048 L 12915351 2005636 L 12920487 2003968 L 12928601 1999817 L 12932846 1995409 L 12933223 1990744 L 12932333 1988005 M 12901007 1990614 L 12928601 1999817"/><path class="fil0 str2" d=" M 12893986 2015606 L 12885086 1988216"/><path class="fil0 str2" d=" M 12943903 2023613 L 12939453 2009918 L 12923601 2013554 L 12925758 2014368 L 12928804 2017920 L 12930140 2022028 L 12929763 2026693 L 12927229 2030545 L 12922539 2033583 L 12919114 2034696 L 12913533 2034995 L 12909219 2033368 L 12906173 2029816 L 12904838 2025707 L 12905216 2021042 L 12906483 2019117 L 12909461 2016635"/><path class="fil0 str2" d=" M 12946573 2031830 L 12912847 2050359 M 12951022 2045525 L 12912847 2050359 M 12951022 2045525 L 12917298 2064054 M 12955473 2059221 L 12917298 2064054"/>
  <path class="fil0 str2" d=" M 10253360 12415253 L 10252021 12410769 L 10246951 12407341 L 10238151 12404968 L 10232781 12404403 L 10223680 12404895 L 10218009 12407194 L 10215767 12411302 L 10215466 12414167 L 10216804 12418651 L 10221874 12422080 L 10230674 12424453 L 10236044 12425017 L 10245146 12424526 L 10250817 12422226 L 10253059 12418117 L 10253360 12415253 M 10223680 12404895 L 10245146 12424526"/><path class="fil0 str2" d=" M 10207101 12424871 L 10210111 12396229"/><path class="fil0 str2" d=" M 10250349 12443896 L 10213961 12428487 M 10250349 12443896 L 10211552 12451401 M 10226040 12434101 L 10224534 12448422"/><path class="fil0 str2" d=" M 10248693 12459649 L 10208993 12475748 M 10246586 12479698 L 10211101 12455698"/>
  <path class="fil0 str2" d=" M 14962640 10588399 L 14958320 10590200 L 14955439 10595600 L 14954000 10604599 L 14954000 10610000 L 14955439 10619000 L 14958320 10624399 L 14962640 10626199 L 14965520 10626199 L 14969840 10624399 L 14972719 10619000 L 14974160 10610000 L 14974160 10604599 L 14972719 10595600 L 14969840 10590200 L 14965520 10588399 L 14962640 10588399 M 14955439 10619000 L 14972719 10595600"/><path class="fil0 str2" d=" M 14977039 10633399 L 14948239 10633399"/><path class="fil0 str2" d=" M 14985679 10588399 L 15001519 10588399 L 14992879 10602800 L 14997199 10602800 L 15000080 10604599 L 15001519 10606400 L 15002960 10611800 L 15002960 10615400 L 15001519 10620799 L 14998640 10624399 L 14994320 10626199 L 14990000 10626199 L 14985679 10624399 L 14984239 10622600 L 14982800 10619000"/><path class="fil0 str2" d=" M 15007280 10588399 L 15018800 10626199 M 15030319 10588399 L 15018800 10626199"/>
  <path class="fil0 str2" d=" M 8676868 1700649 L 8677470 1696008 L 8674233 1690814 L 8667159 1685067 L 8662482 1682367 L 8653968 1679114 L 8647852 1678908 L 8644133 1681749 L 8642693 1684243 L 8642092 1688885 L 8645328 1694079 L 8652402 1699826 L 8657079 1702526 L 8665593 1705779 L 8671710 1705985 L 8675429 1703143 L 8676868 1700649 M 8653968 1679114 L 8665593 1705779"/><path class="fil0 str2" d=" M 8630697 1690620 L 8645097 1665679"/><path class="fil0 str2" d=" M 8658393 1718249 L 8658512 1721644 L 8661029 1728085 L 8628293 1709185"/><path class="fil0 str2" d=" M 8653109 1741803 L 8610292 1740362 M 8643029 1759262 L 8620372 1722903"/>
  <path class="fil0 str2" d=" M 12643087 4874017 L 12638408 4873905 L 12633581 4877666 L 12628604 4885303 L 12626408 4890236 L 12624063 4899043 L 12624498 4905148 L 12627712 4908549 L 12630344 4909721 L 12635021 4909833 L 12639849 4906072 L 12644825 4898435 L 12647022 4893502 L 12649367 4884695 L 12648933 4878590 L 12645717 4875189 L 12643087 4874017 M 12624063 4899043 L 12649367 4884695"/><path class="fil0 str2" d=" M 12637939 4920984 L 12611629 4909270"/><path class="fil0 str2" d=" M 12674659 4888074 L 12651254 4905238 L 12670987 4914024 M 12674659 4888074 L 12659284 4922606"/><path class="fil0 str2" d=" M 12693076 4896274 L 12677701 4930806 M 12683868 4892174 L 12702285 4900374"/>
  <path class="fil0 str2" d=" M 15013607 14122912 L 15018160 14123995 L 15023663 14121319 L 15030118 14114885 L 15033293 14110516 L 15037418 14102388 L 15038261 14096328 L 15035825 14092331 L 15033494 14090639 L 15028941 14089556 L 15023438 14092232 L 15016983 14098666 L 15013808 14103035 L 15009683 14111163 L 15008840 14117224 L 15011276 14121220 L 15013607 14122912 M 15037418 14102388 L 15009683 14111163"/><path class="fil0 str2" d=" M 15028406 14078043 L 15051706 14094970"/><path class="fil0 str2" d=" M 14994967 14109370 L 14982152 14100059 L 14997606 14093488 L 14994111 14090949 L 14992839 14087800 L 14992731 14085498 L 14994741 14080281 L 14996857 14077370 L 15001196 14073847 L 15005642 14072628 L 15010195 14073710 L 15013690 14076250 L 15016127 14080245 L 15016234 14082548 L 15015283 14086307"/><path class="fil0 str2" d=" M 14973997 14094134 L 14989868 14072291 L 14991876 14067076 L 14991662 14062470 L 14989226 14058475 L 14986895 14056783 L 14982342 14055699 L 14977896 14056918 L 14973558 14060441 L 14957687 14082285"/>
  <path class="fil0 str2" d=" M 5939543 15513020 L 5936496 15509467 L 5930470 15508397 L 5921466 15509808 L 5916330 15511477 L 5908215 15515628 L 5903970 15520035 L 5903593 15524700 L 5904483 15527440 L 5907529 15530992 L 5913555 15532062 L 5922560 15530650 L 5927695 15528981 L 5935810 15524831 L 5940056 15520423 L 5940433 15515759 L 5939543 15513020 M 5908215 15515628 L 5935810 15524831"/><path class="fil0 str2" d=" M 5901195 15540621 L 5892295 15513229"/><path class="fil0 str2" d=" M 5947108 15536301 L 5911157 15547982 M 5946218 15533563 L 5950222 15545888 L 5949845 15550552 L 5948579 15552479 L 5945599 15554960 L 5942176 15556072 L 5938307 15555816 L 5936150 15555002 L 5933103 15551450 M 5929989 15541864 L 5933103 15551450 L 5932727 15556115 L 5931459 15558040 L 5928480 15560523 L 5923345 15562192 L 5919476 15561934 L 5917319 15561121 L 5914273 15557569 L 5910267 15545242"/><path class="fil0 str2" d=" M 5960902 15578757 L 5920502 15576741 M 5954672 15559583 L 5960902 15578757"/>
  <path class="fil0 str2" d=" M 14624947 22381765 L 14629500 22382849 L 14635003 22380173 L 14641458 22373737 L 14644633 22369370 L 14648758 22361242 L 14649602 22355180 L 14647165 22351184 L 14644835 22349492 L 14640281 22348408 L 14634779 22351083 L 14628323 22357519 L 14625148 22361887 L 14621024 22370014 L 14620180 22376076 L 14622617 22380073 L 14624947 22381765 M 14648758 22361242 L 14621024 22370014"/><path class="fil0 str2" d=" M 14639747 22336894 L 14663046 22353823"/><path class="fil0 str2" d=" M 14607471 22369069 L 14629691 22338488 M 14607471 22369069 L 14592327 22358066 M 14618052 22354506 L 14608732 22347736"/><path class="fil0 str2" d=" M 14589997 22356372 L 14606391 22321560 M 14578348 22347910 L 14606391 22321560 M 14578348 22347910 L 14594741 22313095 M 14566697 22339445 L 14594741 22313095"/>
  <path class="fil0 str2" d=" M 5938319 4828399 L 5934000 4830199 L 5931119 4835599 L 5929680 4844599 L 5929680 4850000 L 5931119 4858999 L 5934000 4864400 L 5938319 4866199 L 5941199 4866199 L 5945520 4864400 L 5948400 4858999 L 5949840 4850000 L 5949840 4844599 L 5948400 4835599 L 5945520 4830199 L 5941199 4828399 L 5938319 4828399 M 5931119 4858999 L 5948400 4835599"/><path class="fil0 str2" d=" M 5952719 4873399 L 5923920 4873399"/><path class="fil0 str2" d=" M 5978640 4828399 L 5964240 4866199 M 5958480 4828399 L 5978640 4828399"/><path class="fil0 str2" d=" M 5984400 4828399 L 5991599 4866199 M 5998800 4828399 L 5991599 4866199 M 5998800 4828399 L 6005999 4866199 M 6013200 4828399 L 6005999 4866199"/>
  <path class="fil0 str2" d=" M 14220428 29349111 L 14217381 29345559 L 14211356 29344489 L 14202351 29345900 L 14197215 29347568 L 14189101 29351718 L 14184855 29356127 L 14184478 29360791 L 14185368 29363530 L 14188415 29367082 L 14194440 29368154 L 14203446 29366743 L 14208581 29365073 L 14216695 29360922 L 14220941 29356516 L 14221318 29351850 L 14220428 29349111 M 14189101 29351718 L 14216695 29360922"/><path class="fil0 str2" d=" M 14182081 29376711 L 14173181 29349321"/><path class="fil0 str2" d=" M 14231108 29381979 L 14202691 29376071 L 14209366 29396613 M 14231108 29381979 L 14195158 29393659"/><path class="fil0 str2" d=" M 14234667 29392937 L 14200942 29411464 M 14239117 29406630 L 14200942 29411464 M 14239117 29406630 L 14205393 29425158 M 14243568 29420327 L 14205393 29425158"/>
  <path class="fil0 str2" d=" M 7141477 24792150 L 7139923 24796564 L 7142009 24802319 L 7147734 24809411 L 7151747 24813024 L 7159399 24817976 L 7165339 24819450 L 7169567 24817443 L 7171494 24815305 L 7173048 24810888 L 7170961 24805136 L 7165237 24798044 L 7161224 24794431 L 7153572 24789477 L 7147632 24788005 L 7143403 24790009 L 7141477 24792150 M 7159399 24817976 L 7153572 24789477"/><path class="fil0 str2" d=" M 7184553 24811560 L 7165282 24832963"/><path class="fil0 str2" d=" M 7171505 24766870 L 7167866 24765532 L 7163638 24767539 L 7161711 24769677 L 7160158 24774094 L 7162244 24779846 L 7167968 24786938 L 7174657 24792961 L 7180971 24796708 L 7185573 24796977 L 7189802 24794970 L 7190765 24793901 L 7192318 24789487 L 7191570 24784936 L 7188521 24780253 L 7187183 24779050 L 7182207 24776506 L 7177604 24776237 L 7173376 24778244 L 7172412 24779313 L 7170859 24783728 L 7171607 24788278 L 7174657 24792961"/><path class="fil0 str2" d=" M 7171347 24758977 L 7207145 24775710 M 7186763 24741855 L 7207145 24775710"/>
  <path class="fil0 str2" d=" M 14763190 17484434 L 14765627 17480439 L 14764783 17474378 L 14760659 17466251 L 14757485 17461882 L 14751030 17455447 L 14745526 17452770 L 14740972 17453854 L 14738642 17455546 L 14736206 17459543 L 14737049 17465604 L 14741175 17473731 L 14744349 17478100 L 14750804 17484534 L 14756308 17487210 L 14760860 17486127 L 14763190 17484434 M 14751030 17455447 L 14750804 17484534"/><path class="fil0 str2" d=" M 14725090 17456494 L 14748391 17439565"/><path class="fil0 str2" d=" M 14744550 17497978 L 14731737 17507288 L 14730262 17490560 L 14726767 17493099 L 14723378 17493336 L 14721156 17492725 L 14716817 17489204 L 14714700 17486291 L 14712691 17481076 L 14712906 17476470 L 14715343 17472475 L 14718837 17469936 L 14723391 17468853 L 14725614 17469462 L 14728895 17471529"/><path class="fil0 str2" d=" M 14718922 17516599 L 14696702 17486018 M 14727076 17510673 L 14710766 17522524"/>
  <path class="fil0 str2" d=" M 7573568 18762806 L 7568889 18762694 L 7564062 18766455 L 7559086 18774091 L 7556889 18779024 L 7554544 18787832 L 7554979 18793936 L 7558193 18797337 L 7560824 18798509 L 7565503 18798621 L 7570330 18794860 L 7575307 18787224 L 7577503 18782291 L 7579848 18773483 L 7579413 18767379 L 7576199 18763977 L 7573568 18762806 M 7554544 18787832 L 7579848 18773483"/><path class="fil0 str2" d=" M 7568420 18809772 L 7542109 18798059"/><path class="fil0 str2" d=" M 7593300 18771591 L 7577926 18806124 M 7593300 18771591 L 7610402 18779205 M 7585979 18788035 L 7596503 18792720"/><path class="fil0 str2" d=" M 7615664 18781549 L 7600289 18816080 M 7634081 18789748 L 7605415 18804570 M 7615653 18799276 L 7618706 18824281"/>
  <path class="fil0 str2" d=" M 3305845 34664323 L 3310398 34665407 L 3315903 34662731 L 3322358 34656296 L 3325532 34651928 L 3329657 34643801 L 3330501 34637739 L 3328064 34633742 L 3325734 34632050 L 3321181 34630966 L 3315677 34633642 L 3309222 34640078 L 3306048 34644445 L 3301923 34652573 L 3301079 34658635 L 3303515 34662631 L 3305845 34664323 M 3329657 34643801 L 3301923 34652573"/><path class="fil0 str2" d=" M 3320646 34619453 L 3343946 34636381"/><path class="fil0 str2" d=" M 3286041 34649934 L 3308259 34619355 M 3288371 34651628 L 3277886 34644011 L 3275449 34640014 L 3275342 34637712 L 3276293 34633952 L 3278409 34631040 L 3281690 34628974 L 3283913 34628364 L 3288466 34629448 M 3296621 34635373 L 3288466 34629448 L 3286029 34625451 L 3285922 34623149 L 3286873 34619392 L 3290047 34615021 L 3293328 34612956 L 3295551 34612346 L 3300104 34613430 L 3310589 34621047"/><path class="fil0 str2" d=" M 3267401 34636391 L 3283794 34601579 M 3255751 34627929 L 3283794 34601579 M 3255751 34627929 L 3272145 34593115 M 3244101 34619465 L 3272145 34593115"/>
  <path class="fil0 str2" d=" M 5428611 19361046 L 5433211 19360184 L 5437151 19355500 L 5440430 19346997 L 5441553 19341715 L 5442016 19332612 L 5440322 19326730 L 5436470 19324072 L 5433653 19323474 L 5429053 19324335 L 5425114 19329019 L 5421834 19337523 L 5420711 19342805 L 5420249 19351907 L 5421943 19357789 L 5425794 19360447 L 5428611 19361046 M 5442016 19332612 L 5420249 19351907"/><path class="fil0 str2" d=" M 5423882 19314035 L 5452053 19320024"/><path class="fil0 str2" d=" M 5389635 19343560 L 5390295 19347381 L 5392363 19351501 L 5394807 19353861 L 5400440 19355058 L 5403632 19353896 L 5407197 19350974 L 5409354 19347752 L 5411885 19342769 L 5413757 19333966 L 5413471 19328385 L 5412811 19324564 L 5410742 19320444 L 5408300 19318084 L 5402666 19316887 L 5399474 19318049 L 5395908 19320971 L 5393751 19324193"/><path class="fil0 str2" d=" M 5382130 19351166 L 5382946 19312695 M 5368044 19348172 L 5382946 19312695 M 5368044 19348172 L 5368861 19309702 M 5353959 19345179 L 5368861 19309702"/>
  <path class="fil0 str2" d=" M 7396466 22979252 L 7401066 22978391 L 7405006 22973706 L 7408286 22965202 L 7409408 22959921 L 7409871 22950817 L 7408176 22944936 L 7404325 22942277 L 7401508 22941679 L 7396908 22942541 L 7392968 22947226 L 7389689 22955729 L 7388566 22961010 L 7388103 22970114 L 7389797 22975996 L 7393649 22978654 L 7396466 22979252 M 7409871 22950817 L 7388103 22970114"/><path class="fil0 str2" d=" M 7391737 22932241 L 7419907 22938229"/><path class="fil0 str2" d=" M 7372521 22974162 L 7380380 22937189 M 7375338 22974760 L 7362661 22972067 L 7358810 22969409 L 7357775 22967348 L 7357116 22963527 L 7357864 22960007 L 7360021 22956784 L 7361804 22955322 L 7366404 22954460 M 7376264 22956557 L 7366404 22954460 L 7362553 22951801 L 7361518 22949741 L 7360858 22945920 L 7361981 22940639 L 7364138 22937416 L 7365921 22935957 L 7370520 22935092 L 7383197 22937788"/><path class="fil0 str2" d=" M 7341533 22967575 L 7346133 22966713 L 7348290 22963491 L 7349039 22959970 L 7348378 22956149 L 7345936 22953791 L 7340676 22950832 L 7336824 22948173 L 7334756 22944052 L 7334096 22940231 L 7335219 22934951 L 7337376 22931728 L 7339158 22930268 L 7343758 22929404 L 7349392 22930603 L 7353244 22933261 L 7354278 22935322 L 7354938 22939143 L 7353815 22944423 L 7351658 22947646 L 7348093 22950568 L 7343493 22951430 L 7337484 22951994 L 7334293 22953156 L 7332136 22956376 L 7331387 22959899 L 7332048 22963720 L 7335899 22966379 L 7341533 22967575"/>
  <path class="fil0 str2" d=" M 14967600 27628400 L 14963280 27630200 L 14960400 27635600 L 14958959 27644599 L 14958959 27650000 L 14960400 27658999 L 14963280 27664399 L 14967600 27666201 L 14970479 27666201 L 14974799 27664399 L 14977679 27658999 L 14979119 27650000 L 14979119 27644599 L 14977679 27635600 L 14974799 27630200 L 14970479 27628400 L 14967600 27628400 M 14960400 27658999 L 14977679 27635600"/><path class="fil0 str2" d=" M 14981999 27673400 L 14953199 27673400"/><path class="fil0 str2" d=" M 15009360 27637399 L 15007919 27633798 L 15005040 27630200 L 15002159 27628400 L 14996400 27628400 L 14993520 27630200 L 14990639 27633798 L 14989200 27637399 L 14987760 27642800 L 14987760 27651799 L 14989200 27657199 L 14990639 27660800 L 14993520 27664399 L 14996400 27666201 L 15002159 27666201 L 15005040 27664399 L 15007919 27660800 L 15009360 27657199 L 15009360 27651799 M 15002159 27651799 L 15009360 27651799"/><path class="fil0 str2" d=" M 15015119 27628400 L 15022320 27666201 M 15029520 27628400 L 15022320 27666201 M 15029520 27628400 L 15036719 27666201 M 15043919 27628400 L 15036719 27666201"/>
  <path class="fil0 str2" d=" M 15110313 8298229 L 15108974 8293744 L 15103905 8290316 L 15095104 8287943 L 15089735 8287378 L 15080633 8287869 L 15074962 8290169 L 15072719 8294277 L 15072419 8297142 L 15073757 8301626 L 15078826 8305055 L 15087626 8307427 L 15092998 8307992 L 15102098 8307501 L 15107770 8305201 L 15110012 8301093 L 15110313 8298229 M 15080633 8287869 L 15102098 8307501"/><path class="fil0 str2" d=" M 15064053 8307846 L 15067065 8279204"/><path class="fil0 str2" d=" M 15096997 8338819 L 15100728 8337763 L 15104609 8335275 L 15106700 8332599 L 15107302 8326871 L 15105814 8323818 L 15102534 8320578 L 15099105 8318770 L 15093884 8316773 L 15084934 8315832 L 15079412 8316700 L 15075682 8317756 L 15071800 8320244 L 15069709 8322919 L 15069107 8328648 L 15070596 8331701 L 15073875 8334941 L 15077305 8336749 L 15082675 8337314 M 15083428 8330153 L 15082675 8337314"/><path class="fil0 str2" d=" M 15105195 8346920 L 15065495 8363019 M 15103088 8366970 L 15067602 8342969"/>
  <path class="fil0 str2" d=" M 14607189 4307258 L 14610909 4310099 L 14617025 4309894 L 14625539 4306641 L 14630216 4303941 L 14637290 4298193 L 14640527 4292999 L 14639925 4288358 L 14638486 4285864 L 14634766 4283023 L 14628651 4283229 L 14620136 4286481 L 14615460 4289182 L 14608385 4294929 L 14605148 4300123 L 14605750 4304764 L 14607189 4307258 M 14637290 4298193 L 14608385 4294929"/><path class="fil0 str2" d=" M 14638961 4272287 L 14653361 4297229"/><path class="fil0 str2" d=" M 14589909 4277328 L 14618934 4277199 L 14608133 4258493 M 14589909 4277328 L 14622646 4258428"/><path class="fil0 str2" d=" M 14582709 4264858 L 14606092 4251358 L 14610050 4247410 L 14611727 4243116 L 14611125 4238475 L 14609686 4235981 L 14605966 4233140 L 14601409 4232445 L 14596013 4233898 L 14572630 4247398"/>
  <path class="fil0 str2" d=" M 5474942 7496383 L 5477379 7492387 L 5476535 7486326 L 5472410 7478198 L 5469235 7473829 L 5462780 7467395 L 5457277 7464719 L 5452723 7465802 L 5450394 7467495 L 5447957 7471491 L 5448801 7477552 L 5452926 7485679 L 5456100 7490048 L 5462555 7496483 L 5468059 7499158 L 5472612 7498076 L 5474942 7496383 M 5462780 7467395 L 5462555 7496483"/><path class="fil0 str2" d=" M 5436842 7468441 L 5460141 7451513"/><path class="fil0 str2" d=" M 5455137 7510772 L 5432919 7480191 M 5457467 7509079 L 5449312 7515004 L 5444759 7516087 L 5440313 7514867 L 5437032 7512801 L 5432693 7509279 L 5427403 7501998 L 5425394 7496783 L 5424443 7493024 L 5424657 7488419 L 5427094 7484423 L 5435249 7478498"/><path class="fil0 str2" d=" M 5436497 7524315 L 5408454 7497966 M 5424848 7532778 L 5408454 7497966 M 5424848 7532778 L 5396804 7506430 M 5413198 7541243 L 5396804 7506430"/>
  <path class="fil0 str2" d=" M 7195520 28486425 L 7196121 28481784 L 7192884 28476591 L 7185809 28470844 L 7181133 28468144 L 7172619 28464892 L 7166502 28464685 L 7162783 28467526 L 7161343 28470021 L 7160742 28474663 L 7163979 28479855 L 7171053 28485603 L 7175729 28488303 L 7184244 28491555 L 7190360 28491762 L 7194079 28488920 L 7195520 28486425 M 7172619 28464892 L 7184244 28491555"/><path class="fil0 str2" d=" M 7149348 28476396 L 7163748 28451455"/><path class="fil0 str2" d=" M 7184719 28505131 L 7151984 28486232 M 7184719 28505131 L 7175359 28521345 M 7169131 28496132 L 7163371 28506108 M 7151984 28486232 L 7142623 28502443"/><path class="fil0 str2" d=" M 7173200 28525085 L 7136864 28512421 M 7165999 28537556 L 7136864 28512421 M 7165999 28537556 L 7129664 28524892 M 7158800 28550026 L 7129664 28524892"/>
  <path class="fil0 str2" d=" M 7193536 26697111 L 7195778 26701220 L 7201450 26703520 L 7210551 26704011 L 7215921 26703447 L 7224721 26701074 L 7229791 26697644 L 7231129 26693159 L 7230828 26690295 L 7228587 26686188 L 7222915 26683889 L 7213814 26683395 L 7208444 26683962 L 7199643 26686333 L 7194574 26689763 L 7193236 26694248 L 7193536 26697111 M 7224721 26701074 L 7199643 26686333"/><path class="fil0 str2" d=" M 7236785 26678085 L 7239795 26706728"/><path class="fil0 str2" d=" M 7190526 26668469 L 7229323 26675974 M 7190526 26668469 L 7226915 26653061 M 7216340 26672995 L 7214835 26658674"/><path class="fil0 str2" d=" M 7188118 26645556 L 7225711 26641604 M 7189171 26655581 L 7187064 26635529"/>
  <path class="fil0 str2" d=" M 8156906 31485065 L 8157283 31489731 L 8161529 31494138 L 8169644 31498288 L 8174779 31499958 L 8183784 31501369 L 8189810 31500300 L 8192857 31496748 L 8193746 31494008 L 8193369 31489343 L 8189124 31484936 L 8181009 31480783 L 8175874 31479116 L 8166869 31477705 L 8160843 31478774 L 8157797 31482326 L 8156906 31485065 M 8183784 31501369 L 8166869 31477705"/><path class="fil0 str2" d=" M 8204154 31485275 L 8195254 31512666"/><path class="fil0 str2" d=" M 8167586 31452197 L 8187103 31473679 L 8193778 31453137 M 8167586 31452197 L 8203536 31463879"/><path class="fil0 str2" d=" M 8182957 31422368 L 8178643 31423994 L 8175596 31427546 L 8173816 31433024 L 8174193 31437690 L 8176727 31441540 L 8180150 31442653 L 8184019 31442395 L 8186176 31441582 L 8188778 31439399 L 8194872 31432294 L 8197474 31430112 L 8199630 31429299 L 8203499 31429042 L 8208635 31430710 L 8211169 31434562 L 8211546 31439226 L 8209766 31444704 L 8206719 31448256 L 8202405 31449885"/>
  <path class="fil0 str2" d=" M 7575520 35178400 L 7571199 35180200 L 7568319 35185600 L 7566879 35194599 L 7566879 35200000 L 7568319 35208999 L 7571199 35214399 L 7575520 35216201 L 7578400 35216201 L 7582719 35214399 L 7585599 35208999 L 7587039 35200000 L 7587039 35194599 L 7585599 35185600 L 7582719 35180200 L 7578400 35178400 L 7575520 35178400 M 7568319 35208999 L 7585599 35185600"/><path class="fil0 str2" d=" M 7589920 35223400 L 7561119 35223400"/><path class="fil0 str2" d=" M 7600000 35178400 L 7600000 35216201 M 7597119 35178400 L 7602880 35178400 M 7597119 35216201 L 7602880 35216201"/><path class="fil0 str2" d=" M 7612960 35178400 L 7612960 35205400 L 7614400 35210800 L 7617280 35214399 L 7621599 35216201 L 7624479 35216201 L 7628800 35214399 L 7631680 35210800 L 7633120 35205400 L 7633120 35178400"/>
  <path class="fil0 str2" d=" M 4442556 13625135 L 4437877 13625023 L 4433049 13628784 L 4428074 13636420 L 4425877 13641353 L 4423532 13650161 L 4423966 13656265 L 4427181 13659666 L 4429812 13660838 L 4434490 13660950 L 4439318 13657189 L 4444294 13649553 L 4446491 13644620 L 4448836 13635812 L 4448401 13629708 L 4445187 13626306 L 4442556 13625135 M 4423532 13650161 L 4448836 13635812"/><path class="fil0 str2" d=" M 4437407 13672102 L 4411097 13660388"/><path class="fil0 str2" d=" M 4468866 13636849 L 4442967 13666695 M 4468866 13636849 L 4464015 13676066 M 4452038 13656942 L 4465194 13662799"/><path class="fil0 str2" d=" M 4487283 13645048 L 4471908 13679581 M 4484652 13643878 L 4493860 13647977 L 4497075 13651379 L 4498241 13655839 L 4498093 13659714 L 4497212 13665233 L 4493551 13673454 L 4490039 13677801 L 4487260 13680505 L 4483164 13682622 L 4478486 13682509 L 4469277 13678409"/>
  <path class="fil0 str2" d=" M 6444869 2792402 L 6449423 2793485 L 6454927 2790809 L 6461382 2784375 L 6464556 2780006 L 6468681 2771878 L 6469525 2765817 L 6467088 2761821 L 6464758 2760129 L 6460205 2759046 L 6454701 2761721 L 6448246 2768156 L 6445072 2772525 L 6440947 2780652 L 6440103 2786714 L 6442540 2790709 L 6444869 2792402 M 6468681 2771878 L 6440947 2780652"/><path class="fil0 str2" d=" M 6459671 2747532 L 6482970 2764461"/><path class="fil0 str2" d=" M 6416375 2760575 L 6415424 2764334 L 6415638 2768939 L 6416910 2772088 L 6421570 2775474 L 6424958 2775711 L 6429404 2774491 L 6432685 2772425 L 6437024 2768902 L 6442314 2761622 L 6444323 2756406 L 6445274 2752648 L 6445061 2748042 L 6443789 2744893 L 6439129 2741507 L 6435740 2741271 L 6431295 2742490 L 6428013 2744556"/><path class="fil0 str2" d=" M 6407590 2765317 L 6420488 2727965 M 6388950 2751774 L 6420488 2727965"/>
  <path class="fil0 str2" d=" M 6812868 33283078 L 6817468 33282214 L 6821408 33277531 L 6824687 33269028 L 6825810 33263745 L 6826273 33254643 L 6824578 33248762 L 6820727 33246103 L 6817910 33245505 L 6813310 33246367 L 6809370 33251049 L 6806090 33259555 L 6804968 33264836 L 6804505 33273940 L 6806199 33279819 L 6810051 33282478 L 6812868 33283078 M 6826273 33254643 L 6804505 33273940"/><path class="fil0 str2" d=" M 6808139 33236066 L 6836309 33242055"/><path class="fil0 str2" d=" M 6788923 33277988 L 6796782 33241013 M 6791740 33278586 L 6779063 33275891 L 6775212 33273232 L 6774177 33271174 L 6773518 33267353 L 6774266 33263830 L 6776423 33260610 L 6778206 33259147 L 6782805 33258286 M 6792666 33260380 L 6782805 33258286 L 6778954 33255627 L 6777920 33253566 L 6777260 33249746 L 6778383 33244462 L 6780540 33241242 L 6782322 33239780 L 6786922 33238918 L 6799599 33241613"/><path class="fil0 str2" d=" M 6763569 33272600 L 6771428 33235625 M 6743850 33268408 L 6751709 33231433 M 6767312 33254992 L 6747592 33250800"/>
  <path class="fil0 str2" d=" M 5812211 10338347 L 5807983 10336341 L 5802042 10337814 L 5794391 10342766 L 5790378 10346379 L 5784653 10353471 L 5782567 10359226 L 5784120 10363640 L 5786047 10365781 L 5790275 10367786 L 5796215 10366313 L 5803867 10361362 L 5807880 10357747 L 5813605 10350655 L 5815691 10344902 L 5814138 10340488 L 5812211 10338347 M 5784653 10353471 L 5813605 10350655"/><path class="fil0 str2" d=" M 5788405 10379160 L 5769134 10357757"/><path class="fil0 str2" d=" M 5828863 10375671 L 5823887 10378215 L 5819284 10378483 L 5815056 10376478 L 5814093 10375407 L 5812539 10370992 L 5813287 10366444 L 5816337 10361760 L 5817675 10360555 L 5822651 10358012 L 5827254 10357744 L 5831482 10359749 L 5832446 10360820 L 5833999 10365234 L 5833250 10369783 L 5828863 10375671 L 5822175 10381694 L 5814523 10386646 L 5808583 10388118 L 5804354 10386113 L 5802427 10383973 L 5800875 10379558 L 5802586 10376079"/><path class="fil0 str2" d=" M 5848826 10379012 L 5820735 10404305 M 5842081 10371520 L 5855571 10386502"/>
  <path class="fil0 str2" d=" M 4125449 27954707 L 4122402 27951154 L 4116376 27950083 L 4107372 27951496 L 4102236 27953164 L 4094122 27957314 L 4089876 27961723 L 4089499 27966386 L 4090389 27969125 L 4093436 27972678 L 4099461 27973750 L 4108466 27972336 L 4113601 27970668 L 4121716 27966518 L 4125962 27962109 L 4126339 27957446 L 4125449 27954707 M 4094122 27957314 L 4121716 27966518"/><path class="fil0 str2" d=" M 4087101 27982307 L 4078201 27954916"/><path class="fil0 str2" d=" M 4126166 27980212 L 4128768 27982397 L 4135238 27984836 L 4099288 27996516"/><path class="fil0 str2" d=" M 4139243 27997160 L 4106853 28019799 M 4146363 28019074 L 4106853 28019799"/>
  <path class="fil0 str2" d=" M 4520834 20742497 L 4525434 20741635 L 4529374 20736950 L 4532653 20728447 L 4533776 20723166 L 4534239 20714062 L 4532544 20708181 L 4528693 20705522 L 4525876 20704924 L 4521276 20705786 L 4517337 20710471 L 4514057 20718974 L 4512934 20724255 L 4512471 20733359 L 4514166 20739240 L 4518017 20741899 L 4520834 20742497 M 4534239 20714062 L 4512471 20733359"/><path class="fil0 str2" d=" M 4516105 20695485 L 4544275 20701474"/><path class="fil0 str2" d=" M 4492663 20736508 L 4497263 20735646 L 4501203 20730964 L 4504483 20722460 L 4505606 20717177 L 4506068 20708076 L 4504374 20702194 L 4500523 20699536 L 4497705 20698935 L 4493106 20699799 L 4489166 20704482 L 4485886 20712985 L 4484763 20718269 L 4484301 20727370 L 4485995 20733251 L 4489846 20735910 L 4492663 20736508 M 4506068 20708076 L 4484301 20727370"/><path class="fil0 str2" d=" M 4475761 20732917 L 4476578 20694445 M 4461676 20729921 L 4476578 20694445 M 4461676 20729921 L 4462492 20691452 M 4447590 20726928 L 4462492 20691452"/>
  <path class="fil0 str2" d=" M 7523854 21033212 L 7528454 21032351 L 7532394 21027666 L 7535674 21019162 L 7536796 21013881 L 7537259 21004777 L 7535565 20998896 L 7531713 20996237 L 7528897 20995639 L 7524296 20996501 L 7520357 21001186 L 7517077 21009689 L 7515954 21014970 L 7515491 21024074 L 7517186 21029956 L 7521037 21032614 L 7523854 21033212 M 7537259 21004777 L 7515491 21024074"/><path class="fil0 str2" d=" M 7519125 20986201 L 7547296 20992189"/><path class="fil0 str2" d=" M 7499909 21028122 L 7507768 20991149 M 7502727 21028720 L 7490050 21026027 L 7486198 21023369 L 7485164 21021308 L 7484504 21017487 L 7485252 21013967 L 7487409 21010744 L 7489192 21009282 L 7493792 21008420 M 7503652 21010517 L 7493792 21008420 L 7489941 21005761 L 7488906 21003701 L 7488247 20999880 L 7489369 20994599 L 7491526 20991376 L 7493309 20989916 L 7497908 20989052 L 7510585 20991748"/><path class="fil0 str2" d=" M 7460273 21006816 L 7462804 21001833 L 7466370 20998911 L 7470969 20998049 L 7472378 20998349 L 7476229 21001008 L 7478298 21005126 L 7478584 21010708 L 7478210 21012468 L 7475678 21017451 L 7472113 21020373 L 7467513 21021237 L 7466104 21020937 L 7462253 21018278 L 7460184 21014157 L 7460273 21006816 L 7462144 20998012 L 7465424 20989509 L 7469364 20984826 L 7473964 20983964 L 7476781 20984562 L 7480632 20987221 L 7481292 20991042"/>
  <path class="fil0 str2" d=" M 8047545 14621993 L 8052145 14621131 L 8056085 14616447 L 8059365 14607944 L 8060487 14602662 L 8060950 14593559 L 8059255 14587678 L 8055404 14585019 L 8052587 14584421 L 8047987 14585283 L 8044047 14589967 L 8040768 14598470 L 8039645 14603752 L 8039182 14612855 L 8040877 14618736 L 8044728 14621395 L 8047545 14621993 M 8060950 14593559 L 8039182 14612855"/><path class="fil0 str2" d=" M 8042816 14574982 L 8070986 14580970"/><path class="fil0 str2" d=" M 8026417 14617502 L 8034276 14580528 M 8026417 14617502 L 8008106 14613610 M 8030159 14599896 L 8018891 14597501 M 8034276 14580528 L 8015965 14576636"/><path class="fil0 str2" d=" M 8001064 14612114 L 8008923 14575140 M 8001064 14612114 L 7988387 14609418 L 7984536 14606760 L 7983501 14604700 L 7982841 14600880 L 7983590 14597358 L 7985747 14594136 L 7987529 14592674 L 7992129 14591812 L 8004806 14594506 M 7994946 14592410 L 7989203 14570948"/>
  <path class="fil0 str2" d=" M 5757561 17401188 L 5756222 17396704 L 5751152 17393275 L 5742352 17390903 L 5736982 17390338 L 5727881 17390830 L 5722209 17393129 L 5719968 17397237 L 5719666 17400101 L 5721005 17404586 L 5726074 17408015 L 5734874 17410388 L 5740245 17410952 L 5749346 17410461 L 5755018 17408161 L 5757260 17404052 L 5757561 17401188 M 5727881 17390830 L 5749346 17410461"/><path class="fil0 str2" d=" M 5711302 17410805 L 5714312 17382164"/><path class="fil0 str2" d=" M 5755303 17422670 L 5717709 17418719 M 5755303 17422670 L 5753346 17441287 M 5737401 17420788 L 5736197 17432246"/><path class="fil0 str2" d=" M 5752744 17447016 L 5725892 17444194 L 5720371 17445062 L 5716489 17447550 L 5714248 17451657 L 5713947 17454522 L 5715285 17459006 L 5718565 17462247 L 5723784 17464243 L 5750637 17467065"/>
  <path class="fil0 str2" d=" M 9267600 9468400 L 9263280 9470200 L 9260399 9475599 L 9258959 9484600 L 9258959 9490000 L 9260399 9499000 L 9263280 9504400 L 9267600 9506199 L 9270479 9506199 L 9274799 9504400 L 9277680 9499000 L 9279119 9490000 L 9279119 9484600 L 9277680 9475599 L 9274799 9470200 L 9270479 9468400 L 9267600 9468400 M 9260399 9499000 L 9277680 9475599"/><path class="fil0 str2" d=" M 9282000 9513400 L 9253200 9513400"/><path class="fil0 str2" d=" M 9292080 9468400 L 9292080 9506199 M 9289199 9468400 L 9302160 9468400 L 9306480 9470200 L 9307919 9472000 L 9309359 9475599 L 9309359 9479199 L 9307919 9482800 L 9306480 9484600 L 9302160 9486400 M 9292080 9486400 L 9302160 9486400 L 9306480 9488200 L 9307919 9490000 L 9309359 9493599 L 9309359 9499000 L 9307919 9502600 L 9306480 9504400 L 9302160 9506199 L 9289199 9506199"/><path class="fil0 str2" d=" M 9317999 9468400 L 9317999 9506199 M 9317999 9468400 L 9329520 9506199 M 9341040 9468400 L 9329520 9506199 M 9341040 9468400 L 9341040 9506199"/>
  <path class="fil0 str2" d=" M 8128916 12308353 L 8133516 12307490 L 8137456 12302807 L 8140736 12294304 L 8141858 12289022 L 8142321 12279919 L 8140627 12274038 L 8136775 12271379 L 8133958 12270780 L 8129359 12271643 L 8125419 12276325 L 8122139 12284830 L 8121016 12290112 L 8120554 12299215 L 8122248 12305095 L 8126099 12307755 L 8128916 12308353 M 8142321 12279919 L 8120554 12299215"/><path class="fil0 str2" d=" M 8124187 12261342 L 8152357 12267330"/><path class="fil0 str2" d=" M 8104971 12303264 L 8112830 12266289 M 8107788 12303862 L 8095111 12301168 L 8091260 12298509 L 8090226 12296448 L 8089566 12292628 L 8090314 12289106 L 8092471 12285885 L 8094254 12284423 L 8098854 12283560 M 8108713 12285656 L 8098854 12283560 L 8095003 12280902 L 8093968 12278842 L 8093308 12275021 L 8094431 12269739 L 8096588 12266517 L 8098370 12265056 L 8102971 12264194 L 8115647 12266888"/><path class="fil0 str2" d=" M 8079617 12297874 L 8087477 12260900 M 8087477 12260900 L 8070574 12257308"/>
  <path class="fil0 str2" d=" M 9459760 4968399 L 9455440 4970199 L 9452559 4975599 L 9451119 4984599 L 9451119 4990000 L 9452559 4998999 L 9455440 5004400 L 9459760 5006199 L 9462639 5006199 L 9466959 5004400 L 9469840 4998999 L 9471279 4990000 L 9471279 4984599 L 9469840 4975599 L 9466959 4970199 L 9462639 4968399 L 9459760 4968399 M 9452559 4998999 L 9469840 4975599"/><path class="fil0 str2" d=" M 9474160 5013399 L 9445360 5013399"/><path class="fil0 str2" d=" M 9484240 4968399 L 9484240 5006199 M 9481359 4968399 L 9494320 4968399 L 9498640 4970199 L 9500079 4972000 L 9501519 4975599 L 9501519 4979200 L 9500079 4982799 L 9498640 4984599 L 9494320 4986400 M 9484240 4986400 L 9494320 4986400 L 9498640 4988200 L 9500079 4990000 L 9501519 4993599 L 9501519 4998999 L 9500079 5002600 L 9498640 5004400 L 9494320 5006199 L 9481359 5006199"/><path class="fil0 str2" d=" M 9510159 4968399 L 9510159 5006199 M 9530319 4968399 L 9510159 4993599 M 9517360 4984599 L 9530319 5006199"/>
  <path class="fil0 str2" d=" M 8798146 19745877 L 8793468 19745765 L 8788640 19749526 L 8783664 19757163 L 8781468 19762095 L 8779123 19770903 L 8779558 19777008 L 8782772 19780410 L 8785403 19781580 L 8790081 19781694 L 8794909 19777932 L 8799885 19770295 L 8802081 19765362 L 8804426 19756555 L 8803992 19750450 L 8800778 19747049 L 8798146 19745877 M 8779123 19770903 L 8804426 19756555"/><path class="fil0 str2" d=" M 8792998 19792844 L 8766688 19781130"/><path class="fil0 str2" d=" M 8817879 19754663 L 8802504 19789195 M 8817879 19754663 L 8834981 19762277 M 8810558 19771107 L 8821082 19775792 M 8802504 19789195 L 8819606 19796809"/><path class="fil0 str2" d=" M 8848135 19768134 L 8844772 19768607 L 8840678 19770725 L 8837897 19773427 L 8834385 19777774 L 8830725 19785997 L 8829844 19791516 L 8829696 19795390 L 8830862 19799851 L 8832761 19802666 L 8838023 19805009 L 8841386 19804536 L 8845482 19802419 L 8848261 19799715 L 8851773 19795368 L 8855433 19787145 L 8856315 19781627 L 8856463 19777752 L 8855297 19773293 L 8853398 19770477 L 8848135 19768134 M 8839636 19797845 L 8843136 19811226"/>
  <path class="fil0 str2" d=" M 8779039 17388399 L 8774719 17390200 L 8771840 17395600 L 8770399 17404599 L 8770399 17410000 L 8771840 17419000 L 8774719 17424399 L 8779039 17426199 L 8781920 17426199 L 8786240 17424399 L 8789119 17419000 L 8790560 17410000 L 8790560 17404599 L 8789119 17395600 L 8786240 17390200 L 8781920 17388399 L 8779039 17388399 M 8771840 17419000 L 8789119 17395600"/><path class="fil0 str2" d=" M 8793439 17433399 L 8764639 17433399"/><path class="fil0 str2" d=" M 8803519 17388399 L 8803519 17426199 M 8800640 17388399 L 8813599 17388399 L 8817919 17390200 L 8819359 17391999 L 8820800 17395600 L 8820800 17399200 L 8819359 17402800 L 8817919 17404599 L 8813599 17406400 M 8803519 17406400 L 8813599 17406400 L 8817919 17408199 L 8819359 17410000 L 8820800 17413599 L 8820800 17419000 L 8819359 17422600 L 8817919 17424399 L 8813599 17426199 L 8800640 17426199"/><path class="fil0 str2" d=" M 8829439 17388399 L 8829439 17426199 M 8829439 17388399 L 8849600 17426199 M 8849600 17388399 L 8849600 17426199"/>
  <path class="fil0 str2" d=" M 2946217 2394161 L 2950817 2393298 L 2954757 2388615 L 2958037 2380111 L 2959159 2374829 L 2959622 2365726 L 2957928 2359846 L 2954076 2357187 L 2951259 2356588 L 2946659 2357451 L 2942720 2362134 L 2939440 2370638 L 2938317 2375920 L 2937855 2385022 L 2939549 2390903 L 2943400 2393562 L 2946217 2394161 M 2959622 2365726 L 2937855 2385022"/><path class="fil0 str2" d=" M 2941488 2347150 L 2969659 2353138"/><path class="fil0 str2" d=" M 2918047 2388173 L 2937174 2353594 M 2918047 2388173 L 2914638 2348804 M 2930329 2365021 L 2916243 2362027"/><path class="fil0 str2" d=" M 2901144 2384580 L 2909003 2347606 M 2901144 2384580 L 2882833 2380688 M 2904887 2366974 L 2893619 2364578 M 2909003 2347606 L 2890693 2343714"/>
  <path class="fil0 str2" d=" M 5201199 25608400 L 5196879 25610200 L 5194000 25615600 L 5192559 25624599 L 5192559 25630000 L 5194000 25638999 L 5196879 25644399 L 5201199 25646201 L 5204080 25646201 L 5208400 25644399 L 5211279 25638999 L 5212719 25630000 L 5212719 25624599 L 5211279 25615600 L 5208400 25610200 L 5204080 25608400 L 5201199 25608400 M 5194000 25638999 L 5211279 25615600"/><path class="fil0 str2" d=" M 5215599 25653400 L 5186799 25653400"/><path class="fil0 str2" d=" M 5222800 25608400 L 5222800 25646201 M 5222800 25608400 L 5241519 25608400 M 5222800 25626398 L 5234320 25626398 M 5222800 25646201 L 5241519 25646201"/><path class="fil0 str2" d=" M 5248720 25608400 L 5248720 25646201 M 5248720 25608400 L 5261680 25608400 L 5265999 25610200 L 5267440 25611999 L 5268880 25615600 L 5268880 25621000 L 5267440 25624599 L 5265999 25626398 L 5261680 25628200 L 5248720 25628200"/>
  <path class="fil0 str2" d=" M 4401543 11965905 L 4406143 11965042 L 4410083 11960360 L 4413362 11951855 L 4414485 11946573 L 4414948 11937470 L 4413253 11931590 L 4409402 11928930 L 4406585 11928332 L 4401985 11929195 L 4398045 11933878 L 4394765 11942381 L 4393643 11947663 L 4393180 11956766 L 4394874 11962647 L 4398726 11965306 L 4401543 11965905 M 4414948 11937470 L 4393180 11956766"/><path class="fil0 str2" d=" M 4396813 11918895 L 4424984 11924882"/><path class="fil0 str2" d=" M 4362104 11957521 L 4384048 11923542 M 4381824 11961713 L 4362104 11957521"/><path class="fil0 str2" d=" M 4346610 11954228 L 4349801 11953067 L 4353367 11950144 L 4355524 11946922 L 4358055 11941939 L 4359927 11933137 L 4359641 11927554 L 4358981 11923734 L 4356912 11919614 L 4354469 11917254 L 4348835 11916057 L 4345644 11917219 L 4342078 11920141 L 4339921 11923364 L 4337390 11928345 L 4335519 11937149 L 4335805 11942730 L 4336465 11946551 L 4338533 11950671 L 4340976 11953031 L 4346610 11954228 M 4348746 11923399 L 4342541 11911038"/>
  <path class="fil0 str2" d=" M 3928235 17600629 L 3932835 17599768 L 3936774 17595084 L 3940054 17586580 L 3941177 17581298 L 3941640 17572196 L 3939945 17566314 L 3936094 17563656 L 3933277 17563057 L 3928677 17563919 L 3924737 17568603 L 3921458 17577106 L 3920335 17582388 L 3919872 17591491 L 3921567 17597373 L 3925418 17600031 L 3928235 17600629 M 3941640 17572196 L 3919872 17591491"/><path class="fil0 str2" d=" M 3923506 17553619 L 3951676 17559606"/><path class="fil0 str2" d=" M 3888796 17592247 L 3910740 17558266 M 3908515 17596439 L 3888796 17592247"/><path class="fil0 str2" d=" M 3863157 17581276 L 3865225 17585396 L 3869077 17588055 L 3874711 17589252 L 3879310 17588391 L 3882876 17585468 L 3883625 17581947 L 3882965 17578126 L 3881930 17576065 L 3879487 17573707 L 3871785 17568388 L 3869342 17566029 L 3868308 17563969 L 3867648 17560148 L 3868770 17554866 L 3872336 17551944 L 3876936 17551081 L 3882570 17552279 L 3886421 17554937 L 3888490 17559058"/>
  <path class="fil0 str2" d=" M 6851850 30255014 L 6856450 30254152 L 6860390 30249467 L 6863670 30240964 L 6864792 30235683 L 6865255 30226579 L 6863560 30220698 L 6859709 30218039 L 6856892 30217441 L 6852292 30218303 L 6848352 30222988 L 6845073 30231491 L 6843950 30236772 L 6843487 30245876 L 6845181 30251757 L 6849033 30254416 L 6851850 30255014 M 6865255 30226579 L 6843487 30245876"/><path class="fil0 str2" d=" M 6847120 30208002 L 6875291 30213991"/><path class="fil0 str2" d=" M 6812411 30246630 L 6834356 30212651 M 6832130 30250822 L 6812411 30246630"/><path class="fil0 str2" d=" M 6803960 30244836 L 6811819 30207861 M 6803960 30244836 L 6791283 30242141 L 6787432 30239482 L 6786397 30237421 L 6785737 30233601 L 6786486 30230080 L 6788643 30226857 L 6790426 30225395 L 6795026 30224533 L 6807702 30227229 M 6797843 30225131 L 6792100 30203669"/>
  <path class="fil0 str2" d=" M 8774467 23813996 L 8779066 23813132 L 8783006 23808449 L 8786286 23799946 L 8787409 23794663 L 8787871 23785561 L 8786177 23779680 L 8782326 23777021 L 8779508 23776423 L 8774909 23777285 L 8770969 23781967 L 8767689 23790473 L 8766566 23795754 L 8766104 23804858 L 8767798 23810737 L 8771649 23813395 L 8774467 23813996 M 8787871 23785561 L 8766104 23804858"/><path class="fil0 str2" d=" M 8769737 23766984 L 8797908 23772973"/><path class="fil0 str2" d=" M 8750521 23808906 L 8758380 23771931 M 8753338 23809504 L 8743479 23807409 L 8739627 23804750 L 8737559 23800629 L 8736899 23796809 L 8736613 23791228 L 8738484 23782424 L 8741015 23777441 L 8743172 23774221 L 8746738 23771296 L 8751338 23770434 L 8761198 23772531"/><path class="fil0 str2" d=" M 8725168 23803518 L 8733027 23766542 M 8705448 23799326 L 8713308 23762351 M 8728910 23785910 L 8709191 23781718"/>
  <path class="fil0 str2" d=" M 4829326 23997770 L 4833926 23996909 L 4837866 23992226 L 4841145 23983723 L 4842268 23978439 L 4842731 23969338 L 4841036 23963457 L 4837185 23960798 L 4834368 23960197 L 4829768 23961062 L 4825828 23965744 L 4822549 23974248 L 4821426 23979531 L 4820963 23988632 L 4822658 23994514 L 4826509 23997172 L 4829326 23997770 M 4842731 23969338 L 4820963 23988632"/><path class="fil0 str2" d=" M 4824597 23950761 L 4852767 23956748"/><path class="fil0 str2" d=" M 4805381 23992683 L 4813240 23955708 M 4808198 23993281 L 4798338 23991184 L 4794487 23988525 L 4792418 23984406 L 4791758 23980585 L 4791473 23975004 L 4793344 23966201 L 4795875 23961218 L 4798032 23957995 L 4801598 23955073 L 4806197 23954211 L 4816057 23956306"/><path class="fil0 str2" d=" M 4777210 23986694 L 4785069 23949719 M 4780028 23987292 L 4770168 23985197 L 4766316 23982539 L 4764248 23978417 L 4763588 23974597 L 4763302 23969016 L 4765173 23960212 L 4767704 23955229 L 4769861 23952009 L 4773427 23949086 L 4778027 23948222 L 4787886 23950319"/>
  <path class="fil0 str2" d=" M 4180236 32294113 L 4184836 32293251 L 4188776 32288569 L 4192055 32280065 L 4193178 32274782 L 4193641 32265681 L 4191947 32259799 L 4188095 32257141 L 4185278 32256540 L 4180678 32257404 L 4176738 32262087 L 4173459 32270590 L 4172336 32275874 L 4171873 32284975 L 4173568 32290856 L 4177419 32293515 L 4180236 32294113 M 4193641 32265681 L 4171873 32284975"/><path class="fil0 str2" d=" M 4175507 32247104 L 4203677 32253090"/><path class="fil0 str2" d=" M 4156291 32289025 L 4164150 32252050 M 4159108 32289624 L 4149248 32287526 L 4145397 32284868 L 4143328 32280749 L 4142668 32276928 L 4142383 32271347 L 4144254 32262543 L 4146785 32257561 L 4148942 32254338 L 4152508 32251416 L 4157107 32250554 L 4166967 32252648"/><path class="fil0 str2" d=" M 4128121 32283037 L 4135979 32246062 M 4130938 32283635 L 4118261 32280942 L 4114409 32278281 L 4113375 32276223 L 4112715 32272402 L 4113464 32268879 L 4115621 32265659 L 4117403 32264196 L 4122003 32263334 M 4131863 32265429 L 4122003 32263334 L 4118152 32260676 L 4117117 32258615 L 4116457 32254794 L 4117580 32249511 L 4119737 32246291 L 4121520 32244829 L 4126120 32243967 L 4138796 32246662"/>
  <path class="fil0 str2" d=" M 4461204 30728312 L 4465804 30727451 L 4469744 30722766 L 4473023 30714262 L 4474146 30708981 L 4474609 30699877 L 4472915 30693996 L 4469063 30691337 L 4466246 30690739 L 4461646 30691601 L 4457707 30696286 L 4454427 30704790 L 4453304 30710070 L 4452841 30719174 L 4454536 30725056 L 4458387 30727714 L 4461204 30728312 M 4474609 30699877 L 4452841 30719174"/><path class="fil0 str2" d=" M 4456475 30681301 L 4484645 30687290"/><path class="fil0 str2" d=" M 4422228 30710827 L 4422888 30714648 L 4424956 30718767 L 4427399 30721127 L 4433034 30722324 L 4436225 30721162 L 4439790 30718239 L 4441947 30715019 L 4444479 30710036 L 4446350 30701232 L 4446064 30695651 L 4445404 30691831 L 4443335 30687709 L 4440893 30685351 L 4435259 30684152 L 4432067 30685314 L 4428502 30688237 L 4426345 30691459"/><path class="fil0 str2" d=" M 4393595 30713942 L 4415539 30679960 M 4413314 30718134 L 4393595 30713942"/>
  <path class="fil0 str2" d=" M 5022261 22413261 L 5026860 22412399 L 5030800 22407714 L 5034080 22399211 L 5035203 22393930 L 5035665 22384826 L 5033971 22378945 L 5030120 22376286 L 5027303 22375688 L 5022703 22376550 L 5018763 22381235 L 5015483 22389738 L 5014361 22395019 L 5013898 22404123 L 5015592 22410004 L 5019444 22412663 L 5022261 22413261 M 5035665 22384826 L 5013898 22404123"/><path class="fil0 str2" d=" M 5017532 22366250 L 5045702 22372238"/><path class="fil0 str2" d=" M 4983284 22395776 L 4983945 22399597 L 4986013 22403715 L 4988456 22406076 L 4994090 22407272 L 4997281 22406110 L 5000847 22403188 L 5003004 22399968 L 5005535 22394985 L 5007406 22386181 L 5007120 22380600 L 5006461 22376779 L 5004392 22372658 L 5001949 22370300 L 4996315 22369101 L 4993124 22370263 L 4989558 22373186 L 4987401 22376408"/><path class="fil0 str2" d=" M 4957182 22393908 L 4957843 22397729 L 4961694 22400388 L 4964511 22400986 L 4969111 22400124 L 4973051 22395441 L 4976330 22386936 L 4978201 22378134 L 4978290 22370791 L 4976221 22366672 L 4972370 22364013 L 4970961 22363713 L 4966361 22364575 L 4962796 22367497 L 4960265 22372480 L 4959891 22374240 L 4960176 22379821 L 4962245 22383942 L 4966096 22386601 L 4967505 22386901 L 4972105 22386037 L 4975670 22383115 L 4978201 22378134"/>
  <path class="fil0 str2" d=" M 2773021 5342581 L 2777621 5341719 L 2781561 5337036 L 2784841 5328532 L 2785964 5323250 L 2786426 5314147 L 2784732 5308266 L 2780881 5305607 L 2778063 5305009 L 2773464 5305871 L 2769524 5310554 L 2766244 5319058 L 2765121 5324340 L 2764659 5333443 L 2766353 5339324 L 2770204 5341983 L 2773021 5342581 M 2786426 5314147 L 2764659 5333443"/><path class="fil0 str2" d=" M 2768292 5295571 L 2796463 5301559"/><path class="fil0 str2" d=" M 2744851 5336594 L 2763978 5302015 M 2744851 5336594 L 2741441 5297224 M 2757133 5313441 L 2743048 5310447"/><path class="fil0 str2" d=" M 2727948 5333001 L 2735808 5296027 M 2727948 5333001 L 2724539 5293632 M 2705412 5328211 L 2724539 5293632 M 2705412 5328211 L 2713271 5291237"/>
  <path class="fil0 str2" d=" M 2692288 7635910 L 2696888 7635048 L 2700827 7630364 L 2704107 7621860 L 2705230 7616578 L 2705693 7607476 L 2703998 7601595 L 2700147 7598936 L 2697330 7598338 L 2692730 7599200 L 2688790 7603883 L 2685510 7612387 L 2684388 7617669 L 2683925 7626772 L 2685619 7632653 L 2689471 7635311 L 2692288 7635910 M 2705693 7607476 L 2683925 7626772"/><path class="fil0 str2" d=" M 2687558 7588900 L 2715729 7594888"/><path class="fil0 str2" d=" M 2664117 7629923 L 2683244 7595344 M 2664117 7629923 L 2660708 7590553 M 2676399 7606770 L 2662314 7603776"/><path class="fil0 str2" d=" M 2647215 7626330 L 2655074 7589356 M 2647215 7626330 L 2634538 7623635 L 2630686 7620977 L 2629652 7618916 L 2628992 7615095 L 2629741 7611574 L 2631898 7608352 L 2633681 7606891 L 2638280 7606029 L 2650957 7608723 M 2641098 7606627 L 2635354 7585164"/>
  <path class="fil0 str2" d=" M 5952880 809997 L 5951541 805512 L 5946472 802084 L 5937672 799711 L 5932301 799146 L 5923200 799638 L 5917529 801937 L 5915287 806046 L 5914986 808910 L 5916325 813394 L 5921394 816823 L 5930194 819196 L 5935565 819760 L 5944666 819269 L 5950337 816969 L 5952579 812861 L 5952880 809997 M 5923200 799638 L 5944666 819269"/><path class="fil0 str2" d=" M 5906621 819614 L 5909631 790972"/><path class="fil0 str2" d=" M 5950321 834343 L 5912728 830391 M 5950622 831478 L 5949569 841503 L 5947327 845611 L 5943446 848099 L 5939714 849155 L 5934194 850023 L 5925243 849082 L 5920023 847085 L 5916593 845277 L 5913314 842036 L 5911975 837552 L 5913029 827527"/><path class="fil0 str2" d=" M 5945655 878738 L 5909567 860466 M 5947762 858689 L 5945655 878738"/>
  </g>
</svg>
