<?xml version="1.0" encoding="UTF-8"?>
<!DOCTYPE svg PUBLIC "-//W3C//DTD SVG 1.1//EN" "http://www.w3.org/Graphics/SVG/1.1/DTD/svg11.dtd">
<svg xmlns="http://www.w3.org/2000/svg"
     xmlns:xlink="http://www.w3.org/1999/xlink"
     version="1.1" baseProfile="full"
     width="304.8mm" height="177.8mm"
     viewBox="0 0 3048000 1778000">
  <defs>
    <style type="text/css">
      <![CDATA[
        .str0 {stroke:red; stroke-width:1}
        .str1 {stroke:green; stroke-width:1}
        .str2 {stroke:black; stroke-width:1}
        .fil0 {fill:none}
        .fil1 {fill:black}
        .fil2 {fill:green}
        .fnt0 {text-anchor:'middle'; dominant-baseline:'central'; font-weight:normal; font-size:3pt; font-family:'Arial'; text-decoration:underline;}
      ]]>
    </style>
  </defs>
  <g id="Layer_x0020_1">
    <metadata id="CorelCorpID_0Corel-Layer"/>
    <rect class="str1" x="0" y="0" width="3.048e+06" height="1.778e+06" />
    <circle class="fil0 str1" cx="0" cy="0" r="50000" />
    <circle class="fil0 str1" cx="0" cy="0" r="50000" />
    <circle class="fil0 str1" cx="0" cy="0" r="50000" />
    <circle class="fil0 str1" cx="0" cy="0" r="50000" />
    <circle class="fil0 str1" cx="0" cy="0" r="50000" />
    <circle class="fil0 str1" cx="0" cy="0" r="50000" />
    <circle class="fil0 str1" cx="0" cy="0" r="50000" />
    <circle class="fil0 str1" cx="0" cy="0" r="50000" />
    <circle class="fil0 str1" cx="0" cy="0" r="50000" />
  </g>
  <g id="Layer_x0020_2">
    <metadata id="CorelCorpID_1Corel-Layer"/>
    <path class="fil0 str0" d="M 8762421 11545790 C 8273347 11649746, 7784274 11753702, 7295200 11857658 C 7191244 11368584, 7087288 10879510, 6983332 10390436 C 7472406 10286480, 7961480 10182525, 8450553 10078569 C 8554509 10567642, 8658465 11056716, 8762421 11545790" />
    <path class="fil0 str0" d="M 40000 880000 C 539999 880000, 1039999 880000, 1540000 880000 C 1540000 1380000, 1540000 1880000, 1540000 2380000 C 1039999 2380000, 539999 2380000, 40000 2380000 C 40000 1880000, 40000 1380000, 40000 880000" />
    <path class="fil0 str0" d="M 13779717 29847578 C 13934226 29372050, 14088734 28896522, 14243243 28420993 C 14718771 28575502, 15194299 28730010, 15669828 28884519 C 15515319 29360047, 15360811 29835575, 15206302 30311103 C 14730774 30156595, 14255246 30002087, 13779717 29847578" />
    <path class="fil0 str0" d="M 6476130 18922332 C 5987056 19026288, 5497983 19130244, 5008909 19234200 C 4904953 18745126, 4800997 18256052, 4697041 17766978 C 5186115 17663023, 5675189 17559067, 6164263 17455111 C 6268218 17944185, 6372174 18433258, 6476130 18922332" />
    <path class="fil0 str0" d="M 8545794 18587583 C 8141285 18293691, 7736777 17999798, 7332268 17705906 C 7626161 17301397, 7920053 16896889, 8213946 16492380 C 8618454 16786273, 9022963 17080165, 9427472 17374058 C 9133579 17778566, 8839686 18183075, 8545794 18587583" />
    <path class="fil0 str0" d="M 629587 15436913 C 1086359 15233545, 1543132 15030177, 1999905 14826808 C 2203273 15283581, 2406641 15740354, 2610010 16197127 C 2153237 16400495, 1696464 16603863, 1239692 16807231 C 1036323 16350459, 832955 15893686, 629587 15436913" />
    <path class="fil0 str0" d="M 2055991 19626724 C 1566917 19730680, 1077843 19834636, 588769 19938592 C 484814 19449518, 380858 18960444, 276902 18471370 C 765976 18367414, 1255049 18263458, 1744123 18159502 C 1848079 18648576, 1952035 19137650, 2055991 19626724" />
    <path class="fil0 str0" d="M 15571062 24819201 C 15081988 24715245, 14592914 24611289, 14103840 24507333 C 14207796 24018260, 14311752 23529186, 14415708 23040112 C 14904782 23144068, 15393855 23248024, 15882929 23351979 C 15778973 23841053, 15675018 24330127, 15571062 24819201" />
    <path class="fil0 str0" d="M 16549454 27286537 C 16060380 27182581, 15571307 27078626, 15082233 26974670 C 15186189 26485596, 15290144 25996522, 15394100 25507448 C 15883174 25611404, 16372248 25715360, 16861322 25819316 C 16757366 26308390, 16653410 26797463, 16549454 27286537" />
    <path class="fil0 str0" d="M 10110266 2832813 C 10567039 3036181, 11023812 3239549, 11480584 3442917 C 11277216 3899690, 11073848 4356463, 10870480 4813236 C 10413707 4609867, 9956934 4406499, 9500161 4203131 C 9703529 3746358, 9906898 3289585, 10110266 2832813" />
    <path class="fil0 str0" d="M 18492537 7467432 C 18003463 7363476, 17514390 7259520, 17025316 7155565 C 17129272 6666491, 17233227 6177417, 17337183 5688343 C 17826257 5792299, 18315331 5896255, 18804405 6000211 C 18700449 6489284, 18596493 6978358, 18492537 7467432" />
    <path class="fil0 str0" d="M 18012743 12129556 C 17523669 12025600, 17034595 11921644, 16545522 11817688 C 16649477 11328614, 16753433 10839541, 16857389 10350467 C 17346463 10454423, 17835537 10558378, 18324610 10662334 C 18220655 11151408, 18116699 11640482, 18012743 12129556" />
    <path class="fil0 str0" d="M 690000 23530000 C 1190000 23530000, 1690000 23530000, 2190000 23530000 C 2190000 24030000, 2190000 24530000, 2190000 25030000 C 1690000 25030000, 1190000 25030000, 690000 25030000 C 690000 24530000, 690000 24030000, 690000 23530000" />
    <path class="fil0 str0" d="M 14320000 31790000 C 14820000 31790000, 15320000 31790000, 15820000 31790000 C 15820000 32290000, 15820000 32790000, 15820000 33290000 C 15320000 33290000, 14820000 33290000, 14320000 33290000 C 14320000 32790000, 14320000 32290000, 14320000 31790000" />
    <path class="fil0 str0" d="M 18366237 9648842 C 17877163 9544886, 17388089 9440930, 16899015 9336974 C 17002971 8847900, 17106927 8358827, 17210883 7869753 C 17699957 7973709, 18189030 8077664, 18678104 8181620 C 18574148 8670694, 18470193 9159768, 18366237 9648842" />
    <path class="fil0 str0" d="M 4177256 24217140 C 3688182 24113184, 3199108 24009228, 2710034 23905272 C 2813990 23416199, 2917946 22927125, 3021902 22438051 C 3510975 22542007, 4000049 22645963, 4489123 22749918 C 4385167 23238992, 4281211 23728066, 4177256 24217140" />
    <path class="fil0 str0" d="M 10262590 20358021 C 9773516 20254065, 9284443 20150109, 8795369 20046153 C 8899325 19557079, 9003280 19068006, 9107236 18578932 C 9596310 18682888, 10085384 18786843, 10574458 18890799 C 10470502 19379873, 10366546 19868947, 10262590 20358021" />
    <path class="fil0 str0" d="M 8238698 2595213 C 7988698 3028226, 7738698 3461239, 7488698 3894251 C 7055685 3644251, 6622673 3394251, 6189660 3144252 C 6439660 2711239, 6689660 2278226, 6939660 1845213 C 7372672 2095213, 7805685 2345213, 8238698 2595213" />
    <path class="fil0 str0" d="M 14611298 12500461 C 14122224 12396505, 13633150 12292549, 13144076 12188594 C 13248032 11699520, 13351988 11210446, 13455944 10721372 C 13945018 10825328, 14434091 10929284, 14923165 11033239 C 14819209 11522313, 14715254 12011387, 14611298 12500461" />
    <path class="fil0 str0" d="M 16238884 34583911 C 15834376 34877804, 15429867 35171697, 15025359 35465589 C 14731466 35061081, 14437573 34656572, 14143681 34252064 C 14548189 33958171, 14952698 33664279, 15357206 33370386 C 15651099 33774894, 15944991 34179403, 16238884 34583911" />
    <path class="fil0 str0" d="M 2855679 620537 C 3312452 417168, 3769224 213800, 4225997 10432 C 4429365 467205, 4632734 923977, 4836102 1380750 C 4379329 1584118, 3922557 1787487, 3465784 1990855 C 3262416 1534082, 3059047 1077310, 2855679 620537" />
    <path class="fil0 str0" d="M 8937456 32343787 C 8687456 31910774, 8437456 31477762, 8187456 31044749 C 8620469 30794749, 9053481 30544749, 9486494 30294749 C 9736494 30727761, 9986494 31160774, 10236494 31593787 C 9803481 31843787, 9370469 32093787, 8937456 32343787" />
    <path class="fil0 str0" d="M 8517157 13737605 C 8973930 13940974, 9430703 14144342, 9887476 14347710 C 9684107 14804483, 9480739 15261256, 9277371 15718028 C 8820598 15514660, 8363825 15311292, 7907053 15107924 C 8110421 14651151, 8313789 14194378, 8517157 13737605" />
    <path class="fil0 str0" d="M 18931854 34186193 C 18442781 34290148, 17953707 34394104, 17464633 34498060 C 17360677 34008986, 17256721 33519913, 17152765 33030839 C 17641839 32926883, 18130913 32822927, 18619987 32718971 C 18723943 33208045, 18827898 33697119, 18931854 34186193" />
    <path class="fil0 str0" d="M 12810000 34520000 C 13310000 34519999, 13810000 34520000, 14310000 34520000 C 14310000 35019999, 14310000 35519999, 14310000 36020000 C 13810000 36019999, 13310000 36020000, 12810000 36020000 C 12810000 35519999, 12810000 35019999, 12810000 34520000" />
    <path class="fil0 str0" d="M 5708603 20476814 C 6165376 20273445, 6622148 20070077, 7078921 19866709 C 7282289 20323481, 7485658 20780254, 7689026 21237027 C 7232253 21440395, 6775480 21643763, 6318708 21847132 C 6115339 21390359, 5911971 20933586, 5708603 20476814" />
    <path class="fil0 str0" d="M 3298323 32055690 C 2809249 31951735, 2320175 31847779, 1831102 31743823 C 1935057 31254749, 2039013 30765675, 2142969 30276602 C 2632043 30380557, 3121117 30484513, 3610190 30588469 C 3506235 31077543, 3402279 31566617, 3298323 32055690" />
    <path class="fil0 str0" d="M 9281424 21703425 C 8792350 21599469, 8303277 21495513, 7814203 21391558 C 7918159 20902484, 8022114 20413410, 8126070 19924336 C 8615144 20028292, 9104218 20132248, 9593292 20236204 C 9489336 20725277, 9385380 21214351, 9281424 21703425" />
    <path class="fil0 str0" d="M 10480000 19700000 C 10980000 19700000, 11480000 19700000, 11980000 19700000 C 11980000 20200000, 11980000 20700000, 11980000 21200000 C 11480000 21200000, 10980000 21200000, 10480000 21200000 C 10479999 20700000, 10480000 20200000, 10480000 19700000" />
    <path class="fil0 str0" d="M 7023518 17790603 C 6619010 17496710, 6214501 17202818, 5809993 16908925 C 6103886 16504416, 6397778 16099908, 6691671 15695399 C 7096179 15989292, 7500688 16283185, 7905196 16577077 C 7611304 16981586, 7317411 17386094, 7023518 17790603" />
    <path class="fil0 str0" d="M 13349819 11042494 C 13099819 11475506, 12849819 11908519, 12599819 12341532 C 12166806 12091532, 11733793 11841532, 11300781 11591532 C 11550781 11158519, 11800780 10725506, 12050780 10292494 C 12483793 10542494, 12916806 10792494, 13349819 11042494" />
    <path class="fil0 str0" d="M 7473118 20132047 C 7068610 19838154, 6664101 19544262, 6259593 19250369 C 6553485 18845860, 6847378 18441352, 7141270 18036843 C 7545779 18330736, 7950288 18624629, 8354796 18918521 C 8060903 19323030, 7767011 19727538, 7473118 20132047" />
    <path class="fil0 str0" d="M 13038259 14271342 C 12985995 14768603, 12933731 15265864, 12881467 15763125 C 12384206 15710861, 11886945 15658597, 11389684 15606333 C 11441948 15109072, 11494212 14611811, 11546477 14114550 C 12043738 14166814, 12540998 14219078, 13038259 14271342" />
    <path class="fil0 str0" d="M 14138201 9067812 C 14085937 9565073, 14033673 10062334, 13981409 10559595 C 13484148 10507331, 12986887 10455066, 12489626 10402802 C 12541890 9905541, 12594154 9408280, 12646419 8911019 C 13143679 8963284, 13640940 9015548, 14138201 9067812" />
    <path class="fil0 str0" d="M 5600165 16303432 C 5350165 15870419, 5100165 15437406, 4850165 15004394 C 5283178 14754394, 5716191 14504394, 6149203 14254394 C 6399203 14687406, 6649204 15120419, 6899204 15553432 C 6466191 15803432, 6033178 16053432, 5600165 16303432" />
    <path class="fil0 str0" d="M 5390809 11438932 C 5725375 11810504, 6059940 12182076, 6394505 12553649 C 6022933 12888214, 5651361 13222779, 5279788 13557345 C 4945223 13185772, 4610657 12814200, 4276092 12442628 C 4647664 12108062, 5019237 11773497, 5390809 11438932" />
    <path class="fil0 str0" d="M 10180307 12811394 C 10514872 12439822, 10849437 12068249, 11184003 11696677 C 11555575 12031242, 11927148 12365808, 12298720 12700373 C 11964155 13071945, 11629589 13443518, 11295024 13815090 C 10923452 13480525, 10551879 13145960, 10180307 12811394" />
    <path class="fil0 str0" d="M 9680497 15381149 C 10015062 15752722, 10349628 16124294, 10684193 16495866 C 10312621 16830432, 9941048 17164997, 9569476 17499562 C 9234911 17127990, 8900345 16756418, 8565780 16384845 C 8937352 16050280, 9308925 15715715, 9680497 15381149" />
    <path class="fil0 str0" d="M 4596674 10108612 C 4931239 10480185, 5265805 10851757, 5600370 11223330 C 5228798 11557895, 4857225 11892460, 4485653 12227026 C 4151088 11855453, 3816522 11483881, 3481957 11112309 C 3853529 10777743, 4225102 10443178, 4596674 10108612" />
    <path class="fil0 str0" d="M 12812162 8619617 C 12966670 8144089, 13121179 7668560, 13275687 7193032 C 13751216 7347541, 14226744 7502049, 14702272 7656557 C 14547764 8132086, 14393255 8607614, 14238747 9083142 C 13763218 8928634, 13287690 8774125, 12812162 8619617" />
    <path class="fil0 str0" d="M 17513811 29290837 C 17024737 29186881, 16535663 29082925, 16046589 28978969 C 16150545 28489896, 16254501 28000822, 16358456 27511748 C 16847530 27615704, 17336604 27719660, 17825678 27823615 C 17721722 28312689, 17617766 28801763, 17513811 29290837" />
    <path class="fil0 str0" d="M 17282336 29996286 C 17436844 30471814, 17591353 30947342, 17745861 31422871 C 17270333 31577379, 16794805 31731888, 16319277 31886396 C 16164768 31410868, 16010260 30935340, 15855751 30459812 C 16331279 30305303, 16806807 30150794, 17282336 29996286" />
    <path class="fil0 str0" d="M 15865993 35101082 C 16200558 34729509, 16535123 34357937, 16869689 33986365 C 17241261 34320930, 17612833 34655495, 17984406 34990061 C 17649841 35361633, 17315275 35733205, 16980710 36104778 C 16609138 35770212, 16237565 35435647, 15865993 35101082" />
    <path class="fil0 str0" d="M 18041162 24359551 C 17988898 24856812, 17936634 25354073, 17884370 25851334 C 17387109 25799070, 16889848 25746806, 16392587 25694542 C 16444851 25197281, 16497115 24700020, 16549379 24202759 C 17046640 24255023, 17543901 24307287, 18041162 24359551" />
    <path class="fil0 str0" d="M 9602310 3050720 C 9550046 3547981, 9497782 4045242, 9445517 4542503 C 8948256 4490239, 8450995 4437975, 7953735 4385711 C 8005999 3888450, 8058263 3391189, 8110527 2893928 C 8607788 2946192, 9105049 2998456, 9602310 3050720" />
    <path class="fil0 str0" d="M 13284958 7164500 C 13439466 6688972, 13593975 6213444, 13748483 5737916 C 14224012 5892424, 14699540 6046933, 15175068 6201441 C 15020560 6676969, 14866051 7152498, 14711543 7628026 C 14236014 7473517, 13760486 7319009, 13284958 7164500" />
    <path class="fil0 str0" d="M 18452793 19103787 C 18400529 19601048, 18348265 20098309, 18296001 20595570 C 17798740 20543306, 17301479 20491041, 16804218 20438777 C 16856482 19941516, 16908746 19444255, 16961010 18946994 C 17458271 18999259, 17955532 19051523, 18452793 19103787" />
    <path class="fil0 str0" d="M 18287587 21930030 C 18037587 22363042, 17787587 22796055, 17537587 23229068 C 17104574 22979068, 16671561 22729068, 16238549 22479068 C 16488549 22046055, 16738549 21613043, 16988549 21180030 C 17421561 21430030, 17854574 21680030, 18287587 21930030" />
    <path class="fil0 str0" d="M 5764349 23429404 C 6221122 23226036, 6677895 23022668, 7134667 22819299 C 7338036 23276072, 7541404 23732845, 7744772 24189618 C 7288000 24392986, 6831227 24596354, 6374454 24799723 C 6171086 24342950, 5967718 23886177, 5764349 23429404" />
    <path class="fil0 str0" d="M 17665429 13729962 C 17613164 13232701, 17560900 12735440, 17508636 12238180 C 18005897 12185915, 18503158 12133651, 19000419 12081387 C 19052683 12578648, 19104947 13075909, 19157211 13573170 C 18659951 13625434, 18162690 13677698, 17665429 13729962" />
    <path class="fil0 str0" d="M 8663651 21948380 C 8998216 22319953, 9332781 22691525, 9667347 23063097 C 9295774 23397663, 8924202 23732228, 8552630 24066793 C 8218064 23695221, 7883499 23323649, 7548934 22952076 C 7920506 22617511, 8292078 22282946, 8663651 21948380" />
    <path class="fil0 str0" d="M 12031147 27297428 C 11978883 27794689, 11926619 28291950, 11874355 28789211 C 11377094 28736947, 10879833 28684683, 10382572 28632419 C 10434836 28135158, 10487100 27637897, 10539364 27140636 C 11036625 27192900, 11533886 27245164, 12031147 27297428" />
    <path class="fil0 str0" d="M 18794391 14514352 C 18742126 15011613, 18689862 15508874, 18637598 16006135 C 18140337 15953871, 17643076 15901607, 17145815 15849343 C 17198079 15352082, 17250344 14854821, 17302608 14357560 C 17799869 14409824, 18297130 14462088, 18794391 14514352" />
    <path class="fil0 str0" d="M 9869773 1061891 C 10326545 1265259, 10783318 1468628, 11240091 1671996 C 11036723 2128769, 10833354 2585541, 10629986 3042314 C 10173213 2838946, 9716441 2635578, 9259668 2432209 C 9463036 1975437, 9666404 1518664, 9869773 1061891" />
    <path class="fil0 str0" d="M 18417448 19075484 C 17928374 18971528, 17439300 18867572, 16950226 18763616 C 17054182 18274542, 17158138 17785469, 17262094 17296395 C 17751167 17400351, 18240241 17504306, 18729315 17608262 C 18625359 18097336, 18521403 18586410, 18417448 19075484" />
    <path class="fil0 str0" d="M 5337194 33728648 C 5491703 33253120, 5646211 32777592, 5800720 32302064 C 6276248 32456572, 6751776 32611080, 7227305 32765589 C 7072796 33241117, 6918288 33716645, 6763779 34192174 C 6288251 34037665, 5812723 33883157, 5337194 33728648" />
    <path class="fil0 str0" d="M 10115816 5757629 C 9711307 6051522, 9306799 6345415, 8902290 6639307 C 8608398 6234799, 8314505 5830290, 8020612 5425782 C 8425121 5131889, 8829629 4837997, 9234138 4544104 C 9528031 4948612, 9821923 5353121, 10115816 5757629" />
    <path class="fil0 str0" d="M 6236422 24883071 C 6693194 24679703, 7149967 24476335, 7606740 24272966 C 7810108 24729739, 8013476 25186512, 8216845 25643284 C 7760072 25846653, 7303299 26050021, 6846527 26253389 C 6643158 25796617, 6439790 25339844, 6236422 24883071" />
    <path class="fil0 str0" d="M 11246255 10893 C 11703028 214261, 12159800 417630, 12616573 620998 C 12413205 1077771, 12209837 1534543, 12006468 1991316 C 11549696 1787948, 11092923 1584580, 10636150 1381211 C 10839518 924439, 11042887 467666, 11246255 10893" />
    <path class="fil0 str0" d="M 15238280 6039633 C 14749206 5935678, 14260132 5831722, 13771058 5727766 C 13875014 5238692, 13978970 4749618, 14082926 4260544 C 14572000 4364500, 15061074 4468456, 15550147 4572412 C 15446192 5061486, 15342236 5550560, 15238280 6039633" />
    <path class="fil0 str0" d="M 13659884 19532069 C 13170810 19636025, 12681737 19739981, 12192663 19843937 C 12088707 19354863, 11984751 18865789, 11880795 18376716 C 12369869 18272760, 12858943 18168804, 13348016 18064848 C 13451972 18553922, 13555928 19042995, 13659884 19532069" />
    <path class="fil0 str0" d="M 14590244 4179086 C 14537979 3681825, 14485715 3184564, 14433451 2687303 C 14930712 2635039, 15427973 2582775, 15925234 2530511 C 15977498 3027771, 16029762 3525032, 16082026 4022293 C 15584765 4074558, 15087505 4126822, 14590244 4179086" />
  </g>
  <g id="Layer_x0020_3">
    <metadata id="CorelCorpID_2Corel-Layer"/>
  <path class="fil0 str2" d=" M 7904130 10983552 L 7907981 10980893 L 7909675 10975012 L 7909213 10965909 L 7908090 10960627 L 7904810 10952124 L 7900870 10947441 L 7896271 10946578 L 7893453 10947176 L 7889602 10949836 L 7887908 10955716 L 7888370 10964819 L 7889494 10970101 L 7892773 10978605 L 7896713 10983288 L 7901312 10984151 L 7904130 10983552 M 7904810 10952124 L 7892773 10978605"/><path class="fil0 str2" d=" M 7880689 10942529 L 7908859 10936541"/><path class="fil0 str2" d=" M 7883002 10988043 L 7875143 10951069 M 7883002 10988043 L 7864691 10991934 M 7879259 10970437 L 7867991 10972832"/><path class="fil0 str2" d=" M 7860465 10992833 L 7832886 10960051 M 7840746 10997025 L 7852606 10955859"/>
  <path class="fil0 str2" d=" M 759759 1608399 L 755439 1610200 L 752559 1615599 L 751119 1624600 L 751119 1630000 L 752559 1638999 L 755439 1644400 L 759759 1646199 L 762639 1646199 L 766959 1644400 L 769840 1638999 L 771279 1630000 L 771279 1624600 L 769840 1615599 L 766959 1610200 L 762639 1608399 L 759759 1608399 M 752559 1638999 L 769840 1615599"/><path class="fil0 str2" d=" M 774160 1653399 L 745360 1653399"/><path class="fil0 str2" d=" M 784240 1608399 L 784240 1646199 M 781360 1608399 L 794319 1608399 L 798639 1610200 L 800080 1611999 L 801520 1615599 L 801520 1619199 L 800080 1622799 L 798639 1624600 L 794319 1626399 M 784240 1626399 L 794319 1626399 L 798639 1628200 L 800080 1630000 L 801520 1633600 L 801520 1638999 L 800080 1642599 L 798639 1644400 L 794319 1646199 L 781360 1646199"/><path class="fil0 str2" d=" M 830319 1617400 L 828880 1613800 L 825999 1610200 L 823119 1608399 L 817360 1608399 L 814479 1610200 L 811600 1613800 L 810159 1617400 L 808720 1622799 L 808720 1631799 L 810159 1637200 L 811600 1640800 L 814479 1644400 L 817360 1646199 L 823119 1646199 L 825999 1644400 L 828880 1640800 L 830319 1637200"/>
  <path class="fil0 str2" d=" M 14695552 29386081 L 14695930 29390744 L 14700175 29395153 L 14708289 29399304 L 14713425 29400971 L 14722430 29402385 L 14728455 29401313 L 14731502 29397761 L 14732392 29395021 L 14732015 29390358 L 14727769 29385949 L 14719655 29381799 L 14714520 29380129 L 14705515 29378718 L 14699489 29379790 L 14696442 29383342 L 14695552 29386081 M 14722430 29402385 L 14705515 29378718"/><path class="fil0 str2" d=" M 14742800 29386291 L 14733900 29413681"/><path class="fil0 str2" d=" M 14702227 29365537 L 14738177 29377219 M 14702227 29365537 L 14708012 29347734 M 14719346 29371101 L 14722906 29360144 M 14738177 29377219 L 14743962 29359414"/><path class="fil0 str2" d=" M 14709792 29342255 L 14751972 29334763 M 14716021 29323083 L 14745742 29353937"/>
  <path class="fil0 str2" d=" M 5616430 18360394 L 5620281 18357735 L 5621976 18351855 L 5621513 18342752 L 5620391 18337470 L 5617111 18328966 L 5613171 18324283 L 5608571 18323420 L 5605754 18324019 L 5601903 18326678 L 5600208 18332558 L 5600671 18341661 L 5601794 18346943 L 5605073 18355447 L 5609013 18360130 L 5613613 18360993 L 5616430 18360394 M 5617111 18328966 L 5605073 18355447"/><path class="fil0 str2" d=" M 5592989 18319372 L 5621160 18313383"/><path class="fil0 str2" d=" M 5595302 18364885 L 5587443 18327911 M 5595302 18364885 L 5576991 18368778 M 5591560 18347279 L 5580292 18349674 M 5587443 18327911 L 5569132 18331804"/><path class="fil0 str2" d=" M 5569949 18370274 L 5562089 18333300 M 5562089 18333300 L 5545187 18336893"/>
  <path class="fil0 str2" d=" M 8391055 17574808 L 8395609 17575891 L 8401113 17573215 L 8407567 17566779 L 8410742 17562412 L 8414866 17554283 L 8415711 17548222 L 8413274 17544227 L 8410944 17542534 L 8406391 17541451 L 8400887 17544127 L 8394432 17550561 L 8391258 17554930 L 8387133 17563057 L 8386289 17569119 L 8388726 17573115 L 8391055 17574808 M 8414866 17554283 L 8387133 17563057"/><path class="fil0 str2" d=" M 8405856 17529937 L 8429156 17546866"/><path class="fil0 str2" d=" M 8362561 17542980 L 8361610 17546739 L 8361824 17551345 L 8363096 17554494 L 8367756 17557879 L 8371144 17558116 L 8375590 17556896 L 8378871 17554830 L 8383210 17551308 L 8388500 17544027 L 8390509 17538812 L 8391460 17535053 L 8391246 17530447 L 8389974 17527298 L 8385314 17523913 L 8381926 17523676 L 8377480 17524896 L 8374199 17526961"/><path class="fil0 str2" d=" M 8339796 17537565 L 8366258 17525642 L 8348784 17512946 M 8339796 17537565 L 8362014 17506984"/>
  <path class="fil0 str2" d=" M 1584702 15809000 L 1581488 15812402 L 1581053 15818507 L 1583399 15827314 L 1585595 15832247 L 1590571 15839884 L 1595399 15843645 L 1600077 15843532 L 1602708 15842360 L 1605923 15838959 L 1606357 15832855 L 1604012 15824047 L 1601816 15819113 L 1596840 15811478 L 1592012 15807716 L 1587333 15807829 L 1584702 15809000 M 1590571 15839884 L 1596840 15811478"/><path class="fil0 str2" d=" M 1616161 15844252 L 1589851 15855966"/><path class="fil0 str2" d=" M 1625346 15804697 L 1626227 15810216 L 1625060 15814676 L 1621846 15818077 L 1620530 15818663 L 1615852 15818775 L 1611756 15816658 L 1608244 15812310 L 1607512 15810666 L 1606631 15805147 L 1607798 15800688 L 1611013 15797286 L 1612328 15796700 L 1617007 15796588 L 1621102 15798704 L 1625346 15804697 L 1629007 15812918 L 1631352 15821727 L 1630917 15827830 L 1627703 15831232 L 1625072 15832404 L 1620393 15832517 L 1617613 15829813"/><path class="fil0 str2" d=" M 1648728 15786406 L 1644632 15784288 L 1639954 15784400 L 1634692 15786744 L 1631477 15790145 L 1630310 15794605 L 1631775 15797894 L 1634555 15800596 L 1636602 15801656 L 1639965 15802128 L 1649323 15801903 L 1652686 15802376 L 1654733 15803435 L 1657513 15806137 L 1659709 15811071 L 1658543 15815531 L 1655328 15818933 L 1650066 15821275 L 1645388 15821389 L 1641292 15819271"/>
  <path class="fil0 str2" d=" M 1199108 19064188 L 1202959 19061529 L 1204654 19055648 L 1204191 19046545 L 1203068 19041263 L 1199788 19032760 L 1195849 19028076 L 1191249 19027214 L 1188432 19027812 L 1184580 19030471 L 1182886 19036352 L 1183349 19045455 L 1184471 19050737 L 1187751 19059240 L 1191691 19063924 L 1196291 19064786 L 1199108 19064188 M 1199788 19032760 L 1187751 19059240"/><path class="fil0 str2" d=" M 1175666 19023165 L 1203837 19017177"/><path class="fil0 str2" d=" M 1177980 19068679 L 1170121 19031705 M 1177980 19068679 L 1159669 19072570 M 1174237 19051071 L 1162969 19053466 M 1170121 19031705 L 1151810 19035596"/><path class="fil0 str2" d=" M 1152626 19074067 L 1144767 19037093 M 1132907 19078259 L 1147387 19049418 M 1142215 19059719 L 1125048 19041285"/>
  <path class="fil0 str2" d=" M 15014952 23956325 L 15019552 23955461 L 15023491 23950778 L 15026771 23942275 L 15027894 23936992 L 15028356 23927890 L 15026662 23922009 L 15022811 23919350 L 15019993 23918752 L 15015394 23919614 L 15011453 23924296 L 15008175 23932802 L 15007052 23938083 L 15006589 23947187 L 15008283 23953066 L 15012135 23955725 L 15014952 23956325 M 15028356 23927890 L 15006589 23947187"/><path class="fil0 str2" d=" M 15010222 23909313 L 15038393 23915302"/><path class="fil0 str2" d=" M 14979541 23935915 L 14982072 23930935 L 14985638 23928012 L 14990238 23927148 L 14991646 23927448 L 14995498 23930107 L 14997565 23934228 L 14997852 23939809 L 14997478 23941569 L 14994946 23946552 L 14991380 23949475 L 14986781 23950336 L 14985372 23950036 L 14981520 23947377 L 14979453 23943259 L 14979541 23935915 L 14981412 23927114 L 14984692 23918608 L 14988631 23913925 L 14993232 23913063 L 14996048 23913662 L 14999899 23916320 L 15000560 23920141"/><path class="fil0 str2" d=" M 14967061 23946145 L 14974920 23909172 M 14974920 23909172 L 14958018 23905578"/>
  <path class="fil0 str2" d=" M 15996865 26424406 L 16001466 26423544 L 16005405 26418862 L 16008685 26410358 L 16009807 26405075 L 16010270 26395974 L 16008576 26390092 L 16004724 26387434 L 16001907 26386833 L 15997308 26387697 L 15993367 26392380 L 15990087 26400883 L 15988966 26406166 L 15988503 26415268 L 15990197 26421149 L 15994049 26423808 L 15996865 26424406 M 16010270 26395974 L 15988503 26415268"/><path class="fil0 str2" d=" M 15992136 26377397 L 16020306 26383383"/><path class="fil0 str2" d=" M 15961455 26403999 L 15963985 26399016 L 15967551 26396093 L 15972152 26395231 L 15973559 26395529 L 15977410 26398190 L 15979479 26402309 L 15979765 26407890 L 15979392 26409650 L 15976860 26414633 L 15973294 26417556 L 15968695 26418420 L 15967286 26418120 L 15963435 26415461 L 15961365 26411340 L 15961455 26403999 L 15963326 26395195 L 15966606 26386691 L 15970545 26382009 L 15975145 26381145 L 15977962 26381745 L 15981813 26384404 L 15982474 26388225"/><path class="fil0 str2" d=" M 15948975 26414228 L 15956834 26377253 M 15948975 26414228 L 15937115 26373061 M 15929256 26410036 L 15937115 26373061"/>
  <path class="fil0 str2" d=" M 10478110 3793920 L 10473432 3793807 L 10468604 3797569 L 10463629 3805205 L 10461431 3810139 L 10459086 3818946 L 10459521 3825051 L 10462736 3828452 L 10465367 3829624 L 10470046 3829736 L 10474873 3825975 L 10479849 3818338 L 10482045 3813405 L 10484390 3804598 L 10483956 3798493 L 10480742 3795092 L 10478110 3793920 M 10459086 3818946 L 10484390 3804598"/><path class="fil0 str2" d=" M 10472962 3840887 L 10446652 3829173"/><path class="fil0 str2" d=" M 10508504 3821245 L 10504992 3825592 L 10500897 3827710 L 10496219 3827597 L 10494903 3827011 L 10491689 3823610 L 10490522 3819150 L 10491402 3813631 L 10492135 3811986 L 10495646 3807639 L 10499742 3805522 L 10504421 3805634 L 10505736 3806220 L 10508951 3809621 L 10510117 3814082 L 10508504 3821245 L 10504843 3829467 L 10499868 3837103 L 10495040 3840865 L 10490361 3840752 L 10487730 3839580 L 10484516 3836179 L 10484665 3832305"/><path class="fil0 str2" d=" M 10525468 3815006 L 10510093 3849537 M 10522838 3813834 L 10528100 3816177 M 10507463 3848366 L 10512725 3850709"/>
  <path class="fil0 str2" d=" M 17935723 6604405 L 17940323 6603542 L 17944262 6598859 L 17947542 6590355 L 17948665 6585073 L 17949128 6575971 L 17947434 6570090 L 17943582 6567431 L 17940765 6566832 L 17936165 6567694 L 17932225 6572377 L 17928946 6580881 L 17927823 6586163 L 17927360 6595266 L 17929055 6601147 L 17932906 6603806 L 17935723 6604405 M 17949128 6575971 L 17927360 6595266"/><path class="fil0 str2" d=" M 17930993 6557394 L 17959165 6563382"/><path class="fil0 str2" d=" M 17900312 6583997 L 17902844 6579014 L 17906409 6576091 L 17911009 6575229 L 17912418 6575528 L 17916269 6578187 L 17918337 6582307 L 17918624 6587888 L 17918249 6589649 L 17915717 6594632 L 17912153 6597554 L 17907552 6598417 L 17906143 6598118 L 17902292 6595458 L 17900224 6591339 L 17900312 6583997 L 17902183 6575193 L 17905463 6566689 L 17909403 6562006 L 17914003 6561143 L 17916820 6561742 L 17920671 6564401 L 17921331 6568222"/><path class="fil0 str2" d=" M 17876564 6591830 L 17882552 6563660 L 17885084 6558677 L 17886866 6557216 L 17890058 6556054 L 17892875 6556652 L 17895318 6559012 L 17896352 6561072 L 17896638 6566654 L 17895889 6570175"/>
  <path class="fil0 str2" d=" M 17453817 11266080 L 17458416 11265217 L 17462357 11260534 L 17465635 11252030 L 17466759 11246748 L 17467221 11237645 L 17465527 11231765 L 17461676 11229106 L 17458858 11228507 L 17454259 11229370 L 17450319 11234052 L 17447039 11242557 L 17445916 11247839 L 17445454 11256942 L 17447148 11262822 L 17450999 11265480 L 17453817 11266080 M 17467221 11237645 L 17445454 11256942"/><path class="fil0 str2" d=" M 17449088 11219069 L 17477258 11225057"/><path class="fil0 str2" d=" M 17414841 11248594 L 17415500 11252415 L 17417569 11256535 L 17420012 11258895 L 17425646 11260092 L 17428837 11258930 L 17432403 11256008 L 17434560 11252785 L 17437091 11247803 L 17438962 11239000 L 17438676 11233419 L 17438016 11229598 L 17435948 11225477 L 17433505 11223118 L 17427871 11221920 L 17424680 11223082 L 17421114 11226004 L 17418957 11229227"/><path class="fil0 str2" d=" M 17401701 11255002 L 17409560 11218028 M 17404517 11255601 L 17398884 11254404 M 17412377 11218627 L 17406743 11217430"/>
  <path class="fil0 str2" d=" M 1409759 24258400 L 1405440 24260200 L 1402559 24265600 L 1401119 24274599 L 1401119 24280000 L 1402559 24288999 L 1405440 24294399 L 1409759 24296201 L 1412640 24296201 L 1416959 24294399 L 1419839 24288999 L 1421280 24280000 L 1421280 24274599 L 1419839 24265600 L 1416959 24260200 L 1412640 24258400 L 1409759 24258400 M 1402559 24288999 L 1419839 24265600"/><path class="fil0 str2" d=" M 1424160 24303400 L 1395359 24303400"/><path class="fil0 str2" d=" M 1451519 24267399 L 1450079 24263798 L 1447200 24260200 L 1444320 24258400 L 1438560 24258400 L 1435679 24260200 L 1432799 24263798 L 1431360 24267399 L 1429920 24272800 L 1429920 24281799 L 1431360 24287199 L 1432799 24290800 L 1435679 24294399 L 1438560 24296201 L 1444320 24296201 L 1447200 24294399 L 1450079 24290800 L 1451519 24287199"/><path class="fil0 str2" d=" M 1480319 24267399 L 1478880 24263798 L 1476000 24260200 L 1473119 24258400 L 1467359 24258400 L 1464479 24260200 L 1461600 24263798 L 1460160 24267399 L 1458719 24272800 L 1458719 24281799 L 1460160 24287199 L 1461600 24290800 L 1464479 24294399 L 1467359 24296201 L 1473119 24296201 L 1476000 24294399 L 1478880 24290800 L 1480319 24287199 L 1480319 24281799 M 1473119 24281799 L 1480319 24281799"/>
  <path class="fil0 str2" d=" M 15041920 32518400 L 15037600 32520200 L 15034720 32525600 L 15033280 32534599 L 15033280 32540000 L 15034720 32548999 L 15037600 32554399 L 15041920 32556201 L 15044799 32556201 L 15049119 32554399 L 15051999 32548999 L 15053439 32540000 L 15053439 32534599 L 15051999 32525600 L 15049119 32520200 L 15044799 32518400 L 15041920 32518400 M 15034720 32548999 L 15051999 32525600"/><path class="fil0 str2" d=" M 15056319 32563400 L 15027519 32563400"/><path class="fil0 str2" d=" M 15083680 32527399 L 15082239 32523798 L 15079360 32520200 L 15076479 32518400 L 15070720 32518400 L 15067840 32520200 L 15064959 32523798 L 15063520 32527399 L 15062080 32532800 L 15062080 32541799 L 15063520 32547199 L 15064959 32550800 L 15067840 32554399 L 15070720 32556201 L 15076479 32556201 L 15079360 32554399 L 15082239 32550800 L 15083680 32547199"/><path class="fil0 str2" d=" M 15092320 32518400 L 15092320 32556201 M 15092320 32518400 L 15111040 32518400 M 15092320 32536398 L 15103840 32536398"/>
  <path class="fil0 str2" d=" M 17814353 8786862 L 17818952 8785999 L 17822893 8781316 L 17826173 8772812 L 17827294 8767530 L 17827757 8758428 L 17826063 8752546 L 17822211 8749888 L 17819395 8749289 L 17814794 8750151 L 17810855 8754835 L 17807575 8763339 L 17806453 8768621 L 17805989 8777723 L 17807684 8783604 L 17811536 8786263 L 17814353 8786862 M 17827757 8758428 L 17805989 8777723"/><path class="fil0 str2" d=" M 17809624 8739851 L 17837794 8745839"/><path class="fil0 str2" d=" M 17775377 8769376 L 17776037 8773197 L 17778105 8777317 L 17780548 8779677 L 17786182 8780874 L 17789373 8779712 L 17792939 8776790 L 17795096 8773568 L 17797628 8768585 L 17799499 8759782 L 17799212 8754201 L 17798553 8750380 L 17796484 8746259 L 17794041 8743900 L 17788408 8742703 L 17785216 8743864 L 17781650 8746787 L 17779493 8750009"/><path class="fil0 str2" d=" M 17765054 8776383 L 17772913 8739409 M 17745335 8772192 L 17753194 8735217 M 17768797 8758776 L 17749077 8754585"/>
  <path class="fil0 str2" d=" M 3622554 23354562 L 3627154 23353701 L 3631094 23349018 L 3634373 23340515 L 3635496 23335231 L 3635959 23326130 L 3634264 23320249 L 3630413 23317590 L 3627596 23316992 L 3622996 23317854 L 3619056 23322536 L 3615776 23331040 L 3614654 23336323 L 3614191 23345424 L 3615885 23351306 L 3619737 23353964 L 3622554 23354562 M 3635959 23326130 L 3614191 23345424"/><path class="fil0 str2" d=" M 3617825 23307553 L 3645995 23313540"/><path class="fil0 str2" d=" M 3601426 23350073 L 3609285 23313098 M 3601426 23350073 L 3583115 23346181 M 3605168 23332465 L 3593900 23330070"/><path class="fil0 str2" d=" M 3577481 23344982 L 3585340 23308010 M 3577481 23344982 L 3564804 23342287 L 3560953 23339628 L 3559918 23337570 L 3559258 23333750 L 3560381 23328466 L 3562538 23325244 L 3564321 23323784 L 3568921 23322922 L 3581597 23325615"/>
  <path class="fil0 str2" d=" M 9707888 19495441 L 9712488 19494578 L 9716428 19489896 L 9719708 19481391 L 9720830 19476109 L 9721293 19467006 L 9719598 19461126 L 9715747 19458468 L 9712930 19457868 L 9708330 19458731 L 9704391 19463414 L 9701111 19471918 L 9699989 19477200 L 9699525 19486302 L 9701220 19492183 L 9705072 19494842 L 9707888 19495441 M 9721293 19467006 L 9699525 19486302"/><path class="fil0 str2" d=" M 9703159 19448431 L 9731329 19454418"/><path class="fil0 str2" d=" M 9679718 19489453 L 9698845 19454874 M 9679718 19489453 L 9676309 19450084 M 9692000 19466301 L 9677915 19463306"/><path class="fil0 str2" d=" M 9644967 19472866 L 9645627 19476687 L 9647695 19480806 L 9650139 19483166 L 9655773 19484364 L 9658964 19483201 L 9662529 19480279 L 9664686 19477058 L 9667218 19472075 L 9669089 19463271 L 9668803 19457690 L 9668143 19453869 L 9666074 19449749 L 9663632 19447390 L 9657998 19446192 L 9654806 19447354 L 9651241 19450277 L 9649084 19453498 L 9647961 19458780 M 9655004 19460278 L 9647961 19458780"/>
  <path class="fil0 str2" d=" M 7247285 2855591 L 7247886 2850950 L 7244650 2845755 L 7237576 2840008 L 7232899 2837308 L 7224385 2834055 L 7218269 2833849 L 7214550 2836691 L 7213110 2839185 L 7212509 2843826 L 7215745 2849020 L 7222819 2854767 L 7227496 2857467 L 7236010 2860720 L 7242127 2860926 L 7245845 2858085 L 7247285 2855591 M 7224385 2834055 L 7236010 2860720"/><path class="fil0 str2" d=" M 7201114 2845561 L 7215514 2820620"/><path class="fil0 str2" d=" M 7232885 2880532 L 7205910 2851656 M 7232885 2880532 L 7194390 2871609 M 7214661 2861697 L 7207462 2874168"/><path class="fil0 str2" d=" M 7224245 2895497 L 7191510 2876597 M 7214165 2912956 L 7181430 2894056 M 7208657 2886497 L 7198577 2903956"/>
  <path class="fil0 str2" d=" M 14058709 11638332 L 14063310 11637469 L 14067249 11632786 L 14070529 11624282 L 14071651 11619000 L 14072115 11609897 L 14070421 11604017 L 14066568 11601357 L 14063752 11600759 L 14059152 11601622 L 14055212 11606304 L 14051932 11614808 L 14050810 11620090 L 14050347 11629193 L 14052042 11635074 L 14055893 11637733 L 14058709 11638332 M 14072115 11609897 L 14050347 11629193"/><path class="fil0 str2" d=" M 14053980 11591322 L 14082150 11597309"/><path class="fil0 str2" d=" M 14031948 11632644 L 14036547 11631781 L 14038704 11628559 L 14039453 11625037 L 14038792 11621217 L 14036350 11618857 L 14031090 11615899 L 14027238 11613240 L 14025170 11609119 L 14024510 11605299 L 14025633 11600017 L 14027790 11596795 L 14029572 11595334 L 14034172 11594471 L 14039807 11595668 L 14043658 11598328 L 14044692 11600388 L 14045352 11604208 L 14044229 11609490 L 14042072 11612713 L 14038507 11615635 L 14033907 11616497 L 14027899 11617061 L 14024708 11618222 L 14022551 11621445 L 14021802 11624965 L 14022462 11628786 L 14026313 11631446 L 14031948 11632644"/><path class="fil0 str2" d=" M 14003776 11626655 L 14006968 11625494 L 14010534 11622570 L 14012691 11619349 L 14015222 11614366 L 14017093 11605563 L 14016807 11599981 L 14016147 11596160 L 14014079 11592041 L 14011636 11589681 L 14006002 11588483 L 14002811 11589645 L 13999245 11592568 L 13997088 11595791 L 13994556 11600772 L 13992685 11609576 L 13992971 11615157 L 13993631 11618978 L 13995700 11623098 L 13998143 11625457 L 14003776 11626655 M 14005914 11595826 L 13999708 11583465"/>
  <path class="fil0 str2" d=" M 15221453 34422766 L 15223890 34418771 L 15223046 34412709 L 15218922 34404582 L 15215747 34400214 L 15209291 34393779 L 15203789 34391103 L 15199235 34392185 L 15196905 34393879 L 15194468 34397873 L 15195312 34403935 L 15199437 34412062 L 15202612 34416433 L 15209067 34422866 L 15214571 34425541 L 15219123 34424460 L 15221453 34422766 M 15209291 34393779 L 15209067 34422866"/><path class="fil0 str2" d=" M 15183353 34394824 L 15206652 34377897"/><path class="fil0 str2" d=" M 15198154 34439694 L 15185256 34402343 M 15198154 34439694 L 15166616 34415886 M 15189167 34415075 L 15177517 34423540"/><path class="fil0 str2" d=" M 15181844 34451545 L 15159626 34420964 M 15184174 34449851 L 15179514 34453237 M 15161955 34419270 L 15157296 34422656"/>
  <path class="fil0 str2" d=" M 3814742 990868 L 3811527 994269 L 3811092 1000374 L 3813438 1009181 L 3815634 1014115 L 3820610 1021751 L 3825437 1025513 L 3830116 1025400 L 3832747 1024228 L 3835961 1020827 L 3836396 1014722 L 3834051 1005915 L 3831855 1000982 L 3826878 993345 L 3822051 989584 L 3817373 989696 L 3814742 990868 M 3820610 1021751 L 3826878 993345"/><path class="fil0 str2" d=" M 3846200 1026120 L 3819890 1037834"/><path class="fil0 str2" d=" M 3841052 979154 L 3845902 1018371 M 3841052 979154 L 3866950 1009000 M 3844724 1005104 L 3857879 999247"/><path class="fil0 str2" d=" M 3867362 967440 L 3879076 993750 L 3879956 999269 L 3879373 1001499 L 3877474 1004315 L 3874843 1005486 L 3871480 1005013 L 3869432 1003954 L 3865921 999607 L 3864456 996318"/>
  <path class="fil0 str2" d=" M 9208029 31355632 L 9211748 31358474 L 9217864 31358269 L 9226379 31355014 L 9231055 31352314 L 9238129 31346567 L 9241366 31341374 L 9240765 31336733 L 9239325 31334238 L 9235606 31331396 L 9229489 31331604 L 9220975 31334855 L 9216299 31337556 L 9209224 31343303 L 9205988 31348496 L 9206589 31353139 L 9208029 31355632 M 9238129 31346567 L 9209224 31343303"/><path class="fil0 str2" d=" M 9239800 31320661 L 9254200 31345603"/><path class="fil0 str2" d=" M 9194943 31314968 L 9192546 31318015 L 9190868 31322309 L 9190749 31325703 L 9193629 31330690 L 9196628 31332285 L 9201185 31332978 L 9205023 31332426 L 9210420 31330974 L 9218214 31326474 L 9222171 31322526 L 9224568 31319479 L 9226246 31315185 L 9226365 31311791 L 9223485 31306801 L 9220486 31305207 L 9215928 31304514 L 9212091 31305068"/><path class="fil0 str2" d=" M 9185101 31290720 L 9190498 31289267 L 9195055 31289960 L 9198774 31292802 L 9199494 31294050 L 9200095 31298691 L 9198417 31302985 L 9194461 31306931 L 9192902 31307832 L 9187506 31309284 L 9182948 31308591 L 9179229 31305749 L 9178509 31304501 L 9177908 31299860 L 9179586 31295566 L 9185101 31290720 L 9192895 31286220 L 9201409 31282966 L 9207526 31282761 L 9211245 31285603 L 9212685 31288095 L 9213286 31292736 L 9210888 31295786"/>
  <path class="fil0 str2" d=" M 8880397 14696663 L 8875718 14696551 L 8870891 14700312 L 8865915 14707949 L 8863718 14712882 L 8861373 14721689 L 8861808 14727794 L 8865023 14731195 L 8867653 14732366 L 8872332 14732479 L 8877160 14728718 L 8882136 14721081 L 8884332 14716148 L 8886677 14707341 L 8886242 14701236 L 8883028 14697834 L 8880397 14696663 M 8861373 14721689 L 8886677 14707341"/><path class="fil0 str2" d=" M 8875249 14743630 L 8848939 14731916"/><path class="fil0 str2" d=" M 8906707 14708377 L 8880808 14738223 M 8906707 14708377 L 8901857 14747595 M 8889880 14728470 L 8903035 14734327"/><path class="fil0 str2" d=" M 8922493 14715406 L 8907119 14749937 M 8940910 14723605 L 8912244 14738427 M 8922482 14733133 L 8925535 14758138"/>
  <path class="fil0 str2" d=" M 18071450 33624404 L 18075301 33621745 L 18076995 33615864 L 18076533 33606762 L 18075410 33601479 L 18072130 33592976 L 18068190 33588293 L 18063591 33587429 L 18060773 33588029 L 18056922 33590688 L 18055228 33596569 L 18055690 33605671 L 18056812 33610954 L 18060092 33619458 L 18064033 33624140 L 18068632 33625002 L 18071450 33624404 M 18072130 33592976 L 18060092 33619458"/><path class="fil0 str2" d=" M 18048009 33583381 L 18076179 33577392"/><path class="fil0 str2" d=" M 18043278 33630393 L 18046688 33591022 M 18043278 33630393 L 18024151 33595812 M 18045083 33604245 L 18030997 33607238"/><path class="fil0 str2" d=" M 18026376 33633984 L 18018518 33597011 M 18018518 33597011 L 18001614 33600603"/>
  <path class="fil0 str2" d=" M 13531199 35248400 L 13526879 35250200 L 13524000 35255600 L 13522559 35264599 L 13522559 35270000 L 13524000 35278999 L 13526879 35284399 L 13531199 35286201 L 13534079 35286201 L 13538399 35284399 L 13541280 35278999 L 13542719 35270000 L 13542719 35264599 L 13541280 35255600 L 13538399 35250200 L 13534079 35248400 L 13531199 35248400 M 13524000 35278999 L 13541280 35255600"/><path class="fil0 str2" d=" M 13545600 35293400 L 13516800 35293400"/><path class="fil0 str2" d=" M 13560000 35248400 L 13548480 35286201 M 13560000 35248400 L 13571519 35286201 M 13552800 35273601 L 13567199 35273601"/><path class="fil0 str2" d=" M 13577280 35248400 L 13577280 35286201 M 13577280 35248400 L 13597440 35286201 M 13597440 35248400 L 13597440 35286201"/>
  <path class="fil0 str2" d=" M 6664376 20848608 L 6661162 20852009 L 6660727 20858112 L 6663073 20866921 L 6665269 20871855 L 6670245 20879489 L 6675072 20883251 L 6679751 20883139 L 6682382 20881967 L 6685596 20878566 L 6686031 20872460 L 6683686 20863654 L 6681489 20858720 L 6676513 20851083 L 6671686 20847324 L 6667008 20847436 L 6664376 20848608 M 6670245 20879489 L 6676513 20851083"/><path class="fil0 str2" d=" M 6695834 20883859 L 6669525 20895573"/><path class="fil0 str2" d=" M 6690686 20836894 L 6695537 20876110 M 6690686 20836894 L 6716585 20866740 M 6694359 20862844 L 6707514 20856987"/><path class="fil0 str2" d=" M 6706472 20829865 L 6721847 20864396 M 6706472 20829865 L 6718312 20824594 L 6722991 20824479 L 6725039 20825539 L 6727818 20828242 L 6730015 20833176 L 6730163 20837050 L 6729580 20839279 L 6726365 20842683 L 6714526 20847954"/>
  <path class="fil0 str2" d=" M 2744326 31193264 L 2748926 31192399 L 2752865 31187717 L 2756145 31179213 L 2757268 31173930 L 2757731 31164829 L 2756036 31158947 L 2752185 31156289 L 2749367 31155690 L 2744768 31156552 L 2740828 31161235 L 2737548 31169741 L 2736426 31175021 L 2735963 31184125 L 2737657 31190004 L 2741509 31192663 L 2744326 31193264 M 2757731 31164829 L 2735963 31184125"/><path class="fil0 str2" d=" M 2739596 31146252 L 2767767 31152241"/><path class="fil0 str2" d=" M 2716155 31187275 L 2735282 31152697 M 2716155 31187275 L 2712746 31147905 M 2728437 31164123 L 2714352 31161130"/><path class="fil0 str2" d=" M 2692210 31182185 L 2695401 31181022 L 2698967 31178100 L 2701124 31174880 L 2703655 31169897 L 2705526 31161093 L 2705240 31155512 L 2704580 31151691 L 2702512 31147570 L 2700069 31145212 L 2694435 31144013 L 2691243 31145175 L 2687678 31148098 L 2685521 31151320 L 2682990 31156303 L 2681119 31165107 L 2681404 31170688 L 2682064 31174509 L 2684133 31178627 L 2686576 31180988 L 2692210 31182185 M 2694346 31151357 L 2688141 31138996"/>
  <path class="fil0 str2" d=" M 8728131 20841147 L 8732731 20840285 L 8736671 20835600 L 8739951 20827097 L 8741073 20821816 L 8741536 20812712 L 8739841 20806831 L 8735990 20804172 L 8733173 20803574 L 8728573 20804436 L 8724633 20809121 L 8721354 20817624 L 8720231 20822905 L 8719768 20832009 L 8721463 20837890 L 8725314 20840549 L 8728131 20841147 M 8741536 20812712 L 8719768 20832009"/><path class="fil0 str2" d=" M 8723402 20794135 L 8751572 20800124"/><path class="fil0 str2" d=" M 8689155 20823662 L 8689815 20827482 L 8691884 20831601 L 8694326 20833962 L 8699960 20835158 L 8703152 20833996 L 8706717 20831074 L 8708874 20827854 L 8711406 20822871 L 8713276 20814067 L 8712991 20808486 L 8712331 20804665 L 8710263 20800544 L 8707819 20798186 L 8702185 20796987 L 8698994 20798149 L 8695429 20801071 L 8693272 20804294"/><path class="fil0 str2" d=" M 8663339 20827375 L 8677424 20830368 L 8682200 20814821 L 8680418 20816284 L 8675818 20817145 L 8671593 20816247 L 8667741 20813588 L 8665673 20809470 L 8665386 20803886 L 8666135 20800366 L 8668666 20795383 L 8672232 20792460 L 8676832 20791599 L 8681057 20792497 L 8684909 20795156 L 8685943 20797216 L 8686603 20801037"/>
  <path class="fil0 str2" d=" M 11201920 20428399 L 11197600 20430200 L 11194720 20435600 L 11193280 20444599 L 11193280 20450000 L 11194720 20459000 L 11197600 20464399 L 11201920 20466199 L 11204799 20466199 L 11209119 20464399 L 11211999 20459000 L 11213439 20450000 L 11213439 20444599 L 11211999 20435600 L 11209119 20430200 L 11204799 20428399 L 11201920 20428399 M 11194720 20459000 L 11211999 20435600"/><path class="fil0 str2" d=" M 11216319 20473399 L 11187519 20473399"/><path class="fil0 str2" d=" M 11243680 20437399 L 11242239 20433800 L 11239360 20430200 L 11236479 20428399 L 11230720 20428399 L 11227840 20430200 L 11224959 20433800 L 11223520 20437399 L 11222080 20442800 L 11222080 20451800 L 11223520 20457199 L 11224959 20460799 L 11227840 20464399 L 11230720 20466199 L 11236479 20466199 L 11239360 20464399 L 11242239 20460799 L 11243680 20457199"/><path class="fil0 str2" d=" M 11259520 20428399 L 11248000 20466199 M 11259520 20428399 L 11271040 20466199 M 11252320 20453599 L 11266719 20453599"/>
  <path class="fil0 str2" d=" M 6867033 16776560 L 6871586 16777642 L 6877090 16774967 L 6883545 16768531 L 6886719 16764162 L 6890844 16756035 L 6891688 16749974 L 6889252 16745979 L 6886921 16744285 L 6882369 16743203 L 6876865 16745878 L 6870410 16752313 L 6867235 16756682 L 6863110 16764809 L 6862266 16770871 L 6864703 16774866 L 6867033 16776560 M 6890844 16756035 L 6863110 16764809"/><path class="fil0 str2" d=" M 6881834 16731689 L 6905133 16748618"/><path class="fil0 str2" d=" M 6848394 16763016 L 6835579 16753706 L 6851033 16747135 L 6847538 16744595 L 6846266 16741446 L 6846159 16739144 L 6848168 16733929 L 6850284 16731016 L 6854623 16727493 L 6859069 16726274 L 6863622 16727357 L 6867117 16729897 L 6869554 16733892 L 6869661 16736195 L 6868710 16739953"/><path class="fil0 str2" d=" M 6821599 16743549 L 6853137 16719739 M 6821599 16743549 L 6834497 16706197 M 6842236 16727393 L 6830586 16718930"/>
  <path class="fil0 str2" d=" M 12358406 11302871 L 12359007 11298229 L 12355771 11293035 L 12348696 11287288 L 12344019 11284588 L 12335506 11281335 L 12329389 11281130 L 12325670 11283970 L 12324230 11286466 L 12323629 11291107 L 12326866 11296301 L 12333940 11302048 L 12338616 11304748 L 12347131 11308000 L 12353247 11308206 L 12356966 11305364 L 12358406 11302871 M 12335506 11281335 L 12347131 11308000"/><path class="fil0 str2" d=" M 12312235 11292841 L 12326635 11267900"/><path class="fil0 str2" d=" M 12339812 11317077 L 12341370 11317977 L 12343768 11321024 L 12344608 11323171 L 12344726 11326566 L 12341846 11331553 L 12338847 11333148 L 12336568 11333494 L 12332730 11332941 L 12329613 11331142 L 12327215 11328095 L 12323979 11322901 L 12315590 11301430 L 12305510 11318889"/><path class="fil0 str2" d=" M 12314375 11353936 L 12310417 11349990 L 12308740 11345695 L 12309342 11341054 L 12310061 11339807 L 12313780 11336966 L 12318337 11336271 L 12323734 11337724 L 12325292 11338625 L 12329250 11342572 L 12330927 11346866 L 12330325 11351507 L 12329606 11352753 L 12325887 11355595 L 12321329 11356290 L 12314375 11353936 L 12306580 11349437 L 12299505 11343690 L 12296269 11338496 L 12296870 11333854 L 12298310 11331359 L 12302030 11328519 L 12305866 11329072"/>
  <path class="fil0 str2" d=" M 7315468 19117155 L 7320021 19118238 L 7325525 19115562 L 7331980 19109128 L 7335154 19104759 L 7339279 19096632 L 7340123 19090570 L 7337686 19086574 L 7335356 19084882 L 7330803 19083798 L 7325299 19086474 L 7318844 19092910 L 7315670 19097279 L 7311545 19105406 L 7310701 19111467 L 7313138 19115462 L 7315468 19117155 M 7339279 19096632 L 7311545 19105406"/><path class="fil0 str2" d=" M 7330269 19072286 L 7353568 19089213"/><path class="fil0 str2" d=" M 7299895 19096942 L 7296507 19096705 L 7289838 19098535 L 7312056 19067954"/><path class="fil0 str2" d=" M 7266539 19081606 L 7283467 19058306 L 7287806 19054785 L 7290029 19054174 L 7293417 19054411 L 7295747 19056104 L 7297019 19059252 L 7297125 19061556 L 7295117 19066771 L 7293001 19069683"/>
  <path class="fil0 str2" d=" M 12238464 14912453 L 12237125 14907968 L 12232056 14904539 L 12223255 14902167 L 12217885 14901602 L 12208784 14902094 L 12203112 14904394 L 12200871 14908502 L 12200570 14911365 L 12201909 14915850 L 12206978 14919279 L 12215778 14921652 L 12221148 14922216 L 12230250 14921726 L 12235921 14919426 L 12238162 14915317 L 12238464 14912453 M 12208784 14902094 L 12230250 14921726"/><path class="fil0 str2" d=" M 12192205 14922070 L 12195216 14893428"/><path class="fil0 str2" d=" M 12229029 14950556 L 12232760 14949500 L 12235002 14945391 L 12235302 14942528 L 12233964 14938043 L 12228895 14934614 L 12220095 14932241 L 12211145 14931301 L 12203833 14931979 L 12199952 14934468 L 12197709 14938576 L 12197559 14940008 L 12198898 14944493 L 12202177 14947734 L 12207397 14949730 L 12209188 14949918 L 12214708 14949050 L 12218590 14946562 L 12220831 14942454 L 12220982 14941022 L 12219643 14936538 L 12216364 14933297 L 12211145 14931301"/><path class="fil0 str2" d=" M 12231690 14976898 L 12233195 14962576 L 12217235 14959451 L 12218874 14961071 L 12220213 14965556 L 12219761 14969853 L 12217520 14973961 L 12213638 14976448 L 12208117 14977316 L 12204537 14976940 L 12199317 14974943 L 12196038 14971702 L 12194699 14967219 L 12195151 14962922 L 12197393 14958814 L 12199333 14957570 L 12203065 14956514"/>
  <path class="fil0 str2" d=" M 13338631 9706774 L 13337292 9702290 L 13332222 9698861 L 13323422 9696489 L 13318052 9695924 L 13308951 9696416 L 13303280 9698715 L 13301038 9702824 L 13300737 9705687 L 13302076 9710172 L 13307145 9713601 L 13315946 9715974 L 13321315 9716538 L 13330417 9716047 L 13336088 9713747 L 13338330 9709639 L 13338631 9706774 M 13308951 9696416 L 13330417 9716047"/><path class="fil0 str2" d=" M 13292373 9716392 L 13295383 9687750"/><path class="fil0 str2" d=" M 13336373 9728256 L 13298780 9724305 M 13334266 9748306 L 13296673 9744354 M 13318471 9726375 L 13316364 9746424"/><path class="fil0 str2" d=" M 13322154 9777439 L 13325885 9776384 L 13329766 9773895 L 13331857 9771220 L 13332459 9765491 L 13330970 9762438 L 13327691 9759198 L 13324261 9757390 L 13319041 9755393 L 13310091 9754453 L 13304570 9755320 L 13300839 9756376 L 13296958 9758864 L 13294866 9761540 L 13294265 9767268 L 13295754 9770321 L 13299033 9773562 L 13302463 9775370 L 13307833 9775934 M 13308586 9768773 L 13307833 9775934"/>
  <path class="fil0 str2" d=" M 5870379 15314654 L 5874097 15317496 L 5880214 15317290 L 5888728 15314038 L 5893405 15311337 L 5900479 15305590 L 5903715 15300396 L 5903114 15295755 L 5901674 15293260 L 5897955 15290419 L 5891838 15290625 L 5883325 15293878 L 5878648 15296578 L 5871574 15302325 L 5868338 15307519 L 5868939 15312160 L 5870379 15314654 M 5900479 15305590 L 5871574 15302325"/><path class="fil0 str2" d=" M 5902150 15279683 L 5916550 15304626"/><path class="fil0 str2" d=" M 5858858 15294702 L 5850938 15280983 L 5867729 15281267 L 5865569 15277525 L 5865688 15274130 L 5866527 15271983 L 5870484 15268037 L 5873601 15266236 L 5878998 15264783 L 5883555 15265478 L 5887274 15268319 L 5889434 15272060 L 5890036 15276701 L 5889196 15278848 L 5886799 15281895"/><path class="fil0 str2" d=" M 5848170 15250989 L 5853567 15249536 L 5858125 15250230 L 5861843 15253072 L 5862564 15254318 L 5863165 15258959 L 5861487 15263254 L 5857531 15267202 L 5855971 15268101 L 5850575 15269554 L 5846017 15268859 L 5842299 15266019 L 5841578 15264771 L 5840977 15260130 L 5842655 15255836 L 5848170 15250989 L 5855964 15246489 L 5864479 15243236 L 5870595 15243031 L 5874314 15245871 L 5875754 15248366 L 5876355 15253007 L 5873958 15256054"/>
  <path class="fil0 str2" d=" M 5334970 12465493 L 5330742 12463487 L 5324802 12464959 L 5317150 12469912 L 5313137 12473525 L 5307412 12480617 L 5305326 12486370 L 5306879 12490786 L 5308806 12492926 L 5313035 12494932 L 5318975 12493459 L 5326627 12488507 L 5330640 12484893 L 5336364 12477801 L 5338450 12472048 L 5336897 12467633 L 5334970 12465493 M 5307412 12480617 L 5336364 12477801"/><path class="fil0 str2" d=" M 5311164 12506304 L 5291893 12484902"/><path class="fil0 str2" d=" M 5351350 12483685 L 5323259 12508978 M 5349423 12481545 L 5353278 12485825 M 5321333 12506838 L 5325187 12511118"/><path class="fil0 str2" d=" M 5360023 12493316 L 5331931 12518609 M 5373512 12508298 L 5345421 12533591 M 5346646 12505360 L 5360136 12520343"/>
  <path class="fil0 str2" d=" M 11207563 12759088 L 11206010 12763502 L 11208096 12769256 L 11213820 12776348 L 11217834 12779962 L 11225485 12784913 L 11231425 12786386 L 11235654 12784381 L 11237581 12782239 L 11239134 12777825 L 11237048 12772072 L 11231324 12764980 L 11227310 12761365 L 11219659 12756414 L 11213719 12754941 L 11209490 12756947 L 11207563 12759088 M 11225485 12784913 L 11219659 12756414"/><path class="fil0 str2" d=" M 11250640 12778497 L 11231369 12799899"/><path class="fil0 str2" d=" M 11223944 12740895 L 11252034 12766188 M 11222016 12743035 L 11225871 12738754 M 11250107 12768328 L 11253962 12764047"/><path class="fil0 str2" d=" M 11252794 12722304 L 11249155 12720965 L 11244553 12720697 L 11241287 12721633 L 11237434 12725914 L 11236844 12729257 L 11237592 12733807 L 11239304 12737286 L 11242353 12741970 L 11249041 12747991 L 11254018 12750535 L 11257657 12751873 L 11262259 12752142 L 11265524 12751207 L 11269378 12746926 L 11269968 12743581 L 11269219 12739031 L 11267508 12735552 L 11263494 12731939 M 11258677 12737291 L 11263494 12731939"/>
  <path class="fil0 str2" d=" M 9621767 16404500 L 9617539 16402495 L 9611599 16403967 L 9603947 16408919 L 9599934 16412532 L 9594209 16419625 L 9592123 16425378 L 9593676 16429793 L 9595603 16431933 L 9599832 16433940 L 9605772 16432467 L 9613424 16427514 L 9617437 16423901 L 9623161 16416809 L 9625247 16411055 L 9623694 16406640 L 9621767 16404500 M 9594209 16419625 L 9623161 16416809"/><path class="fil0 str2" d=" M 9597961 16445312 L 9578690 16423909"/><path class="fil0 str2" d=" M 9643770 16437006 L 9645482 16433527 L 9643929 16429113 L 9642001 16426973 L 9637773 16424967 L 9631833 16426440 L 9624181 16431392 L 9617493 16437414 L 9613106 16443302 L 9612358 16447851 L 9613911 16452266 L 9614874 16453336 L 9619102 16455343 L 9623705 16455074 L 9628682 16452530 L 9630019 16451326 L 9633068 16446643 L 9633817 16442093 L 9632264 16437679 L 9631300 16436608 L 9627072 16434603 L 9622470 16434871 L 9617493 16437414"/><path class="fil0 str2" d=" M 9663200 16450516 L 9634837 16456677 L 9649290 16472729 M 9663200 16450516 L 9635109 16475809"/>
  <path class="fil0 str2" d=" M 4538426 11132498 L 4534198 11130493 L 4528258 11131966 L 4520606 11136917 L 4516593 11140531 L 4510868 11147623 L 4508782 11153377 L 4510335 11157791 L 4512262 11159932 L 4516491 11161938 L 4522431 11160465 L 4530083 11155513 L 4534096 11151900 L 4539820 11144807 L 4541906 11139053 L 4540353 11134639 L 4538426 11132498 M 4510868 11147623 L 4539820 11144807"/><path class="fil0 str2" d=" M 4514620 11173311 L 4495349 11151909"/><path class="fil0 str2" d=" M 4559681 11169554 L 4561393 11166075 L 4562141 11161527 L 4561551 11158182 L 4557697 11153901 L 4554432 11152966 L 4549830 11153234 L 4546191 11154572 L 4541215 11157116 L 4534526 11163138 L 4531477 11167822 L 4529765 11171301 L 4529017 11175849 L 4529606 11179194 L 4533460 11183475 L 4536725 11184411 L 4541328 11184143 L 4544967 11182803 L 4548980 11179190 M 4544162 11173840 L 4548980 11179190"/><path class="fil0 str2" d=" M 4572150 11169953 L 4544060 11195246 M 4572150 11169953 L 4584677 11183864 M 4558774 11181998 L 4566482 11190559"/>
  <path class="fil0 str2" d=" M 13729333 8154010 L 13729709 8158674 L 13733955 8163082 L 13742070 8167233 L 13747205 8168901 L 13756210 8170313 L 13762236 8169243 L 13765283 8165690 L 13766173 8162951 L 13765795 8158287 L 13761550 8153879 L 13753435 8149729 L 13748299 8148060 L 13739295 8146648 L 13733270 8147718 L 13730223 8151271 L 13729333 8154010 M 13756210 8170313 L 13739295 8146648"/><path class="fil0 str2" d=" M 13776580 8154220 L 13767680 8181611"/><path class="fil0 str2" d=" M 13736898 8130728 L 13772847 8142409 M 13736008 8133467 L 13737788 8127989 M 13771958 8145148 L 13773737 8139669"/><path class="fil0 str2" d=" M 13741791 8115663 L 13777742 8127344 M 13740902 8118402 L 13744017 8108815 L 13747064 8105263 L 13751378 8103637 L 13755246 8103380 L 13760827 8103679 L 13769387 8106459 L 13774078 8109498 L 13777056 8111980 L 13779589 8115831 L 13779967 8120496 L 13776853 8130083"/>
  <path class="fil0 str2" d=" M 16961223 28428708 L 16965823 28427846 L 16969763 28423164 L 16973043 28414660 L 16974165 28409377 L 16974628 28400275 L 16972934 28394394 L 16969082 28391735 L 16966265 28391135 L 16961666 28391999 L 16957725 28396682 L 16954445 28405185 L 16953323 28410468 L 16952861 28419570 L 16954555 28425451 L 16958406 28428110 L 16961223 28428708 M 16974628 28400275 L 16952861 28419570"/><path class="fil0 str2" d=" M 16956494 28381699 L 16984664 28387685"/><path class="fil0 str2" d=" M 16940095 28424218 L 16947954 28387243 M 16920375 28420026 L 16928234 28383051 M 16943837 28406611 L 16924118 28402419"/><path class="fil0 str2" d=" M 16903474 28416433 L 16908073 28415571 L 16912012 28410888 L 16915292 28402385 L 16916416 28397102 L 16916878 28388000 L 16915184 28382119 L 16911333 28379460 L 16908515 28378862 L 16903916 28379724 L 16899975 28384406 L 16896696 28392910 L 16895573 28398193 L 16895111 28407294 L 16896805 28413176 L 16900656 28415834 L 16903474 28416433 M 16916878 28388000 L 16895111 28407294"/>
  <path class="fil0 str2" d=" M 16812895 30908645 L 16809848 30905092 L 16803822 30904020 L 16794818 30905434 L 16789682 30907102 L 16781567 30911252 L 16777321 30915661 L 16776944 30920324 L 16777834 30923063 L 16780881 30926616 L 16786907 30927687 L 16795911 30926274 L 16801047 30924606 L 16809162 30920456 L 16813408 30916047 L 16813785 30911384 L 16812895 30908645 M 16781567 30911252 L 16809162 30920456"/><path class="fil0 str2" d=" M 16774547 30936245 L 16765648 30908854"/><path class="fil0 str2" d=" M 16813612 30934150 L 16816214 30936335 L 16822684 30938774 L 16786734 30950454"/><path class="fil0 str2" d=" M 16828024 30955207 L 16792073 30966889 M 16828024 30955207 L 16833809 30973012 M 16810905 30960771 L 16814465 30971726"/>
  <path class="fil0 str2" d=" M 16889876 35052519 L 16888323 35056936 L 16890410 35062687 L 16896135 35069780 L 16900147 35073393 L 16907800 35078347 L 16913740 35079819 L 16917968 35077814 L 16919895 35075673 L 16921447 35071259 L 16919362 35065505 L 16913637 35058413 L 16909625 35054799 L 16901972 35049848 L 16896032 35048374 L 16891804 35050380 L 16889876 35052519 M 16907800 35078347 L 16901972 35049848"/><path class="fil0 str2" d=" M 16932954 35071931 L 16913682 35093332"/><path class="fil0 str2" d=" M 16911607 35039145 L 16912197 35035800 L 16911075 35028977 L 16939166 35054270"/><path class="fil0 str2" d=" M 16935163 35002224 L 16953619 35038220 M 16921674 35017207 L 16935163 35002224"/>
  <path class="fil0 str2" d=" M 17241442 24999946 L 17240103 24995461 L 17235034 24992031 L 17226234 24989658 L 17220864 24989094 L 17211762 24989587 L 17206091 24991887 L 17203848 24995993 L 17203548 24998857 L 17204886 25003342 L 17209956 25006772 L 17218756 25009145 L 17224127 25009709 L 17233227 25009218 L 17238900 25006918 L 17241141 25002810 L 17241442 24999946 M 17211762 24989587 L 17233227 25009218"/><path class="fil0 str2" d=" M 17195183 25009562 L 17198194 24980920"/><path class="fil0 str2" d=" M 17238431 25028588 L 17237093 25024104 L 17232023 25020673 L 17223223 25018300 L 17217852 25017736 L 17208752 25018227 L 17203081 25020527 L 17200838 25024636 L 17200538 25027500 L 17201876 25031984 L 17206945 25035415 L 17215745 25037785 L 17221116 25038352 L 17230217 25037858 L 17235888 25035559 L 17238131 25031452 L 17238431 25028588 M 17208752 25018227 L 17230217 25037858"/><path class="fil0 str2" d=" M 17236024 25051501 L 17198430 25047551 M 17236324 25048637 L 17235270 25058662 L 17233029 25062770 L 17229147 25065258 L 17225417 25066313 L 17219896 25067182 L 17210946 25066240 L 17205725 25064243 L 17202296 25062436 L 17199016 25059194 L 17197678 25054711 L 17198731 25044685"/>
  <path class="fil0 str2" d=" M 8802363 3693263 L 8801025 3688779 L 8795955 3685350 L 8787155 3682977 L 8781785 3682413 L 8772684 3682904 L 8767012 3685204 L 8764771 3689312 L 8764470 3692176 L 8765808 3696661 L 8770878 3700089 L 8779678 3702462 L 8785048 3703027 L 8794149 3702535 L 8799821 3700235 L 8802062 3696127 L 8802363 3693263 M 8772684 3682904 L 8794149 3702535"/><path class="fil0 str2" d=" M 8756105 3702880 L 8759115 3674238"/><path class="fil0 str2" d=" M 8800106 3714745 L 8762513 3710794 M 8800106 3714745 L 8798149 3733362 M 8782204 3712863 L 8781000 3724320"/><path class="fil0 str2" d=" M 8790370 3755711 L 8794101 3754656 L 8796343 3750548 L 8796644 3747684 L 8795305 3743199 L 8790236 3739770 L 8781436 3737397 L 8772485 3736457 L 8765174 3737136 L 8761292 3739624 L 8759051 3743732 L 8758900 3745164 L 8760239 3749649 L 8763518 3752889 L 8768738 3754886 L 8770528 3755074 L 8776049 3754206 L 8779931 3751719 L 8782172 3747610 L 8782322 3746178 L 8780984 3741694 L 8777705 3738453 L 8772485 3736457"/>
  <path class="fil0 str2" d=" M 14200571 6703687 L 14200947 6708351 L 14205194 6712759 L 14213308 6716909 L 14218443 6718578 L 14227448 6719990 L 14233474 6718920 L 14236520 6715367 L 14237410 6712628 L 14237033 6707963 L 14232788 6703555 L 14224674 6699405 L 14219537 6697736 L 14210533 6696325 L 14204508 6697395 L 14201461 6700947 L 14200571 6703687 M 14227448 6719990 L 14210533 6696325"/><path class="fil0 str2" d=" M 14247818 6703897 L 14238918 6731287"/><path class="fil0 str2" d=" M 14214982 6682630 L 14214161 6679334 L 14210360 6673557 L 14246311 6685238"/><path class="fil0 str2" d=" M 14223437 6656608 L 14222615 6653313 L 14218814 6647536 L 14254765 6659217"/>
  <path class="fil0 str2" d=" M 17652998 19744897 L 17651658 19740412 L 17646590 19736983 L 17637789 19734611 L 17632419 19734046 L 17623317 19734538 L 17617646 19736838 L 17615405 19740946 L 17615103 19743809 L 17616442 19748294 L 17621512 19751723 L 17630312 19754096 L 17635682 19754660 L 17644783 19754169 L 17650455 19751870 L 17652696 19747761 L 17652998 19744897 M 17623317 19734538 L 17644783 19754169"/><path class="fil0 str2" d=" M 17606739 19754514 L 17609749 19725872"/><path class="fil0 str2" d=" M 17643278 19768491 L 17644768 19771542 L 17649686 19776403 L 17612093 19772452"/><path class="fil0 str2" d=" M 17647277 19799317 L 17645939 19794832 L 17642509 19793024 L 17638929 19792648 L 17635198 19793703 L 17633107 19796380 L 17630715 19801920 L 17628474 19806029 L 17624592 19808516 L 17620861 19809572 L 17615490 19809007 L 17612061 19807199 L 17610421 19805579 L 17609083 19801094 L 17609685 19795366 L 17611927 19791258 L 17613867 19790014 L 17617598 19788958 L 17622968 19789522 L 17626398 19791331 L 17629677 19794571 L 17631016 19799056 L 17632204 19804973 L 17633693 19808024 L 17637122 19809833 L 17640703 19810209 L 17644434 19809154 L 17646676 19805046 L 17647277 19799317"/>
  <path class="fil0 str2" d=" M 17296893 22189160 L 17297495 22184519 L 17294257 22179323 L 17287183 22173576 L 17282507 22170876 L 17273992 22167624 L 17267877 22167419 L 17264157 22170258 L 17262718 22172753 L 17262116 22177395 L 17265354 22182590 L 17272427 22188337 L 17277104 22191035 L 17285618 22194289 L 17291734 22194494 L 17295454 22191652 L 17296893 22189160 M 17273992 22167624 L 17285618 22194289"/><path class="fil0 str2" d=" M 17250722 22179130 L 17265122 22154189"/><path class="fil0 str2" d=" M 17286093 22207866 L 17253358 22188964 M 17276013 22225324 L 17243277 22206425 M 17270505 22198864 L 17260424 22216325"/><path class="fil0 str2" d=" M 17263054 22247773 L 17270253 22235302 L 17256944 22225954 L 17257783 22228100 L 17257181 22232741 L 17255021 22236484 L 17251302 22239326 L 17246745 22240019 L 17241348 22238566 L 17238231 22236767 L 17234274 22232819 L 17232596 22228525 L 17233198 22223884 L 17235357 22220141 L 17239077 22217302 L 17241356 22216955 L 17245192 22217507"/>
  <path class="fil0 str2" d=" M 6717492 23802368 L 6714277 23805771 L 6713843 23811875 L 6716188 23820683 L 6718385 23825615 L 6723360 23833251 L 6728188 23837014 L 6732866 23836901 L 6735498 23835729 L 6738712 23832329 L 6739146 23826223 L 6736801 23817416 L 6734605 23812482 L 6729629 23804846 L 6724801 23801083 L 6720123 23801198 L 6717492 23802368 M 6723360 23833251 L 6729629 23804846"/><path class="fil0 str2" d=" M 6748950 23837622 L 6722640 23849335"/><path class="fil0 str2" d=" M 6737224 23793583 L 6752599 23828115 M 6755642 23785383 L 6771016 23819916 M 6744545 23810026 L 6762963 23801828"/><path class="fil0 str2" d=" M 6786928 23781306 L 6784148 23778603 L 6780053 23776486 L 6776690 23776013 L 6771428 23778354 L 6769529 23781171 L 6768362 23785632 L 6768511 23789506 L 6769392 23795024 L 6773052 23803247 L 6776564 23807595 L 6779344 23810297 L 6783439 23812414 L 6786802 23812888 L 6792064 23810544 L 6793963 23807729 L 6795130 23803269 L 6794981 23799394"/>
  <path class="fil0 str2" d=" M 18314528 12937291 L 18316770 12941398 L 18322441 12943698 L 18331542 12944190 L 18336914 12943625 L 18345714 12941253 L 18350783 12937824 L 18352121 12933339 L 18351821 12930476 L 18349578 12926367 L 18343907 12924067 L 18334805 12923576 L 18329436 12924140 L 18320635 12926513 L 18315566 12929942 L 18314227 12934427 L 18314528 12937291 M 18345714 12941253 L 18320635 12926513"/><path class="fil0 str2" d=" M 18357777 12918266 L 18360787 12946907"/><path class="fil0 str2" d=" M 18312120 12914377 L 18310465 12898624 L 18325688 12905711 L 18325236 12901414 L 18326726 12898363 L 18328366 12896743 L 18333586 12894746 L 18337166 12894370 L 18342686 12895236 L 18346568 12897725 L 18348809 12901833 L 18349261 12906130 L 18347923 12910614 L 18346284 12912235 L 18342854 12914042"/><path class="fil0 str2" d=" M 18309110 12885734 L 18346702 12881783 M 18309411 12888599 L 18308356 12878574 L 18309696 12874090 L 18312974 12870849 L 18316405 12869041 L 18321624 12867044 L 18330576 12866103 L 18336096 12866971 L 18339827 12868027 L 18343708 12870515 L 18345950 12874622 L 18347004 12884648"/>
  <path class="fil0 str2" d=" M 8604440 22971196 L 8600211 22969191 L 8594271 22970664 L 8586619 22975615 L 8582606 22979228 L 8576882 22986320 L 8574796 22992075 L 8576349 22996489 L 8578276 22998630 L 8582504 23000637 L 8588444 22999162 L 8596096 22994211 L 8600109 22990598 L 8605834 22983505 L 8607919 22977751 L 8606367 22973337 L 8604440 22971196 M 8576882 22986320 L 8605834 22983505"/><path class="fil0 str2" d=" M 8580634 23012009 L 8561362 22990605"/><path class="fil0 str2" d=" M 8615469 22994206 L 8618734 22995141 L 8625637 22994738 L 8597546 23020034"/><path class="fil0 str2" d=" M 8639127 23009721 L 8611036 23035014 M 8637200 23007580 L 8643945 23015073 L 8645498 23019487 L 8644750 23024035 L 8643038 23027514 L 8639989 23032199 L 8633300 23038220 L 8628323 23040764 L 8624685 23042102 L 8620083 23042370 L 8615854 23040366 L 8609110 23032873"/>
  <path class="fil0 str2" d=" M 11230750 27944267 L 11229411 27939782 L 11224342 27936354 L 11215541 27933981 L 11210172 27933417 L 11201070 27933908 L 11195399 27936208 L 11193157 27940317 L 11192856 27943181 L 11194195 27947666 L 11199263 27951093 L 11208063 27953466 L 11213435 27954030 L 11222536 27953540 L 11228208 27951240 L 11230449 27947131 L 11230750 27944267 M 11201070 27933908 L 11222536 27953540"/><path class="fil0 str2" d=" M 11184492 27953886 L 11187502 27925244"/><path class="fil0 str2" d=" M 11228190 27968613 L 11190598 27964663 M 11228492 27965749 L 11227890 27971479 M 11190899 27961799 L 11190297 27967526"/><path class="fil0 str2" d=" M 11219660 27998125 L 11223391 27997067 L 11225632 27992958 L 11225933 27990095 L 11224594 27985610 L 11219525 27982182 L 11210725 27979809 L 11201774 27978869 L 11194464 27979548 L 11190582 27982036 L 11188341 27986145 L 11188189 27987575 L 11189528 27992060 L 11192807 27995302 L 11198028 27997297 L 11199818 27997487 L 11205339 27996618 L 11209219 27994130 L 11211462 27990021 L 11211612 27988591 L 11210273 27984106 L 11206994 27980866 L 11201774 27978869"/>
  <path class="fil0 str2" d=" M 17994520 15156179 L 17993182 15151695 L 17988112 15148266 L 17979312 15145893 L 17973941 15145329 L 17964841 15145820 L 17959169 15148120 L 17956927 15152229 L 17956627 15155092 L 17957965 15159577 L 17963034 15163006 L 17971834 15165378 L 17977204 15165943 L 17986306 15165451 L 17991977 15163151 L 17994219 15159044 L 17994520 15156179 M 17964841 15145820 L 17986306 15165451"/><path class="fil0 str2" d=" M 17948261 15165797 L 17951271 15137154"/><path class="fil0 str2" d=" M 17981204 15196770 L 17984935 15195714 L 17988817 15193226 L 17990908 15190550 L 17991510 15184821 L 17990020 15181770 L 17986741 15178529 L 17983311 15176721 L 17978092 15174724 L 17969141 15173782 L 17963620 15174650 L 17959890 15175706 L 17956008 15178194 L 17953917 15180870 L 17953315 15186599 L 17954804 15189652 L 17958083 15192891 L 17961513 15194700 L 17966883 15195264 M 17967636 15188104 L 17966883 15195264"/><path class="fil0 str2" d=" M 17988499 15213464 L 17952110 15198056 M 17988499 15213464 L 17949702 15220970 M 17964190 15203669 L 17962685 15217990"/>
  <path class="fil0 str2" d=" M 10231696 2020363 L 10227018 2020251 L 10222190 2024012 L 10217214 2031648 L 10215018 2036582 L 10212673 2045389 L 10213107 2051494 L 10216322 2054895 L 10218953 2056067 L 10223631 2056179 L 10228459 2052418 L 10233435 2044781 L 10235631 2039848 L 10237976 2031041 L 10237542 2024936 L 10234328 2021535 L 10231696 2020363 M 10212673 2045389 L 10237976 2031041"/><path class="fil0 str2" d=" M 10226548 2067330 L 10200238 2055616"/><path class="fil0 str2" d=" M 10247768 2037371 L 10248500 2035726 L 10251280 2033023 L 10253328 2031965 L 10256691 2031492 L 10261953 2033834 L 10263852 2036650 L 10264436 2038880 L 10264287 2042755 L 10262822 2046043 L 10260042 2048746 L 10255216 2052508 L 10234739 2063095 L 10253156 2071295"/><path class="fil0 str2" d=" M 10291180 2056699 L 10291329 2052824 L 10290162 2048364 L 10288262 2045548 L 10283001 2043206 L 10279638 2043679 L 10275543 2045796 L 10272763 2048499 L 10269251 2052846 L 10265590 2061068 L 10264709 2066587 L 10264561 2070462 L 10265727 2074922 L 10267626 2077738 L 10272889 2080080 L 10276252 2079607 L 10280347 2077490 L 10283127 2074787"/>
  <path class="fil0 str2" d=" M 17864154 18213205 L 17868754 18212342 L 17872694 18207659 L 17875974 18199155 L 17877097 18193873 L 17877559 18184771 L 17875865 18178890 L 17872014 18176231 L 17869196 18175632 L 17864597 18176495 L 17860656 18181177 L 17857376 18189682 L 17856254 18194964 L 17855792 18204067 L 17857486 18209947 L 17861337 18212606 L 17864154 18213205 M 17877559 18184771 L 17855792 18204067"/><path class="fil0 str2" d=" M 17859425 18166195 L 17887596 18172182"/><path class="fil0 str2" d=" M 17841617 18208415 L 17826124 18205122 L 17837569 18192833 L 17833343 18191934 L 17830900 18189575 L 17829866 18187514 L 17829581 18181933 L 17830329 18178413 L 17832860 18173430 L 17836425 18170507 L 17841025 18169644 L 17845251 18170543 L 17849102 18173201 L 17850136 18175262 L 17850797 18179083"/><path class="fil0 str2" d=" M 17798416 18190031 L 17799075 18193852 L 17801145 18197972 L 17803587 18200332 L 17809221 18201529 L 17812413 18200367 L 17815979 18197445 L 17818135 18194222 L 17820666 18189240 L 17822537 18180437 L 17822252 18174855 L 17821591 18171035 L 17819523 18166914 L 17817081 18164555 L 17811446 18163358 L 17808255 18164519 L 17804689 18167442 L 17802532 18170664"/>
  <path class="fil0 str2" d=" M 6252807 33267834 L 6253184 33272500 L 6257429 33276906 L 6265544 33281057 L 6270679 33282727 L 6279684 33284138 L 6285710 33283068 L 6288757 33279516 L 6289647 33276777 L 6289270 33272111 L 6285024 33267705 L 6276909 33263552 L 6271774 33261884 L 6262769 33260473 L 6256743 33261542 L 6253697 33265095 L 6252807 33267834 M 6279684 33284138 L 6262769 33260473"/><path class="fil0 str2" d=" M 6300054 33268044 L 6291154 33295434"/><path class="fil0 str2" d=" M 6259926 33245922 L 6264821 33230856 L 6275847 33243525 L 6277182 33239416 L 6279783 33237233 L 6281940 33236420 L 6287521 33236718 L 6290945 33237832 L 6295635 33240869 L 6298170 33244721 L 6298546 33249387 L 6297211 33253493 L 6294165 33257045 L 6292008 33257861 L 6288139 33258117"/><path class="fil0 str2" d=" M 6270161 33214423 L 6270538 33219089 L 6274784 33223496 L 6282898 33227646 L 6288034 33229316 L 6297039 33230727 L 6303064 33229655 L 6306111 33226103 L 6307001 33223364 L 6306624 33218701 L 6302379 33214291 L 6294264 33210141 L 6289128 33208474 L 6280123 33207060 L 6274098 33208132 L 6271051 33211684 L 6270161 33214423 M 6297039 33230727 L 6280123 33207060"/>
  <path class="fil0 str2" d=" M 9104793 5591829 L 9107230 5587833 L 9106386 5581772 L 9102260 5573645 L 9099086 5569276 L 9092631 5562841 L 9087127 5560165 L 9082575 5561248 L 9080244 5562941 L 9077807 5566936 L 9078651 5572998 L 9082777 5581126 L 9085950 5585494 L 9092406 5591929 L 9097910 5594605 L 9102463 5593522 L 9104793 5591829 M 9092631 5562841 L 9092406 5591929"/><path class="fil0 str2" d=" M 9066693 5563887 L 9089992 5546959"/><path class="fil0 str2" d=" M 9065718 5609094 L 9068999 5611160 L 9073445 5612379 L 9076833 5612142 L 9081493 5608757 L 9082765 5605608 L 9082979 5601003 L 9082028 5597244 L 9080018 5592029 L 9074729 5584747 L 9070390 5581225 L 9067108 5579159 L 9062662 5577940 L 9059274 5578176 L 9054614 5581562 L 9053342 5584711 L 9053129 5589316 L 9054080 5593075 L 9057254 5597444 M 9063079 5593212 L 9057254 5597444"/><path class="fil0 str2" d=" M 9048873 5632457 L 9038305 5593411 M 9065183 5620607 L 9048873 5632457"/>
  <path class="fil0 str2" d=" M 7191538 25255161 L 7188323 25258562 L 7187889 25264665 L 7190234 25273474 L 7192431 25278405 L 7197406 25286042 L 7202234 25289804 L 7206912 25289692 L 7209544 25288520 L 7212758 25285119 L 7213192 25279013 L 7210847 25270207 L 7208651 25265273 L 7203675 25257636 L 7198847 25253876 L 7194169 25253989 L 7191538 25255161 M 7197406 25286042 L 7203675 25257636"/><path class="fil0 str2" d=" M 7222996 25290412 L 7196686 25302126"/><path class="fil0 str2" d=" M 7216830 25251779 L 7218729 25248964 L 7220479 25242275 L 7235853 25276806"/><path class="fil0 str2" d=" M 7237581 25234660 L 7252051 25228217 L 7250015 25244887 L 7253961 25243129 L 7257325 25243603 L 7259372 25244660 L 7262884 25249008 L 7264348 25252297 L 7265230 25257817 L 7264063 25262277 L 7260848 25265678 L 7256901 25267436 L 7252223 25267548 L 7250175 25266489 L 7247396 25263786"/>
  <path class="fil0 str2" d=" M 11608837 969658 L 11604158 969545 L 11599332 973307 L 11594355 980943 L 11592159 985876 L 11589814 994684 L 11590249 1000789 L 11593463 1004190 L 11596093 1005362 L 11600772 1005474 L 11605600 1001713 L 11610576 994076 L 11612772 989143 L 11615117 980335 L 11614682 974231 L 11611468 970830 L 11608837 969658 M 11589814 994684 L 11615117 980335"/><path class="fil0 str2" d=" M 11603690 1016625 L 11577379 1004911"/><path class="fil0 str2" d=" M 11624909 986666 L 11625642 985021 L 11628421 982318 L 11630468 981259 L 11633831 980786 L 11639094 983129 L 11640993 985945 L 11641577 988175 L 11641428 992050 L 11639963 995338 L 11637183 998041 L 11632355 1001803 L 11611879 1012390 L 11630296 1020590"/><path class="fil0 str2" d=" M 11654880 990158 L 11669350 996600 L 11655600 1006241 L 11659547 1007998 L 11661446 1010814 L 11662030 1013044 L 11661148 1018563 L 11659685 1021852 L 11656173 1026199 L 11652077 1028317 L 11647398 1028204 L 11643452 1026447 L 11640238 1023045 L 11639654 1020815 L 11639803 1016941"/>
  <path class="fil0 str2" d=" M 14685690 5177504 L 14690291 5176641 L 14694230 5171958 L 14697510 5163454 L 14698632 5158172 L 14699096 5149069 L 14697402 5143189 L 14693549 5140530 L 14690733 5139931 L 14686134 5140794 L 14682193 5145477 L 14678913 5153981 L 14677791 5159263 L 14677329 5168366 L 14679023 5174246 L 14682874 5176905 L 14685690 5177504 M 14699096 5149069 L 14677329 5168366"/><path class="fil0 str2" d=" M 14680961 5130493 L 14709132 5136481"/><path class="fil0 str2" d=" M 14664562 5173013 L 14672421 5136039 M 14644843 5168822 L 14652702 5131848 M 14668305 5155406 L 14648586 5151215"/><path class="fil0 str2" d=" M 14622307 5164031 L 14641632 5142376 L 14620504 5137885 M 14622307 5164031 L 14630166 5127057"/>
  <path class="fil0 str2" d=" M 12803000 18969532 L 12806851 18966873 L 12808546 18960992 L 12808083 18951889 L 12806961 18946607 L 12803681 18938104 L 12799741 18933420 L 12795141 18932558 L 12792324 18933156 L 12788472 18935815 L 12786778 18941696 L 12787241 18950799 L 12788364 18956081 L 12791644 18964584 L 12795583 18969268 L 12800184 18970130 L 12803000 18969532 M 12803681 18938104 L 12791644 18964584"/><path class="fil0 str2" d=" M 12779559 18928509 L 12807730 18922521"/><path class="fil0 str2" d=" M 12780001 18965219 L 12780375 18966979 L 12779715 18970800 L 12778681 18972861 L 12776239 18975220 L 12770604 18976418 L 12767413 18975256 L 12765631 18973795 L 12763474 18970573 L 12762724 18967052 L 12763385 18963231 L 12765079 18957349 L 12775422 18936749 L 12755703 18940941"/><path class="fil0 str2" d=" M 12753239 18970908 L 12753613 18972668 L 12752954 18976489 L 12751918 18978549 L 12749476 18980909 L 12743842 18982106 L 12740650 18980944 L 12738868 18979483 L 12736711 18976262 L 12735963 18972740 L 12736623 18968919 L 12738317 18963038 L 12748659 18942437 L 12728940 18946629"/>
  <path class="fil0 str2" d=" M 15239117 3384266 L 15241358 3388374 L 15247031 3390674 L 15256131 3391166 L 15261502 3390601 L 15270302 3388228 L 15275372 3384800 L 15276710 3380315 L 15276409 3377451 L 15274167 3373343 L 15268496 3371043 L 15259394 3370552 L 15254024 3371116 L 15245224 3373489 L 15240155 3376918 L 15238815 3381402 L 15239117 3384266 M 15270302 3388228 L 15245224 3373489"/><path class="fil0 str2" d=" M 15282365 3365242 L 15285375 3393884"/><path class="fil0 str2" d=" M 15236107 3355624 L 15238348 3359732 L 15244019 3362032 L 15253121 3362523 L 15258492 3361959 L 15267292 3359586 L 15272360 3356157 L 15273699 3351673 L 15273398 3348809 L 15271157 3344700 L 15265485 3342401 L 15256384 3341909 L 15251014 3342474 L 15242214 3344847 L 15237144 3348275 L 15235805 3352760 L 15236107 3355624 M 15267292 3359586 L 15242214 3344847"/><path class="fil0 str2" d=" M 15233247 3328414 L 15272044 3335920 M 15233247 3328414 L 15269636 3313006 M 15259061 3332940 L 15257556 3318619"/>
  </g>
</svg>
