<?xml version="1.0" encoding="UTF-8"?>
<!DOCTYPE svg PUBLIC "-//W3C//DTD SVG 1.1//EN" "http://www.w3.org/Graphics/SVG/1.1/DTD/svg11.dtd">
<svg xmlns="http://www.w3.org/2000/svg"
     xmlns:xlink="http://www.w3.org/1999/xlink"
     version="1.1" baseProfile="full"
     width="304.8mm" height="177.8mm"
     viewBox="0 0 3048000 1778000">
  <defs>
    <style type="text/css">
      <![CDATA[
        .str0 {stroke:red; stroke-width:1}
        .str1 {stroke:green; stroke-width:1}
        .str2 {stroke:black; stroke-width:1}
        .fil0 {fill:none}
        .fil1 {fill:black}
        .fil2 {fill:green}
        .fnt0 {text-anchor:'middle'; dominant-baseline:'central'; font-weight:normal; font-size:3pt; font-family:'Arial'; text-decoration:underline;}
      ]]>
    </style>
  </defs>
  <g id="Layer_x0020_1">
    <metadata id="CorelCorpID_0Corel-Layer"/>
    <rect class="str1" x="0" y="0" width="3.048e+06" height="1.778e+06" />
    <circle class="fil0 str1" cx="0" cy="0" r="50000" />
    <circle class="fil0 str1" cx="0" cy="0" r="50000" />
    <circle class="fil0 str1" cx="0" cy="0" r="50000" />
    <circle class="fil0 str1" cx="0" cy="0" r="50000" />
    <circle class="fil0 str1" cx="0" cy="0" r="50000" />
    <circle class="fil0 str1" cx="0" cy="0" r="50000" />
    <circle class="fil0 str1" cx="0" cy="0" r="50000" />
    <circle class="fil0 str1" cx="0" cy="0" r="50000" />
    <circle class="fil0 str1" cx="0" cy="0" r="50000" />
  </g>
  <g id="Layer_x0020_2">
    <metadata id="CorelCorpID_1Corel-Layer"/>
    <path class="fil0 str0" d="M 10740000 180000 C 11239999 179999, 11739999 180000, 12240000 180000 C 12240000 680000, 12240000 1180000, 12240000 1680000 C 11739999 1680000, 11239999 1680000, 10740000 1680000 C 10739999 1180000, 10739999 680000, 10740000 180000" />
    <path class="fil0 str0" d="M 840000 18560000 C 1339999 18560000, 1839999 18560000, 2340000 18560000 C 2340000 19060000, 2339999 19560000, 2340000 20060000 C 1839999 20060000, 1339999 20060000, 840000 20060000 C 840000 19560000, 840000 19060000, 840000 18560000" />
    <path class="fil0 str0" d="M 860000 13850000 C 1359999 13850000, 1859999 13850000, 2360000 13850000 C 2360000 14350000, 2359999 14850000, 2360000 15350000 C 1859999 15350000, 1359999 15350000, 860000 15350000 C 860000 14850000, 860000 14350000, 860000 13850000" />
    <path class="fil0 str0" d="M 6930000 31000000 C 7429999 31000000, 7929999 31000000, 8430000 31000000 C 8429999 31500000, 8430000 32000000, 8430000 32500000 C 7929999 32500000, 7429999 32500000, 6930000 32500000 C 6930000 32000000, 6930000 31500000, 6930000 31000000" />
    <path class="fil0 str0" d="M 12970000 15140000 C 13469999 15140000, 13969999 15140000, 14470000 15140000 C 14469999 15640000, 14469999 16140000, 14470000 16640000 C 13969999 16640000, 13469999 16640000, 12970000 16640000 C 12970000 16140000, 12970000 15640000, 12970000 15140000" />
    <path class="fil0 str0" d="M 10130000 32280000 C 10629999 32280000, 11129999 32280000, 11630000 32280000 C 11630000 32780000, 11630000 33280000, 11630000 33780000 C 11129999 33780000, 10629999 33780000, 10130000 33780000 C 10130000 33280000, 10129999 32780000, 10130000 32280000" />
    <path class="fil0 str0" d="M 13590000 19800000 C 14089999 19800000, 14589999 19800000, 15090000 19800000 C 15090000 20300000, 15089999 20800000, 15090000 21300000 C 14589999 21299999, 14089999 21300000, 13590000 21300000 C 13590000 20800000, 13590000 20300000, 13590000 19800000" />
    <path class="fil0 str0" d="M 3160000 17630000 C 3659999 17630000, 4159999 17629999, 4660000 17630000 C 4660000 18130000, 4660000 18630000, 4660000 19130000 C 4159999 19130000, 3659999 19130000, 3160000 19130000 C 3160000 18630000, 3160000 18130000, 3160000 17630000" />
    <path class="fil0 str0" d="M 6261671 8200519 C 6718443 7997151, 7175216 7793782, 7631989 7590414 C 7835357 8047187, 8038725 8503959, 8242094 8960732 C 7785321 9164100, 7328548 9367469, 6871776 9570837 C 6668407 9114064, 6465039 8657292, 6261671 8200519" />
    <path class="fil0 str0" d="M 6743457 17781581 C 6254383 17677625, 5765310 17573669, 5276236 17469713 C 5380192 16980639, 5484147 16491566, 5588103 16002492 C 6077177 16106448, 6566251 16210403, 7055325 16314359 C 6951369 16803433, 6847413 17292507, 6743457 17781581" />
    <path class="fil0 str0" d="M 7981771 27491219 C 7492697 27387263, 7003623 27283307, 6514549 27179352 C 6618505 26690278, 6722461 26201204, 6826417 25712130 C 7315490 25816086, 7804564 25920042, 8293638 26023998 C 8189682 26513071, 8085727 27002145, 7981771 27491219" />
    <path class="fil0 str0" d="M 2829140 35331251 C 2340066 35227295, 1850992 35123339, 1361918 35019383 C 1465874 34530309, 1569830 34041236, 1673786 33552162 C 2162860 33656118, 2651933 33760073, 3141007 33864029 C 3037051 34353103, 2933096 34842177, 2829140 35331251" />
    <path class="fil0 str0" d="M 12590000 9240000 C 13090000 9240000, 13590000 9240000, 14090000 9240000 C 14090000 9740000, 14090000 10240000, 14090000 10740000 C 13590000 10739999, 13090000 10740000, 12590000 10740000 C 12590000 10240000, 12590000 9740000, 12590000 9240000" />
    <path class="fil0 str0" d="M 8068167 19341082 C 7579093 19237126, 7090019 19133170, 6600945 19029214 C 6704901 18540141, 6808857 18051067, 6912813 17561993 C 7401887 17665949, 7890960 17769905, 8380034 17873860 C 8276078 18362934, 8172123 18852008, 8068167 19341082" />
    <path class="fil0 str0" d="M 5180000 27890000 C 5680000 27890000, 6180000 27889999, 6680000 27890000 C 6679999 28390000, 6679999 28890000, 6680000 29390000 C 6180000 29390000, 5680000 29390000, 5180000 29390000 C 5179999 28890000, 5180000 28390000, 5180000 27890000" />
    <path class="fil0 str0" d="M 1710000 10480000 C 2210000 10480000, 2710000 10480000, 3210000 10480000 C 3210000 10980000, 3210000 11480000, 3210000 11980000 C 2710000 11980000, 2210000 11980000, 1710000 11980000 C 1710000 11480000, 1710000 10980000, 1710000 10480000" />
    <path class="fil0 str0" d="M 10420000 6260000 C 10920000 6260000, 11420000 6260000, 11920000 6260000 C 11920000 6759999, 11920000 7259999, 11920000 7760000 C 11420000 7760000, 10920000 7760000, 10420000 7760000 C 10420000 7259999, 10420000 6759999, 10420000 6260000" />
    <path class="fil0 str0" d="M 4258288 13889841 C 3769214 13785885, 3280140 13681930, 2791067 13577974 C 2895022 13088900, 2998978 12599826, 3102934 12110752 C 3592008 12214708, 4081082 12318664, 4570156 12422620 C 4466200 12911694, 4362244 13400767, 4258288 13889841" />
    <path class="fil0 str0" d="M 4490000 30730000 C 4990000 30729999, 5490000 30730000, 5990000 30730000 C 5990000 31230000, 5990000 31730000, 5990000 32230000 C 5490000 32230000, 4990000 32230000, 4490000 32230000 C 4490000 31730000, 4490000 31230000, 4490000 30730000" />
    <path class="fil0 str0" d="M 1710000 4100000 C 2209999 4100000, 2709999 4100000, 3210000 4100000 C 3210000 4600000, 3210000 5100000, 3210000 5600000 C 2709999 5600000, 2209999 5600000, 1710000 5600000 C 1710000 5100000, 1710000 4600000, 1710000 4100000" />
    <path class="fil0 str0" d="M 516226 22793767 C 463962 22296506, 411698 21799245, 359433 21301985 C 856694 21249720, 1353955 21197456, 1851216 21145192 C 1903480 21642453, 1955745 22139714, 2008009 22636975 C 1510748 22689239, 1013487 22741503, 516226 22793767" />
    <path class="fil0 str0" d="M 1489943 7347914 C 1644452 7823442, 1798960 8298970, 1953469 8774498 C 1477941 8929007, 1002412 9083516, 526884 9238024 C 372376 8762496, 217867 8286968, 63358 7811439 C 538887 7656931, 1014415 7502422, 1489943 7347914" />
    <path class="fil0 str0" d="M 277301 24347252 C 225036 23849991, 172772 23352730, 120508 22855469 C 617769 22803205, 1115030 22750941, 1612291 22698676 C 1664555 23195937, 1716819 23693198, 1769083 24190459 C 1271822 24242724, 774562 24294988, 277301 24347252" />
    <path class="fil0 str0" d="M 2176123 30362903 C 2123859 30860164, 2071595 31357425, 2019331 31854686 C 1522070 31802422, 1024809 31750158, 527548 31697894 C 579812 31200633, 632076 30703372, 684340 30206111 C 1181601 30258375, 1678862 30310639, 2176123 30362903" />
    <path class="fil0 str0" d="M 6237566 4583615 C 5833057 4877508, 5428549 5171401, 5024040 5465293 C 4730147 5060785, 4436255 4656277, 4142362 4251768 C 4546871 3957875, 4951379 3663983, 5355888 3370090 C 5649780 3774599, 5943673 4179107, 6237566 4583615" />
    <path class="fil0 str0" d="M 3704412 20272607 C 4038978 19901035, 4373543 19529462, 4708108 19157890 C 5079681 19492455, 5451253 19827021, 5822826 20161586 C 5488260 20533158, 5153695 20904731, 4819130 21276303 C 4447557 20941738, 4075985 20607173, 3704412 20272607" />
    <path class="fil0 str0" d="M 2153691 27514957 C 2101427 28012218, 2049163 28509479, 1996899 29006740 C 1499638 28954476, 1002377 28902212, 505116 28849948 C 557380 28352687, 609644 27855426, 661909 27358165 C 1159169 27410429, 1656430 27462693, 2153691 27514957" />
    <path class="fil0 str0" d="M 2019374 15495071 C 1967110 15992332, 1914846 16489593, 1862582 16986854 C 1365321 16934590, 868060 16882326, 370799 16830062 C 423063 16332801, 475327 15835540, 527591 15338279 C 1024852 15390543, 1522113 15442807, 2019374 15495071" />
  </g>
  <g id="Layer_x0020_3">
    <metadata id="CorelCorpID_2Corel-Layer"/>
  <path class="fil0 str2" d=" M 11460479 908399 L 11456159 910199 L 11453280 915599 L 11451839 924599 L 11451839 930000 L 11453280 939000 L 11456159 944400 L 11460479 946200 L 11463360 946200 L 11467679 944400 L 11470560 939000 L 11471999 930000 L 11471999 924599 L 11470560 915599 L 11467679 910199 L 11463360 908399 L 11460479 908399 M 11453280 939000 L 11470560 915599"/><path class="fil0 str2" d=" M 11474880 953399 L 11446080 953399"/><path class="fil0 str2" d=" M 11499360 920999 L 11497919 926399 L 11495040 930000 L 11490720 931800 L 11489279 931800 L 11484959 930000 L 11482080 926399 L 11480639 920999 L 11480639 919199 L 11482080 913799 L 11484959 910199 L 11489279 908399 L 11490720 908399 L 11495040 910199 L 11497919 913799 L 11499360 920999 L 11499360 930000 L 11497919 939000 L 11495040 944400 L 11490720 946200 L 11487840 946200 L 11483520 944400 L 11482080 940800"/><path class="fil0 str2" d=" M 11529599 917399 L 11528160 913799 L 11525279 910199 L 11522399 908399 L 11516639 908399 L 11513759 910199 L 11510880 913799 L 11509439 917399 L 11508000 922799 L 11508000 931800 L 11509439 937200 L 11510880 940800 L 11513759 944400 L 11516639 946200 L 11522399 946200 L 11525279 944400 L 11528160 940800 L 11529599 937200"/>
  <path class="fil0 str2" d=" M 1558320 19288399 L 1553999 19290200 L 1551119 19295600 L 1549680 19304599 L 1549680 19310000 L 1551119 19319000 L 1553999 19324399 L 1558320 19326199 L 1561199 19326199 L 1565520 19324399 L 1568399 19319000 L 1569839 19310000 L 1569839 19304599 L 1568399 19295600 L 1565520 19290200 L 1561199 19288399 L 1558320 19288399 M 1551119 19319000 L 1568399 19295600"/><path class="fil0 str2" d=" M 1572720 19333399 L 1543919 19333399"/><path class="fil0 str2" d=" M 1597200 19300999 L 1595760 19306400 L 1592879 19310000 L 1588560 19311800 L 1587120 19311800 L 1582799 19310000 L 1579920 19306400 L 1578480 19300999 L 1578480 19299200 L 1579920 19293800 L 1582799 19290200 L 1587120 19288399 L 1588560 19288399 L 1592879 19290200 L 1595760 19293800 L 1597200 19300999 L 1597200 19310000 L 1595760 19319000 L 1592879 19324399 L 1588560 19326199 L 1585679 19326199 L 1581360 19324399 L 1579920 19320799"/><path class="fil0 str2" d=" M 1607279 19288399 L 1607279 19326199 M 1607279 19288399 L 1618800 19326199 M 1630319 19288399 L 1618800 19326199 M 1630319 19288399 L 1630319 19326199"/>
  <path class="fil0 str2" d=" M 1580480 14578399 L 1576159 14580200 L 1573280 14585600 L 1571840 14594599 L 1571840 14600000 L 1573280 14609000 L 1576159 14614399 L 1580480 14616199 L 1583359 14616199 L 1587680 14614399 L 1590559 14609000 L 1591999 14600000 L 1591999 14594599 L 1590559 14585600 L 1587680 14580200 L 1583359 14578399 L 1580480 14578399 M 1573280 14609000 L 1590559 14585600"/><path class="fil0 str2" d=" M 1594880 14623399 L 1566080 14623399"/><path class="fil0 str2" d=" M 1619360 14590999 L 1617920 14596400 L 1615039 14600000 L 1610720 14601800 L 1609279 14601800 L 1604960 14600000 L 1602079 14596400 L 1600639 14590999 L 1600639 14589200 L 1602079 14583800 L 1604960 14580200 L 1609279 14578399 L 1610720 14578399 L 1615039 14580200 L 1617920 14583800 L 1619360 14590999 L 1619360 14600000 L 1617920 14609000 L 1615039 14614399 L 1610720 14616199 L 1607839 14616199 L 1603520 14614399 L 1602079 14610799"/><path class="fil0 str2" d=" M 1629440 14578399 L 1629440 14616199 M 1649600 14578399 L 1629440 14603599 M 1636640 14594599 L 1649600 14616199"/>
  <path class="fil0 str2" d=" M 7652639 31728400 L 7648319 31730200 L 7645440 31735600 L 7644000 31744599 L 7644000 31750000 L 7645440 31758999 L 7648319 31764399 L 7652639 31766201 L 7655520 31766201 L 7659840 31764399 L 7662719 31758999 L 7664160 31750000 L 7664160 31744599 L 7662719 31735600 L 7659840 31730200 L 7655520 31728400 L 7652639 31728400 M 7645440 31758999 L 7662719 31735600"/><path class="fil0 str2" d=" M 7667039 31773400 L 7638239 31773400"/><path class="fil0 str2" d=" M 7691519 31741000 L 7690079 31746398 L 7687199 31750000 L 7682880 31751799 L 7681439 31751799 L 7677119 31750000 L 7674240 31746398 L 7672800 31741000 L 7672800 31739199 L 7674240 31733798 L 7677119 31730200 L 7681439 31728400 L 7682880 31728400 L 7687199 31730200 L 7690079 31733798 L 7691519 31741000 L 7691519 31750000 L 7690079 31758999 L 7687199 31764399 L 7682880 31766201 L 7680000 31766201 L 7675679 31764399 L 7674240 31760800"/><path class="fil0 str2" d=" M 7701599 31728400 L 7701599 31766201 M 7701599 31728400 L 7720319 31728400 M 7701599 31746398 L 7713120 31746398"/>
  <path class="fil0 str2" d=" M 13690479 15868399 L 13686159 15870200 L 13683280 15875600 L 13681839 15884599 L 13681839 15890000 L 13683280 15899000 L 13686159 15904399 L 13690479 15906199 L 13693360 15906199 L 13697679 15904399 L 13700560 15899000 L 13701999 15890000 L 13701999 15884599 L 13700560 15875600 L 13697679 15870200 L 13693360 15868399 L 13690479 15868399 M 13683280 15899000 L 13700560 15875600"/><path class="fil0 str2" d=" M 13704880 15913399 L 13676080 15913399"/><path class="fil0 str2" d=" M 13729360 15880999 L 13727919 15886400 L 13725040 15890000 L 13720720 15891800 L 13719279 15891800 L 13714959 15890000 L 13712080 15886400 L 13710639 15880999 L 13710639 15879200 L 13712080 15873800 L 13714959 15870200 L 13719279 15868399 L 13720720 15868399 L 13725040 15870200 L 13727919 15873800 L 13729360 15880999 L 13729360 15890000 L 13727919 15899000 L 13725040 15904399 L 13720720 15906199 L 13717840 15906199 L 13713520 15904399 L 13712080 15900799"/><path class="fil0 str2" d=" M 13742320 15868399 L 13742320 15906199 M 13739439 15868399 L 13749520 15868399 L 13753840 15870200 L 13756719 15873800 L 13758160 15877399 L 13759599 15882800 L 13759599 15891800 L 13758160 15897199 L 13756719 15900799 L 13753840 15904399 L 13749520 15906199 L 13739439 15906199"/>
  <path class="fil0 str2" d=" M 10851920 33008400 L 10847600 33010200 L 10844720 33015600 L 10843280 33024599 L 10843280 33030000 L 10844720 33038999 L 10847600 33044399 L 10851920 33046201 L 10854799 33046201 L 10859119 33044399 L 10861999 33038999 L 10863439 33030000 L 10863439 33024599 L 10861999 33015600 L 10859119 33010200 L 10854799 33008400 L 10851920 33008400 M 10844720 33038999 L 10861999 33015600"/><path class="fil0 str2" d=" M 10866319 33053400 L 10837519 33053400"/><path class="fil0 str2" d=" M 10890799 33021000 L 10889360 33026398 L 10886479 33030000 L 10882159 33031799 L 10880720 33031799 L 10876400 33030000 L 10873520 33026398 L 10872080 33021000 L 10872080 33019199 L 10873520 33013798 L 10876400 33010200 L 10880720 33008400 L 10882159 33008400 L 10886479 33010200 L 10889360 33013798 L 10890799 33021000 L 10890799 33030000 L 10889360 33038999 L 10886479 33044399 L 10882159 33046201 L 10879279 33046201 L 10874959 33044399 L 10873520 33040800"/><path class="fil0 str2" d=" M 10900880 33008400 L 10900880 33046201 M 10900880 33008400 L 10919599 33008400 M 10900880 33026398 L 10912399 33026398 M 10900880 33046201 L 10919599 33046201"/>
  <path class="fil0 str2" d=" M 14310479 20528400 L 14306159 20530200 L 14303280 20535600 L 14301839 20544599 L 14301839 20550000 L 14303280 20558999 L 14306159 20564399 L 14310479 20566201 L 14313360 20566201 L 14317679 20564399 L 14320560 20558999 L 14321999 20550000 L 14321999 20544599 L 14320560 20535600 L 14317679 20530200 L 14313360 20528400 L 14310479 20528400 M 14303280 20558999 L 14320560 20535600"/><path class="fil0 str2" d=" M 14324880 20573400 L 14296080 20573400"/><path class="fil0 str2" d=" M 14349360 20541000 L 14347919 20546398 L 14345040 20550000 L 14340720 20551799 L 14339279 20551799 L 14334959 20550000 L 14332080 20546398 L 14330639 20541000 L 14330639 20539199 L 14332080 20533798 L 14334959 20530200 L 14339279 20528400 L 14340720 20528400 L 14345040 20530200 L 14347919 20533798 L 14349360 20541000 L 14349360 20550000 L 14347919 20558999 L 14345040 20564399 L 14340720 20566201 L 14337840 20566201 L 14333520 20564399 L 14332080 20560800"/><path class="fil0 str2" d=" M 14379599 20537399 L 14378160 20533798 L 14375279 20530200 L 14372399 20528400 L 14366639 20528400 L 14363759 20530200 L 14360880 20533798 L 14359439 20537399 L 14358000 20542800 L 14358000 20551799 L 14359439 20557199 L 14360880 20560800 L 14363759 20564399 L 14366639 20566201 L 14372399 20566201 L 14375279 20564399 L 14378160 20560800 L 14379599 20557199 L 14379599 20551799 M 14372399 20551799 L 14379599 20551799"/>
  <path class="fil0 str2" d=" M 3879760 18358399 L 3875440 18360200 L 3872560 18365600 L 3871119 18374599 L 3871119 18380000 L 3872560 18389000 L 3875440 18394399 L 3879760 18396199 L 3882640 18396199 L 3886960 18394399 L 3889840 18389000 L 3891279 18380000 L 3891279 18374599 L 3889840 18365600 L 3886960 18360200 L 3882640 18358399 L 3879760 18358399 M 3872560 18389000 L 3889840 18365600"/><path class="fil0 str2" d=" M 3894159 18403399 L 3865360 18403399"/><path class="fil0 str2" d=" M 3918640 18370999 L 3917200 18376400 L 3914320 18380000 L 3910000 18381800 L 3908559 18381800 L 3904240 18380000 L 3901359 18376400 L 3899920 18370999 L 3899920 18369200 L 3901359 18363800 L 3904240 18360200 L 3908559 18358399 L 3910000 18358399 L 3914320 18360200 L 3917200 18363800 L 3918640 18370999 L 3918640 18380000 L 3917200 18389000 L 3914320 18394399 L 3910000 18396199 L 3907120 18396199 L 3902799 18394399 L 3901359 18390799"/><path class="fil0 str2" d=" M 3928720 18358399 L 3928720 18396199 M 3948880 18358399 L 3948880 18396199 M 3928720 18376400 L 3948880 18376400"/>
  <path class="fil0 str2" d=" M 7216787 8572607 L 7213572 8576008 L 7213138 8582113 L 7215483 8590921 L 7217680 8595854 L 7222655 8603490 L 7227483 8607252 L 7232161 8607139 L 7234793 8605968 L 7238007 8602566 L 7238441 8596462 L 7236096 8587654 L 7233900 8582721 L 7228924 8575085 L 7224096 8571323 L 7219418 8571436 L 7216787 8572607 M 7222655 8603490 L 7228924 8575085"/><path class="fil0 str2" d=" M 7248245 8607860 L 7221935 8619573"/><path class="fil0 str2" d=" M 7236519 8563822 L 7251894 8598353 M 7236519 8563822 L 7253621 8556207 M 7243840 8580266 L 7254365 8575580"/><path class="fil0 str2" d=" M 7258883 8553865 L 7274258 8588397 M 7258883 8553865 L 7292675 8580197 M 7277300 8545665 L 7292675 8580197"/>
  <path class="fil0 str2" d=" M 6186643 16918553 L 6191243 16917690 L 6195183 16913007 L 6198462 16904503 L 6199585 16899221 L 6200048 16890118 L 6198353 16884238 L 6194502 16881579 L 6191685 16880980 L 6187085 16881843 L 6183145 16886525 L 6179865 16895030 L 6178743 16900312 L 6178280 16909415 L 6179974 16915295 L 6183826 16917954 L 6186643 16918553 M 6200048 16890118 L 6178280 16909415"/><path class="fil0 str2" d=" M 6181914 16871542 L 6210084 16877530"/><path class="fil0 str2" d=" M 6158472 16912565 L 6177600 16877987 M 6158472 16912565 L 6155063 16873195 M 6170755 16889412 L 6156669 16886418"/><path class="fil0 str2" d=" M 6141570 16908972 L 6149429 16871998 M 6141570 16908972 L 6123259 16905080 M 6145312 16891365 L 6134044 16888970"/>
  <path class="fil0 str2" d=" M 7429182 26629089 L 7433782 26628227 L 7437722 26623544 L 7441002 26615041 L 7442124 26609758 L 7442587 26600656 L 7440892 26594775 L 7437041 26592116 L 7434224 26591516 L 7429624 26592380 L 7425684 26597062 L 7422405 26605566 L 7421282 26610849 L 7420819 26619951 L 7422514 26625832 L 7426365 26628491 L 7429182 26629089 M 7442587 26600656 L 7420819 26619951"/><path class="fil0 str2" d=" M 7424453 26582080 L 7452623 26588066"/><path class="fil0 str2" d=" M 7390206 26611604 L 7390866 26615424 L 7392935 26619545 L 7395377 26621904 L 7401011 26623103 L 7404203 26621940 L 7407768 26619018 L 7409925 26615795 L 7412457 26610812 L 7414328 26602009 L 7414042 26596428 L 7413382 26592607 L 7411313 26588488 L 7408870 26586127 L 7403236 26584931 L 7400045 26586091 L 7396480 26589016 L 7394323 26592236"/><path class="fil0 str2" d=" M 7377066 26618012 L 7384926 26581037 M 7379884 26618610 L 7370024 26616516 L 7366173 26613857 L 7364104 26609736 L 7363444 26605915 L 7363158 26600334 L 7365029 26591530 L 7367561 26586547 L 7369718 26583327 L 7373283 26580405 L 7377883 26579541 L 7387742 26581638"/>
  <path class="fil0 str2" d=" M 2275143 34468825 L 2279742 34467961 L 2283682 34463278 L 2286962 34454775 L 2288085 34449492 L 2288547 34440390 L 2286853 34434509 L 2283002 34431850 L 2280185 34431252 L 2275585 34432114 L 2271645 34436796 L 2268365 34445302 L 2267243 34450583 L 2266780 34459687 L 2268474 34465566 L 2272326 34468225 L 2275143 34468825 M 2288547 34440390 L 2266780 34459687"/><path class="fil0 str2" d=" M 2270413 34421813 L 2298584 34427802"/><path class="fil0 str2" d=" M 2254015 34464333 L 2261874 34427360 M 2254015 34464333 L 2235704 34460441 M 2257757 34446726 L 2246489 34444331"/><path class="fil0 str2" d=" M 2223027 34457746 L 2226218 34456584 L 2229784 34453662 L 2231941 34450441 L 2234472 34445458 L 2236343 34436655 L 2236057 34431074 L 2235397 34427253 L 2233329 34423132 L 2230886 34420773 L 2225252 34419575 L 2222061 34420737 L 2218495 34423659 L 2216338 34426882 L 2213807 34431865 L 2211936 34440668 L 2212221 34446250 L 2212881 34450070 L 2214950 34454189 L 2217393 34456550 L 2223027 34457746 M 2225163 34426918 L 2218958 34414558"/>
  <path class="fil0 str2" d=" M 13311920 9968400 L 13307600 9970200 L 13304720 9975599 L 13303280 9984600 L 13303280 9990000 L 13304720 9999000 L 13307600 10004400 L 13311920 10006199 L 13314799 10006199 L 13319119 10004400 L 13321999 9999000 L 13323439 9990000 L 13323439 9984600 L 13321999 9975599 L 13319119 9970200 L 13314799 9968400 L 13311920 9968400 M 13304720 9999000 L 13321999 9975599"/><path class="fil0 str2" d=" M 13326319 10013400 L 13297519 10013400"/><path class="fil0 str2" d=" M 13333520 9968400 L 13333520 10006199 M 13333520 9968400 L 13352239 9968400 M 13333520 9986400 L 13345040 9986400"/><path class="fil0 str2" d=" M 13358000 9968400 L 13358000 10006199 M 13358000 9968400 L 13370959 9968400 L 13375279 9970200 L 13376719 9972000 L 13378160 9975599 L 13378160 9979199 L 13376719 9982800 L 13375279 9984600 L 13370959 9986400 L 13358000 9986400 M 13368079 9986400 L 13378160 10006199"/>
  <path class="fil0 str2" d=" M 7515579 18478953 L 7520178 18478090 L 7524118 18473408 L 7527398 18464903 L 7528521 18459621 L 7528983 18450518 L 7527289 18444638 L 7523438 18441978 L 7520620 18441380 L 7516021 18442243 L 7512081 18446926 L 7508801 18455429 L 7507678 18460711 L 7507216 18469814 L 7508910 18475695 L 7512761 18478354 L 7515579 18478953 M 7528983 18450518 L 7507216 18469814"/><path class="fil0 str2" d=" M 7510849 18431943 L 7539020 18437930"/><path class="fil0 str2" d=" M 7476602 18461467 L 7477262 18465288 L 7479331 18469407 L 7481774 18471767 L 7487408 18472965 L 7490599 18471802 L 7494165 18468880 L 7496322 18465659 L 7498853 18460676 L 7500724 18451873 L 7500438 18446291 L 7499779 18442470 L 7497709 18438350 L 7495267 18435991 L 7489633 18434793 L 7486442 18435955 L 7482876 18438878 L 7480719 18442100"/><path class="fil0 str2" d=" M 7448432 18455479 L 7449092 18459300 L 7451160 18463420 L 7453603 18465780 L 7459237 18466977 L 7462429 18465815 L 7465994 18462893 L 7468151 18459671 L 7470682 18454688 L 7472554 18445885 L 7472268 18440303 L 7471608 18436483 L 7469539 18432363 L 7467096 18430003 L 7461462 18428806 L 7458271 18429968 L 7454705 18432890 L 7452548 18436112"/>
  <path class="fil0 str2" d=" M 5902639 28618400 L 5898319 28620200 L 5895440 28625600 L 5894000 28634599 L 5894000 28640000 L 5895440 28648999 L 5898319 28654399 L 5902639 28656201 L 5905520 28656201 L 5909840 28654399 L 5912719 28648999 L 5914160 28640000 L 5914160 28634599 L 5912719 28625600 L 5909840 28620200 L 5905520 28618400 L 5902639 28618400 M 5895440 28648999 L 5912719 28625600"/><path class="fil0 str2" d=" M 5917039 28663400 L 5888239 28663400"/><path class="fil0 str2" d=" M 5924240 28618400 L 5924240 28656201 M 5924240 28618400 L 5942960 28618400 M 5924240 28636398 L 5935759 28636398"/><path class="fil0 str2" d=" M 5967440 28623798 L 5964559 28620200 L 5960239 28618400 L 5954479 28618400 L 5950159 28620200 L 5947280 28623798 L 5947280 28627399 L 5948720 28631000 L 5950159 28632800 L 5953040 28634599 L 5961680 28638200 L 5964559 28640000 L 5965999 28641799 L 5967440 28645400 L 5967440 28650800 L 5964559 28654399 L 5960239 28656201 L 5954479 28656201 L 5950159 28654399 L 5947280 28650800"/>
  <path class="fil0 str2" d=" M 2435520 11208399 L 2431199 11210200 L 2428320 11215600 L 2426880 11224599 L 2426880 11230000 L 2428320 11239000 L 2431199 11244399 L 2435520 11246199 L 2438399 11246199 L 2442720 11244399 L 2445599 11239000 L 2447039 11230000 L 2447039 11224599 L 2445599 11215600 L 2442720 11210200 L 2438399 11208399 L 2435520 11208399 M 2428320 11239000 L 2445599 11215600"/><path class="fil0 str2" d=" M 2449920 11253399 L 2421119 11253399"/><path class="fil0 str2" d=" M 2457120 11208399 L 2457120 11246199 M 2457120 11208399 L 2475839 11208399 M 2457120 11226400 L 2468639 11226400"/><path class="fil0 str2" d=" M 2487359 11208399 L 2487359 11246199 M 2477279 11208399 L 2497440 11208399"/>
  <path class="fil0 str2" d=" M 11139759 6988400 L 11135439 6990200 L 11132559 6995599 L 11131120 7004600 L 11131120 7010000 L 11132559 7019000 L 11135439 7024400 L 11139759 7026199 L 11142640 7026199 L 11146960 7024400 L 11149840 7019000 L 11151280 7010000 L 11151280 7004600 L 11149840 6995599 L 11146960 6990200 L 11142640 6988400 L 11139759 6988400 M 11132559 7019000 L 11149840 6995599"/><path class="fil0 str2" d=" M 11154160 7033400 L 11125360 7033400"/><path class="fil0 str2" d=" M 11181519 6997399 L 11180080 6993800 L 11177199 6990200 L 11174320 6988400 L 11168559 6988400 L 11165679 6990200 L 11162800 6993800 L 11161359 6997399 L 11159919 7002800 L 11159919 7011799 L 11161359 7017199 L 11162800 7020800 L 11165679 7024400 L 11168559 7026199 L 11174320 7026199 L 11177199 7024400 L 11180080 7020800 L 11181519 7017199"/><path class="fil0 str2" d=" M 11193039 6988400 L 11193039 7026199 M 11190159 6988400 L 11203120 6988400 L 11207440 6990200 L 11208879 6992000 L 11210319 6995599 L 11210319 6999199 L 11208879 7002800 L 11207440 7004600 L 11203120 7006400 M 11193039 7006400 L 11203120 7006400 L 11207440 7008200 L 11208879 7010000 L 11210319 7013599 L 11210319 7019000 L 11208879 7022600 L 11207440 7024400 L 11203120 7026199 L 11190159 7026199"/>
  <path class="fil0 str2" d=" M 3704995 13027563 L 3709595 13026700 L 3713535 13022017 L 3716814 13013513 L 3717937 13008231 L 3718400 12999129 L 3716705 12993248 L 3712854 12990589 L 3710037 12989990 L 3705437 12990853 L 3701498 12995535 L 3698218 13004040 L 3697095 13009322 L 3696632 13018425 L 3698327 13024305 L 3702178 13026964 L 3704995 13027563 M 3718400 12999129 L 3696632 13018425"/><path class="fil0 str2" d=" M 3700266 12980552 L 3728436 12986540"/><path class="fil0 str2" d=" M 3681050 13022473 L 3688909 12985499 M 3683867 13023072 L 3671190 13020378 L 3667339 13017719 L 3666305 13015659 L 3665645 13011838 L 3666393 13008316 L 3668550 13005095 L 3670333 13003634 L 3674933 13002770 M 3684793 13004866 L 3674933 13002770 L 3671081 13000112 L 3670047 12998052 L 3669387 12994232 L 3670510 12988950 L 3672667 12985727 L 3674450 12984266 L 3679049 12983404 L 3691726 12986098"/><path class="fil0 str2" d=" M 3640203 13013791 L 3654288 13016784 L 3659065 13001239 L 3657282 13002700 L 3652682 13003562 L 3648457 13002664 L 3644605 13000004 L 3642536 12995885 L 3642251 12990303 L 3642999 12986782 L 3645531 12981800 L 3649096 12978876 L 3653696 12978015 L 3657921 12978913 L 3661773 12981572 L 3662807 12983631 L 3663467 12987452"/>
  <path class="fil0 str2" d=" M 5212639 31458400 L 5208319 31460200 L 5205440 31465600 L 5204000 31474599 L 5204000 31480000 L 5205440 31488999 L 5208319 31494399 L 5212639 31496201 L 5215520 31496201 L 5219840 31494399 L 5222719 31488999 L 5224160 31480000 L 5224160 31474599 L 5222719 31465600 L 5219840 31460200 L 5215520 31458400 L 5212639 31458400 M 5205440 31488999 L 5222719 31465600"/><path class="fil0 str2" d=" M 5227039 31503400 L 5198239 31503400"/><path class="fil0 str2" d=" M 5241439 31458400 L 5229920 31496201 M 5241439 31458400 L 5252960 31496201 M 5234240 31483601 L 5248640 31483601"/><path class="fil0 str2" d=" M 5277440 31463798 L 5274559 31460200 L 5270239 31458400 L 5264479 31458400 L 5260159 31460200 L 5257280 31463798 L 5257280 31467399 L 5258720 31471000 L 5260159 31472800 L 5263040 31474599 L 5271680 31478200 L 5274559 31480000 L 5275999 31481799 L 5277440 31485400 L 5277440 31490800 L 5274559 31494399 L 5270239 31496201 L 5264479 31496201 L 5260159 31494399 L 5257280 31490800"/>
  <path class="fil0 str2" d=" M 2430480 4828399 L 2426159 4830199 L 2423280 4835599 L 2421840 4844599 L 2421840 4850000 L 2423280 4858999 L 2426159 4864400 L 2430480 4866199 L 2433359 4866199 L 2437680 4864400 L 2440559 4858999 L 2441999 4850000 L 2441999 4844599 L 2440559 4835599 L 2437680 4830199 L 2433359 4828399 L 2430480 4828399 M 2423280 4858999 L 2440559 4835599"/><path class="fil0 str2" d=" M 2444880 4873399 L 2416080 4873399"/><path class="fil0 str2" d=" M 2454960 4828399 L 2454960 4866199 M 2452079 4828399 L 2465039 4828399 L 2469360 4830199 L 2470800 4832000 L 2472239 4835599 L 2472239 4839200 L 2470800 4842799 L 2469360 4844599 L 2465039 4846400 M 2454960 4846400 L 2465039 4846400 L 2469360 4848200 L 2470800 4850000 L 2472239 4853599 L 2472239 4858999 L 2470800 4862600 L 2469360 4864400 L 2465039 4866199 L 2452079 4866199"/><path class="fil0 str2" d=" M 2498159 4833800 L 2496719 4830199 L 2492400 4828399 L 2489519 4828399 L 2485200 4830199 L 2482319 4835599 L 2480879 4844599 L 2480879 4853599 L 2482319 4860799 L 2485200 4864400 L 2489519 4866199 L 2490959 4866199 L 2495279 4864400 L 2498159 4860799 L 2499600 4855400 L 2499600 4853599 L 2498159 4848200 L 2495279 4844599 L 2490959 4842799 L 2489519 4842799 L 2485200 4844599 L 2482319 4848200 L 2480879 4853599"/>
  <path class="fil0 str2" d=" M 1164648 21994650 L 1166889 21998759 L 1172561 22001059 L 1181662 22001550 L 1187033 22000986 L 1195833 21998613 L 1200902 21995185 L 1202241 21990700 L 1201940 21987836 L 1199698 21983728 L 1194026 21981428 L 1184925 21980937 L 1179555 21981501 L 1170755 21983874 L 1165685 21987302 L 1164347 21991787 L 1164648 21994650 M 1195833 21998613 L 1170755 21983874"/><path class="fil0 str2" d=" M 1207896 21975627 L 1210906 22004270"/><path class="fil0 str2" d=" M 1162089 21970305 L 1199682 21966354 M 1162390 21973168 L 1161788 21967441 M 1199983 21969218 L 1199381 21963491"/><path class="fil0 str2" d=" M 1171459 21938913 L 1176980 21939782 L 1180861 21942270 L 1183103 21946376 L 1183253 21947810 L 1181915 21952294 L 1178636 21955534 L 1173416 21957531 L 1171626 21957719 L 1166105 21956853 L 1162223 21954365 L 1159982 21950256 L 1159831 21948823 L 1161170 21944338 L 1164449 21941098 L 1171459 21938913 L 1180410 21937973 L 1189511 21938464 L 1195182 21940764 L 1197424 21944873 L 1197725 21947736 L 1196386 21952221 L 1192957 21954030"/>
  <path class="fil0 str2" d=" M 1020502 8260273 L 1017455 8256721 L 1011429 8255651 L 1002425 8257062 L 997289 8258731 L 989174 8262882 L 984929 8267290 L 984552 8271954 L 985442 8274693 L 988489 8278245 L 994514 8279316 L 1003519 8277904 L 1008654 8276235 L 1016769 8272084 L 1021015 8267677 L 1021392 8263012 L 1020502 8260273 M 989174 8262882 L 1016769 8272084"/><path class="fil0 str2" d=" M 982154 8287874 L 973254 8260484"/><path class="fil0 str2" d=" M 1027176 8280816 L 991227 8292497 M 1027176 8280816 L 1032961 8298619 M 1010057 8286378 L 1013617 8297335"/><path class="fil0 str2" d=" M 1038746 8316423 L 1010330 8310516 L 1017004 8331058 M 1038746 8316423 L 1002796 8328104"/>
  <path class="fil0 str2" d=" M 925722 23548137 L 927964 23552246 L 933635 23554545 L 942737 23555036 L 948107 23554472 L 956907 23552099 L 961977 23548671 L 963315 23544187 L 963014 23541323 L 960773 23537214 L 955101 23534914 L 946000 23534423 L 940629 23534987 L 931829 23537360 L 926760 23540788 L 925421 23545273 L 925722 23548137 M 956907 23552099 L 931829 23537360"/><path class="fil0 str2" d=" M 968971 23529113 L 971981 23557756"/><path class="fil0 str2" d=" M 923163 23523791 L 960756 23519841 M 923464 23526655 L 922862 23520927 M 961057 23522705 L 960455 23516977"/><path class="fil0 str2" d=" M 921658 23509470 L 920002 23493718 L 935227 23500805 L 934775 23496508 L 936264 23493457 L 937904 23491835 L 943124 23489838 L 946704 23489462 L 952225 23490332 L 956106 23492819 L 958348 23496926 L 958800 23501223 L 957461 23505708 L 955821 23507329 L 952392 23509135"/>
  <path class="fil0 str2" d=" M 1376553 31001867 L 1375215 30997382 L 1370145 30993955 L 1361345 30991582 L 1355975 30991018 L 1346874 30991508 L 1341202 30993808 L 1338960 30997917 L 1338659 31000781 L 1339998 31005266 L 1345067 31008693 L 1353867 31011066 L 1359238 31011630 L 1368339 31011140 L 1374011 31008840 L 1376252 31004731 L 1376553 31001867 M 1346874 30991508 L 1368339 31011140"/><path class="fil0 str2" d=" M 1330295 31011484 L 1333305 30982841"/><path class="fil0 str2" d=" M 1374295 31023349 L 1336703 31019399 M 1372188 31043398 L 1334595 31039448 M 1356394 31021467 L 1354287 31041518"/><path class="fil0 str2" d=" M 1370834 31056289 L 1333241 31052336 M 1371135 31053422 L 1369780 31066313 L 1367538 31070419 L 1365597 31071665 L 1361867 31072719 L 1358286 31072343 L 1354857 31070537 L 1353217 31068916 L 1351878 31064431 M 1352932 31054406 L 1351878 31064431 L 1349637 31068540 L 1347696 31069782 L 1343965 31070839 L 1338595 31070275 L 1335165 31068466 L 1333526 31066845 L 1332187 31062360 L 1333542 31049472"/>
  <path class="fil0 str2" d=" M 5225377 4418662 L 5227814 4414666 L 5226970 4408605 L 5222845 4400477 L 5219671 4396108 L 5213216 4389674 L 5207712 4386998 L 5203159 4388081 L 5200829 4389773 L 5198392 4393769 L 5199237 4399830 L 5203361 4407958 L 5206536 4412327 L 5212990 4418761 L 5218494 4421437 L 5223048 4420354 L 5225377 4418662 M 5213216 4389674 L 5212990 4418761"/><path class="fil0 str2" d=" M 5187277 4390720 L 5210577 4373792"/><path class="fil0 str2" d=" M 5207903 4431358 L 5185684 4400777 M 5207903 4431358 L 5192758 4442361 M 5197322 4416795 L 5188002 4423567 M 5185684 4400777 L 5170540 4411780"/><path class="fil0 str2" d=" M 5181643 4439312 L 5182701 4440768 L 5183652 4444527 L 5183545 4446830 L 5182273 4449979 L 5177613 4453364 L 5174225 4453601 L 5172002 4452991 L 5168721 4450925 L 5166605 4448013 L 5165654 4444254 L 5164810 4438192 L 5165880 4415166 L 5149570 4427015"/>
  <path class="fil0 str2" d=" M 4728296 20224046 L 4726743 20228461 L 4728829 20234215 L 4734554 20241307 L 4738567 20244920 L 4746219 20249873 L 4752159 20251345 L 4756387 20249339 L 4758314 20247199 L 4759867 20242784 L 4757781 20237031 L 4752057 20229938 L 4748044 20226325 L 4740392 20221373 L 4734452 20219899 L 4730223 20221906 L 4728296 20224046 M 4746219 20249873 L 4740392 20221373"/><path class="fil0 str2" d=" M 4771373 20243455 L 4752102 20264858"/><path class="fil0 str2" d=" M 4743713 20206925 L 4754312 20195152 L 4759232 20211209 L 4762123 20207999 L 4765387 20207062 L 4767689 20207197 L 4772665 20209739 L 4775341 20212149 L 4778390 20216832 L 4779138 20221381 L 4777585 20225797 L 4774695 20229007 L 4770466 20231013 L 4768165 20230878 L 4764526 20229539"/><path class="fil0 str2" d=" M 4773583 20173750 L 4792038 20209744 M 4760093 20188731 L 4773583 20173750"/>
  <path class="fil0 str2" d=" M 1353971 28155354 L 1352632 28150869 L 1347563 28147438 L 1338763 28145065 L 1333392 28144501 L 1324291 28144995 L 1318620 28147294 L 1316378 28151401 L 1316077 28154265 L 1317416 28158750 L 1322485 28162180 L 1331285 28164553 L 1336656 28165117 L 1345757 28164626 L 1351428 28162326 L 1353670 28158217 L 1353971 28155354 M 1324291 28144995 L 1345757 28164626"/><path class="fil0 str2" d=" M 1307712 28164970 L 1310723 28136328"/><path class="fil0 str2" d=" M 1340655 28195944 L 1344386 28194887 L 1348267 28192399 L 1350359 28189724 L 1350961 28183996 L 1349472 28180942 L 1346192 28177702 L 1342762 28175893 L 1337543 28173896 L 1328592 28172956 L 1323071 28173823 L 1319340 28174880 L 1315459 28177368 L 1313368 28180043 L 1312766 28185771 L 1314255 28188825 L 1317534 28192065 L 1320964 28193874 L 1326334 28194438 M 1327087 28187277 L 1326334 28194438"/><path class="fil0 str2" d=" M 1347047 28221230 L 1348552 28206909 L 1332592 28203784 L 1334231 28205402 L 1335570 28209887 L 1335118 28214184 L 1332876 28218293 L 1328995 28220781 L 1323474 28221647 L 1319894 28221271 L 1314674 28219274 L 1311395 28216035 L 1310056 28211550 L 1310508 28207253 L 1312749 28203146 L 1314690 28201901 L 1318421 28200847"/>
  <path class="fil0 str2" d=" M 1219729 16134750 L 1218391 16130266 L 1213321 16126837 L 1204521 16124464 L 1199151 16123900 L 1190049 16124392 L 1184378 16126690 L 1182136 16130799 L 1181835 16133663 L 1183174 16138148 L 1188243 16141577 L 1197043 16143950 L 1202414 16144514 L 1211515 16144022 L 1217186 16141722 L 1219428 16137614 L 1219729 16134750 M 1190049 16124392 L 1211515 16144022"/><path class="fil0 str2" d=" M 1173470 16144367 L 1176481 16115726"/><path class="fil0 str2" d=" M 1217471 16156231 L 1179878 16152281 M 1215364 16176281 L 1177771 16172330 M 1199570 16154350 L 1197463 16174400"/><path class="fil0 str2" d=" M 1207134 16202927 L 1210865 16201871 L 1213106 16197763 L 1213407 16194899 L 1212069 16190415 L 1206999 16186986 L 1198199 16184613 L 1189248 16183673 L 1181937 16184351 L 1178056 16186839 L 1175814 16190948 L 1175664 16192380 L 1177002 16196865 L 1180282 16200104 L 1185502 16202102 L 1187292 16202290 L 1192813 16201422 L 1196694 16198934 L 1198936 16194826 L 1199086 16193393 L 1197748 16188909 L 1194468 16185668 L 1189248 16183673"/>
  </g>
</svg>
