<?xml version="1.0" encoding="UTF-8"?>
<!DOCTYPE svg PUBLIC "-//W3C//DTD SVG 1.1//EN" "http://www.w3.org/Graphics/SVG/1.1/DTD/svg11.dtd">
<svg xmlns="http://www.w3.org/2000/svg"
     xmlns:xlink="http://www.w3.org/1999/xlink"
     version="1.1" baseProfile="full"
     width="304.8mm" height="177.8mm"
     viewBox="0 0 3048000 1778000">
  <defs>
    <style type="text/css">
      <![CDATA[
        .str0 {stroke:red; stroke-width:1}
        .str1 {stroke:green; stroke-width:1}
        .str2 {stroke:black; stroke-width:1}
        .fil0 {fill:none}
        .fil1 {fill:black}
        .fil2 {fill:green}
        .fnt0 {text-anchor:'middle'; dominant-baseline:'central'; font-weight:normal; font-size:3pt; font-family:'Arial'; text-decoration:underline;}
      ]]>
    </style>
  </defs>
  <g id="Layer_x0020_1">
    <metadata id="CorelCorpID_0Corel-Layer"/>
    <rect class="str1" x="0" y="0" width="3.048e+06" height="1.778e+06" />
    <circle class="fil0 str1" cx="0" cy="0" r="50000" />
    <circle class="fil0 str1" cx="0" cy="0" r="50000" />
    <circle class="fil0 str1" cx="0" cy="0" r="50000" />
    <circle class="fil0 str1" cx="0" cy="0" r="50000" />
    <circle class="fil0 str1" cx="0" cy="0" r="50000" />
    <circle class="fil0 str1" cx="0" cy="0" r="50000" />
    <circle class="fil0 str1" cx="0" cy="0" r="50000" />
    <circle class="fil0 str1" cx="0" cy="0" r="50000" />
    <circle class="fil0 str1" cx="0" cy="0" r="50000" />
  </g>
  <g id="Layer_x0020_2">
    <metadata id="CorelCorpID_1Corel-Layer"/>
    <path class="fil0 str0" d="M 11510000 3030000 C 12010000 3030000, 12509999 3030000, 13010000 3030000 C 13010000 3529999, 13010000 4029999, 13010000 4530000 C 12509999 4530000, 12010000 4530000, 11510000 4530000 C 11510000 4029999, 11510000 3529999, 11510000 3030000" />
    <path class="fil0 str0" d="M 4372746 20591426 C 4707311 20219854, 5041877 19848282, 5376442 19476709 C 5748014 19811274, 6119587 20145840, 6491159 20480405 C 6156594 20851978, 5822029 21223550, 5487463 21595122 C 5115891 21260557, 4744319 20925992, 4372746 20591426" />
    <path class="fil0 str0" d="M 9721826 3008518 C 9669562 3505779, 9617297 4003040, 9565033 4500301 C 9067772 4448036, 8570511 4395772, 8073250 4343508 C 8125515 3846247, 8177779 3348986, 8230043 2851725 C 8727304 2903989, 9224565 2956254, 9721826 3008518" />
    <path class="fil0 str0" d="M 6176639 2776675 C 6124375 3273936, 6072111 3771197, 6019847 4268458 C 5522586 4216194, 5025325 4163930, 4528064 4111666 C 4580328 3614405, 4632592 3117144, 4684856 2619883 C 5182117 2672147, 5679378 2724411, 6176639 2776675" />
    <path class="fil0 str0" d="M 14546707 293352 C 15003480 496721, 15460253 700089, 15917025 903457 C 15713657 1360230, 15510289 1817003, 15306921 2273775 C 14850148 2070407, 14393375 1867039, 13936602 1663671 C 14139971 1206898, 14343339 750125, 14546707 293352" />
    <path class="fil0 str0" d="M 8242636 14071412 C 8190371 13574151, 8138107 13076890, 8085843 12579629 C 8583104 12527365, 9080365 12475100, 9577626 12422836 C 9629890 12920097, 9682154 13417358, 9734419 13914619 C 9237158 13966883, 8739897 14019147, 8242636 14071412" />
    <path class="fil0 str0" d="M 645281 3240622 C 979847 2869050, 1314412 2497477, 1648977 2125905 C 2020550 2460470, 2392122 2795036, 2763695 3129601 C 2429129 3501173, 2094564 3872746, 1759999 4244318 C 1388426 3909753, 1016854 3575188, 645281 3240622" />
    <path class="fil0 str0" d="M 11822515 1748729 C 11333441 1852685, 10844367 1956641, 10355293 2060597 C 10251337 1571523, 10147381 1082449, 10043425 593375 C 10532499 489419, 11021573 385463, 11510647 281507 C 11614603 770581, 11718559 1259655, 11822515 1748729" />
    <path class="fil0 str0" d="M 7463105 18929414 C 7919878 18726046, 8376651 18522677, 8833423 18319309 C 9036792 18776082, 9240160 19232854, 9443528 19689627 C 8986756 19892995, 8529983 20096364, 8073210 20299732 C 7869842 19842959, 7666474 19386187, 7463105 18929414" />
    <path class="fil0 str0" d="M 12873052 866831 C 13207618 1238404, 13542183 1609976, 13876748 1981548 C 13505176 2316114, 13133604 2650679, 12762031 2985245 C 12427466 2613672, 12092900 2242100, 11758335 1870527 C 12129907 1535962, 12501480 1201397, 12873052 866831" />
    <path class="fil0 str0" d="M 13480060 5762325 C 13936833 5965693, 14393605 6169062, 14850378 6372430 C 14647010 6829203, 14443642 7285975, 14240273 7742748 C 13783501 7539380, 13326728 7336012, 12869955 7132643 C 13073323 6675871, 13276692 6219098, 13480060 5762325" />
    <path class="fil0 str0" d="M 10412658 2426669 C 9923584 2530625, 9434510 2634581, 8945436 2738537 C 8841480 2249463, 8737524 1760389, 8633569 1271316 C 9122642 1167360, 9611716 1063404, 10100790 959448 C 10204746 1448522, 10308702 1937596, 10412658 2426669" />
    <path class="fil0 str0" d="M 14342887 6116270 C 14092887 5683257, 13842887 5250244, 13592887 4817232 C 14025899 4567232, 14458912 4317231, 14891925 4067231 C 15141925 4500244, 15391925 4933257, 15641925 5366270 C 15208912 5616270, 14775899 5866270, 14342887 6116270" />
    <path class="fil0 str0" d="M 3441147 1734589 C 3775712 1363016, 4110277 991444, 4444843 619872 C 4816415 954437, 5187988 1289002, 5559560 1623568 C 5224995 1995140, 4890429 2366712, 4555864 2738285 C 4184292 2403719, 3812719 2069154, 3441147 1734589" />
    <path class="fil0 str0" d="M 14146878 3948797 C 14094614 3451536, 14042349 2954275, 13990085 2457014 C 14487346 2404750, 14984607 2352486, 15481868 2300222 C 15534132 2797483, 15586397 3294744, 15638661 3792005 C 15141400 3844269, 14644139 3896533, 14146878 3948797" />
    <path class="fil0 str0" d="M 13453678 8118145 C 13910451 7914777, 14367224 7711408, 14823996 7508040 C 15027365 7964813, 15230733 8421585, 15434101 8878358 C 14977329 9081727, 14520556 9285095, 14063783 9488463 C 13860415 9031690, 13657047 8574918, 13453678 8118145" />
    <path class="fil0 str0" d="M 9857920 4087878 C 9805656 3590617, 9753392 3093356, 9701128 2596095 C 10198389 2543830, 10695650 2491566, 11192911 2439302 C 11245175 2936563, 11297439 3433824, 11349703 3931085 C 10852442 3983349, 10355181 4035613, 9857920 4087878" />
    <path class="fil0 str0" d="M 12338797 9621588 C 12795570 9418219, 13252342 9214851, 13709115 9011483 C 13912483 9468255, 14115852 9925028, 14319220 10381801 C 13862447 10585169, 13405675 10788537, 12948902 10991906 C 12745533 10535133, 12542165 10078360, 12338797 9621588" />
    <path class="fil0 str0" d="M 7125756 1632705 C 6636682 1736661, 6147609 1840617, 5658535 1944573 C 5554579 1455499, 5450623 966425, 5346667 477351 C 5835741 373395, 6324815 269439, 6813889 165483 C 6917844 654557, 7021800 1143631, 7125756 1632705" />
    <path class="fil0 str0" d="M 8780335 2057992 C 8291261 2161948, 7802187 2265904, 7313114 2369860 C 7209158 1880786, 7105202 1391712, 7001246 902638 C 7490320 798682, 7979394 694726, 8468467 590771 C 8572423 1079844, 8676379 1568918, 8780335 2057992" />
    <path class="fil0 str0" d="M 13255538 8941464 C 12766464 8837509, 12277390 8733553, 11788316 8629597 C 11892272 8140523, 11996228 7651449, 12100184 7162376 C 12589258 7266331, 13078331 7370287, 13567405 7474243 C 13463449 7963317, 13359494 8452391, 13255538 8941464" />
  </g>
  <g id="Layer_x0020_3">
    <metadata id="CorelCorpID_2Corel-Layer"/>
  <path class="fil0 str2" d=" M 12231199 3758399 L 12226879 3760199 L 12224000 3765599 L 12222559 3774599 L 12222559 3780000 L 12224000 3788999 L 12226879 3794400 L 12231199 3796199 L 12234079 3796199 L 12238399 3794400 L 12241280 3788999 L 12242719 3780000 L 12242719 3774599 L 12241280 3765599 L 12238399 3760199 L 12234079 3758399 L 12231199 3758399 M 12224000 3788999 L 12241280 3765599"/><path class="fil0 str2" d=" M 12245600 3803399 L 12216800 3803399"/><path class="fil0 str2" d=" M 12271519 3758399 L 12257120 3796199 M 12251359 3758399 L 12271519 3758399"/><path class="fil0 str2" d=" M 12297440 3771000 L 12295999 3776400 L 12293120 3780000 L 12288800 3781799 L 12287359 3781799 L 12283039 3780000 L 12280159 3776400 L 12278719 3771000 L 12278719 3769200 L 12280159 3763800 L 12283039 3760199 L 12287359 3758399 L 12288800 3758399 L 12293120 3760199 L 12295999 3763800 L 12297440 3771000 L 12297440 3780000 L 12295999 3788999 L 12293120 3794400 L 12288800 3796199 L 12285920 3796199 L 12281600 3794400 L 12280159 3790799"/>
  <path class="fil0 str2" d=" M 5400484 20538583 L 5398931 20542998 L 5401017 20548752 L 5406741 20555844 L 5410755 20559458 L 5418406 20564411 L 5424346 20565883 L 5428575 20563876 L 5430502 20561738 L 5432055 20557321 L 5429969 20551569 L 5424244 20544477 L 5420231 20540864 L 5412579 20535910 L 5406640 20534438 L 5402411 20536445 L 5400484 20538583 M 5418406 20564411 L 5412579 20535910"/><path class="fil0 str2" d=" M 5443561 20557993 L 5424290 20579396"/><path class="fil0 str2" d=" M 5425536 20510761 L 5415901 20521462 L 5426976 20533371 L 5426602 20531098 L 5428155 20526682 L 5431046 20523471 L 5435274 20521467 L 5439876 20521735 L 5444853 20524277 L 5447528 20526687 L 5450578 20531369 L 5451326 20535920 L 5449773 20540334 L 5446882 20543544 L 5442654 20545551 L 5440353 20545417 L 5436714 20544077"/><path class="fil0 str2" d=" M 5435172 20500058 L 5463262 20525354 M 5433245 20502199 L 5437098 20497919 M 5461336 20527492 L 5465190 20523212"/>
  <path class="fil0 str2" d=" M 8921805 3651777 L 8920466 3647292 L 8915397 3643864 L 8906597 3641491 L 8901226 3640926 L 8892125 3641418 L 8886453 3643717 L 8884212 3647825 L 8883911 3650690 L 8885250 3655174 L 8890319 3658603 L 8899119 3660976 L 8904489 3661540 L 8913591 3661049 L 8919262 3658749 L 8921504 3654641 L 8921805 3651777 M 8892125 3641418 L 8913591 3661049"/><path class="fil0 str2" d=" M 8875546 3661394 L 8878557 3632752"/><path class="fil0 str2" d=" M 8919246 3676123 L 8881653 3672171 M 8919547 3673258 L 8918493 3683283 L 8916252 3687391 L 8912370 3689879 L 8908640 3690935 L 8903118 3691803 L 8894168 3690862 L 8888948 3688865 L 8885518 3687057 L 8882239 3683817 L 8880900 3679332 L 8881954 3669307"/><path class="fil0 str2" d=" M 8915333 3713358 L 8886690 3710347 L 8881470 3708351 L 8879830 3706730 L 8878342 3703678 L 8878643 3700814 L 8880734 3698138 L 8882675 3696894 L 8888195 3696026 L 8891776 3696402"/>
  <path class="fil0 str2" d=" M 5376693 3419218 L 5375355 3414733 L 5370285 3411304 L 5361485 3408932 L 5356115 3408367 L 5347014 3408858 L 5341342 3411158 L 5339100 3415267 L 5338800 3418131 L 5340138 3422615 L 5345208 3426044 L 5354008 3428417 L 5359378 3428981 L 5368479 3428490 L 5374151 3426190 L 5376392 3422082 L 5376693 3419218 M 5347014 3408858 L 5368479 3428490"/><path class="fil0 str2" d=" M 5330435 3428835 L 5333445 3400193"/><path class="fil0 str2" d=" M 5374436 3440699 L 5336843 3436748 M 5372328 3460749 L 5334735 3456798 M 5356534 3438818 L 5354427 3458867"/><path class="fil0 str2" d=" M 5370673 3476502 L 5333079 3472551 M 5371726 3466477 L 5369619 3486527"/>
  <path class="fil0 str2" d=" M 14907973 1251531 L 14903294 1251419 L 14898468 1255181 L 14893491 1262817 L 14891295 1267750 L 14888950 1276557 L 14889384 1282662 L 14892598 1286063 L 14895230 1287235 L 14899908 1287348 L 14904736 1283586 L 14909711 1275950 L 14911909 1271017 L 14914254 1262209 L 14913819 1256104 L 14910605 1252703 L 14907973 1251531 M 14888950 1276557 L 14914254 1262209"/><path class="fil0 str2" d=" M 14902825 1298498 L 14876516 1286784"/><path class="fil0 str2" d=" M 14934283 1263246 L 14929605 1263133 L 14924777 1266895 L 14919802 1274531 L 14917604 1279464 L 14915260 1288271 L 14915694 1294376 L 14918909 1297778 L 14921540 1298949 L 14926219 1299062 L 14931046 1295300 L 14936022 1287664 L 14938218 1282731 L 14940563 1273923 L 14940129 1267818 L 14936915 1264417 L 14934283 1263246 M 14915260 1288271 L 14940563 1273923"/><path class="fil0 str2" d=" M 14952701 1271445 L 14941718 1296111 L 14940838 1301630 L 14942005 1306090 L 14945219 1309492 L 14947850 1310663 L 14952529 1310776 L 14956624 1308658 L 14960136 1304311 L 14971118 1279645"/>
  <path class="fil0 str2" d=" M 8891810 13279456 L 8894052 13283564 L 8899723 13285864 L 8908825 13286354 L 8914195 13285791 L 8922995 13283417 L 8928064 13279989 L 8929403 13275505 L 8929102 13272640 L 8926860 13268532 L 8921188 13266232 L 8912088 13265740 L 8906717 13266306 L 8897917 13268679 L 8892847 13272106 L 8891509 13276591 L 8891810 13279456 M 8922995 13283417 L 8897917 13268679"/><path class="fil0 str2" d=" M 8935058 13260430 L 8938069 13289073"/><path class="fil0 str2" d=" M 8889552 13257974 L 8927145 13254023 M 8887445 13237924 L 8925038 13233973 M 8907454 13256092 L 8905346 13236043"/><path class="fil0 str2" d=" M 8889805 13208718 L 8886525 13211959 L 8885187 13216442 L 8885789 13222171 L 8888031 13226279 L 8891912 13228768 L 8895493 13228391 L 8898922 13226583 L 8900562 13224963 L 8902051 13221910 L 8904728 13212941 L 8906217 13209888 L 8907857 13208269 L 8911287 13206459 L 8916657 13205895 L 8920538 13208383 L 8922780 13212492 L 8923382 13218220 L 8922044 13222705 L 8918764 13225946"/>
  <path class="fil0 str2" d=" M 1671092 3189920 L 1669539 3194335 L 1671625 3200089 L 1677350 3207181 L 1681363 3210794 L 1689015 3215747 L 1694955 3217220 L 1699183 3215214 L 1701110 3213074 L 1702663 3208659 L 1700577 3202905 L 1694853 3195813 L 1690839 3192200 L 1683188 3187247 L 1677248 3185774 L 1673019 3187780 L 1671092 3189920 M 1689015 3215747 L 1683188 3187247"/><path class="fil0 str2" d=" M 1714169 3209330 L 1694898 3230733"/><path class="fil0 str2" d=" M 1692823 3176546 L 1693413 3173201 L 1692290 3166378 L 1720381 3191671"/><path class="fil0 str2" d=" M 1707707 3149256 L 1735798 3174549 M 1700962 3156747 L 1714452 3141765"/>
  <path class="fil0 str2" d=" M 10965631 1186192 L 10969482 1183533 L 10971176 1177653 L 10970714 1168550 L 10969592 1163268 L 10966312 1154764 L 10962371 1150081 L 10957772 1149218 L 10954954 1149817 L 10951103 1152476 L 10949409 1158357 L 10949871 1167459 L 10950994 1172741 L 10954274 1181245 L 10958214 1185928 L 10962814 1186791 L 10965631 1186192 M 10966312 1154764 L 10954274 1181245"/><path class="fil0 str2" d=" M 10942189 1145169 L 10970361 1139182"/><path class="fil0 str2" d=" M 10940189 1184239 L 10937746 1186599 L 10934643 1192779 L 10926784 1155805"/><path class="fil0 str2" d=" M 10898308 1194982 L 10901873 1197904 L 10906473 1198767 L 10912106 1197569 L 10915958 1194910 L 10918027 1190790 L 10917279 1187269 L 10915122 1184047 L 10913338 1182586 L 10910147 1181424 L 10900948 1179699 L 10897756 1178537 L 10895974 1177076 L 10893817 1173854 L 10892694 1168572 L 10894763 1164452 L 10898614 1161793 L 10904248 1160595 L 10908847 1161458 L 10912413 1164380"/>
  <path class="fil0 str2" d=" M 8417563 19301795 L 8414348 19305197 L 8413914 19311301 L 8416259 19320109 L 8418455 19325042 L 8423432 19332678 L 8428259 19336440 L 8432937 19336328 L 8435568 19335156 L 8438783 19331755 L 8439218 19325650 L 8436872 19316843 L 8434676 19311909 L 8429700 19304273 L 8424873 19300511 L 8420194 19300623 L 8417563 19301795 M 8423432 19332678 L 8429700 19304273"/><path class="fil0 str2" d=" M 8449021 19337048 L 8422711 19348762"/><path class="fil0 str2" d=" M 8459373 19293032 L 8456593 19290329 L 8452498 19288211 L 8449135 19287739 L 8443873 19290081 L 8441974 19292897 L 8440807 19297357 L 8440956 19301231 L 8441837 19306750 L 8445498 19314973 L 8449010 19319320 L 8451789 19322023 L 8455885 19324140 L 8459248 19324614 L 8464509 19322270 L 8466408 19319455 L 8467575 19314995 L 8467426 19311120 L 8465230 19306187 M 8458652 19309116 L 8465230 19306187"/><path class="fil0 str2" d=" M 8482904 19278615 L 8478808 19276497 L 8474130 19276610 L 8468867 19278953 L 8465653 19282354 L 8464486 19286815 L 8465950 19290103 L 8468731 19292806 L 8470778 19293865 L 8474141 19294338 L 8483499 19294112 L 8486862 19294586 L 8488909 19295644 L 8491689 19298348 L 8493886 19303281 L 8492719 19307741 L 8489504 19311142 L 8484242 19313485 L 8479564 19313598 L 8475468 19311480"/>
  <path class="fil0 str2" d=" M 12813360 1889112 L 12809132 1887106 L 12803192 1888579 L 12795539 1893531 L 12791527 1897144 L 12785802 1904237 L 12783715 1909990 L 12785269 1914405 L 12787196 1916545 L 12791424 1918551 L 12797364 1917078 L 12805017 1912126 L 12809029 1908513 L 12814754 1901421 L 12816840 1895667 L 12815286 1891252 L 12813360 1889112 M 12785802 1904237 L 12814754 1901421"/><path class="fil0 str2" d=" M 12789554 1929924 L 12770283 1908522"/><path class="fil0 str2" d=" M 12834614 1926168 L 12836326 1922689 L 12837075 1918140 L 12836485 1914795 L 12832630 1910514 L 12829366 1909579 L 12824764 1909847 L 12821125 1911186 L 12816148 1913729 L 12809460 1919751 L 12806411 1924435 L 12804698 1927914 L 12803950 1932463 L 12804539 1935808 L 12808394 1940088 L 12811658 1941024 L 12816262 1940755 L 12819899 1939417 L 12823913 1935803 M 12819095 1930453 L 12823913 1935803"/><path class="fil0 str2" d=" M 12847083 1926566 L 12818992 1951860 M 12847083 1926566 L 12855756 1936198 L 12857309 1940612 L 12856934 1942887 L 12855223 1946366 L 12851210 1949979 L 12847572 1951318 L 12845269 1951452 L 12841042 1949446 L 12832370 1939815"/>
  <path class="fil0 str2" d=" M 13840670 6720212 L 13835992 6720100 L 13831164 6723861 L 13826188 6731497 L 13823991 6736431 L 13821646 6745238 L 13822081 6751343 L 13825295 6754744 L 13827927 6755916 L 13832606 6756029 L 13837432 6752266 L 13842409 6744630 L 13844605 6739697 L 13846950 6730889 L 13846516 6724785 L 13843302 6721384 L 13840670 6720212 M 13821646 6745238 L 13846950 6730889"/><path class="fil0 str2" d=" M 13835522 6767178 L 13809212 6755465"/><path class="fil0 str2" d=" M 13875159 6745419 L 13875308 6741545 L 13874141 6737085 L 13872242 6734269 L 13866981 6731926 L 13863618 6732399 L 13859522 6734517 L 13856741 6737219 L 13853231 6741567 L 13849570 6749789 L 13848688 6755308 L 13848540 6759182 L 13849707 6763643 L 13851606 6766458 L 13856867 6768801 L 13860230 6768328 L 13864326 6766210 L 13867105 6763508 L 13869302 6758574 M 13862724 6755646 L 13869302 6758574"/><path class="fil0 str2" d=" M 13886713 6740712 L 13871339 6775244 M 13886713 6740712 L 13889755 6783444 M 13905130 6748911 L 13889755 6783444"/>
  <path class="fil0 str2" d=" M 9555775 1864132 L 9559626 1861474 L 9561320 1855593 L 9560858 1846490 L 9559735 1841208 L 9556455 1832704 L 9552515 1828021 L 9547915 1827159 L 9545098 1827757 L 9541247 1830416 L 9539553 1836297 L 9540015 1845400 L 9541138 1850682 L 9544418 1859186 L 9548358 1863869 L 9552957 1864731 L 9555775 1864132 M 9556455 1832704 L 9544418 1859186"/><path class="fil0 str2" d=" M 9532333 1823110 L 9560504 1817122"/><path class="fil0 str2" d=" M 9527604 1870120 L 9531455 1867462 L 9533150 1861581 L 9532687 1852478 L 9531564 1847196 L 9528284 1838692 L 9524345 1834009 L 9519745 1833146 L 9516928 1833745 L 9513076 1836404 L 9511382 1842285 L 9511845 1851388 L 9512968 1856670 L 9516247 1865173 L 9520187 1869857 L 9524786 1870719 L 9527604 1870120 M 9528284 1838692 L 9516247 1865173"/><path class="fil0 str2" d=" M 9488450 1872922 L 9492016 1875845 L 9496616 1876707 L 9502250 1875509 L 9506102 1872851 L 9508170 1868731 L 9507421 1865209 L 9505264 1861987 L 9503482 1860526 L 9500291 1859364 L 9491091 1857639 L 9487900 1856477 L 9486117 1855016 L 9483960 1851794 L 9482837 1846512 L 9484906 1842392 L 9488757 1839733 L 9494391 1838536 L 9498991 1839398 L 9502556 1842321"/>
  <path class="fil0 str2" d=" M 14611660 5124998 L 14615378 5127839 L 14621495 5127633 L 14630009 5124381 L 14634686 5121680 L 14641760 5115933 L 14644996 5110739 L 14644395 5106098 L 14642955 5103604 L 14639237 5100763 L 14633120 5100968 L 14624605 5104221 L 14619929 5106921 L 14612855 5112669 L 14609619 5117863 L 14610219 5122504 L 14611660 5124998 M 14641760 5115933 L 14612855 5112669"/><path class="fil0 str2" d=" M 14643431 5090027 L 14657830 5114969"/><path class="fil0 str2" d=" M 14597259 5100057 L 14600979 5102898 L 14607094 5102692 L 14615609 5099439 L 14620285 5096739 L 14627360 5090992 L 14630596 5085798 L 14629995 5081156 L 14628555 5078662 L 14624836 5075821 L 14618720 5076027 L 14610206 5079280 L 14605529 5081980 L 14598455 5087727 L 14595218 5092921 L 14595820 5097562 L 14597259 5100057 M 14627360 5090992 L 14598455 5087727"/><path class="fil0 str2" d=" M 14584299 5077609 L 14617036 5058709 M 14589339 5086339 L 14579260 5068880"/>
  <path class="fil0 str2" d=" M 4464067 1687098 L 4462514 1691512 L 4464600 1697266 L 4470325 1704358 L 4474338 1707972 L 4481990 1712924 L 4487929 1714397 L 4492158 1712391 L 4494085 1710251 L 4495638 1705836 L 4493552 1700082 L 4487827 1692990 L 4483815 1689376 L 4476163 1684425 L 4470223 1682951 L 4465994 1684957 L 4464067 1687098 M 4481990 1712924 L 4476163 1684425"/><path class="fil0 str2" d=" M 4507144 1706507 L 4487873 1727910"/><path class="fil0 str2" d=" M 4485798 1673723 L 4486387 1670379 L 4485265 1663555 L 4513356 1688848"/><path class="fil0 str2" d=" M 4496828 1650713 L 4524919 1676006 M 4496828 1650713 L 4538408 1661025 M 4510317 1635731 L 4538408 1661025"/>
  <path class="fil0 str2" d=" M 14796202 3158274 L 14798443 3162382 L 14804114 3164682 L 14813216 3165173 L 14818587 3164609 L 14827387 3162236 L 14832457 3158807 L 14833795 3154323 L 14833493 3151459 L 14831252 3147350 L 14825581 3145050 L 14816479 3144559 L 14811109 3145124 L 14802309 3147496 L 14797239 3150925 L 14795900 3155410 L 14796202 3158274 M 14827387 3162236 L 14802309 3147496"/><path class="fil0 str2" d=" M 14839450 3139249 L 14842460 3167891"/><path class="fil0 str2" d=" M 14793944 3136792 L 14831536 3132841 M 14791837 3116743 L 14829429 3112792 M 14811845 3134911 L 14809738 3114861"/><path class="fil0 str2" d=" M 14790783 3106718 L 14828376 3102767 M 14790783 3106718 L 14826269 3082717 M 14788676 3086669 L 14826269 3082717"/>
  <path class="fil0 str2" d=" M 14408135 8490526 L 14404921 8493927 L 14404487 8500032 L 14406832 8508839 L 14409028 8513773 L 14414003 8521409 L 14418831 8525170 L 14423510 8525057 L 14426141 8523886 L 14429355 8520485 L 14429790 8514381 L 14427445 8505573 L 14425249 8500640 L 14420273 8493004 L 14415445 8489241 L 14410766 8489354 L 14408135 8490526 M 14414003 8521409 L 14420273 8493004"/><path class="fil0 str2" d=" M 14439593 8525778 L 14413283 8537492"/><path class="fil0 str2" d=" M 14431529 8489962 L 14430797 8488318 L 14430648 8484443 L 14431231 8482213 L 14433129 8479398 L 14438392 8477055 L 14441755 8477528 L 14443803 8478587 L 14446583 8481289 L 14448046 8484578 L 14448195 8488453 L 14447761 8494557 L 14441927 8516858 L 14460344 8508658"/><path class="fil0 str2" d=" M 14452862 8470612 L 14468237 8505144 M 14452862 8470612 L 14464702 8465341 L 14469381 8465228 L 14471428 8466287 L 14474208 8468989 L 14476405 8473923 L 14476553 8477797 L 14475970 8480028 L 14472756 8483429 L 14460916 8488700"/>
  <path class="fil0 str2" d=" M 10506644 3291625 L 10508885 3295733 L 10514556 3298033 L 10523658 3298525 L 10529028 3297960 L 10537828 3295587 L 10542897 3292159 L 10544237 3287674 L 10543935 3284810 L 10541694 3280702 L 10536022 3278402 L 10526921 3277911 L 10521551 3278475 L 10512751 3280848 L 10507681 3284277 L 10506342 3288761 L 10506644 3291625 M 10537828 3295587 L 10512751 3280848"/><path class="fil0 str2" d=" M 10549892 3272601 L 10552902 3301243"/><path class="fil0 str2" d=" M 10504085 3267279 L 10541678 3263328 M 10504385 3270144 L 10503784 3264415 M 10541978 3266192 L 10541376 3260464"/><path class="fil0 str2" d=" M 10502730 3254390 L 10540323 3250439 M 10502730 3254390 L 10539118 3238982 M 10500322 3231477 L 10539118 3238982 M 10500322 3231477 L 10537915 3227525"/>
  <path class="fil0 str2" d=" M 13293255 9993969 L 13290041 9997371 L 13289606 10003475 L 13291951 10012283 L 13294147 10017216 L 13299123 10024852 L 13303951 10028614 L 13308630 10028501 L 13311260 10027330 L 13314475 10023928 L 13314909 10017824 L 13312564 10009016 L 13310368 10004083 L 13305393 9996447 L 13300565 9992685 L 13295886 9992798 L 13293255 9993969 M 13299123 10024852 L 13305393 9996447"/><path class="fil0 str2" d=" M 13324713 10029222 L 13298403 10040936"/><path class="fil0 str2" d=" M 13318547 9990590 L 13320446 9987774 L 13322196 9981084 L 13337570 10015616"/><path class="fil0 str2" d=" M 13337982 9974055 L 13353356 10008588 M 13337982 9974055 L 13349821 9968784 L 13354500 9968671 L 13356547 9969730 L 13359328 9972433 L 13361524 9977366 L 13361673 9981241 L 13361090 9983471 L 13357875 9986873 L 13346036 9992144"/>
  <path class="fil0 str2" d=" M 6270281 1069869 L 6274133 1067210 L 6275827 1061329 L 6275364 1052226 L 6274242 1046944 L 6270962 1038440 L 6267022 1033757 L 6262423 1032895 L 6259606 1033494 L 6255755 1036152 L 6254060 1042033 L 6254523 1051136 L 6255645 1056418 L 6258925 1064922 L 6262865 1069605 L 6267465 1070467 L 6270281 1069869 M 6270962 1038440 L 6258925 1064922"/><path class="fil0 str2" d=" M 6246840 1028846 L 6275011 1022858"/><path class="fil0 str2" d=" M 6247745 1074659 L 6232251 1077952 L 6237709 1062071 L 6233483 1062969 L 6230292 1061807 L 6228509 1060346 L 6225978 1055363 L 6225229 1051842 L 6225515 1046260 L 6227584 1042140 L 6231435 1039481 L 6235661 1038583 L 6240260 1039446 L 6242043 1040907 L 6244200 1044129"/><path class="fil0 str2" d=" M 6222391 1080048 L 6214533 1043074 M 6222391 1080048 L 6194813 1047266 M 6202672 1084240 L 6194813 1047266"/>
  <path class="fil0 str2" d=" M 7924860 1495156 L 7928712 1492497 L 7930406 1486616 L 7929943 1477513 L 7928821 1472231 L 7925541 1463728 L 7921601 1459044 L 7917001 1458182 L 7914185 1458781 L 7910333 1461439 L 7908639 1467320 L 7909102 1476423 L 7910224 1481705 L 7913504 1490209 L 7917444 1494892 L 7922044 1495755 L 7924860 1495156 M 7925541 1463728 L 7913504 1490209"/><path class="fil0 str2" d=" M 7901419 1454133 L 7929590 1448145"/><path class="fil0 str2" d=" M 7901862 1490843 L 7902236 1492604 L 7901575 1496425 L 7900541 1498485 L 7898098 1500844 L 7892464 1502042 L 7889273 1500880 L 7887490 1499419 L 7885333 1496197 L 7884585 1492675 L 7885245 1488855 L 7886939 1482974 L 7897282 1462373 L 7877562 1466565"/><path class="fil0 str2" d=" M 7876970 1505335 L 7869111 1468361 M 7876970 1505335 L 7849392 1472553 M 7857251 1509527 L 7849392 1472553"/>
  <path class="fil0 str2" d=" M 12702244 8079186 L 12706845 8078323 L 12710784 8073640 L 12714064 8065136 L 12715187 8059854 L 12715650 8050751 L 12713956 8044871 L 12710104 8042212 L 12707287 8041613 L 12702687 8042476 L 12698747 8047159 L 12695467 8055663 L 12694345 8060945 L 12693883 8070047 L 12695577 8075928 L 12699428 8078587 L 12702244 8079186 M 12715650 8050751 L 12693883 8070047"/><path class="fil0 str2" d=" M 12697515 8032175 L 12725687 8038163"/><path class="fil0 str2" d=" M 12674074 8073198 L 12678674 8072335 L 12682614 8067652 L 12685893 8059148 L 12687016 8053866 L 12687479 8044764 L 12685784 8038883 L 12681933 8036224 L 12679116 8035625 L 12674516 8036488 L 12670577 8041171 L 12667297 8049675 L 12666174 8054957 L 12665711 8064060 L 12667406 8069940 L 12671257 8072599 L 12674074 8073198 M 12687479 8044764 L 12665711 8064060"/><path class="fil0 str2" d=" M 12654355 8069006 L 12662214 8032033 M 12654355 8069006 L 12641678 8066312 L 12637827 8063653 L 12636793 8061593 L 12636132 8057772 L 12637255 8052490 L 12639412 8049268 L 12641195 8047807 L 12645794 8046945 L 12658471 8049639"/>
  </g>
</svg>
