<?xml version="1.0" encoding="UTF-8"?>
<!DOCTYPE svg PUBLIC "-//W3C//DTD SVG 1.1//EN" "http://www.w3.org/Graphics/SVG/1.1/DTD/svg11.dtd">
<svg xmlns="http://www.w3.org/2000/svg"
     xmlns:xlink="http://www.w3.org/1999/xlink"
     version="1.1" baseProfile="full"
     width="304.8mm" height="177.8mm"
     viewBox="0 0 3048000 1778000">
  <defs>
    <style type="text/css">
      <![CDATA[
        .str0 {stroke:red; stroke-width:1}
        .str1 {stroke:green; stroke-width:1}
        .str2 {stroke:black; stroke-width:1}
        .fil0 {fill:none}
        .fil1 {fill:black}
        .fil2 {fill:green}
        .fnt0 {text-anchor:'middle'; dominant-baseline:'central'; font-weight:normal; font-size:3pt; font-family:'Arial'; text-decoration:underline;}
      ]]>
    </style>
  </defs>
  <g id="Layer_x0020_1">
    <metadata id="CorelCorpID_0Corel-Layer"/>
    <rect class="str1" x="0" y="0" width="3.048e+06" height="1.778e+06" />
    <circle class="fil0 str1" cx="0" cy="0" r="50000" />
    <circle class="fil0 str1" cx="0" cy="0" r="50000" />
    <circle class="fil0 str1" cx="0" cy="0" r="50000" />
    <circle class="fil0 str1" cx="0" cy="0" r="50000" />
    <circle class="fil0 str1" cx="0" cy="0" r="50000" />
    <circle class="fil0 str1" cx="0" cy="0" r="50000" />
    <circle class="fil0 str1" cx="0" cy="0" r="50000" />
    <circle class="fil0 str1" cx="0" cy="0" r="50000" />
    <circle class="fil0 str1" cx="0" cy="0" r="50000" />
  </g>
  <g id="Layer_x0020_2">
    <metadata id="CorelCorpID_1Corel-Layer"/>
    <path class="fil0 str0" d="M 2835096 13890377 C 2989605 13414849, 3144113 12939320, 3298622 12463792 C 3774150 12618301, 4249678 12772809, 4725207 12927317 C 4570698 13402846, 4416190 13878374, 4261681 14353902 C 3786153 14199394, 3310625 14044885, 2835096 13890377" />
    <path class="fil0 str0" d="M 1993770 13264870 C 1504696 13368826, 1015622 13472782, 526548 13576738 C 422593 13087664, 318637 12598590, 214681 12109516 C 703755 12005560, 1192828 11901604, 1681902 11797649 C 1785858 12286722, 1889814 12775796, 1993770 13264870" />
    <path class="fil0 str0" d="M 1363124 27673982 C 958615 27380090, 554106 27086197, 149598 26792304 C 443491 26387796, 737383 25983287, 1031276 25578779 C 1435784 25872671, 1840293 26166564, 2244801 26460457 C 1950909 26864965, 1657016 27269474, 1363124 27673982" />
    <path class="fil0 str0" d="M 3328451 14890936 C 2923942 15184829, 2519434 15478722, 2114925 15772614 C 1821033 15368106, 1527140 14963598, 1233247 14559089 C 1637756 14265196, 2042264 13971304, 2446773 13677411 C 2740665 14081920, 3034558 14486428, 3328451 14890936" />
    <path class="fil0 str0" d="M 2029473 31111985 C 2486246 31315353, 2943019 31518722, 3399791 31722090 C 3196423 32178863, 2993055 32635635, 2789687 33092408 C 2332914 32889040, 1876141 32685672, 1419368 32482303 C 1622737 32025531, 1826105 31568758, 2029473 31111985" />
    <path class="fil0 str0" d="M 1846560 23678842 C 1794296 24176103, 1742032 24673364, 1689768 25170625 C 1192507 25118361, 695246 25066097, 197985 25013832 C 250249 24516571, 302513 24019310, 354778 23522050 C 852039 23574314, 1349300 23626578, 1846560 23678842" />
    <path class="fil0 str0" d="M 4126661 27810806 C 4281170 27335278, 4435678 26859750, 4590187 26384222 C 5065715 26538730, 5541243 26693239, 6016772 26847747 C 5862263 27323275, 5707755 27798804, 5553246 28274332 C 5077718 28119823, 4602190 27965315, 4126661 27810806" />
    <path class="fil0 str0" d="M 5075840 25361596 C 4586766 25257641, 4097692 25153685, 3608618 25049729 C 3712574 24560655, 3816530 24071581, 3920486 23582508 C 4409559 23686463, 4898633 23790419, 5387707 23894375 C 5283751 24383449, 5179795 24872523, 5075840 25361596" />
    <path class="fil0 str0" d="M 1663193 35580338 C 1258684 35286445, 854176 34992553, 449667 34698660 C 743560 34294151, 1037453 33889643, 1331345 33485134 C 1735854 33779027, 2140362 34072920, 2544871 34366812 C 2250978 34771321, 1957085 35175829, 1663193 35580338" />
    <path class="fil0 str0" d="M 11152975 14855521 C 10663901 14751565, 10174827 14647609, 9685753 14543653 C 9789709 14054579, 9893665 13565506, 9997621 13076432 C 10486694 13180388, 10975768 13284343, 11464842 13388299 C 11360886 13877373, 11256930 14366447, 11152975 14855521" />
    <path class="fil0 str0" d="M 15161598 25465101 C 15618371 25668469, 16075143 25871838, 16531916 26075206 C 16328548 26531979, 16125180 26988751, 15921811 27445524 C 15465039 27242156, 15008266 27038788, 14551493 26835419 C 14754861 26378647, 14958230 25921874, 15161598 25465101" />
    <path class="fil0 str0" d="M 12006901 17235060 C 11517827 17131105, 11028753 17027149, 10539680 16923193 C 10643635 16434119, 10747591 15945045, 10851547 15455972 C 11340621 15559927, 11829695 15663883, 12318768 15767839 C 12214813 16256913, 12110857 16745987, 12006901 17235060" />
    <path class="fil0 str0" d="M 360000 7420000 C 860000 7419999, 1360000 7420000, 1860000 7420000 C 1860000 7920000, 1860000 8420000, 1860000 8920000 C 1360000 8920000, 860000 8920000, 360000 8920000 C 360000 8420000, 360000 7920000, 360000 7420000" />
    <path class="fil0 str0" d="M 1246663 29118786 C 1703435 28915418, 2160208 28712050, 2616981 28508681 C 2820349 28965454, 3023717 29422227, 3227086 29879000 C 2770313 30082368, 2313540 30285736, 1856768 30489105 C 1653399 30032332, 1450031 29575559, 1246663 29118786" />
  </g>
  <g id="Layer_x0020_3">
    <metadata id="CorelCorpID_2Corel-Layer"/>
  <path class="fil0 str2" d=" M 3750709 13429562 L 3751086 13434228 L 3755332 13438635 L 3763446 13442786 L 3768582 13444455 L 3777586 13445866 L 3783612 13444796 L 3786659 13441243 L 3787549 13438504 L 3787172 13433840 L 3782926 13429432 L 3774812 13425281 L 3769676 13423613 L 3760671 13422202 L 3754646 13423271 L 3751599 13426823 L 3750709 13429562 M 3777586 13445866 L 3760671 13422202"/><path class="fil0 str2" d=" M 3797956 13429774 L 3789057 13457164"/><path class="fil0 str2" d=" M 3757829 13407651 L 3762723 13392586 L 3773749 13405252 L 3775084 13401145 L 3777686 13398962 L 3779843 13398148 L 3785423 13398447 L 3788847 13399560 L 3793538 13402598 L 3796072 13406450 L 3796448 13411114 L 3795114 13415223 L 3792067 13418775 L 3789910 13419588 L 3786041 13419846"/><path class="fil0 str2" d=" M 3765393 13384368 L 3807573 13376876 M 3771623 13365195 L 3801343 13396049"/>
  <path class="fil0 str2" d=" M 1136887 12702333 L 1140738 12699675 L 1142433 12693793 L 1141970 12684691 L 1140847 12679409 L 1137567 12670905 L 1133628 12666221 L 1129028 12665360 L 1126211 12665958 L 1122359 12668616 L 1120665 12674498 L 1121128 12683601 L 1122250 12688883 L 1125530 12697386 L 1129470 12702070 L 1134070 12702932 L 1136887 12702333 M 1137567 12670905 L 1125530 12697386"/><path class="fil0 str2" d=" M 1113445 12661311 L 1141616 12655323"/><path class="fil0 str2" d=" M 1100265 12710118 L 1114350 12707124 L 1112391 12690979 L 1111356 12693038 L 1107505 12695697 L 1103279 12696595 L 1098680 12695733 L 1095114 12692811 L 1092583 12687828 L 1091834 12684306 L 1092120 12678725 L 1094189 12674605 L 1098040 12671945 L 1102266 12671048 L 1106865 12671910 L 1108648 12673371 L 1110805 12676594"/><path class="fil0 str2" d=" M 1090405 12712213 L 1062827 12679431 M 1070686 12716405 L 1082546 12675239"/>
  <path class="fil0 str2" d=" M 1208386 26661208 L 1212939 26662290 L 1218443 26659614 L 1224898 26653181 L 1228072 26648811 L 1232197 26640683 L 1233041 26634621 L 1230604 26630627 L 1228274 26628935 L 1223721 26627851 L 1218217 26630527 L 1211762 26636962 L 1208588 26641330 L 1204463 26649458 L 1203619 26655520 L 1206056 26659514 L 1208386 26661208 M 1232197 26640683 L 1204463 26649458"/><path class="fil0 str2" d=" M 1223186 26616337 L 1246486 26633266"/><path class="fil0 str2" d=" M 1188581 26646818 L 1210799 26616237 M 1190911 26648510 L 1180426 26640893 L 1177989 26636899 L 1177882 26634597 L 1178833 26630837 L 1180949 26627924 L 1184230 26625859 L 1186453 26625249 L 1191006 26626333 M 1199161 26632255 L 1191006 26626333 L 1188569 26622336 L 1188462 26620034 L 1189413 26616274 L 1192587 26611906 L 1195868 26609841 L 1198091 26609230 L 1202644 26610312 L 1213129 26617932"/><path class="fil0 str2" d=" M 1157126 26623964 L 1183588 26612043 L 1166114 26599345 M 1157126 26623964 L 1179345 26593386"/>
  <path class="fil0 str2" d=" M 2316845 14725560 L 2319282 14721564 L 2318437 14715502 L 2314312 14707375 L 2311138 14703006 L 2304683 14696572 L 2299179 14693896 L 2294626 14694979 L 2292296 14696672 L 2289859 14700667 L 2290704 14706728 L 2294829 14714855 L 2298003 14719224 L 2304458 14725660 L 2309962 14728336 L 2314515 14727252 L 2316845 14725560 M 2304683 14696572 L 2304458 14725660"/><path class="fil0 str2" d=" M 2278744 14697618 L 2302044 14680689"/><path class="fil0 str2" d=" M 2282216 14744044 L 2285497 14746110 L 2290050 14745026 L 2292380 14743334 L 2294817 14739339 L 2293973 14733277 L 2289848 14725150 L 2284558 14717868 L 2279161 14712890 L 2274715 14711671 L 2270162 14712753 L 2268997 14713599 L 2266560 14717595 L 2266346 14722200 L 2268355 14727415 L 2269413 14728872 L 2273752 14732395 L 2278198 14733614 L 2282751 14732531 L 2283916 14731684 L 2286353 14727689 L 2286567 14723083 L 2284558 14717868"/><path class="fil0 str2" d=" M 2278400 14753491 L 2239872 14734760 M 2262090 14765341 L 2256182 14722910"/>
  <path class="fil0 str2" d=" M 2391398 32070458 L 2386719 32070344 L 2381891 32074106 L 2376915 32081743 L 2374719 32086677 L 2372374 32095483 L 2372808 32101589 L 2376023 32104990 L 2378654 32106162 L 2383332 32106274 L 2388160 32102512 L 2393136 32094875 L 2395332 32089943 L 2397678 32081135 L 2397243 32075031 L 2394029 32071628 L 2391398 32070458 M 2372374 32095483 L 2397678 32081135"/><path class="fil0 str2" d=" M 2386250 32117424 L 2359939 32105710"/><path class="fil0 str2" d=" M 2413761 32080415 L 2398386 32114946 M 2411130 32079243 L 2422970 32084514 L 2426184 32087915 L 2426767 32090146 L 2426619 32094020 L 2425154 32097309 L 2422375 32100012 L 2420327 32101071 L 2415648 32100959 M 2406440 32096857 L 2415648 32100959 L 2418863 32104360 L 2419446 32106589 L 2419297 32110463 L 2417101 32115397 L 2414321 32118100 L 2412274 32119160 L 2407595 32119047 L 2395755 32113774"/><path class="fil0 str2" d=" M 2438756 32091542 L 2453226 32097985 L 2439476 32107626 L 2443423 32109384 L 2445322 32112199 L 2445905 32114428 L 2445024 32119948 L 2443560 32123237 L 2440048 32127585 L 2435953 32129702 L 2431274 32129589 L 2427328 32127832 L 2424113 32124431 L 2423530 32122199 L 2423679 32118325"/>
  <path class="fil0 str2" d=" M 1046389 24323532 L 1045050 24319050 L 1039981 24315620 L 1031180 24313247 L 1025810 24312683 L 1016709 24313173 L 1011037 24315473 L 1008796 24319582 L 1008495 24322446 L 1009833 24326931 L 1014903 24330358 L 1023703 24332731 L 1029073 24333298 L 1038174 24332805 L 1043846 24330505 L 1046088 24326398 L 1046389 24323532 M 1016709 24313173 L 1038174 24332805"/><path class="fil0 str2" d=" M 1000130 24333151 L 1003140 24304509"/><path class="fil0 str2" d=" M 1044131 24345014 L 1006538 24341064 M 1044131 24345014 L 1042174 24363632 M 1026229 24343134 L 1025025 24354589 M 1006538 24341064 L 1004581 24359682"/><path class="fil0 str2" d=" M 1040217 24382250 L 1011575 24379240 L 1006355 24377243 L 1004715 24375622 L 1003226 24372570 L 1003527 24369707 L 1005619 24367031 L 1007559 24365786 L 1013080 24364919 L 1016660 24365295"/>
  <path class="fil0 str2" d=" M 5042274 27349992 L 5042651 27354658 L 5046896 27359064 L 5055011 27363215 L 5060147 27364885 L 5069151 27366296 L 5075177 27365227 L 5078224 27361674 L 5079114 27358935 L 5078737 27354270 L 5074491 27349863 L 5066377 27345710 L 5061241 27344042 L 5052236 27342631 L 5046211 27343701 L 5043164 27347253 L 5042274 27349992 M 5069151 27366296 L 5052236 27342631"/><path class="fil0 str2" d=" M 5089521 27350202 L 5080622 27377592"/><path class="fil0 str2" d=" M 5049394 27328081 L 5054288 27313015 L 5065314 27325683 L 5066649 27321574 L 5069251 27319392 L 5071408 27318579 L 5076988 27318876 L 5080412 27319990 L 5085103 27323027 L 5087637 27326879 L 5088013 27331545 L 5086679 27335651 L 5083632 27339204 L 5081475 27340019 L 5077606 27340275"/><path class="fil0 str2" d=" M 5068324 27287294 L 5064010 27288920 L 5060963 27292473 L 5059183 27297951 L 5059560 27302617 L 5062094 27306467 L 5065518 27307580 L 5069387 27307321 L 5071544 27306508 L 5074145 27304326 L 5080239 27297221 L 5082841 27295039 L 5084998 27294226 L 5088867 27293969 L 5094002 27295637 L 5096536 27299489 L 5096913 27304152 L 5095133 27309631 L 5092086 27313183 L 5087773 27314812"/>
  <path class="fil0 str2" d=" M 4522547 24499318 L 4527146 24498457 L 4531086 24493771 L 4534366 24485268 L 4535489 24479987 L 4535951 24470883 L 4534257 24465002 L 4530406 24462343 L 4527589 24461745 L 4522989 24462607 L 4519049 24467292 L 4515769 24475795 L 4514647 24481076 L 4514184 24490180 L 4515878 24496062 L 4519730 24498720 L 4522547 24499318 M 4535951 24470883 L 4514184 24490180"/><path class="fil0 str2" d=" M 4517817 24452307 L 4545988 24458295"/><path class="fil0 str2" d=" M 4483108 24490935 L 4505052 24456955 M 4502827 24495126 L 4483108 24490935"/><path class="fil0 str2" d=" M 4474656 24489140 L 4482516 24452165 M 4474656 24489140 L 4461980 24486445 L 4458128 24483786 L 4457094 24481726 L 4456434 24477905 L 4457557 24472622 L 4459714 24469401 L 4461497 24467939 L 4466096 24467077 L 4478773 24469772"/>
  <path class="fil0 str2" d=" M 1503795 34564177 L 1508348 34565261 L 1513852 34562585 L 1520307 34556149 L 1523481 34551782 L 1527606 34543652 L 1528450 34537592 L 1526013 34533596 L 1523683 34531904 L 1519131 34530820 L 1513627 34533496 L 1507171 34539931 L 1503997 34544299 L 1499872 34552426 L 1499028 34558488 L 1501465 34562485 L 1503795 34564177 M 1527606 34543652 L 1499872 34552426"/><path class="fil0 str2" d=" M 1518596 34519306 L 1541895 34536235"/><path class="fil0 str2" d=" M 1483990 34549787 L 1506209 34519206 M 1486320 34551481 L 1475836 34543862 L 1473399 34539868 L 1473292 34537565 L 1474243 34533806 L 1476359 34530893 L 1479640 34528828 L 1481863 34528217 L 1486416 34529301 M 1494571 34535227 L 1486416 34529301 L 1483979 34525305 L 1483872 34523002 L 1484823 34519243 L 1487997 34514875 L 1491278 34512810 L 1493501 34512199 L 1498054 34513283 L 1508539 34520900"/><path class="fil0 str2" d=" M 1460691 34532861 L 1482909 34502280 M 1463021 34534553 L 1458361 34531166 M 1485239 34503972 L 1480579 34500585"/>
  <path class="fil0 str2" d=" M 10599681 13993240 L 10604282 13992377 L 10608221 13987695 L 10611501 13979190 L 10612624 13973908 L 10613087 13964807 L 10611392 13958925 L 10607541 13956267 L 10604724 13955667 L 10600124 13956530 L 10596184 13961213 L 10592904 13969718 L 10591782 13975000 L 10591319 13984102 L 10593013 13989982 L 10596865 13992641 L 10599681 13993240 M 10613087 13964807 L 10591319 13984102"/><path class="fil0 str2" d=" M 10594952 13946230 L 10623123 13952218"/><path class="fil0 str2" d=" M 10564271 13972832 L 10566802 13967850 L 10570367 13964927 L 10574968 13964064 L 10576376 13964364 L 10580228 13967022 L 10582296 13971143 L 10582581 13976724 L 10582208 13978485 L 10579676 13983468 L 10576110 13986390 L 10571511 13987253 L 10570102 13986953 L 10566251 13984294 L 10564183 13980174 L 10564271 13972832 L 10566142 13964029 L 10569422 13955524 L 10573361 13950842 L 10577961 13949979 L 10580778 13950578 L 10584630 13953237 L 10585290 13957058"/><path class="fil0 str2" d=" M 10551791 13983061 L 10559650 13946087 M 10551791 13983061 L 10539114 13980367 L 10535263 13977708 L 10534229 13975648 L 10533569 13971827 L 10534317 13968305 L 10536474 13965084 L 10538258 13963623 L 10542857 13962760 L 10555534 13965455 M 10545675 13963359 L 10539931 13941895"/>
  <path class="fil0 str2" d=" M 15523521 26423574 L 15518842 26423459 L 15514016 26427221 L 15509039 26434858 L 15506843 26439792 L 15504498 26448598 L 15504932 26454704 L 15508146 26458105 L 15510777 26459277 L 15515456 26459389 L 15520284 26455627 L 15525260 26447990 L 15527456 26443059 L 15529802 26434250 L 15529367 26428146 L 15526152 26424743 L 15523521 26423574 M 15504498 26448598 L 15529802 26434250"/><path class="fil0 str2" d=" M 15518374 26470539 L 15492062 26458825"/><path class="fil0 str2" d=" M 15553916 26450898 L 15550404 26455244 L 15546308 26457363 L 15541629 26457248 L 15540313 26456665 L 15537099 26453261 L 15535932 26448801 L 15536813 26443283 L 15537546 26441638 L 15541058 26437292 L 15545153 26435173 L 15549831 26435288 L 15551147 26435871 L 15554361 26439274 L 15555528 26443735 L 15553916 26450898 L 15550255 26459118 L 15545278 26466755 L 15540451 26470517 L 15535772 26470405 L 15533142 26469233 L 15529926 26465832 L 15530075 26461958"/><path class="fil0 str2" d=" M 15568249 26443486 L 15552874 26478020 M 15568249 26443486 L 15580087 26448757 L 15583303 26452160 L 15583886 26454389 L 15583737 26458264 L 15581540 26463198 L 15578760 26465900 L 15576713 26466958 L 15572034 26466845 L 15560195 26461574"/>
  <path class="fil0 str2" d=" M 11454312 16372932 L 11458913 16372069 L 11462852 16367386 L 11466132 16358881 L 11467254 16353599 L 11467718 16344497 L 11466024 16338616 L 11462171 16335957 L 11459355 16335358 L 11454755 16336221 L 11450815 16340904 L 11447535 16349407 L 11446413 16354689 L 11445950 16363792 L 11447645 16369674 L 11451496 16372332 L 11454312 16372932 M 11467718 16344497 L 11445950 16363792"/><path class="fil0 str2" d=" M 11449583 16325921 L 11477753 16331909"/><path class="fil0 str2" d=" M 11418902 16352523 L 11421433 16347540 L 11424998 16344617 L 11429599 16343756 L 11431007 16344055 L 11434858 16346713 L 11436927 16350833 L 11437213 16356416 L 11436839 16358176 L 11434307 16363159 L 11430742 16366081 L 11426142 16366943 L 11424733 16366644 L 11420882 16363985 L 11418813 16359865 L 11418902 16352523 L 11420773 16343719 L 11424053 16335216 L 11427993 16330533 L 11432592 16329670 L 11435410 16330268 L 11439261 16332928 L 11439921 16336749"/><path class="fil0 str2" d=" M 11399379 16361254 L 11402572 16360093 L 11406137 16357170 L 11408294 16353948 L 11410825 16348966 L 11412696 16340163 L 11412410 16334581 L 11411750 16330760 L 11409682 16326640 L 11407239 16324281 L 11401605 16323083 L 11398414 16324245 L 11394848 16327167 L 11392691 16330390 L 11390159 16335372 L 11388288 16344176 L 11388574 16349757 L 11389234 16353577 L 11391303 16357697 L 11393746 16360057 L 11399379 16361254 M 11401517 16330426 L 11395311 16318065"/>
  <path class="fil0 str2" d=" M 1079759 8148400 L 1075439 8150200 L 1072559 8155599 L 1071119 8164600 L 1071119 8170000 L 1072559 8179000 L 1075439 8184400 L 1079759 8186199 L 1082639 8186199 L 1086959 8184400 L 1089840 8179000 L 1091279 8170000 L 1091279 8164600 L 1089840 8155599 L 1086959 8150200 L 1082639 8148400 L 1079759 8148400 M 1072559 8179000 L 1089840 8155599"/><path class="fil0 str2" d=" M 1094160 8193400 L 1065360 8193400"/><path class="fil0 str2" d=" M 1104240 8148400 L 1104240 8186199 M 1101360 8148400 L 1111439 8148400 L 1115759 8150200 L 1118639 8153800 L 1120080 8157399 L 1121520 8162800 L 1121520 8171799 L 1120080 8177199 L 1118639 8180800 L 1115759 8184400 L 1111439 8186199 L 1101360 8186199"/><path class="fil0 str2" d=" M 1150319 8157399 L 1148880 8153800 L 1145999 8150200 L 1143119 8148400 L 1137360 8148400 L 1134479 8150200 L 1131600 8153800 L 1130159 8157399 L 1128720 8162800 L 1128720 8171799 L 1130159 8177199 L 1131600 8180800 L 1134479 8184400 L 1137360 8186199 L 1143119 8186199 L 1145999 8184400 L 1148880 8180800 L 1150319 8177199 L 1150319 8171799 M 1143119 8171799 L 1150319 8171799"/>
  <path class="fil0 str2" d=" M 2201779 29490876 L 2198564 29494277 L 2198130 29500380 L 2200475 29509189 L 2202671 29514121 L 2207647 29521757 L 2212475 29525520 L 2217153 29525407 L 2219784 29524235 L 2222999 29520834 L 2223433 29514729 L 2221088 29505922 L 2218892 29500988 L 2213916 29493352 L 2209088 29489592 L 2204410 29489704 L 2201779 29490876 M 2207647 29521757 L 2213916 29493352"/><path class="fil0 str2" d=" M 2233237 29526127 L 2206927 29537841"/><path class="fil0 str2" d=" M 2221511 29482089 L 2236886 29516621 M 2221511 29482089 L 2238613 29474475 M 2228832 29498532 L 2239356 29493847 M 2236886 29516621 L 2253987 29509008"/><path class="fil0 str2" d=" M 2247821 29470375 L 2263196 29504907 M 2245190 29471547 L 2257030 29466276 L 2261708 29466162 L 2263756 29467221 L 2266536 29469924 L 2268000 29473212 L 2268149 29477087 L 2267565 29479318 L 2264351 29482719 M 2255142 29486818 L 2264351 29482719 L 2269030 29482607 L 2271077 29483666 L 2273857 29486369 L 2276053 29491301 L 2276202 29495175 L 2275619 29497407 L 2272404 29500808 L 2260565 29506079"/>
  </g>
</svg>
